<svg id="Layer_1" data-name="Layer 1" xmlns="http://www.w3.org/2000/svg" viewBox="0 0 326.47 34.2"><defs><style>.cls-1{fill:#fff;}</style></defs><title>footer</title><path class="cls-1" d="M9167.13,8500.49l-2.45-3.52h-1.92v3.52h-2v-10.66h4.37c2.48,0,3.39,1,3.39,2.88v1.39a2.43,2.43,0,0,1-1.6,2.58l2.64,3.81h-2.42Zm-2.1-8.88h-2.27v3.62H9165c1.1,0,1.46-.4,1.46-1.3v-1.06C9166.49,8492,9166.11,8491.61,9165,8491.61Z" transform="translate(-9160.75 -8489.19)"/><path class="cls-1" d="M9174,8499.05a8.18,8.18,0,0,0,2.38-.37l0.3,1.47a8.38,8.38,0,0,1-2.87.5c-2.45,0-3.3-1.14-3.3-3v-2.06c0-1.65.74-3,3.23-3s3.06,1.46,3.06,3.14v1.67h-4.34v0.4C9172.51,8498.68,9172.84,8499.05,9174,8499.05Zm-1.52-3.28H9175v-0.38a1,1,0,0,0-1.19-1.25,1.12,1.12,0,0,0-1.3,1.25v0.38Z" transform="translate(-9160.75 -8489.19)"/><path class="cls-1" d="M9178.28,8495.69c0-1.89.58-3.15,3.59-3.15a17.73,17.73,0,0,1,3,.27v10.84l-2,.27v-3.73a6.42,6.42,0,0,1-2.3.46c-1.68,0-2.35-1-2.35-2.67v-2.29Zm4.66-1.42a8.88,8.88,0,0,0-1.17-.06c-1.28,0-1.54.51-1.54,1.42v2.4a0.85,0.85,0,0,0,1,1,4.52,4.52,0,0,0,1.71-.45v-4.27Z" transform="translate(-9160.75 -8489.19)"/><path class="cls-1" d="M9188.92,8492.7v5.44a0.54,0.54,0,0,0,.63.62,5.39,5.39,0,0,0,2-.66v-5.41h2v7.79H9192l-0.19-.66a7.81,7.81,0,0,1-3.12.82c-1.3,0-1.76-.91-1.76-2.3v-5.65h2Z" transform="translate(-9160.75 -8489.19)"/><path class="cls-1" d="M9198.89,8499.05a8.18,8.18,0,0,0,2.38-.37l0.3,1.47a8.38,8.38,0,0,1-2.87.5c-2.45,0-3.3-1.14-3.3-3v-2.06c0-1.65.74-3,3.23-3s3.06,1.46,3.06,3.14v1.67h-4.34v0.4C9197.37,8498.68,9197.71,8499.05,9198.89,8499.05Zm-1.52-3.28h2.48v-0.38a1,1,0,0,0-1.19-1.25,1.12,1.12,0,0,0-1.3,1.25v0.38Z" transform="translate(-9160.75 -8489.19)"/><path class="cls-1" d="M9205.88,8500.65a9.18,9.18,0,0,1-2.69-.45l0.27-1.49a8.75,8.75,0,0,0,2.32.34c0.87,0,1-.19,1-0.78s-0.1-.72-1.36-1c-1.9-.46-2.13-0.94-2.13-2.45s0.69-2.26,2.91-2.26a10.28,10.28,0,0,1,2.34.27l-0.19,1.55a13.79,13.79,0,0,0-2.14-.22c-0.85,0-1,.19-1,0.67s0,0.67,1.11.94c2.18,0.58,2.38.86,2.38,2.47S9208.23,8500.65,9205.88,8500.65Z" transform="translate(-9160.75 -8489.19)"/><path class="cls-1" d="M9214.76,8500.35a5.41,5.41,0,0,1-1.71.3,1.86,1.86,0,0,1-2.15-2.06v-4.34h-1.17v-1.55h1.17v-1.94l2-.27v2.21h2l-0.13,1.55h-1.87v4.08a0.62,0.62,0,0,0,.71.69,3.78,3.78,0,0,0,1-.16Z" transform="translate(-9160.75 -8489.19)"/><path class="cls-1" d="M9223.69,8500.49l-1,3.15h-1.86l1-3.15h-0.69l-2.46-7.79h2l1.78,5.92,1.79-5.92h2Z" transform="translate(-9160.75 -8489.19)"/><path class="cls-1" d="M9230.35,8500.65c-2.67,0-3.39-1.47-3.39-3.07v-2c0-1.6.72-3.07,3.39-3.07s3.39,1.47,3.39,3.07v2C9233.74,8499.18,9233,8500.65,9230.35,8500.65Zm0-6.45a1.21,1.21,0,0,0-1.44,1.34v2.1a1.44,1.44,0,0,0,2.88,0v-2.1A1.21,1.21,0,0,0,9230.35,8494.2Z" transform="translate(-9160.75 -8489.19)"/><path class="cls-1" d="M9237.5,8492.7v5.44a0.54,0.54,0,0,0,.62.62,5.38,5.38,0,0,0,2-.66v-5.41h2v7.79h-1.49l-0.19-.66a7.81,7.81,0,0,1-3.12.82c-1.29,0-1.76-.91-1.76-2.3v-5.65h2Z" transform="translate(-9160.75 -8489.19)"/><path class="cls-1" d="M9248.36,8494.33a15.32,15.32,0,0,0-2.06,1.14v5h-2v-7.79H9246l0.13,0.86a8.75,8.75,0,0,1,2-1Z" transform="translate(-9160.75 -8489.19)"/><path class="cls-1" d="M9257.52,8490.92a5.74,5.74,0,0,0-1.12-.13,0.75,0.75,0,0,0-.88.93v1h2l-0.11,1.55h-1.87v6.24h-2v-6.24h-1.25v-1.55h1.25v-1.09c0-1.62.75-2.42,2.48-2.42a6.16,6.16,0,0,1,1.68.22Z" transform="translate(-9160.75 -8489.19)"/><path class="cls-1" d="M9262.86,8494.33a15.32,15.32,0,0,0-2.06,1.14v5h-2v-7.79h1.65l0.13,0.86a8.75,8.75,0,0,1,2-1Z" transform="translate(-9160.75 -8489.19)"/><path class="cls-1" d="M9267.29,8499.05a8.19,8.19,0,0,0,2.38-.37l0.3,1.47a8.36,8.36,0,0,1-2.87.5c-2.45,0-3.3-1.14-3.3-3v-2.06c0-1.65.74-3,3.23-3s3.06,1.46,3.06,3.14v1.67h-4.34v0.4C9265.77,8498.68,9266.11,8499.05,9267.29,8499.05Zm-1.52-3.28h2.48v-0.38a1,1,0,0,0-1.18-1.25,1.12,1.12,0,0,0-1.3,1.25v0.38Z" transform="translate(-9160.75 -8489.19)"/><path class="cls-1" d="M9275,8499.05a8.18,8.18,0,0,0,2.38-.37l0.3,1.47a8.38,8.38,0,0,1-2.87.5c-2.45,0-3.3-1.14-3.3-3v-2.06c0-1.65.74-3,3.23-3s3.06,1.46,3.06,3.14v1.67h-4.34v0.4C9273.46,8498.68,9273.8,8499.05,9275,8499.05Zm-1.52-3.28h2.48v-0.38a1,1,0,0,0-1.19-1.25,1.12,1.12,0,0,0-1.3,1.25v0.38Z" transform="translate(-9160.75 -8489.19)"/><path class="cls-1" d="M9282.6,8495.29c0-1.73.77-2.75,2.58-2.75a10.79,10.79,0,0,1,2.08.22v-3.25l2-.27v11.25h-1.55l-0.19-.66a4.1,4.1,0,0,1-2.46.82c-1.57,0-2.4-.93-2.4-2.71v-2.66Zm4.66-.88a8.63,8.63,0,0,0-1.73-.21,0.87,0.87,0,0,0-1,1V8498a0.84,0.84,0,0,0,1,1,2.77,2.77,0,0,0,1.74-.7v-3.87Z" transform="translate(-9160.75 -8489.19)"/><path class="cls-1" d="M9294.57,8499.05a8.18,8.18,0,0,0,2.38-.37l0.3,1.47a8.38,8.38,0,0,1-2.87.5c-2.45,0-3.3-1.14-3.3-3v-2.06c0-1.65.74-3,3.23-3s3.06,1.46,3.06,3.14v1.67H9293v0.4C9293,8498.68,9293.38,8499.05,9294.57,8499.05Zm-1.52-3.28h2.48v-0.38a1,1,0,0,0-1.19-1.25,1.12,1.12,0,0,0-1.3,1.25v0.38Z" transform="translate(-9160.75 -8489.19)"/><path class="cls-1" d="M9303.75,8500.49v-5.44a0.54,0.54,0,0,0-.62-0.62,5.38,5.38,0,0,0-2,.66v5.41h-2v-7.79h1.49l0.19,0.66a7.81,7.81,0,0,1,3.12-.82,1.48,1.48,0,0,1,1.47.83,7.65,7.65,0,0,1,3.14-.83c1.3,0,1.76.91,1.76,2.3v5.65h-2v-5.44a0.54,0.54,0,0,0-.62-0.62,5.15,5.15,0,0,0-2,.66v5.41h-2Z" transform="translate(-9160.75 -8489.19)"/><path class="cls-1" d="M9315.51,8500.65c-2.67,0-3.39-1.47-3.39-3.07v-2c0-1.6.72-3.07,3.39-3.07s3.39,1.47,3.39,3.07v2C9318.9,8499.18,9318.19,8500.65,9315.51,8500.65Zm0-6.45a1.21,1.21,0,0,0-1.44,1.34v2.1a1.44,1.44,0,0,0,2.88,0v-2.1A1.21,1.21,0,0,0,9315.51,8494.2Z" transform="translate(-9160.75 -8489.19)"/><path class="cls-1" d="M9328.3,8500.35a5.41,5.41,0,0,1-1.71.3,1.86,1.86,0,0,1-2.15-2.06v-4.34h-1.17v-1.55h1.17v-1.94l2-.27v2.21h2l-0.13,1.55h-1.87v4.08a0.62,0.62,0,0,0,.71.69,3.78,3.78,0,0,0,1-.16Z" transform="translate(-9160.75 -8489.19)"/><path class="cls-1" d="M9332.87,8500.65c-2.67,0-3.39-1.47-3.39-3.07v-2c0-1.6.72-3.07,3.39-3.07s3.39,1.47,3.39,3.07v2C9336.26,8499.18,9335.54,8500.65,9332.87,8500.65Zm0-6.45a1.21,1.21,0,0,0-1.44,1.34v2.1a1.44,1.44,0,0,0,2.88,0v-2.1A1.21,1.21,0,0,0,9332.87,8494.2Z" transform="translate(-9160.75 -8489.19)"/><path class="cls-1" d="M9337.83,8495.29c0-1.73.77-2.75,2.58-2.75a10.79,10.79,0,0,1,2.08.22v-3.25l2-.27v11.25h-1.55l-0.19-.66a4.1,4.1,0,0,1-2.46.82c-1.57,0-2.4-.93-2.4-2.71v-2.66Zm4.66-.88a8.63,8.63,0,0,0-1.73-.21,0.87,0.87,0,0,0-1,1V8498a0.84,0.84,0,0,0,1,1,2.77,2.77,0,0,0,1.74-.7v-3.87Z" transform="translate(-9160.75 -8489.19)"/><path class="cls-1" d="M9352.46,8500.49h-1.6l-0.14-.53a4.26,4.26,0,0,1-2.32.69c-1.43,0-2-1-2-2.32,0-1.58.69-2.19,2.27-2.19h1.87v-0.82c0-.86-0.24-1.17-1.49-1.17a10.93,10.93,0,0,0-2.16.24l-0.24-1.49a10.15,10.15,0,0,1,2.67-.37c2.45,0,3.17.86,3.17,2.82v5.14Zm-2-2.95h-1.44c-0.64,0-.82.18-0.82,0.77a0.66,0.66,0,0,0,.79.78,3.08,3.08,0,0,0,1.47-.4v-1.15Z" transform="translate(-9160.75 -8489.19)"/><path class="cls-1" d="M9358.57,8500.49l-1,3.15h-1.86l1-3.15H9356l-2.46-7.79h2l1.78,5.92,1.79-5.92h2Z" transform="translate(-9160.75 -8489.19)"/><path class="cls-1" d="M9369.69,8500.35a5.41,5.41,0,0,1-1.71.3,1.86,1.86,0,0,1-2.15-2.06v-4.34h-1.17v-1.55h1.17v-1.94l2-.27v2.21h2l-0.13,1.55h-1.87v4.08a0.62,0.62,0,0,0,.71.69,3.78,3.78,0,0,0,1-.16Z" transform="translate(-9160.75 -8489.19)"/><path class="cls-1" d="M9374.26,8500.65c-2.67,0-3.39-1.47-3.39-3.07v-2c0-1.6.72-3.07,3.39-3.07s3.39,1.47,3.39,3.07v2C9377.65,8499.18,9376.94,8500.65,9374.26,8500.65Zm0-6.45a1.21,1.21,0,0,0-1.44,1.34v2.1a1.44,1.44,0,0,0,2.88,0v-2.1A1.21,1.21,0,0,0,9374.26,8494.2Z" transform="translate(-9160.75 -8489.19)"/><path class="cls-1" d="M9385.32,8500.65a9.18,9.18,0,0,1-2.69-.45l0.27-1.49a8.75,8.75,0,0,0,2.32.34c0.87,0,1-.19,1-0.78s-0.1-.72-1.36-1c-1.9-.46-2.13-0.94-2.13-2.45s0.69-2.26,2.91-2.26a10.28,10.28,0,0,1,2.34.27l-0.19,1.55a13.79,13.79,0,0,0-2.14-.22c-0.85,0-1,.19-1,0.67s0,0.67,1.11.94c2.18,0.58,2.38.86,2.38,2.47S9387.67,8500.65,9385.32,8500.65Z" transform="translate(-9160.75 -8489.19)"/><path class="cls-1" d="M9393.17,8499.05a8.18,8.18,0,0,0,2.38-.37l0.3,1.47a8.38,8.38,0,0,1-2.87.5c-2.45,0-3.3-1.14-3.3-3v-2.06c0-1.65.74-3,3.23-3s3.06,1.46,3.06,3.14v1.67h-4.34v0.4C9391.65,8498.68,9392,8499.05,9393.17,8499.05Zm-1.52-3.28h2.48v-0.38a1,1,0,0,0-1.19-1.25,1.12,1.12,0,0,0-1.3,1.25v0.38Z" transform="translate(-9160.75 -8489.19)"/><path class="cls-1" d="M9400.87,8499.05a8.18,8.18,0,0,0,2.38-.37l0.3,1.47a8.38,8.38,0,0,1-2.87.5c-2.45,0-3.3-1.14-3.3-3v-2.06c0-1.65.74-3,3.23-3s3.06,1.46,3.06,3.14v1.67h-4.34v0.4C9399.35,8498.68,9399.69,8499.05,9400.87,8499.05Zm-1.52-3.28h2.48v-0.38a1,1,0,0,0-1.19-1.25,1.12,1.12,0,0,0-1.3,1.25v0.38Z" transform="translate(-9160.75 -8489.19)"/><path class="cls-1" d="M9413.29,8490.92a5.74,5.74,0,0,0-1.12-.13,0.75,0.75,0,0,0-.88.93v1h2l-0.11,1.55h-1.87v6.24h-2v-6.24h-1.25v-1.55h1.25v-1.09c0-1.62.75-2.42,2.48-2.42a6.16,6.16,0,0,1,1.68.22Z" transform="translate(-9160.75 -8489.19)"/><path class="cls-1" d="M9417.52,8500.65c-2.67,0-3.39-1.47-3.39-3.07v-2c0-1.6.72-3.07,3.39-3.07s3.39,1.47,3.39,3.07v2C9420.92,8499.18,9420.2,8500.65,9417.52,8500.65Zm0-6.45a1.21,1.21,0,0,0-1.44,1.34v2.1a1.44,1.44,0,0,0,2.88,0v-2.1A1.21,1.21,0,0,0,9417.52,8494.2Z" transform="translate(-9160.75 -8489.19)"/><path class="cls-1" d="M9426.82,8494.33a15.32,15.32,0,0,0-2.06,1.14v5h-2v-7.79h1.65l0.13,0.86a8.75,8.75,0,0,1,2-1Z" transform="translate(-9160.75 -8489.19)"/><path class="cls-1" d="M9435.52,8500.49l-1,3.15h-1.86l1-3.15h-0.69l-2.46-7.79h2l1.78,5.92,1.79-5.92h2Z" transform="translate(-9160.75 -8489.19)"/><path class="cls-1" d="M9442.18,8500.65c-2.67,0-3.39-1.47-3.39-3.07v-2c0-1.6.72-3.07,3.39-3.07s3.39,1.47,3.39,3.07v2C9445.57,8499.18,9444.85,8500.65,9442.18,8500.65Zm0-6.45a1.21,1.21,0,0,0-1.44,1.34v2.1a1.44,1.44,0,0,0,2.88,0v-2.1A1.21,1.21,0,0,0,9442.18,8494.2Z" transform="translate(-9160.75 -8489.19)"/><path class="cls-1" d="M9449.33,8492.7v5.44a0.54,0.54,0,0,0,.63.62,5.39,5.39,0,0,0,2-.66v-5.41h2v7.79h-1.49l-0.19-.66a7.81,7.81,0,0,1-3.12.82c-1.3,0-1.76-.91-1.76-2.3v-5.65h2Z" transform="translate(-9160.75 -8489.19)"/><path class="cls-1" d="M9460.2,8494.33a15.2,15.2,0,0,0-2.06,1.14v5h-2v-7.79h1.65l0.13,0.86a8.71,8.71,0,0,1,2-1Z" transform="translate(-9160.75 -8489.19)"/><path class="cls-1" d="M9463.92,8500.65a9.18,9.18,0,0,1-2.69-.45l0.27-1.49a8.75,8.75,0,0,0,2.32.34c0.87,0,1-.19,1-0.78s-0.1-.72-1.36-1c-1.9-.46-2.13-0.94-2.13-2.45s0.69-2.26,2.91-2.26a10.28,10.28,0,0,1,2.34.27l-0.19,1.55a13.79,13.79,0,0,0-2.14-.22c-0.85,0-1,.19-1,0.67s0,0.67,1.11.94c2.18,0.58,2.38.86,2.38,2.47S9466.28,8500.65,9463.92,8500.65Z" transform="translate(-9160.75 -8489.19)"/><path class="cls-1" d="M9471.78,8499.05a8.19,8.19,0,0,0,2.38-.37l0.3,1.47a8.36,8.36,0,0,1-2.87.5c-2.45,0-3.3-1.14-3.3-3v-2.06c0-1.65.74-3,3.23-3s3.06,1.46,3.06,3.14v1.67h-4.34v0.4C9470.26,8498.68,9470.59,8499.05,9471.78,8499.05Zm-1.52-3.28h2.48v-0.38a1,1,0,0,0-1.18-1.25,1.12,1.12,0,0,0-1.3,1.25v0.38Z" transform="translate(-9160.75 -8489.19)"/><path class="cls-1" d="M9476.35,8500.49v-11l2-.27v11.25h-2Z" transform="translate(-9160.75 -8489.19)"/><path class="cls-1" d="M9485,8490.92a5.72,5.72,0,0,0-1.12-.13,0.74,0.74,0,0,0-.88.93v1h2l-0.11,1.55H9483v6.24h-2v-6.24h-1.25v-1.55h1.25v-1.09c0-1.62.75-2.42,2.48-2.42a6.18,6.18,0,0,1,1.68.22Z" transform="translate(-9160.75 -8489.19)"/><path class="cls-1" d="M9485.23,8498.25h2v2.24h-2v-2.24Z" transform="translate(-9160.75 -8489.19)"/><path class="cls-1" d="M9279.83,8513.62l1.28,6.4,1.58-3.91a3.54,3.54,0,0,0,.24-1.39,4.49,4.49,0,0,0-.11-1l0.74-.11a6.69,6.69,0,0,1,.1,1.06,4.32,4.32,0,0,1-.27,1.57l-1.72,4.24h-1.21l-0.84-4.3-2.32,4.3h-1.19a29.71,29.71,0,0,0-.67-6.77l0.73-.11a31.53,31.53,0,0,1,.62,6.4l2.65-4.86-0.27-1.43Z" transform="translate(-9160.75 -8489.19)"/><path class="cls-1" d="M9284.53,8518.73a3.08,3.08,0,0,1,.06-0.62L9285,8516a2.72,2.72,0,0,1,3.07-2.51c1.51,0,2.27.78,2.27,1.92a3.3,3.3,0,0,1-.06.52l-0.39,2.23c-0.27,1.51-1.11,2.44-3.07,2.44C9285.16,8520.63,9284.53,8519.82,9284.53,8518.73Zm4.92-2.76a2.93,2.93,0,0,0,0-.48c0-.84-0.49-1.26-1.6-1.26a2,2,0,0,0-2.16,1.81l-0.38,2.14a3.6,3.6,0,0,0,0,.52c0,0.8.43,1.23,1.58,1.23a1.94,1.94,0,0,0,2.16-1.75Z" transform="translate(-9160.75 -8489.19)"/><path class="cls-1" d="M9295.29,8514.3c-0.74.43-1.46,0.9-2.19,1.37l-0.84,4.82h-0.79l1.18-6.77,0.73-.11-0.17,1.21a15.54,15.54,0,0,1,2-1.29Z" transform="translate(-9160.75 -8489.19)"/><path class="cls-1" d="M9297.37,8510.88l0.8-.11-1.71,9.72h-0.78Zm0.14,6.15,3.12-3.46,0.76,0.28-3,3.21,2,3.43h-0.87Z" transform="translate(-9160.75 -8489.19)"/><path class="cls-1" d="M9302.28,8519.29h0.84l-0.21,1.21h-0.84Z" transform="translate(-9160.75 -8489.19)"/><path class="cls-1" d="M9305.15,8520.28l0.17-.64a6.45,6.45,0,0,0,1.81.29c1.15,0,1.43-.15,1.58-1.12,0.11-.7-0.1-0.87-1.26-1.49-1.32-.7-1.71-1.06-1.54-2.16s0.64-1.64,2.37-1.64a6.85,6.85,0,0,1,1.89.28l-0.14.66a8.2,8.2,0,0,0-1.79-.24c-1.15,0-1.39.17-1.54,1s0.11,0.94,1.08,1.47c1.61,0.88,1.88,1.16,1.69,2.23s-0.59,1.69-2.37,1.69A5.53,5.53,0,0,1,9305.15,8520.28Z" transform="translate(-9160.75 -8489.19)"/><path class="cls-1" d="M9311.75,8519.72a2,2,0,0,1,0-.27l0.9-5.11h-1.3l0.11-.67h1.32l0.29-1.67,0.8-.11-0.31,1.78h2l-0.15.67h-2l-0.88,5a2,2,0,0,0,0,.25c0,0.27.14,0.34,0.46,0.34a3.71,3.71,0,0,0,1.36-.32l0.2,0.53a3.46,3.46,0,0,1-1.69.46A0.93,0.93,0,0,1,9311.75,8519.72Z" transform="translate(-9160.75 -8489.19)"/><path class="cls-1" d="M9315.6,8523.36l-0.21-.6a4.27,4.27,0,0,0,2.51-2.27h-0.39l-1.12-6.77,0.76-.11,1,6.36,2.17-4.3a2.37,2.37,0,0,0,.31-1.09,2.89,2.89,0,0,0-.17-0.85l0.8-.11a3.56,3.56,0,0,1,.14.94,2.71,2.71,0,0,1-.25,1.15l-2.46,4.79A5.17,5.17,0,0,1,9315.6,8523.36Z" transform="translate(-9160.75 -8489.19)"/><path class="cls-1" d="M9323.69,8510.88l0.8-.11-1.71,9.72H9322Z" transform="translate(-9160.75 -8489.19)"/><path class="cls-1" d="M9326,8518.71a3.57,3.57,0,0,0,0,.36c0,0.57.22,0.87,1.18,0.87a5.77,5.77,0,0,0,2.41-.66l0.2,0.6a6,6,0,0,1-2.7.74c-1.28,0-1.86-.5-1.86-1.54a3.83,3.83,0,0,1,.07-0.67l0.41-2.3a2.7,2.7,0,0,1,3-2.59,1.56,1.56,0,0,1,1.81,1.58c0,1.09-.73,1.68-2.59,2.2l-1.67.46Zm3.67-3.61a0.91,0.91,0,0,0-1.12-.9c-1.22,0-1.86.63-2.1,2l-0.15.87,1.58-.42C9329.14,8516.29,9329.66,8515.83,9329.66,8515.1Z" transform="translate(-9160.75 -8489.19)"/><path class="cls-1" d="M9331,8522.13l5.41-11.11h0.83l-5.42,11.11H9331Z" transform="translate(-9160.75 -8489.19)"/><path class="cls-1" d="M9344.72,8514.41l-0.66,2.9H9346l-0.15.66h-1.91l-0.56,2.52h-0.71l0.56-2.52h-2.76l-0.56,2.52h-0.71l0.56-2.52h-1.9l0.15-.66h1.9l0.66-2.9h-1.9l0.15-.66h1.9l0.53-2.31h0.71l-0.53,2.31h2.76l0.53-2.31h0.71l-0.53,2.31h1.91l-0.15.66h-1.91Zm-4.13,2.9h2.76l0.66-2.9h-2.76Z" transform="translate(-9160.75 -8489.19)"/><path class="cls-1" d="M9352,8521.68c-0.24,1.32-.76,1.71-2.21,1.71a8,8,0,0,1-2.7-.6l0.2-.63a7.29,7.29,0,0,0,2.56.53,1.13,1.13,0,0,0,1.4-1.16l0.41-2.28a4.4,4.4,0,0,1-2.75,1.11,1.09,1.09,0,0,1-1.35-1.15,3.43,3.43,0,0,1,0-.5l0.46-2.65c0.31-1.75,1.06-2.52,2.9-2.52a8.19,8.19,0,0,1,2.41.39Zm0.5-7.28a8.36,8.36,0,0,0-1.65-.17c-1.28,0-1.77.46-2,2l-0.43,2.51a2.37,2.37,0,0,0,0,.41c0,0.43.21,0.55,0.63,0.55a4.79,4.79,0,0,0,2.84-1.34Z" transform="translate(-9160.75 -8489.19)"/><path class="cls-1" d="M9355.36,8518.71a3.55,3.55,0,0,0,0,.36c0,0.57.22,0.87,1.18,0.87a5.77,5.77,0,0,0,2.41-.66l0.2,0.6a6,6,0,0,1-2.7.74c-1.27,0-1.86-.5-1.86-1.54a4,4,0,0,1,.07-0.67l0.41-2.3a2.71,2.71,0,0,1,3-2.59,1.56,1.56,0,0,1,1.81,1.58c0,1.09-.73,1.68-2.59,2.2l-1.67.46Zm3.67-3.61a0.91,0.91,0,0,0-1.12-.9c-1.22,0-1.86.63-2.1,2l-0.15.87,1.58-.42C9358.51,8516.29,9359,8515.83,9359,8515.1Z" transform="translate(-9160.75 -8489.19)"/><path class="cls-1" d="M9361.41,8519.72a2,2,0,0,1,0-.27l0.9-5.11H9361l0.11-.67h1.32l0.29-1.67,0.8-.11-0.31,1.78h2l-0.15.67h-2l-0.88,5a2,2,0,0,0,0,.25c0,0.27.14,0.34,0.46,0.34a3.71,3.71,0,0,0,1.36-.32l0.2,0.53a3.46,3.46,0,0,1-1.69.46A0.93,0.93,0,0,1,9361.41,8519.72Z" transform="translate(-9160.75 -8489.19)"/><path class="cls-1" d="M9367,8513.73l0.8-.11-1.21,6.88h-0.79Zm0.49-2.84,0.81-.11-0.28,1.58-0.8.11Z" transform="translate(-9160.75 -8489.19)"/><path class="cls-1" d="M9369.61,8519.72a2,2,0,0,1,0-.27l0.9-5.11h-1.3l0.11-.67h1.32L9371,8512l0.8-.11-0.31,1.78h2l-0.15.67h-2l-0.88,5a1.75,1.75,0,0,0,0,.25c0,0.27.14,0.34,0.46,0.34a3.73,3.73,0,0,0,1.36-.32l0.2,0.53a3.46,3.46,0,0,1-1.7.46A0.93,0.93,0,0,1,9369.61,8519.72Z" transform="translate(-9160.75 -8489.19)"/></svg>