<svg id="Layer_2" data-name="Layer 2" xmlns="http://www.w3.org/2000/svg" viewBox="0 0 350.42 140.93"><defs><style>.cls-1{fill:#fff;}</style></defs><title>section2-text</title><path class="cls-1" d="M9747.13,7913.86h2.81l-4.51,9.93v4.05h-2.64v-4.05l-4.51-9.93h2.81l3,7.05Z" transform="translate(-9738.27 -7913.08)"/><path class="cls-1" d="M9754,7928c-3.51,0-4.45-1.93-4.45-4v-2.58c0-2.1.95-4,4.45-4s4.45,1.93,4.45,4V7924C9758.45,7926.12,9757.5,7928,9754,7928Zm0-8.46c-1.36,0-1.89.61-1.89,1.76v2.75c0,1.16.52,1.76,1.89,1.76s1.89-.61,1.89-1.76v-2.75C9755.89,7920.2,9755.36,7919.59,9754,7919.59Z" transform="translate(-9738.27 -7913.08)"/><path class="cls-1" d="M9763.38,7917.61v7.14a0.71,0.71,0,0,0,.82.82,7.08,7.08,0,0,0,2.67-.86v-7.1h2.56v10.22h-2l-0.25-.86a10.25,10.25,0,0,1-4.09,1.07c-1.7,0-2.31-1.2-2.31-3v-7.41h2.56Z" transform="translate(-9738.27 -7913.08)"/><path class="cls-1" d="M9777.64,7919.76a20,20,0,0,0-2.71,1.49v6.59h-2.56v-10.22h2.16l0.17,1.13a11.43,11.43,0,0,1,2.69-1.34Z" transform="translate(-9738.27 -7913.08)"/><path class="cls-1" d="M9791.67,7924.94h-5.19l-0.88,2.9h-2.77l4.41-14h3.7l4.41,14h-2.77Zm-4.54-2.29H9791l-1.91-6.61Z" transform="translate(-9738.27 -7913.08)"/><path class="cls-1" d="M9800.17,7925.09a1.1,1.1,0,0,0-.61.82c0,0.27.17,0.4,0.57,0.44l3,0.31a2.13,2.13,0,0,1,2.18,2.48c0,2.18-.8,3-4.62,3a14.87,14.87,0,0,1-3.95-.53l0.31-1.91a14.21,14.21,0,0,0,3.44.44c2,0,2.44-.15,2.44-0.82s-0.19-.74-1-0.82l-3-.34c-1.45-.17-2-0.65-2-2a2.17,2.17,0,0,1,1.07-1.74,3,3,0,0,1-1.39-2.75v-1c0-2.12,1.16-3.4,4.12-3.4a7,7,0,0,1,1.74.21h3.15v1.28l-1.13.32a3.51,3.51,0,0,1,.36,1.6v1c0,2.08-1.26,3.34-4.12,3.34A5.43,5.43,0,0,1,9800.17,7925.09Zm0.59-5.63c-1.26,0-1.7.46-1.7,1.43v0.78c0,1,.5,1.39,1.7,1.39s1.72-.4,1.72-1.39v-0.78C9802.48,7919.92,9802,7919.46,9800.76,7919.46Z" transform="translate(-9738.27 -7913.08)"/><path class="cls-1" d="M9811.64,7925.95a10.73,10.73,0,0,0,3.13-.48l0.4,1.93a11,11,0,0,1-3.76.65c-3.21,0-4.33-1.49-4.33-3.95v-2.71c0-2.16,1-4,4.24-4s4,1.91,4,4.12v2.18h-5.69v0.52C9809.65,7925.47,9810.09,7925.95,9811.64,7925.95Zm-2-4.3h3.25v-0.5a1.37,1.37,0,0,0-1.55-1.64,1.47,1.47,0,0,0-1.7,1.64v0.5Z" transform="translate(-9738.27 -7913.08)"/><path class="cls-1" d="M9823.69,7927.84v-7.14a0.71,0.71,0,0,0-.82-0.82,7.07,7.07,0,0,0-2.67.86v7.1h-2.56v-10.22h2l0.25,0.86a10.24,10.24,0,0,1,4.09-1.07c1.7,0,2.31,1.2,2.31,3v7.41h-2.56Z" transform="translate(-9738.27 -7913.08)"/><path class="cls-1" d="M9834.53,7927.65a7.11,7.11,0,0,1-2.25.4c-1.87,0-2.81-.88-2.81-2.71v-5.69h-1.53v-2h1.53v-2.54l2.56-.36v2.9h2.63l-0.17,2H9832V7925a0.81,0.81,0,0,0,.92.9,4.94,4.94,0,0,0,1.28-.21Z" transform="translate(-9738.27 -7913.08)"/><path class="cls-1" d="M9840.75,7917.7c0-2.56,1.49-4.05,5-4.05a15.84,15.84,0,0,1,3.8.46l-0.29,2.29a20.61,20.61,0,0,0-3.42-.36c-1.83,0-2.41.63-2.41,2.12v5.38c0,1.49.59,2.12,2.41,2.12a20.6,20.6,0,0,0,3.42-.36l0.29,2.29a15.84,15.84,0,0,1-3.8.46c-3.49,0-5-1.49-5-4.05v-6.3Z" transform="translate(-9738.27 -7913.08)"/><path class="cls-1" d="M9855.72,7928c-3.51,0-4.45-1.93-4.45-4v-2.58c0-2.1.95-4,4.45-4s4.45,1.93,4.45,4V7924C9860.17,7926.12,9859.22,7928,9855.72,7928Zm0-8.46c-1.37,0-1.89.61-1.89,1.76v2.75c0,1.16.52,1.76,1.89,1.76s1.89-.61,1.89-1.76v-2.75C9857.61,7920.2,9857.08,7919.59,9855.72,7919.59Z" transform="translate(-9738.27 -7913.08)"/><path class="cls-1" d="M9868.7,7927.84v-7.14a0.71,0.71,0,0,0-.82-0.82,7.08,7.08,0,0,0-2.67.86v7.1h-2.56v-10.22h2l0.25,0.86a10.25,10.25,0,0,1,4.09-1.07c1.7,0,2.31,1.2,2.31,3v7.41h-2.56Z" transform="translate(-9738.27 -7913.08)"/><path class="cls-1" d="M9880.14,7927.84v-7.14a0.71,0.71,0,0,0-.82-0.82,7.07,7.07,0,0,0-2.67.86v7.1h-2.56v-10.22h2l0.25,0.86a10.24,10.24,0,0,1,4.09-1.07c1.7,0,2.31,1.2,2.31,3v7.41h-2.56Z" transform="translate(-9738.27 -7913.08)"/><path class="cls-1" d="M9889.63,7925.95a10.72,10.72,0,0,0,3.13-.48l0.4,1.93a11,11,0,0,1-3.76.65c-3.21,0-4.33-1.49-4.33-3.95v-2.71c0-2.16,1-4,4.24-4s4,1.91,4,4.12v2.18h-5.69v0.52C9887.64,7925.47,9888.08,7925.95,9889.63,7925.95Zm-2-4.3h3.25v-0.5a1.37,1.37,0,0,0-1.55-1.64,1.47,1.47,0,0,0-1.7,1.64v0.5Z" transform="translate(-9738.27 -7913.08)"/><path class="cls-1" d="M9895.18,7924.12v-2.79c0-2.75,1.2-3.93,4.41-3.93a8.81,8.81,0,0,1,2.5.38l-0.32,2.1a9.28,9.28,0,0,0-2.12-.27c-1.47,0-1.91.44-1.91,1.7v2.83c0,1.26.44,1.7,1.91,1.7a8.63,8.63,0,0,0,2.12-.27l0.32,2.1a8.42,8.42,0,0,1-2.5.38C9896.38,7928,9895.18,7926.87,9895.18,7924.12Z" transform="translate(-9738.27 -7913.08)"/><path class="cls-1" d="M9909.88,7927.65a7.12,7.12,0,0,1-2.25.4c-1.87,0-2.81-.88-2.81-2.71v-5.69h-1.53v-2h1.53v-2.54l2.56-.36v2.9H9910l-0.17,2h-2.46V7925a0.81,0.81,0,0,0,.92.9,4.92,4.92,0,0,0,1.28-.21Z" transform="translate(-9738.27 -7913.08)"/><path class="cls-1" d="M9911.89,7916.17v-3h2.56v3h-2.56Zm0,11.67v-10.22h2.56v10.22h-2.56Z" transform="translate(-9738.27 -7913.08)"/><path class="cls-1" d="M9921.38,7928c-3.51,0-4.45-1.93-4.45-4v-2.58c0-2.1.95-4,4.45-4s4.45,1.93,4.45,4V7924C9925.84,7926.12,9924.89,7928,9921.38,7928Zm0-8.46c-1.37,0-1.89.61-1.89,1.76v2.75c0,1.16.52,1.76,1.89,1.76s1.89-.61,1.89-1.76v-2.75C9923.27,7920.2,9922.75,7919.59,9921.38,7919.59Z" transform="translate(-9738.27 -7913.08)"/><path class="cls-1" d="M9934.36,7927.84v-7.14a0.71,0.71,0,0,0-.82-0.82,7.08,7.08,0,0,0-2.67.86v7.1h-2.56v-10.22h2l0.25,0.86a10.25,10.25,0,0,1,4.09-1.07c1.7,0,2.31,1.2,2.31,3v7.41h-2.56Z" transform="translate(-9738.27 -7913.08)"/><path class="cls-1" d="M9942.93,7928a12,12,0,0,1-3.53-.59l0.36-2a11.45,11.45,0,0,0,3,.44c1.13,0,1.3-.25,1.3-1s-0.13-.95-1.78-1.34c-2.5-.61-2.79-1.24-2.79-3.21s0.9-3,3.82-3a13.49,13.49,0,0,1,3.07.36l-0.25,2a18,18,0,0,0-2.81-.29c-1.11,0-1.3.25-1.3,0.88,0,0.82.06,0.88,1.45,1.24,2.86,0.76,3.13,1.13,3.13,3.23S9946,7928,9942.93,7928Z" transform="translate(-9738.27 -7913.08)"/><path class="cls-1" d="M9954.35,7927.84l-1.89-10.22h2.39l1.26,6.84,2-6.84h2.67l2,6.84,1.26-6.84h2.39l-1.89,10.22h-3l-2.16-7.35-2.16,7.35h-3Z" transform="translate(-9738.27 -7913.08)"/><path class="cls-1" d="M9968.34,7916.17v-3h2.56v3h-2.56Zm0,11.67v-10.22h2.56v10.22h-2.56Z" transform="translate(-9738.27 -7913.08)"/><path class="cls-1" d="M9979.28,7927.65a7.12,7.12,0,0,1-2.25.4c-1.87,0-2.81-.88-2.81-2.71v-5.69h-1.53v-2h1.53v-2.54l2.56-.36v2.9h2.63l-0.17,2h-2.46V7925a0.81,0.81,0,0,0,.92.9,4.93,4.93,0,0,0,1.28-.21Z" transform="translate(-9738.27 -7913.08)"/><path class="cls-1" d="M9987.34,7927.84v-7.14a0.71,0.71,0,0,0-.82-0.82,7.07,7.07,0,0,0-2.67.86v7.1h-2.56v-14.4l2.56-.36v5.31a9,9,0,0,1,3.74-1c1.7,0,2.31,1.2,2.31,3v7.41h-2.56Z" transform="translate(-9738.27 -7913.08)"/><path class="cls-1" d="M9996.94,7917.7c0-2.56,1.49-4.05,5-4.05a15.84,15.84,0,0,1,3.8.46l-0.29,2.29a20.61,20.61,0,0,0-3.42-.36c-1.83,0-2.41.63-2.41,2.12v5.38c0,1.49.59,2.12,2.41,2.12a20.6,20.6,0,0,0,3.42-.36l0.29,2.29a15.84,15.84,0,0,1-3.8.46c-3.49,0-5-1.49-5-4.05v-6.3Z" transform="translate(-9738.27 -7913.08)"/><path class="cls-1" d="M10010.49,7917.61v7.14a0.71,0.71,0,0,0,.82.82,7.07,7.07,0,0,0,2.67-.86v-7.1h2.56v10.22h-2l-0.25-.86a10.24,10.24,0,0,1-4.09,1.07c-1.7,0-2.31-1.2-2.31-3v-7.41h2.56Z" transform="translate(-9738.27 -7913.08)"/><path class="cls-1" d="M10022.65,7928a12,12,0,0,1-3.53-.59l0.36-2a11.45,11.45,0,0,0,3,.44c1.13,0,1.3-.25,1.3-1s-0.13-.95-1.78-1.34c-2.5-.61-2.79-1.24-2.79-3.21s0.9-3,3.82-3a13.49,13.49,0,0,1,3.07.36l-0.25,2a18,18,0,0,0-2.81-.29c-1.11,0-1.3.25-1.3,0.88,0,0.82.06,0.88,1.45,1.24,2.86,0.76,3.13,1.13,3.13,3.23S10025.73,7928,10022.65,7928Z" transform="translate(-9738.27 -7913.08)"/><path class="cls-1" d="M10034.3,7927.65a7.12,7.12,0,0,1-2.25.4c-1.87,0-2.81-.88-2.81-2.71v-5.69h-1.53v-2h1.53v-2.54l2.56-.36v2.9h2.63l-0.17,2h-2.46V7925a0.81,0.81,0,0,0,.92.9,4.93,4.93,0,0,0,1.28-.21Z" transform="translate(-9738.27 -7913.08)"/><path class="cls-1" d="M10040.31,7928c-3.51,0-4.45-1.93-4.45-4v-2.58c0-2.1.94-4,4.45-4s4.45,1.93,4.45,4V7924C10044.76,7926.12,10043.81,7928,10040.31,7928Zm0-8.46c-1.37,0-1.89.61-1.89,1.76v2.75c0,1.16.53,1.76,1.89,1.76s1.89-.61,1.89-1.76v-2.75C10042.2,7920.2,10041.67,7919.59,10040.31,7919.59Z" transform="translate(-9738.27 -7913.08)"/><path class="cls-1" d="M10053.28,7927.84v-7.14a0.71,0.71,0,0,0-.82-0.82,7.07,7.07,0,0,0-2.67.86v7.1h-2.56v-10.22h2l0.25,0.86a10.24,10.24,0,0,1,4.09-1.07,1.94,1.94,0,0,1,1.93,1.09,10,10,0,0,1,4.12-1.09c1.7,0,2.31,1.2,2.31,3v7.41h-2.56v-7.14a0.71,0.71,0,0,0-.82-0.82,6.77,6.77,0,0,0-2.67.86v7.1h-2.56Z" transform="translate(-9738.27 -7913.08)"/><path class="cls-1" d="M10068.82,7925.95a10.71,10.71,0,0,0,3.13-.48l0.4,1.93a11,11,0,0,1-3.76.65c-3.21,0-4.33-1.49-4.33-3.95v-2.71c0-2.16,1-4,4.24-4s4,1.91,4,4.12v2.18h-5.69v0.52C10066.83,7925.47,10067.27,7925.95,10068.82,7925.95Zm-2-4.3h3.25v-0.5a1.37,1.37,0,0,0-1.55-1.64,1.47,1.47,0,0,0-1.7,1.64v0.5Z" transform="translate(-9738.27 -7913.08)"/><path class="cls-1" d="M10080.1,7919.76a20,20,0,0,0-2.71,1.49v6.59h-2.56v-10.22h2.16l0.17,1.13a11.47,11.47,0,0,1,2.69-1.34Z" transform="translate(-9738.27 -7913.08)"/><path class="cls-1" d="M10085,7928a12,12,0,0,1-3.53-.59l0.36-2a11.45,11.45,0,0,0,3,.44c1.13,0,1.3-.25,1.3-1s-0.13-.95-1.78-1.34c-2.5-.61-2.79-1.24-2.79-3.21s0.9-3,3.82-3a13.49,13.49,0,0,1,3.07.36l-0.25,2a18,18,0,0,0-2.81-.29c-1.11,0-1.3.25-1.3,0.88,0,0.82.06,0.88,1.45,1.24,2.86,0.76,3.13,1.13,3.13,3.23S10088.08,7928,10085,7928Z" transform="translate(-9738.27 -7913.08)"/><path class="cls-1" d="M9758.5,7958.84l2.46-14h4.56c2.71,0,3.76,1.26,3.76,3.13a6.78,6.78,0,0,1-.11,1.09l-1,5.86c-0.48,2.71-1.53,3.91-4.91,3.91h-4.72Zm9.6-10.83c0-1.39-.73-2.08-2.69-2.08H9762l-2.1,11.84h3.42c2.6,0,3.32-1,3.67-3l1-5.71A6.52,6.52,0,0,0,9768.1,7948Z" transform="translate(-9738.27 -7913.08)"/><path class="cls-1" d="M9772,7956.17a5,5,0,0,0,0,.55c0,0.86.34,1.3,1.76,1.3a8.66,8.66,0,0,0,3.61-1l0.29,0.9a9,9,0,0,1-4.05,1.11c-1.91,0-2.79-.76-2.79-2.31a5.93,5.93,0,0,1,.1-1l0.61-3.44c0.46-2.6,1.81-3.88,4.43-3.88,1.66,0,2.71.84,2.71,2.37s-1.09,2.52-3.88,3.3l-2.5.69Zm5.5-5.42c0-.92-0.61-1.34-1.68-1.34-1.83,0-2.79.94-3.15,3l-0.23,1.3,2.37-.63C9776.77,7952.54,9777.55,7951.85,9777.55,7950.76Z" transform="translate(-9738.27 -7913.08)"/><path class="cls-1" d="M9779.08,7962.43a3.92,3.92,0,0,0,1.47-2.75l1.76-10.06h-1.91l0.17-1h1.93l0.34-1.93c0.32-1.79,1.26-2.67,3-2.67a8.27,8.27,0,0,1,3,.61l-0.25.9a9.81,9.81,0,0,0-2.75-.5,1.68,1.68,0,0,0-1.83,1.66l-0.34,1.93h5.5l0.59-.08-1.81,10.31h-1.18l1.62-9.22h-4.91l-1.78,10.2a5,5,0,0,1-1.93,3.36Z" transform="translate(-9738.27 -7913.08)"/><path class="cls-1" d="M9799.24,7950.52a2.35,2.35,0,0,0,0-.34c0-.5-0.27-0.69-0.86-0.69a11,11,0,0,0-4.37,1.76l-1.34,7.58h-1.18l1.78-10.14,1-.17-0.17,1.57a10.35,10.35,0,0,1,4.45-1.7,1.56,1.56,0,0,1,1.81,1.68,4,4,0,0,1-.06.65l-1.43,8.1h-1.18Z" transform="translate(-9738.27 -7913.08)"/><path class="cls-1" d="M9803.65,7956.17a5.29,5.29,0,0,0,0,.55c0,0.86.34,1.3,1.76,1.3a8.66,8.66,0,0,0,3.61-1l0.29,0.9a9,9,0,0,1-4.05,1.11c-1.91,0-2.79-.76-2.79-2.31a5.84,5.84,0,0,1,.11-1l0.61-3.44c0.46-2.6,1.81-3.88,4.43-3.88,1.66,0,2.71.84,2.71,2.37s-1.09,2.52-3.88,3.3l-2.5.69Zm5.5-5.42c0-.92-0.61-1.34-1.68-1.34-1.83,0-2.79.94-3.15,3l-0.23,1.3,2.37-.63C9808.38,7952.54,9809.15,7951.85,9809.15,7950.76Z" transform="translate(-9738.27 -7913.08)"/><path class="cls-1" d="M9820.58,7958.84h-1.2l2.27-12.91h-4.3l0.19-1.07h9.81l-0.19,1.07h-4.3Z" transform="translate(-9738.27 -7913.08)"/><path class="cls-1" d="M9834.9,7950.52a2.5,2.5,0,0,0,0-.34c0-.5-0.27-0.69-0.86-0.69a11,11,0,0,0-4.37,1.76l-1.34,7.58h-1.18l2.54-14.4,1.2-.17-1,5.79a10.23,10.23,0,0,1,4.37-1.66,1.56,1.56,0,0,1,1.8,1.68,4,4,0,0,1-.06.65l-1.43,8.1h-1.18Z" transform="translate(-9738.27 -7913.08)"/><path class="cls-1" d="M9839.31,7956.17a5,5,0,0,0,0,.55c0,0.86.34,1.3,1.76,1.3a8.66,8.66,0,0,0,3.61-1l0.29,0.9a9,9,0,0,1-4.05,1.11c-1.91,0-2.79-.76-2.79-2.31a5.93,5.93,0,0,1,.1-1l0.61-3.44c0.46-2.6,1.81-3.88,4.43-3.88,1.66,0,2.71.84,2.71,2.37s-1.09,2.52-3.88,3.3l-2.5.69Zm5.5-5.42c0-.92-0.61-1.34-1.68-1.34-1.83,0-2.79.94-3.15,3l-0.23,1.3,2.37-.63C9844,7952.54,9844.81,7951.85,9844.81,7950.76Z" transform="translate(-9738.27 -7913.08)"/><path class="cls-1" d="M9849.16,7948.7l1.2-.17-1.8,10.31h-1.18Zm0.74-4.26,1.22-.17-0.42,2.37-1.2.17Z" transform="translate(-9738.27 -7913.08)"/><path class="cls-1" d="M9857.85,7949.56c-1.11.65-2.18,1.34-3.28,2.06l-1.26,7.22h-1.18l1.76-10.14,1.09-.17-0.25,1.81a23.4,23.4,0,0,1,3-1.93Z" transform="translate(-9738.27 -7913.08)"/><path class="cls-1" d="M9865.62,7944.86h7.85l-0.19,1.07h-6.63l-0.92,5.25h6.17l-0.19,1.07h-6.17l-1,5.52h6.66l-0.17,1.07h-7.87Z" transform="translate(-9738.27 -7913.08)"/><path class="cls-1" d="M9877.25,7953.7l-2.41-5,1.09-.17,2.12,4.33,3.48-4.24h1.39l-4.37,5.19,2.5,5h-1.26l-2-4.12-3.46,4.12h-1.38Z" transform="translate(-9738.27 -7913.08)"/><path class="cls-1" d="M9886,7950.1a6.69,6.69,0,0,1,4.18-1.7c1.3,0,2,.46,2,1.72a5.35,5.35,0,0,1-.08.76l-0.9,5.1c-0.38,2.14-1.32,3.07-3.65,3.07a13.77,13.77,0,0,1-3-.4l-0.78,4.33-1.2.17,2.56-14.53h1.07Zm-1.26,7.47a13.26,13.26,0,0,0,3.06.42c1.41,0,2-.59,2.27-2.1l0.88-5a3.85,3.85,0,0,0,.06-0.63c0-.65-0.31-0.8-0.95-0.8a7.18,7.18,0,0,0-4.26,2Z" transform="translate(-9738.27 -7913.08)"/><path class="cls-1" d="M9895.23,7956.17a5,5,0,0,0,0,.55c0,0.86.34,1.3,1.76,1.3a8.66,8.66,0,0,0,3.61-1l0.29,0.9a9,9,0,0,1-4.05,1.11c-1.91,0-2.79-.76-2.79-2.31a5.93,5.93,0,0,1,.1-1l0.61-3.44c0.46-2.6,1.81-3.88,4.43-3.88,1.66,0,2.71.84,2.71,2.37s-1.09,2.52-3.88,3.3l-2.5.69Zm5.5-5.42c0-.92-0.61-1.34-1.68-1.34-1.83,0-2.79.94-3.15,3l-0.23,1.3,2.37-.63C9900,7952.54,9900.73,7951.85,9900.73,7950.76Z" transform="translate(-9738.27 -7913.08)"/><path class="cls-1" d="M9909,7949.56c-1.11.65-2.18,1.34-3.28,2.06l-1.26,7.22h-1.18l1.76-10.14,1.09-.17-0.25,1.81a23.4,23.4,0,0,1,3-1.93Z" transform="translate(-9738.27 -7913.08)"/><path class="cls-1" d="M9911.4,7948.7l1.2-.17-1.81,10.31h-1.18Zm0.73-4.26,1.22-.17-0.42,2.37-1.2.17Z" transform="translate(-9738.27 -7913.08)"/><path class="cls-1" d="M9915.6,7956.17a5.28,5.28,0,0,0,0,.55c0,0.86.34,1.3,1.76,1.3a8.66,8.66,0,0,0,3.61-1l0.29,0.9a9,9,0,0,1-4.05,1.11c-1.91,0-2.79-.76-2.79-2.31a5.83,5.83,0,0,1,.1-1l0.61-3.44c0.46-2.6,1.81-3.88,4.43-3.88,1.66,0,2.71.84,2.71,2.37s-1.09,2.52-3.88,3.3l-2.5.69Zm5.5-5.42c0-.92-0.61-1.34-1.68-1.34-1.83,0-2.79.94-3.15,3l-0.23,1.3,2.37-.63C9920.32,7952.54,9921.1,7951.85,9921.1,7950.76Z" transform="translate(-9738.27 -7913.08)"/><path class="cls-1" d="M9931.37,7950.52a2.37,2.37,0,0,0,0-.34c0-.5-0.27-0.69-0.86-0.69a11,11,0,0,0-4.37,1.76l-1.34,7.58h-1.18l1.79-10.14,1-.17-0.17,1.57a10.34,10.34,0,0,1,4.45-1.7,1.56,1.56,0,0,1,1.81,1.68,4.07,4.07,0,0,1-.06.65l-1.43,8.1h-1.18Z" transform="translate(-9738.27 -7913.08)"/><path class="cls-1" d="M9941.79,7949.81a9.22,9.22,0,0,0-2.41-.36c-1.87,0-2.54.67-2.94,2.94l-0.71,4.07a3.86,3.86,0,0,0,0,.46c0,0.8.5,1.07,1.51,1.07a8.83,8.83,0,0,0,3.32-.71l0.19,1a9,9,0,0,1-3.65.78c-1.51,0-2.54-.71-2.54-2.1a3.46,3.46,0,0,1,.06-0.63l0.74-4.14c0.5-2.77,1.58-3.78,4.2-3.78a8.67,8.67,0,0,1,2.54.42Z" transform="translate(-9738.27 -7913.08)"/><path class="cls-1" d="M9944.16,7956.17a5,5,0,0,0,0,.55c0,0.86.34,1.3,1.76,1.3a8.66,8.66,0,0,0,3.61-1l0.29,0.9a9,9,0,0,1-4.05,1.11c-1.91,0-2.79-.76-2.79-2.31a5.94,5.94,0,0,1,.11-1l0.61-3.44c0.46-2.6,1.8-3.88,4.43-3.88,1.66,0,2.71.84,2.71,2.37s-1.09,2.52-3.88,3.3l-2.5.69Zm5.5-5.42c0-.92-0.61-1.34-1.68-1.34-1.83,0-2.79.94-3.15,3l-0.23,1.3,2.37-.63C9948.88,7952.54,9949.66,7951.85,9949.66,7950.76Z" transform="translate(-9738.27 -7913.08)"/><path class="cls-1" d="M9956.86,7956.19a4.69,4.69,0,0,1,.08-0.92l0.55-3.11c0.4-2.25,1.57-3.76,4.6-3.76,2.27,0,3.4,1.18,3.4,2.88a5.3,5.3,0,0,1-.08.78l-0.59,3.34c-0.4,2.27-1.66,3.65-4.6,3.65C9957.81,7959,9956.86,7957.83,9956.86,7956.19Zm7.37-4.14a4.39,4.39,0,0,0,.06-0.71c0-1.26-.73-1.89-2.39-1.89a2.91,2.91,0,0,0-3.23,2.71l-0.57,3.21a5.13,5.13,0,0,0-.06.78c0,1.2.65,1.85,2.37,1.85a2.9,2.9,0,0,0,3.23-2.62Z" transform="translate(-9738.27 -7913.08)"/><path class="cls-1" d="M9966.48,7962.43a3.92,3.92,0,0,0,1.47-2.75l1.76-10.06h-1.91l0.17-1h1.93l0.34-1.93c0.31-1.79,1.26-2.67,3-2.67a5.62,5.62,0,0,1,2,.4l-0.25.9a5.3,5.3,0,0,0-1.72-.29,1.68,1.68,0,0,0-1.83,1.66l-0.34,1.93h3.13l-0.27,1h-3l-1.78,10.2a4.94,4.94,0,0,1-1.93,3.36Z" transform="translate(-9738.27 -7913.08)"/><path class="cls-1" d="M9983.38,7958.84h-1.2l0.78-4.35-3-9.64h1.18l2.65,8.46,5.48-8.46h1.36l-6.49,9.83Z" transform="translate(-9738.27 -7913.08)"/><path class="cls-1" d="M9989,7956.19a4.77,4.77,0,0,1,.08-0.92l0.55-3.11c0.4-2.25,1.58-3.76,4.6-3.76,2.27,0,3.4,1.18,3.4,2.88a5,5,0,0,1-.08.78l-0.59,3.34c-0.4,2.27-1.66,3.65-4.6,3.65C9990,7959,9989,7957.83,9989,7956.19Zm7.37-4.14a4.19,4.19,0,0,0,.06-0.71c0-1.26-.74-1.89-2.39-1.89a2.92,2.92,0,0,0-3.23,2.71l-0.57,3.21a5.39,5.39,0,0,0-.06.78c0,1.2.65,1.85,2.37,1.85a2.9,2.9,0,0,0,3.23-2.62Z" transform="translate(-9738.27 -7913.08)"/><path class="cls-1" d="M10000.84,7956.93a2.65,2.65,0,0,0,0,.38c0,0.42.27,0.65,0.86,0.65a11,11,0,0,0,4.37-1.76l1.32-7.5,1.22-.17-1.83,10.31h-1l0.17-1.49a9.49,9.49,0,0,1-4.45,1.7,1.56,1.56,0,0,1-1.81-1.68,3.5,3.5,0,0,1,.06-0.65l1.41-8,1.22-.17Z" transform="translate(-9738.27 -7913.08)"/><path class="cls-1" d="M10016,7949.56c-1.11.65-2.18,1.34-3.28,2.06l-1.26,7.22h-1.18l1.76-10.14,1.09-.17-0.25,1.81a23.48,23.48,0,0,1,3-1.93Z" transform="translate(-9738.27 -7913.08)"/><path class="cls-1" d="M10021.35,7958.84l2.46-14h5.19c1.66,0,2.62.78,2.62,2.12a3.08,3.08,0,0,1-.06.61l-0.27,1.55a2.68,2.68,0,0,1-2,2.5,1.9,1.9,0,0,1,1.62,2,3.76,3.76,0,0,1-.06.65l-0.34,1.91c-0.34,1.91-1.45,2.62-3.65,2.62h-5.48Zm8.31-5.08c0-.94-0.61-1.55-2-1.55h-3.93l-1,5.58h4.28a2,2,0,0,0,2.29-1.78l0.31-1.81A3.77,3.77,0,0,0,10029.67,7953.76Zm0.76-6.7c0-.76-0.48-1.16-1.53-1.16h-4.05l-0.92,5.25h3.46c1.6,0,2.48-.69,2.69-1.93l0.31-1.81A2.29,2.29,0,0,0,10030.42,7947.06Z" transform="translate(-9738.27 -7913.08)"/><path class="cls-1" d="M10038.72,7949.56c-1.11.65-2.18,1.34-3.28,2.06l-1.26,7.22H10033l1.76-10.14,1.09-.17-0.25,1.81a23.48,23.48,0,0,1,3-1.93Z" transform="translate(-9738.27 -7913.08)"/><path class="cls-1" d="M10045.33,7957.35a6.53,6.53,0,0,1-4.12,1.7c-1.3,0-2-.46-2-1.72a5,5,0,0,1,.06-0.76l0.78-4.39c0.48-2.69,1.6-3.78,4.35-3.78a11.14,11.14,0,0,1,3.53.67l-1.72,9.76h-1.07Zm1.28-7.56a9.52,9.52,0,0,0-2.39-.34c-1.91,0-2.65.69-3,2.94l-0.73,4.18a3.73,3.73,0,0,0-.06.61c0,0.65.31,0.82,0.94,0.82a7.09,7.09,0,0,0,4.2-2Z" transform="translate(-9738.27 -7913.08)"/><path class="cls-1" d="M10057.37,7950.52a2.5,2.5,0,0,0,0-.34c0-.5-0.27-0.69-0.86-0.69a11,11,0,0,0-4.37,1.76l-1.34,7.58h-1.18l1.79-10.14,1-.17-0.17,1.57a10.34,10.34,0,0,1,4.45-1.7,1.56,1.56,0,0,1,1.8,1.68,4,4,0,0,1-.06.65l-1.43,8.1h-1.18Z" transform="translate(-9738.27 -7913.08)"/><path class="cls-1" d="M10066.75,7957.35a6.69,6.69,0,0,1-4.18,1.7c-1.3,0-2-.46-2-1.72a4.89,4.89,0,0,1,.06-0.76l0.78-4.39c0.48-2.77,1.74-3.78,4.35-3.78a10.8,10.8,0,0,1,2.48.34l0.76-4.3,1.2-.17-2.56,14.57h-1.07Zm1.28-7.56a9.89,9.89,0,0,0-2.46-.34c-1.87,0-2.65.67-3,2.94l-0.73,4.18a3.64,3.64,0,0,0-.06.61c0,0.65.32,0.82,0.94,0.82a7.18,7.18,0,0,0,4.26-2Z" transform="translate(-9738.27 -7913.08)"/><path class="cls-1" d="M9748.36,7986.42h4.7v0.92h-3.67v2.51h3.41v0.92h-3.41v2.71h3.68v0.92h-4.71v-8Z" transform="translate(-9738.27 -7913.08)"/><path class="cls-1" d="M9761.95,7994.41v-4.46a0.48,0.48,0,0,0-.56-0.54,5.17,5.17,0,0,0-2,.59v4.41h-1v-4.46a0.48,0.48,0,0,0-.56-0.54,5.44,5.44,0,0,0-2,.59v4.41h-1v-5.84h0.82l0.1,0.5a6.35,6.35,0,0,1,2.35-.62,1.07,1.07,0,0,1,1.12.62,6.25,6.25,0,0,1,2.41-.62,1.23,1.23,0,0,1,1.27,1.49v4.47h-1Z" transform="translate(-9738.27 -7913.08)"/><path class="cls-1" d="M9767,7994.53a2.07,2.07,0,0,1-2.37-2.19v-1.69a2.38,2.38,0,0,1,4.75,0v1.69A2.07,2.07,0,0,1,9767,7994.53Zm0-5.21a1.17,1.17,0,0,0-1.37,1.28v1.76a1.37,1.37,0,0,0,2.73,0v-1.76A1.17,1.17,0,0,0,9767,7989.32Z" transform="translate(-9738.27 -7913.08)"/><path class="cls-1" d="M9774.18,7994.31a3.66,3.66,0,0,1-1.22.21,1.19,1.19,0,0,1-1.45-1.33v-3.79h-1v-0.84h1v-1.44l1-.14v1.58h1.66l-0.08.84h-1.57V7993c0,0.43.06,0.65,0.6,0.65a3.72,3.72,0,0,0,.94-0.14Z" transform="translate(-9738.27 -7913.08)"/><path class="cls-1" d="M9775.68,7987.63v-1.45h1v1.45h-1Zm0,6.78v-5.84h1v5.84h-1Z" transform="translate(-9738.27 -7913.08)"/><path class="cls-1" d="M9780.8,7994.53a2.07,2.07,0,0,1-2.37-2.19v-1.69a2.38,2.38,0,0,1,4.75,0v1.69A2.07,2.07,0,0,1,9780.8,7994.53Zm0-5.21a1.17,1.17,0,0,0-1.37,1.28v1.76a1.37,1.37,0,0,0,2.73,0v-1.76A1.17,1.17,0,0,0,9780.8,7989.32Z" transform="translate(-9738.27 -7913.08)"/><path class="cls-1" d="M9788.44,7994.41v-4.46a0.48,0.48,0,0,0-.56-0.54,5.44,5.44,0,0,0-2,.59v4.41h-1v-5.84h0.82l0.1,0.5a6.35,6.35,0,0,1,2.35-.62,1.23,1.23,0,0,1,1.27,1.49v4.47h-1Z" transform="translate(-9738.27 -7913.08)"/><path class="cls-1" d="M9791.19,7990.65h3v0.83h-3v-0.83Z" transform="translate(-9738.27 -7913.08)"/><path class="cls-1" d="M9802.22,7994.41v-4.46a0.48,0.48,0,0,0-.56-0.54,5.49,5.49,0,0,0-2,.6v4.4h-1v-8.23l1-.14v3a5.91,5.91,0,0,1,2.25-.61,1.23,1.23,0,0,1,1.27,1.49v4.47h-1Z" transform="translate(-9738.27 -7913.08)"/><path class="cls-1" d="M9807.28,7994.53a2.07,2.07,0,0,1-2.37-2.19v-1.69a2.38,2.38,0,0,1,4.75,0v1.69A2.07,2.07,0,0,1,9807.28,7994.53Zm0-5.21a1.17,1.17,0,0,0-1.37,1.28v1.76a1.37,1.37,0,0,0,2.73,0v-1.76A1.17,1.17,0,0,0,9807.28,7989.32Z" transform="translate(-9738.27 -7913.08)"/><path class="cls-1" d="M9816,7994.41l-1.42-5-1.42,5h-1.3l-1.25-5.84h1l1,4.85,1.42-4.85h1.22l1.42,4.85,1-4.85h1l-1.25,5.84H9816Z" transform="translate(-9738.27 -7913.08)"/><path class="cls-1" d="M9826.71,7994.41h-0.85l-0.06-.43a3.33,3.33,0,0,1-1.89.55,1.44,1.44,0,0,1-1.55-1.68c0-1.21.61-1.64,1.79-1.64h1.56v-0.91c0-.73-0.32-1-1.27-1a9.69,9.69,0,0,0-1.75.19l-0.11-.8a8.21,8.21,0,0,1,1.92-.25c1.67,0,2.22.65,2.22,1.89v4.07Zm-1-2.36h-1.49a0.68,0.68,0,0,0-.85.78c0,0.6.11,0.84,0.83,0.84a2.92,2.92,0,0,0,1.51-.48V7992Z" transform="translate(-9738.27 -7913.08)"/><path class="cls-1" d="M9832.13,7994.41v-4.46a0.48,0.48,0,0,0-.56-0.54,5.44,5.44,0,0,0-2,.59v4.41h-1v-5.84h0.82l0.1,0.5a6.35,6.35,0,0,1,2.35-.62,1.23,1.23,0,0,1,1.27,1.49v4.47h-1Z" transform="translate(-9738.27 -7913.08)"/><path class="cls-1" d="M9839.92,7993.66a7.41,7.41,0,0,0,1.85-.28l0.13,0.8a6.35,6.35,0,0,1-2.06.34c-1.73,0-2.32-.83-2.32-2.15v-1.75a2,2,0,0,1,2.29-2.18,1.94,1.94,0,0,1,2.2,2.21v1.22h-3.48v0.49C9838.53,7993.29,9838.78,7993.66,9839.92,7993.66Zm-1.39-2.63H9841v-0.48a1.06,1.06,0,0,0-1.22-1.27,1.11,1.11,0,0,0-1.28,1.27V7991Z" transform="translate(-9738.27 -7913.08)"/><path class="cls-1" d="M9843,7994.41l1.92-2.94-1.88-2.9h1l1.39,2.15,1.39-2.15h1l-1.89,2.9,1.93,2.94h-1.06l-1.42-2.17-1.4,2.17H9843Z" transform="translate(-9738.27 -7913.08)"/><path class="cls-1" d="M9853.82,7992.62a1.68,1.68,0,0,1-1.9,1.91,9.36,9.36,0,0,1-1.67-.18v2.42l-1,.14v-8.35h0.85l0.08,0.53a3.12,3.12,0,0,1,1.93-.65,1.54,1.54,0,0,1,1.7,1.79v2.39Zm-3.56.84a9.44,9.44,0,0,0,1.61.18,0.85,0.85,0,0,0,.95-1v-2.39a0.76,0.76,0,0,0-.9-0.9,2.7,2.7,0,0,0-1.66.7v3.43Z" transform="translate(-9738.27 -7913.08)"/><path class="cls-1" d="M9857.74,7993.66a7.41,7.41,0,0,0,1.85-.28l0.13,0.8a6.35,6.35,0,0,1-2.06.34c-1.73,0-2.32-.83-2.32-2.15v-1.75a2,2,0,0,1,2.29-2.18,1.94,1.94,0,0,1,2.2,2.21v1.22h-3.48v0.49C9856.35,7993.29,9856.6,7993.66,9857.74,7993.66Zm-1.39-2.63h2.51v-0.48a1.06,1.06,0,0,0-1.22-1.27,1.11,1.11,0,0,0-1.28,1.27V7991Z" transform="translate(-9738.27 -7913.08)"/><path class="cls-1" d="M9864.21,7989.37a12.76,12.76,0,0,0-1.67,1v4h-1v-5.84h0.88l0.06,0.82a7.49,7.49,0,0,1,1.61-.94Z" transform="translate(-9738.27 -7913.08)"/><path class="cls-1" d="M9865.35,7987.63v-1.45h1v1.45h-1Zm0,6.78v-5.84h1v5.84h-1Z" transform="translate(-9738.27 -7913.08)"/><path class="cls-1" d="M9870.5,7993.66a7.41,7.41,0,0,0,1.85-.28l0.13,0.8a6.35,6.35,0,0,1-2.06.34c-1.73,0-2.32-.83-2.32-2.15v-1.75a2,2,0,0,1,2.29-2.18,1.94,1.94,0,0,1,2.2,2.21v1.22h-3.48v0.49C9869.11,7993.29,9869.36,7993.66,9870.5,7993.66Zm-1.39-2.63h2.51v-0.48a1.06,1.06,0,0,0-1.22-1.27,1.11,1.11,0,0,0-1.28,1.27V7991Z" transform="translate(-9738.27 -7913.08)"/><path class="cls-1" d="M9877.82,7994.41v-4.46a0.48,0.48,0,0,0-.56-0.54,5.44,5.44,0,0,0-2,.59v4.41h-1v-5.84h0.82l0.1,0.5a6.35,6.35,0,0,1,2.35-.62,1.23,1.23,0,0,1,1.27,1.49v4.47h-1Z" transform="translate(-9738.27 -7913.08)"/><path class="cls-1" d="M9880.45,7992.4v-1.83c0-1.34.5-2.12,2.33-2.12a5.31,5.31,0,0,1,1.39.18l-0.08.84a6.15,6.15,0,0,0-1.28-.13c-1,0-1.34.29-1.34,1.2v1.91c0,0.91.34,1.2,1.34,1.2a6.15,6.15,0,0,0,1.28-.13l0.1,0.84a5.42,5.42,0,0,1-1.4.18C9880.9,7994.53,9880.45,7993.75,9880.45,7992.4Z" transform="translate(-9738.27 -7913.08)"/><path class="cls-1" d="M9887.9,7993.66a7.41,7.41,0,0,0,1.85-.28l0.13,0.8a6.35,6.35,0,0,1-2.06.34c-1.73,0-2.32-.83-2.32-2.15v-1.75a2,2,0,0,1,2.29-2.18,1.94,1.94,0,0,1,2.2,2.21v1.22h-3.48v0.49C9886.51,7993.29,9886.76,7993.66,9887.9,7993.66Zm-1.39-2.63H9889v-0.48a1.06,1.06,0,0,0-1.22-1.27,1.11,1.11,0,0,0-1.28,1.27V7991Z" transform="translate(-9738.27 -7913.08)"/><path class="cls-1" d="M9901.44,7994.41v-4.46a0.48,0.48,0,0,0-.56-0.54,5.17,5.17,0,0,0-2,.59v4.41h-1v-4.46a0.48,0.48,0,0,0-.56-0.54,5.44,5.44,0,0,0-2,.59v4.41h-1v-5.84h0.82l0.1,0.5a6.35,6.35,0,0,1,2.35-.62,1.07,1.07,0,0,1,1.12.62,6.25,6.25,0,0,1,2.41-.62,1.23,1.23,0,0,1,1.27,1.49v4.47h-1Z" transform="translate(-9738.27 -7913.08)"/><path class="cls-1" d="M9908.57,7994.41h-0.85l-0.06-.43a3.33,3.33,0,0,1-1.89.55,1.44,1.44,0,0,1-1.55-1.68c0-1.21.61-1.64,1.79-1.64h1.56v-0.91c0-.73-0.32-1-1.27-1a9.69,9.69,0,0,0-1.75.19l-0.11-.8a8.19,8.19,0,0,1,1.92-.25c1.67,0,2.22.65,2.22,1.89v4.07Zm-1-2.36h-1.49a0.68,0.68,0,0,0-.85.78c0,0.6.11,0.84,0.83,0.84a2.92,2.92,0,0,0,1.51-.48V7992Z" transform="translate(-9738.27 -7913.08)"/><path class="cls-1" d="M9910.47,7994.41v-8.23l1-.14v8.37h-1Zm4.49-5.84-2.09,2.89,2.18,3h-1.19l-2.13-3,2.06-2.89H9915Z" transform="translate(-9738.27 -7913.08)"/><path class="cls-1" d="M9918.4,7993.66a7.41,7.41,0,0,0,1.85-.28l0.13,0.8a6.35,6.35,0,0,1-2.06.34c-1.73,0-2.32-.83-2.32-2.15v-1.75a2,2,0,0,1,2.29-2.18,1.94,1.94,0,0,1,2.2,2.21v1.22H9917v0.49C9917,7993.29,9917.26,7993.66,9918.4,7993.66ZM9917,7991h2.51v-0.48a1.06,1.06,0,0,0-1.22-1.27,1.11,1.11,0,0,0-1.28,1.27V7991Z" transform="translate(-9738.27 -7913.08)"/><path class="cls-1" d="M9923.81,7994.53a6,6,0,0,1-1.86-.31l0.13-.79a6.64,6.64,0,0,0,1.67.24c0.92,0,1.08-.17,1.08-0.79s0-.7-1.22-1c-1.45-.36-1.58-0.66-1.58-1.87s0.48-1.57,2-1.57a6.64,6.64,0,0,1,1.66.2l-0.07.83a9.42,9.42,0,0,0-1.62-.17c-0.86,0-1,.2-1,0.73s0,0.77,1,1c1.68,0.42,1.81.63,1.81,1.79S9925.48,7994.53,9923.81,7994.53Z" transform="translate(-9738.27 -7913.08)"/><path class="cls-1" d="M9934.42,7994.41h-0.85l-0.06-.43a3.33,3.33,0,0,1-1.89.55,1.44,1.44,0,0,1-1.55-1.68c0-1.21.61-1.64,1.79-1.64h1.56v-0.91c0-.73-0.32-1-1.27-1a9.69,9.69,0,0,0-1.75.19l-0.11-.8a8.21,8.21,0,0,1,1.92-.25c1.67,0,2.22.65,2.22,1.89v4.07Zm-1-2.36h-1.49a0.68,0.68,0,0,0-.85.78c0,0.6.11,0.84,0.83,0.84a2.92,2.92,0,0,0,1.51-.48V7992Z" transform="translate(-9738.27 -7913.08)"/><path class="cls-1" d="M9938.66,7992.4v-1.83c0-1.34.5-2.12,2.33-2.12a5.31,5.31,0,0,1,1.39.18l-0.08.84a6.15,6.15,0,0,0-1.28-.13c-1,0-1.34.29-1.34,1.2v1.91c0,0.91.34,1.2,1.34,1.2a6.15,6.15,0,0,0,1.28-.13l0.1,0.84a5.42,5.42,0,0,1-1.4.18C9939.11,7994.53,9938.66,7993.75,9938.66,7992.4Z" transform="translate(-9738.27 -7913.08)"/><path class="cls-1" d="M9945,7988.57V7993a0.48,0.48,0,0,0,.56.54,5.44,5.44,0,0,0,2-.59v-4.41h1v5.84h-0.82l-0.1-.5a6.35,6.35,0,0,1-2.35.62A1.23,1.23,0,0,1,9944,7993v-4.47h1Z" transform="translate(-9738.27 -7913.08)"/><path class="cls-1" d="M9952.18,7994.53a6,6,0,0,1-1.86-.31l0.13-.79a6.64,6.64,0,0,0,1.67.24c0.92,0,1.08-.17,1.08-0.79s0-.7-1.22-1c-1.45-.36-1.58-0.66-1.58-1.87s0.48-1.57,2-1.57a6.64,6.64,0,0,1,1.66.2l-0.07.83a9.42,9.42,0,0,0-1.62-.17c-0.86,0-1,.2-1,0.73s0,0.77,1,1c1.68,0.42,1.81.63,1.81,1.79S9953.85,7994.53,9952.18,7994.53Z" transform="translate(-9738.27 -7913.08)"/><path class="cls-1" d="M9959,7994.31a3.67,3.67,0,0,1-1.22.21,1.19,1.19,0,0,1-1.45-1.33v-3.79h-1v-0.84h1v-1.44l1-.14v1.58H9959l-0.08.84h-1.57V7993c0,0.43.06,0.65,0.6,0.65a3.72,3.72,0,0,0,.94-0.14Z" transform="translate(-9738.27 -7913.08)"/><path class="cls-1" d="M9962.55,7994.53a2.07,2.07,0,0,1-2.37-2.19v-1.69a2.38,2.38,0,0,1,4.75,0v1.69A2.07,2.07,0,0,1,9962.55,7994.53Zm0-5.21a1.17,1.17,0,0,0-1.37,1.28v1.76a1.37,1.37,0,0,0,2.73,0v-1.76A1.17,1.17,0,0,0,9962.55,7989.32Z" transform="translate(-9738.27 -7913.08)"/><path class="cls-1" d="M9973.72,7994.41v-4.46a0.48,0.48,0,0,0-.56-0.54,5.17,5.17,0,0,0-2,.59v4.41h-1v-4.46a0.48,0.48,0,0,0-.56-0.54,5.44,5.44,0,0,0-2,.59v4.41h-1v-5.84h0.82l0.1,0.5a6.35,6.35,0,0,1,2.35-.62,1.07,1.07,0,0,1,1.12.62,6.25,6.25,0,0,1,2.41-.62,1.23,1.23,0,0,1,1.27,1.49v4.47h-1Z" transform="translate(-9738.27 -7913.08)"/><path class="cls-1" d="M9978.81,7993.66a7.41,7.41,0,0,0,1.85-.28l0.13,0.8a6.35,6.35,0,0,1-2.06.34c-1.73,0-2.32-.83-2.32-2.15v-1.75a2,2,0,0,1,2.29-2.18,1.94,1.94,0,0,1,2.2,2.21v1.22h-3.48v0.49C9977.42,7993.29,9977.67,7993.66,9978.81,7993.66Zm-1.39-2.63h2.51v-0.48a1.06,1.06,0,0,0-1.22-1.27,1.11,1.11,0,0,0-1.28,1.27V7991Z" transform="translate(-9738.27 -7913.08)"/><path class="cls-1" d="M9985.27,7989.37a12.76,12.76,0,0,0-1.67,1v4h-1v-5.84h0.88l0.06,0.82a7.49,7.49,0,0,1,1.61-.94Z" transform="translate(-9738.27 -7913.08)"/><path class="cls-1" d="M9992.31,7986.89a6.05,6.05,0,0,0-1-.11,0.65,0.65,0,0,0-.78.8v1h1.67l-0.08.84h-1.58v5h-1v-5h-1v-0.84h1v-1.08a1.43,1.43,0,0,1,1.65-1.55,4.11,4.11,0,0,1,1.19.17Z" transform="translate(-9738.27 -7913.08)"/><path class="cls-1" d="M9995.45,7993.66a7.41,7.41,0,0,0,1.85-.28l0.13,0.8a6.35,6.35,0,0,1-2.06.34c-1.73,0-2.32-.83-2.32-2.15v-1.75a2,2,0,0,1,2.29-2.18,1.94,1.94,0,0,1,2.2,2.21v1.22h-3.48v0.49C9994.06,7993.29,9994.31,7993.66,9995.45,7993.66Zm-1.39-2.63h2.51v-0.48a1.06,1.06,0,0,0-1.22-1.27,1.11,1.11,0,0,0-1.28,1.27V7991Z" transform="translate(-9738.27 -7913.08)"/><path class="cls-1" d="M10001.34,7993.66a7.41,7.41,0,0,0,1.85-.28l0.13,0.8a6.35,6.35,0,0,1-2.06.34c-1.73,0-2.32-.83-2.32-2.15v-1.75a2,2,0,0,1,2.29-2.18,1.94,1.94,0,0,1,2.2,2.21v1.22H10000v0.49C10000,7993.29,10000.2,7993.66,10001.34,7993.66ZM10000,7991h2.51v-0.48a1.06,1.06,0,0,0-1.22-1.27,1.11,1.11,0,0,0-1.28,1.27V7991Z" transform="translate(-9738.27 -7913.08)"/><path class="cls-1" d="M10005.13,7994.41v-8.23l1-.14v8.37h-1Z" transform="translate(-9738.27 -7913.08)"/><path class="cls-1" d="M10007.94,7990.65h3v0.83h-3v-0.83Z" transform="translate(-9738.27 -7913.08)"/><path class="cls-1" d="M10015.44,7987.63v-1.45h1v1.45h-1Zm0,6.78v-5.84h1v5.84h-1Z" transform="translate(-9738.27 -7913.08)"/><path class="cls-1" d="M10020.11,7994.53a6,6,0,0,1-1.86-.31l0.13-.79a6.64,6.64,0,0,0,1.67.24c0.92,0,1.08-.17,1.08-0.79s0-.7-1.22-1c-1.45-.36-1.58-0.66-1.58-1.87s0.48-1.57,2-1.57a6.64,6.64,0,0,1,1.66.2l-0.07.83a9.42,9.42,0,0,0-1.62-.17c-0.86,0-1,.2-1,0.73s0,0.77,1,1c1.68,0.42,1.81.63,1.81,1.79S10021.78,7994.53,10020.11,7994.53Z" transform="translate(-9738.27 -7913.08)"/><path class="cls-1" d="M10029.63,7994.31a3.67,3.67,0,0,1-1.22.21,1.19,1.19,0,0,1-1.45-1.33v-3.79h-1v-0.84h1v-1.44l1-.14v1.58h1.66l-0.08.84H10028V7993c0,0.43.06,0.65,0.6,0.65a3.72,3.72,0,0,0,.94-0.14Z" transform="translate(-9738.27 -7913.08)"/><path class="cls-1" d="M10034.65,7994.41v-4.46a0.48,0.48,0,0,0-.56-0.54,5.49,5.49,0,0,0-2,.6v4.4h-1v-8.23l1-.14v3a5.91,5.91,0,0,1,2.25-.61,1.23,1.23,0,0,1,1.27,1.49v4.47h-1Z" transform="translate(-9738.27 -7913.08)"/><path class="cls-1" d="M10039.74,7993.66a7.41,7.41,0,0,0,1.85-.28l0.13,0.8a6.35,6.35,0,0,1-2.06.34c-1.73,0-2.32-.83-2.32-2.15v-1.75a2,2,0,0,1,2.29-2.18,1.94,1.94,0,0,1,2.2,2.21v1.22h-3.48v0.49C10038.35,7993.29,10038.6,7993.66,10039.74,7993.66Zm-1.39-2.63h2.51v-0.48a1.06,1.06,0,0,0-1.22-1.27,1.11,1.11,0,0,0-1.28,1.27V7991Z" transform="translate(-9738.27 -7913.08)"/><path class="cls-1" d="M10050.8,7992.34c0,1.33-.48,2.18-2.48,2.18a10.48,10.48,0,0,1-2.09-.23v-8.12l1-.14v2.82a4.2,4.2,0,0,1,1.85-.41,1.58,1.58,0,0,1,1.72,1.82v2.08Zm-3.56,1.21a7.83,7.83,0,0,0,1.15.08c1.19,0,1.4-.48,1.4-1.26v-2.15a0.8,0.8,0,0,0-.95-0.9,4.3,4.3,0,0,0-1.61.44v3.78Z" transform="translate(-9738.27 -7913.08)"/><path class="cls-1" d="M10052.58,7987.63v-1.45h1v1.45h-1Zm0,6.78v-5.84h1v5.84h-1Z" transform="translate(-9738.27 -7913.08)"/><path class="cls-1" d="M10060.15,7989.15l-0.7.13a2.07,2.07,0,0,1,.32,1.16v0.26c0,1.26-.77,2-2.29,2a4.36,4.36,0,0,1-.6,0,0.91,0.91,0,0,0-.42.63c0,0.23.12,0.31,0.38,0.33l1.66,0.17c1.06,0.11,1.46.52,1.46,1.4,0,1.27-.44,1.69-2.55,1.69a9.39,9.39,0,0,1-2.12-.28l0.14-.79a9.22,9.22,0,0,0,2,.24c1.49,0,1.63-.2,1.63-0.82s-0.18-.58-0.86-0.64l-1.55-.14a1,1,0,0,1-1.14-1.07,1.31,1.31,0,0,1,.55-1,1.75,1.75,0,0,1-.82-1.66v-0.26c0-1.27.61-2,2.28-2a3.81,3.81,0,0,1,1,.12h1.68v0.59Zm-2.66.12c-1,0-1.33.32-1.33,1.19v0.25c0,0.89.37,1.16,1.33,1.16a1.08,1.08,0,0,0,1.33-1.16v-0.25C10058.82,7989.61,10058.46,7989.27,10057.49,7989.27Z" transform="translate(-9738.27 -7913.08)"/><path class="cls-1" d="M10066.15,7989.15l-0.7.13a2.07,2.07,0,0,1,.32,1.16v0.26c0,1.26-.77,2-2.29,2a4.36,4.36,0,0,1-.6,0,0.91,0.91,0,0,0-.42.63c0,0.23.12,0.31,0.38,0.33l1.66,0.17c1.06,0.11,1.46.52,1.46,1.4,0,1.27-.44,1.69-2.55,1.69a9.39,9.39,0,0,1-2.12-.28l0.14-.79a9.22,9.22,0,0,0,2,.24c1.49,0,1.63-.2,1.63-0.82s-0.18-.58-0.86-0.64l-1.55-.14a1,1,0,0,1-1.14-1.07,1.31,1.31,0,0,1,.55-1,1.75,1.75,0,0,1-.82-1.66v-0.26c0-1.27.61-2,2.28-2a3.81,3.81,0,0,1,1,.12h1.68v0.59Zm-2.66.12c-1,0-1.33.32-1.33,1.19v0.25c0,0.89.37,1.16,1.33,1.16a1.08,1.08,0,0,0,1.33-1.16v-0.25C10064.82,7989.61,10064.46,7989.27,10063.49,7989.27Z" transform="translate(-9738.27 -7913.08)"/><path class="cls-1" d="M10069.73,7993.66a7.41,7.41,0,0,0,1.85-.28l0.13,0.8a6.35,6.35,0,0,1-2.06.34c-1.73,0-2.32-.83-2.32-2.15v-1.75a2,2,0,0,1,2.29-2.18,1.94,1.94,0,0,1,2.2,2.21v1.22h-3.48v0.49C10068.34,7993.29,10068.59,7993.66,10069.73,7993.66Zm-1.39-2.63h2.51v-0.48a1.06,1.06,0,0,0-1.22-1.27,1.11,1.11,0,0,0-1.28,1.27V7991Z" transform="translate(-9738.27 -7913.08)"/><path class="cls-1" d="M10075.14,7994.53a6,6,0,0,1-1.86-.31l0.13-.79a6.64,6.64,0,0,0,1.67.24c0.92,0,1.08-.17,1.08-0.79s0-.7-1.22-1c-1.45-.36-1.58-0.66-1.58-1.87s0.48-1.57,2-1.57a6.64,6.64,0,0,1,1.66.2l-0.07.83a9.42,9.42,0,0,0-1.62-.17c-0.86,0-1,.2-1,0.73s0,0.77,1,1c1.68,0.42,1.81.63,1.81,1.79S10076.81,7994.53,10075.14,7994.53Z" transform="translate(-9738.27 -7913.08)"/><path class="cls-1" d="M10082,7994.31a3.67,3.67,0,0,1-1.22.21,1.19,1.19,0,0,1-1.45-1.33v-3.79h-1v-0.84h1v-1.44l1-.14v1.58h1.66l-0.08.84h-1.57V7993c0,0.43.06,0.65,0.6,0.65a3.72,3.72,0,0,0,.94-0.14Z" transform="translate(-9738.27 -7913.08)"/><path class="cls-1" d="M9743,8006.63v-1.45h1v1.45h-1Zm0,6.78v-5.84h1v5.84h-1Z" transform="translate(-9738.27 -7913.08)"/><path class="cls-1" d="M9749.52,8013.41v-4.46a0.48,0.48,0,0,0-.56-0.54,5.44,5.44,0,0,0-2,.59v4.41h-1v-5.84h0.82l0.1,0.5a6.35,6.35,0,0,1,2.35-.62,1.23,1.23,0,0,1,1.27,1.49v4.47h-1Z" transform="translate(-9738.27 -7913.08)"/><path class="cls-1" d="M9755.64,8005.88a5.17,5.17,0,0,0-.91-0.1,0.65,0.65,0,0,0-.78.8v1h1.61l-0.08.84H9754v5h-1v-5h-1v-0.84h1v-1.08a1.43,1.43,0,0,1,1.65-1.55,4.14,4.14,0,0,1,1.13.16Zm1.1,7.53v-8.23l1-.14v8.37h-1Z" transform="translate(-9738.27 -7913.08)"/><path class="cls-1" d="M9760.75,8007.57V8012a0.48,0.48,0,0,0,.56.54,5.44,5.44,0,0,0,2-.59v-4.41h1v5.84h-0.82l-0.1-.5a6.35,6.35,0,0,1-2.35.62,1.23,1.23,0,0,1-1.27-1.49v-4.47h1Z" transform="translate(-9738.27 -7913.08)"/><path class="cls-1" d="M9768.41,8012.66a7.41,7.41,0,0,0,1.85-.28l0.13,0.8a6.35,6.35,0,0,1-2.06.34c-1.73,0-2.32-.83-2.32-2.15v-1.75a2,2,0,0,1,2.29-2.18,1.94,1.94,0,0,1,2.2,2.21v1.22H9767v0.49C9767,8012.29,9767.27,8012.66,9768.41,8012.66ZM9767,8010h2.51v-0.48a1.06,1.06,0,0,0-1.22-1.27,1.11,1.11,0,0,0-1.28,1.27V8010Z" transform="translate(-9738.27 -7913.08)"/><path class="cls-1" d="M9775.73,8013.41v-4.46a0.48,0.48,0,0,0-.56-0.54,5.44,5.44,0,0,0-2,.59v4.41h-1v-5.84H9773l0.1,0.5a6.35,6.35,0,0,1,2.35-.62,1.23,1.23,0,0,1,1.27,1.49v4.47h-1Z" transform="translate(-9738.27 -7913.08)"/><path class="cls-1" d="M9778.36,8011.4v-1.83c0-1.34.5-2.12,2.33-2.12a5.31,5.31,0,0,1,1.39.18l-0.08.84a6.15,6.15,0,0,0-1.28-.13c-1,0-1.34.29-1.34,1.2v1.91c0,0.91.34,1.2,1.34,1.2a6.15,6.15,0,0,0,1.28-.13l0.1,0.84a5.41,5.41,0,0,1-1.4.18C9778.82,8013.53,9778.36,8012.75,9778.36,8011.4Z" transform="translate(-9738.27 -7913.08)"/><path class="cls-1" d="M9785.81,8012.66a7.41,7.41,0,0,0,1.85-.28l0.13,0.8a6.35,6.35,0,0,1-2.06.34c-1.73,0-2.32-.83-2.32-2.15v-1.75a2,2,0,0,1,2.29-2.18,1.94,1.94,0,0,1,2.2,2.21v1.22h-3.48v0.49C9784.42,8012.29,9784.67,8012.66,9785.81,8012.66Zm-1.39-2.63h2.51v-0.48a1.06,1.06,0,0,0-1.22-1.27,1.11,1.11,0,0,0-1.28,1.27V8010Z" transform="translate(-9738.27 -7913.08)"/><path class="cls-1" d="M9792.28,8008.37a12.76,12.76,0,0,0-1.67,1v4h-1v-5.84h0.88l0.06,0.82a7.49,7.49,0,0,1,1.61-.94Z" transform="translate(-9738.27 -7913.08)"/><path class="cls-1" d="M9798.2,8013.53a2.07,2.07,0,0,1-2.37-2.19v-1.69a2.38,2.38,0,0,1,4.75,0v1.69A2.07,2.07,0,0,1,9798.2,8013.53Zm0-5.21a1.17,1.17,0,0,0-1.37,1.28v1.76a1.37,1.37,0,0,0,2.73,0v-1.76A1.17,1.17,0,0,0,9798.2,8008.32Z" transform="translate(-9738.27 -7913.08)"/><path class="cls-1" d="M9805.5,8005.89a6.05,6.05,0,0,0-1-.11,0.65,0.65,0,0,0-.78.8v1h1.67l-0.08.84h-1.58v5h-1v-5h-1v-0.84h1v-1.08a1.43,1.43,0,0,1,1.65-1.55,4.11,4.11,0,0,1,1.19.17Z" transform="translate(-9738.27 -7913.08)"/><path class="cls-1" d="M9812.42,8013.31a3.67,3.67,0,0,1-1.22.21,1.19,1.19,0,0,1-1.45-1.33v-3.79h-1v-0.84h1v-1.44l1-.14v1.58h1.66l-0.08.84h-1.57V8012c0,0.43.06,0.65,0.6,0.65a3.72,3.72,0,0,0,.94-0.14Z" transform="translate(-9738.27 -7913.08)"/><path class="cls-1" d="M9817.44,8013.41v-4.46a0.48,0.48,0,0,0-.56-0.54,5.49,5.49,0,0,0-2,.6v4.4h-1v-8.23l1-.14v3a5.91,5.91,0,0,1,2.25-.61,1.23,1.23,0,0,1,1.27,1.49v4.47h-1Z" transform="translate(-9738.27 -7913.08)"/><path class="cls-1" d="M9822.53,8012.66a7.41,7.41,0,0,0,1.85-.28l0.13,0.8a6.35,6.35,0,0,1-2.06.34c-1.73,0-2.32-.83-2.32-2.15v-1.75a2,2,0,0,1,2.29-2.18,1.94,1.94,0,0,1,2.2,2.21v1.22h-3.48v0.49C9821.14,8012.29,9821.39,8012.66,9822.53,8012.66Zm-1.39-2.63h2.51v-0.48a1.06,1.06,0,0,0-1.22-1.27,1.11,1.11,0,0,0-1.28,1.27V8010Z" transform="translate(-9738.27 -7913.08)"/><path class="cls-1" d="M9826.32,8006.63v-1.45h1v1.45h-1Zm0,6.78v-5.84h1v5.84h-1Z" transform="translate(-9738.27 -7913.08)"/><path class="cls-1" d="M9832,8008.37a12.76,12.76,0,0,0-1.67,1v4h-1v-5.84h0.88l0.06,0.82a7.49,7.49,0,0,1,1.61-.94Z" transform="translate(-9738.27 -7913.08)"/><path class="cls-1" d="M9835.89,8013.41v-8.23l1-.14v8.37h-1Z" transform="translate(-9738.27 -7913.08)"/><path class="cls-1" d="M9841,8013.53a2.07,2.07,0,0,1-2.37-2.19v-1.69a2.38,2.38,0,0,1,4.75,0v1.69A2.07,2.07,0,0,1,9841,8013.53Zm0-5.21a1.17,1.17,0,0,0-1.37,1.28v1.76a1.37,1.37,0,0,0,2.73,0v-1.76A1.17,1.17,0,0,0,9841,8008.32Z" transform="translate(-9738.27 -7913.08)"/><path class="cls-1" d="M9846.58,8013.41h-0.42l-1.9-5.84h1l1.59,5,1.62-5h1l-1.93,5.84-0.83,2.36h-0.95Z" transform="translate(-9738.27 -7913.08)"/><path class="cls-1" d="M9854.67,8013.41h-0.85l-0.06-.43a3.33,3.33,0,0,1-1.89.55,1.44,1.44,0,0,1-1.55-1.68c0-1.21.61-1.64,1.79-1.64h1.56v-0.91c0-.73-0.32-1-1.27-1a9.69,9.69,0,0,0-1.75.19l-0.11-.8a8.21,8.21,0,0,1,1.92-.25c1.67,0,2.22.65,2.22,1.89v4.07Zm-1-2.36h-1.49a0.68,0.68,0,0,0-.85.78c0,0.6.11,0.84,0.83,0.84a2.92,2.92,0,0,0,1.51-.48V8011Z" transform="translate(-9738.27 -7913.08)"/><path class="cls-1" d="M9856.56,8013.41v-8.23l1-.14v8.37h-1Z" transform="translate(-9738.27 -7913.08)"/><path class="cls-1" d="M9862.66,8013.31a3.66,3.66,0,0,1-1.22.21,1.19,1.19,0,0,1-1.45-1.33v-3.79h-1v-0.84h1v-1.44l1-.14v1.58h1.66l-0.08.84H9861V8012c0,0.43.06,0.65,0.6,0.65a3.72,3.72,0,0,0,.94-0.14Z" transform="translate(-9738.27 -7913.08)"/><path class="cls-1" d="M9865.67,8013.41h-0.42l-1.9-5.84h1l1.59,5,1.62-5h1l-1.93,5.84-0.83,2.36h-0.95Z" transform="translate(-9738.27 -7913.08)"/><path class="cls-1" d="M9869.12,8012h1v1.38h-1V8012Z" transform="translate(-9738.27 -7913.08)"/><path class="cls-1" d="M9875.84,8013.41h-0.71v-8h0.71v8Z" transform="translate(-9738.27 -7913.08)"/><path class="cls-1" d="M9881.13,8013.3a3.57,3.57,0,0,1-1.22.23,1.09,1.09,0,0,1-1.32-1.26v-4.1h-1.13v-0.6h1.13v-1.38l0.7-.1v1.47h1.79l-0.07.6h-1.71v4c0,0.52.07,0.73,0.67,0.73a3.62,3.62,0,0,0,1-.17Z" transform="translate(-9738.27 -7913.08)"/><path class="cls-1" d="M9892.6,8013.41v-4.73a0.53,0.53,0,0,0-.64-0.59,5.81,5.81,0,0,0-2.24.67v4.64H9889v-4.73a0.53,0.53,0,0,0-.64-0.59,6.18,6.18,0,0,0-2.24.67v4.64h-0.7v-5.84h0.61l0,0.53a6.55,6.55,0,0,1,2.38-.65,1.06,1.06,0,0,1,1.13.65,6.93,6.93,0,0,1,2.45-.65,1.12,1.12,0,0,1,1.24,1.32v4.64h-0.7Z" transform="translate(-9738.27 -7913.08)"/><path class="cls-1" d="M9899.29,8013.41h-0.6l0-.46a3.69,3.69,0,0,1-2,.58,1.4,1.4,0,0,1-1.51-1.63c0-1.24.56-1.62,1.72-1.62h1.73v-1.14c0-.8-0.42-1.07-1.38-1.07a9,9,0,0,0-1.73.19l-0.11-.59a7.45,7.45,0,0,1,1.8-.23c1.51,0,2.11.6,2.11,1.69v4.27Zm-0.7-2.51h-1.7a0.84,0.84,0,0,0-1,1,0.8,0.8,0,0,0,1,1,3.29,3.29,0,0,0,1.79-.6v-1.4Z" transform="translate(-9738.27 -7913.08)"/><path class="cls-1" d="M9904.35,8013.3a3.57,3.57,0,0,1-1.22.23,1.09,1.09,0,0,1-1.32-1.26v-4.1h-1.13v-0.6h1.13v-1.38l0.7-.1v1.47h1.79l-0.07.6h-1.71v4c0,0.52.07,0.73,0.67,0.73a3.62,3.62,0,0,0,1-.17Z" transform="translate(-9738.27 -7913.08)"/><path class="cls-1" d="M9908.92,8013.3a3.57,3.57,0,0,1-1.22.23,1.09,1.09,0,0,1-1.32-1.26v-4.1h-1.13v-0.6h1.13v-1.38l0.7-.1v1.47h1.79l-0.07.6h-1.71v4c0,0.52.07,0.73,0.67,0.73a3.62,3.62,0,0,0,1-.17Z" transform="translate(-9738.27 -7913.08)"/><path class="cls-1" d="M9912.38,8012.92a7.42,7.42,0,0,0,1.85-.28l0.12,0.56a6.44,6.44,0,0,1-2,.32,1.87,1.87,0,0,1-2.17-2.12v-1.83a1.91,1.91,0,0,1,2.18-2.12,1.87,1.87,0,0,1,2.12,2.12v1.13h-3.61v0.73A1.26,1.26,0,0,0,9912.38,8012.92Zm-1.52-2.84h2.93v-0.53a1.26,1.26,0,0,0-1.44-1.5,1.29,1.29,0,0,0-1.49,1.5v0.53Z" transform="translate(-9738.27 -7913.08)"/><path class="cls-1" d="M9918.87,8008.13a12.93,12.93,0,0,0-1.85,1.08v4.2h-0.7v-5.84h0.62l0,0.89a9.87,9.87,0,0,1,1.8-1Z" transform="translate(-9738.27 -7913.08)"/><path class="cls-1" d="M9921.69,8013.53a5,5,0,0,1-1.71-.3l0.12-.56a5.71,5.71,0,0,0,1.55.24c1.08,0,1.29-.2,1.29-0.95s0-.92-1.36-1.24-1.58-.71-1.58-1.77,0.47-1.5,1.91-1.5a6.64,6.64,0,0,1,1.66.2l-0.07.59a9.31,9.31,0,0,0-1.63-.17c-1,0-1.16.26-1.16,0.9,0,0.8,0,.89,1.13,1.16,1.71,0.43,1.81.71,1.81,1.8S9923.25,8013.53,9921.69,8013.53Z" transform="translate(-9738.27 -7913.08)"/><path class="cls-1" d="M9927.87,8012.78c1-1.28,1.32-1.61,2.19-2.75s1.32-1.73,1.32-2.41v-0.19c0-.91-0.18-1.27-1.62-1.27a6.39,6.39,0,0,0-1.69.28l-0.13-.6a6.57,6.57,0,0,1,1.89-.3c1.86,0,2.24.68,2.24,1.87v0.18c0,0.86-.32,1.32-1.46,2.84-0.75,1-1,1.33-1.86,2.35h3.38v0.62h-4.27v-0.62Z" transform="translate(-9738.27 -7913.08)"/><path class="cls-1" d="M9933.46,8013.41l2-2.94-1.93-2.9h0.74l1.56,2.34,1.57-2.34h0.74l-1.94,2.9,2,2.94h-0.76l-1.59-2.39-1.58,2.39h-0.76Z" transform="translate(-9738.27 -7913.08)"/><path class="cls-1" d="M9949.5,8013.41v-4.73a0.53,0.53,0,0,0-.64-0.59,5.81,5.81,0,0,0-2.24.67v4.64h-0.7v-4.73a0.53,0.53,0,0,0-.64-0.59,6.18,6.18,0,0,0-2.24.67v4.64h-0.7v-5.84H9943l0,0.53a6.55,6.55,0,0,1,2.38-.65,1.06,1.06,0,0,1,1.13.65,6.93,6.93,0,0,1,2.45-.65,1.12,1.12,0,0,1,1.24,1.32v4.64h-0.7Z" transform="translate(-9738.27 -7913.08)"/><path class="cls-1" d="M9954.27,8013.53a2,2,0,0,1-2.27-2.12v-1.83a2.27,2.27,0,0,1,4.53,0v1.83A2,2,0,0,1,9954.27,8013.53Zm1.57-4a1.57,1.57,0,0,0-3.14,0v1.88a1.57,1.57,0,0,0,3.14,0v-1.88Z" transform="translate(-9738.27 -7913.08)"/><path class="cls-1" d="M9960.94,8008.13a12.93,12.93,0,0,0-1.85,1.08v4.2h-0.7v-5.84H9959l0,0.89a9.87,9.87,0,0,1,1.8-1Z" transform="translate(-9738.27 -7913.08)"/><path class="cls-1" d="M9964.21,8012.92a7.42,7.42,0,0,0,1.85-.28l0.12,0.56a6.44,6.44,0,0,1-2,.32,1.87,1.87,0,0,1-2.17-2.12v-1.83a1.91,1.91,0,0,1,2.18-2.12,1.87,1.87,0,0,1,2.12,2.12v1.13h-3.61v0.73A1.26,1.26,0,0,0,9964.21,8012.92Zm-1.52-2.84h2.93v-0.53a1.26,1.26,0,0,0-1.44-1.5,1.29,1.29,0,0,0-1.49,1.5v0.53Z" transform="translate(-9738.27 -7913.08)"/><path class="cls-1" d="M9973.93,8013.3a3.58,3.58,0,0,1-1.22.23,1.09,1.09,0,0,1-1.32-1.26v-4.1h-1.13v-0.6h1.13v-1.38l0.7-.1v1.47h1.79l-0.07.6h-1.71v4c0,0.52.07,0.73,0.67,0.73a3.62,3.62,0,0,0,1-.17Z" transform="translate(-9738.27 -7913.08)"/><path class="cls-1" d="M9979.07,8013.41v-4.73a0.53,0.53,0,0,0-.64-0.59,6.18,6.18,0,0,0-2.24.67v4.64h-0.7v-8.23l0.7-.1v3a6.43,6.43,0,0,1,2.34-.63,1.12,1.12,0,0,1,1.24,1.32v4.64h-0.7Z" transform="translate(-9738.27 -7913.08)"/><path class="cls-1" d="M9985.76,8013.41h-0.6l0-.46a3.69,3.69,0,0,1-2,.58,1.4,1.4,0,0,1-1.51-1.63c0-1.24.56-1.62,1.72-1.62h1.73v-1.14c0-.8-0.42-1.07-1.38-1.07a9,9,0,0,0-1.73.19l-0.11-.59a7.45,7.45,0,0,1,1.8-.23c1.51,0,2.11.6,2.11,1.69v4.27Zm-0.7-2.51h-1.7a0.84,0.84,0,0,0-1,1,0.8,0.8,0,0,0,1,1,3.29,3.29,0,0,0,1.79-.6v-1.4Z" transform="translate(-9738.27 -7913.08)"/><path class="cls-1" d="M9991.38,8013.41v-4.73a0.53,0.53,0,0,0-.64-0.59,6.18,6.18,0,0,0-2.24.67v4.64h-0.7v-5.84h0.61l0,0.53a6.55,6.55,0,0,1,2.38-.65,1.12,1.12,0,0,1,1.24,1.32v4.64h-0.7Z" transform="translate(-9738.27 -7913.08)"/><path class="cls-1" d="M9997.55,8013.41l-1.33-5.84h0.66l1.2,5.37,1.58-5.37h0.94l1.57,5.37,1.21-5.37h0.66l-1.33,5.84h-1l-1.54-5.34-1.54,5.34h-1Z" transform="translate(-9738.27 -7913.08)"/><path class="cls-1" d="M10009.06,8013.41v-4.73a0.53,0.53,0,0,0-.64-0.59,6.18,6.18,0,0,0-2.24.67v4.64h-0.7v-8.23l0.7-.1v3a6.43,6.43,0,0,1,2.34-.63,1.12,1.12,0,0,1,1.24,1.32v4.64h-0.7Z" transform="translate(-9738.27 -7913.08)"/><path class="cls-1" d="M10015.75,8013.41h-0.6l0-.46a3.69,3.69,0,0,1-2,.58,1.4,1.4,0,0,1-1.51-1.63c0-1.24.56-1.62,1.72-1.62h1.73v-1.14c0-.8-0.42-1.07-1.38-1.07a9,9,0,0,0-1.73.19l-0.11-.59a7.45,7.45,0,0,1,1.8-.23c1.51,0,2.11.6,2.11,1.69v4.27Zm-0.7-2.51h-1.7a0.84,0.84,0,0,0-1,1,0.8,0.8,0,0,0,1,1,3.29,3.29,0,0,0,1.79-.6v-1.4Z" transform="translate(-9738.27 -7913.08)"/><path class="cls-1" d="M10020.8,8013.3a3.58,3.58,0,0,1-1.22.23,1.09,1.09,0,0,1-1.32-1.26v-4.1h-1.13v-0.6h1.13v-1.38l0.7-.1v1.47h1.79l-0.07.6H10019v4c0,0.52.07,0.73,0.67,0.73a3.62,3.62,0,0,0,1-.17Z" transform="translate(-9738.27 -7913.08)"/><path class="cls-1" d="M10028.7,8013.41v-4.73a0.53,0.53,0,0,0-.64-0.59,6.18,6.18,0,0,0-2.24.67v4.64h-0.7v-8.23l0.7-.1v3a6.43,6.43,0,0,1,2.34-.63,1.12,1.12,0,0,1,1.24,1.32v4.64h-0.7Z" transform="translate(-9738.27 -7913.08)"/><path class="cls-1" d="M10035.39,8013.41h-0.6l0-.46a3.69,3.69,0,0,1-2,.58,1.4,1.4,0,0,1-1.51-1.63c0-1.24.56-1.62,1.72-1.62h1.73v-1.14c0-.8-0.42-1.07-1.38-1.07a9,9,0,0,0-1.73.19l-0.11-.59a7.45,7.45,0,0,1,1.8-.23c1.51,0,2.11.6,2.11,1.69v4.27Zm-0.7-2.51h-1.7a0.84,0.84,0,0,0-1,1,0.8,0.8,0,0,0,1,1,3.29,3.29,0,0,0,1.79-.6v-1.4Z" transform="translate(-9738.27 -7913.08)"/><path class="cls-1" d="M10041.73,8011.73a1.59,1.59,0,0,1-1.8,1.8,8.76,8.76,0,0,1-1.8-.19v2.43l-0.7.1v-8.3h0.64l0,0.55a3.35,3.35,0,0,1,2-.67,1.44,1.44,0,0,1,1.66,1.62v2.66Zm-3.6,1a9.13,9.13,0,0,0,1.82.2,1,1,0,0,0,1.08-1.18v-2.66a0.84,0.84,0,0,0-1-1,3,3,0,0,0-1.9.74v3.89Z" transform="translate(-9738.27 -7913.08)"/><path class="cls-1" d="M10048,8011.73a1.59,1.59,0,0,1-1.8,1.8,8.76,8.76,0,0,1-1.8-.19v2.43l-0.7.1v-8.3h0.64l0,0.55a3.35,3.35,0,0,1,2-.67,1.44,1.44,0,0,1,1.66,1.62v2.66Zm-3.6,1a9.13,9.13,0,0,0,1.82.2,1,1,0,0,0,1.08-1.18v-2.66a0.84,0.84,0,0,0-1-1,3,3,0,0,0-1.9.74v3.89Z" transform="translate(-9738.27 -7913.08)"/><path class="cls-1" d="M10051.86,8012.92a7.42,7.42,0,0,0,1.85-.28l0.12,0.56a6.44,6.44,0,0,1-2,.32,1.87,1.87,0,0,1-2.17-2.12v-1.83a1.91,1.91,0,0,1,2.18-2.12,1.87,1.87,0,0,1,2.12,2.12v1.13h-3.61v0.73A1.26,1.26,0,0,0,10051.86,8012.92Zm-1.52-2.84h2.93v-0.53a1.26,1.26,0,0,0-1.44-1.5,1.29,1.29,0,0,0-1.49,1.5v0.53Z" transform="translate(-9738.27 -7913.08)"/><path class="cls-1" d="M10059.38,8013.41v-4.73a0.53,0.53,0,0,0-.64-0.59,6.18,6.18,0,0,0-2.24.67v4.64h-0.7v-5.84h0.61l0,0.53a6.55,6.55,0,0,1,2.38-.65,1.12,1.12,0,0,1,1.24,1.32v4.64h-0.7Z" transform="translate(-9738.27 -7913.08)"/><path class="cls-1" d="M10063.72,8013.53a5,5,0,0,1-1.71-.3l0.12-.56a5.72,5.72,0,0,0,1.55.24c1.08,0,1.29-.2,1.29-0.95s0-.92-1.36-1.24-1.58-.71-1.58-1.77,0.47-1.5,1.91-1.5a6.64,6.64,0,0,1,1.66.2l-0.07.59a9.31,9.31,0,0,0-1.63-.17c-1,0-1.16.26-1.16,0.9,0,0.8,0,.89,1.13,1.16,1.71,0.43,1.81.71,1.81,1.8S10065.28,8013.53,10063.72,8013.53Z" transform="translate(-9738.27 -7913.08)"/><path class="cls-1" d="M10074.18,8013.41h-0.6l0-.46a3.69,3.69,0,0,1-2,.58,1.4,1.4,0,0,1-1.51-1.63c0-1.24.56-1.62,1.71-1.62h1.73v-1.14c0-.8-0.42-1.07-1.38-1.07a9,9,0,0,0-1.73.19l-0.11-.59a7.45,7.45,0,0,1,1.8-.23c1.51,0,2.11.6,2.11,1.69v4.27Zm-0.7-2.51h-1.7a0.84,0.84,0,0,0-1,1,0.8,0.8,0,0,0,1,1,3.29,3.29,0,0,0,1.79-.6v-1.4Z" transform="translate(-9738.27 -7913.08)"/><path class="cls-1" d="M10079.79,8013.41v-4.73a0.53,0.53,0,0,0-.64-0.59,6.18,6.18,0,0,0-2.24.67v4.64h-0.7v-5.84h0.61l0,0.53a6.55,6.55,0,0,1,2.38-.65,1.12,1.12,0,0,1,1.24,1.32v4.64h-0.7Z" transform="translate(-9738.27 -7913.08)"/><path class="cls-1" d="M10082.41,8009.25a1.59,1.59,0,0,1,1.8-1.8,8.76,8.76,0,0,1,1.8.19v-2.46l0.7-.1v8.32h-0.64l0-.55a3.35,3.35,0,0,1-2,.67,1.44,1.44,0,0,1-1.66-1.62v-2.66Zm3.6-1a9.13,9.13,0,0,0-1.82-.2,1,1,0,0,0-1.08,1.18v2.66a0.84,0.84,0,0,0,1,1,3,3,0,0,0,1.89-.74v-3.89Z" transform="translate(-9738.27 -7913.08)"/><path class="cls-1" d="M9744,8030.54c0,1,.42,1.37,1.51,1.37a7.44,7.44,0,0,0,1.25-.12l0.08,0.58a5.67,5.67,0,0,1-1.33.17c-1.64,0-2.21-.76-2.21-2v-2.05c0-1.26.56-2,2.21-2a5.67,5.67,0,0,1,1.33.17l-0.08.58a7.44,7.44,0,0,0-1.25-.12c-1.09,0-1.51.32-1.51,1.37v2.1Z" transform="translate(-9738.27 -7913.08)"/><path class="cls-1" d="M9752.52,8032.41h-0.6l0-.46a3.69,3.69,0,0,1-2,.58,1.4,1.4,0,0,1-1.51-1.63c0-1.24.56-1.62,1.71-1.62h1.73v-1.14c0-.8-0.42-1.07-1.38-1.07a9,9,0,0,0-1.73.19l-0.11-.59a7.45,7.45,0,0,1,1.8-.23c1.51,0,2.11.6,2.11,1.69v4.27Zm-0.7-2.51h-1.7a0.84,0.84,0,0,0-1,1,0.8,0.8,0,0,0,1,1,3.29,3.29,0,0,0,1.79-.6v-1.4Z" transform="translate(-9738.27 -7913.08)"/><path class="cls-1" d="M9755.2,8026.57v4.73a0.53,0.53,0,0,0,.64.59,6.18,6.18,0,0,0,2.24-.67v-4.64h0.7v5.84h-0.61l0-.53a6.54,6.54,0,0,1-2.37.65,1.12,1.12,0,0,1-1.24-1.32v-4.64h0.7Z" transform="translate(-9738.27 -7913.08)"/><path class="cls-1" d="M9762.47,8032.53a5,5,0,0,1-1.71-.3l0.12-.56a5.71,5.71,0,0,0,1.55.24c1.08,0,1.29-.2,1.29-0.95s0-.92-1.36-1.24-1.58-.71-1.58-1.77,0.47-1.5,1.91-1.5a6.64,6.64,0,0,1,1.66.2l-0.07.59a9.31,9.31,0,0,0-1.63-.17c-1,0-1.16.26-1.16,0.9,0,0.8,0,.89,1.13,1.16,1.71,0.43,1.81.71,1.81,1.8S9764,8032.53,9762.47,8032.53Z" transform="translate(-9738.27 -7913.08)"/><path class="cls-1" d="M9768.2,8031.92a7.42,7.42,0,0,0,1.85-.28l0.12,0.56a6.44,6.44,0,0,1-2,.32,1.87,1.87,0,0,1-2.17-2.12v-1.83a1.91,1.91,0,0,1,2.18-2.12,1.87,1.87,0,0,1,2.12,2.12v1.13h-3.61v0.73A1.26,1.26,0,0,0,9768.2,8031.92Zm-1.52-2.84h2.93v-0.53a1.26,1.26,0,0,0-1.44-1.5,1.29,1.29,0,0,0-1.49,1.5v0.53Z" transform="translate(-9738.27 -7913.08)"/><path class="cls-1" d="M9773.68,8032.53a5,5,0,0,1-1.71-.3l0.12-.56a5.71,5.71,0,0,0,1.55.24c1.08,0,1.29-.2,1.29-0.95s0-.92-1.36-1.24-1.58-.71-1.58-1.77,0.47-1.5,1.91-1.5a6.64,6.64,0,0,1,1.66.2l-0.07.59a9.31,9.31,0,0,0-1.63-.17c-1,0-1.16.26-1.16,0.9,0,0.8,0,.89,1.13,1.16,1.71,0.43,1.81.71,1.81,1.8S9775.24,8032.53,9773.68,8032.53Z" transform="translate(-9738.27 -7913.08)"/><path class="cls-1" d="M9780.88,8028.4a5.52,5.52,0,0,1,1.71-.31c1.59,0,2.06.67,2.06,1.87v0.66c0,1.2-.56,1.91-2.21,1.91s-2.27-.71-2.27-1.91v-3.38c0-1.92.63-2.7,2.93-2.7a5.8,5.8,0,0,1,1.37.17l-0.08.59a6,6,0,0,0-1.16-.13c-2,0-2.35.5-2.35,2.09v1.15Zm0,0.67v1.57c0,1,.6,1.26,1.57,1.26,1.13,0,1.51-.35,1.51-1.26v-0.72c0-.84-0.26-1.21-1.39-1.21A4.85,4.85,0,0,0,9780.88,8029.07Z" transform="translate(-9738.27 -7913.08)"/><path class="cls-1" d="M9790.37,8030.32v2.09h-0.7v-2.09h-3.75v-0.74l3.51-4.92h0.94v5.06h1.19v0.6h-1.19Zm-0.7-.6v-4.34l-3.08,4.34h3.08Z" transform="translate(-9738.27 -7913.08)"/><path class="cls-1" d="M9796.24,8027.08a1.71,1.71,0,0,1-3.42,0v-1.2a1.71,1.71,0,0,1,3.42,0v1.2Zm-2.82,0a1.11,1.11,0,0,0,2.22,0v-1.22a1.11,1.11,0,0,0-2.22,0v1.22Zm2.41,5.43-0.53-.2,3.27-8,0.53,0.21Zm5.72-1.58a1.71,1.71,0,0,1-3.42,0v-1.2a1.71,1.71,0,0,1,3.42,0v1.2Zm-2.82,0a1.11,1.11,0,0,0,2.22,0v-1.22a1.11,1.11,0,0,0-2.22,0V8031Z" transform="translate(-9738.27 -7913.08)"/><path class="cls-1" d="M9808.14,8032.53a2,2,0,0,1-2.27-2.12v-1.83a2.27,2.27,0,0,1,4.53,0v1.83A2,2,0,0,1,9808.14,8032.53Zm1.57-4a1.57,1.57,0,0,0-3.14,0v1.88a1.57,1.57,0,0,0,3.14,0v-1.88Z" transform="translate(-9738.27 -7913.08)"/><path class="cls-1" d="M9815.38,8024.65a5.7,5.7,0,0,0-1.06-.11,0.73,0.73,0,0,0-.86.89v1.14h1.8l-0.07.6h-1.73v5.24h-0.7v-5.24h-1.09v-0.6h1.09v-1.22a1.31,1.31,0,0,1,1.51-1.4,4.64,4.64,0,0,1,1.2.17Z" transform="translate(-9738.27 -7913.08)"/><path class="cls-1" d="M9819.77,8030.54c0,1,.42,1.37,1.51,1.37a7.44,7.44,0,0,0,1.25-.12l0.08,0.58a5.67,5.67,0,0,1-1.33.17c-1.64,0-2.21-.76-2.21-2v-2.05c0-1.26.56-2,2.21-2a5.67,5.67,0,0,1,1.33.17l-0.08.58a7.44,7.44,0,0,0-1.25-.12c-1.09,0-1.51.32-1.51,1.37v2.1Z" transform="translate(-9738.27 -7913.08)"/><path class="cls-1" d="M9825,8026.57v4.73a0.53,0.53,0,0,0,.64.59,6.18,6.18,0,0,0,2.24-.67v-4.64h0.7v5.84H9828l0-.53a6.54,6.54,0,0,1-2.37.65,1.12,1.12,0,0,1-1.24-1.32v-4.64h0.7Z" transform="translate(-9738.27 -7913.08)"/><path class="cls-1" d="M9832.26,8032.53a5,5,0,0,1-1.71-.3l0.12-.56a5.71,5.71,0,0,0,1.55.24c1.08,0,1.29-.2,1.29-0.95s0-.92-1.36-1.24-1.58-.71-1.58-1.77,0.47-1.5,1.91-1.5a6.64,6.64,0,0,1,1.66.2l-0.07.59a9.31,9.31,0,0,0-1.63-.17c-1,0-1.16.26-1.16,0.9,0,0.8,0,.89,1.13,1.16,1.71,0.43,1.81.71,1.81,1.8S9833.82,8032.53,9832.26,8032.53Z" transform="translate(-9738.27 -7913.08)"/><path class="cls-1" d="M9839.08,8032.3a3.58,3.58,0,0,1-1.22.23,1.09,1.09,0,0,1-1.32-1.26v-4.1h-1.13v-0.6h1.13v-1.38l0.7-.1v1.47H9839l-0.07.6h-1.71v4c0,0.52.07,0.73,0.67,0.73a3.62,3.62,0,0,0,1-.17Z" transform="translate(-9738.27 -7913.08)"/><path class="cls-1" d="M9842.58,8032.53a2,2,0,0,1-2.27-2.12v-1.83a2.27,2.27,0,0,1,4.53,0v1.83A2,2,0,0,1,9842.58,8032.53Zm1.57-4a1.57,1.57,0,0,0-3.14,0v1.88a1.57,1.57,0,0,0,3.14,0v-1.88Z" transform="translate(-9738.27 -7913.08)"/><path class="cls-1" d="M9853.86,8032.41v-4.73a0.53,0.53,0,0,0-.64-0.59,5.81,5.81,0,0,0-2.24.67v4.64h-0.7v-4.73a0.53,0.53,0,0,0-.64-0.59,6.18,6.18,0,0,0-2.24.67v4.64h-0.7v-5.84h0.61l0,0.53a6.55,6.55,0,0,1,2.38-.65,1.06,1.06,0,0,1,1.13.65,6.93,6.93,0,0,1,2.45-.65,1.12,1.12,0,0,1,1.24,1.32v4.64h-0.7Z" transform="translate(-9738.27 -7913.08)"/><path class="cls-1" d="M9858.58,8031.92a7.42,7.42,0,0,0,1.85-.28l0.12,0.56a6.44,6.44,0,0,1-2,.32,1.87,1.87,0,0,1-2.17-2.12v-1.83a1.91,1.91,0,0,1,2.18-2.12,1.87,1.87,0,0,1,2.12,2.12v1.13h-3.61v0.73A1.26,1.26,0,0,0,9858.58,8031.92Zm-1.52-2.84H9860v-0.53a1.26,1.26,0,0,0-1.44-1.5,1.29,1.29,0,0,0-1.49,1.5v0.53Z" transform="translate(-9738.27 -7913.08)"/><path class="cls-1" d="M9865.07,8027.13a12.93,12.93,0,0,0-1.85,1.08v4.2h-0.7v-5.84h0.62l0,0.89a9.87,9.87,0,0,1,1.8-1Z" transform="translate(-9738.27 -7913.08)"/><path class="cls-1" d="M9867.89,8032.53a5,5,0,0,1-1.71-.3l0.12-.56a5.72,5.72,0,0,0,1.55.24c1.08,0,1.29-.2,1.29-0.95s0-.92-1.36-1.24-1.58-.71-1.58-1.77,0.47-1.5,1.91-1.5a6.64,6.64,0,0,1,1.66.2l-0.07.59a9.31,9.31,0,0,0-1.63-.17c-1,0-1.16.26-1.16,0.9,0,0.8,0,.89,1.13,1.16,1.71,0.43,1.81.71,1.81,1.8S9869.45,8032.53,9867.89,8032.53Z" transform="translate(-9738.27 -7913.08)"/><path class="cls-1" d="M9877.46,8032.3a3.57,3.57,0,0,1-1.22.23,1.09,1.09,0,0,1-1.32-1.26v-4.1h-1.13v-0.6h1.13v-1.38l0.7-.1v1.47h1.79l-0.07.6h-1.71v4c0,0.52.07,0.73,0.67,0.73a3.62,3.62,0,0,0,1-.17Z" transform="translate(-9738.27 -7913.08)"/><path class="cls-1" d="M9881,8032.53a2,2,0,0,1-2.27-2.12v-1.83a2.27,2.27,0,0,1,4.53,0v1.83A2,2,0,0,1,9881,8032.53Zm1.57-4a1.57,1.57,0,0,0-3.14,0v1.88a1.57,1.57,0,0,0,3.14,0v-1.88Z" transform="translate(-9738.27 -7913.08)"/><path class="cls-1" d="M9889.39,8032.53a5,5,0,0,1-1.71-.3l0.12-.56a5.71,5.71,0,0,0,1.55.24c1.08,0,1.29-.2,1.29-0.95s0-.92-1.36-1.24-1.58-.71-1.58-1.77,0.47-1.5,1.91-1.5a6.64,6.64,0,0,1,1.66.2l-0.07.59a9.31,9.31,0,0,0-1.63-.17c-1,0-1.16.26-1.16,0.9,0,0.8,0,.89,1.13,1.16,1.71,0.43,1.81.71,1.81,1.8S9891,8032.53,9889.39,8032.53Z" transform="translate(-9738.27 -7913.08)"/><path class="cls-1" d="M9893.81,8032.41l-1.33-5.84h0.66l1.2,5.37,1.58-5.37h0.94l1.57,5.37,1.21-5.37h0.66l-1.33,5.84h-1l-1.54-5.34-1.54,5.34h-1Z" transform="translate(-9738.27 -7913.08)"/><path class="cls-1" d="M9901.74,8025.46v-1.28h0.7v1.28h-0.7Zm0,6.95v-5.84h0.7v5.84h-0.7Z" transform="translate(-9738.27 -7913.08)"/><path class="cls-1" d="M9907.61,8032.3a3.57,3.57,0,0,1-1.22.23,1.09,1.09,0,0,1-1.32-1.26v-4.1h-1.13v-0.6h1.13v-1.38l0.7-.1v1.47h1.79l-0.07.6h-1.71v4c0,0.52.07,0.73,0.67,0.73a3.62,3.62,0,0,0,1-.17Z" transform="translate(-9738.27 -7913.08)"/><path class="cls-1" d="M9909.51,8030.54c0,1,.42,1.37,1.51,1.37a7.44,7.44,0,0,0,1.25-.12l0.08,0.58a5.67,5.67,0,0,1-1.33.17c-1.64,0-2.21-.76-2.21-2v-2.05c0-1.26.56-2,2.21-2a5.67,5.67,0,0,1,1.33.17l-0.08.58a7.44,7.44,0,0,0-1.25-.12c-1.09,0-1.51.32-1.51,1.37v2.1Z" transform="translate(-9738.27 -7913.08)"/><path class="cls-1" d="M9917.66,8032.41v-4.73a0.53,0.53,0,0,0-.64-0.59,6.18,6.18,0,0,0-2.24.67v4.64h-0.7v-8.23l0.7-.1v3a6.43,6.43,0,0,1,2.34-.63,1.12,1.12,0,0,1,1.24,1.32v4.64h-0.7Z" transform="translate(-9738.27 -7913.08)"/><path class="cls-1" d="M9923,8028.25a1.59,1.59,0,0,1,1.8-1.8,8.76,8.76,0,0,1,1.8.19v-2.46l0.7-.1v8.32h-0.64l0-.55a3.35,3.35,0,0,1-2,.67,1.44,1.44,0,0,1-1.66-1.62v-2.66Zm3.6-1a9.13,9.13,0,0,0-1.82-.2,1,1,0,0,0-1.08,1.18v2.66a0.84,0.84,0,0,0,1,1,3,3,0,0,0,1.89-.74v-3.89Z" transform="translate(-9738.27 -7913.08)"/><path class="cls-1" d="M9930.13,8026.57v4.73a0.53,0.53,0,0,0,.64.59,6.18,6.18,0,0,0,2.24-.67v-4.64h0.7v5.84h-0.61l0-.53a6.54,6.54,0,0,1-2.37.65,1.12,1.12,0,0,1-1.24-1.32v-4.64h0.7Z" transform="translate(-9738.27 -7913.08)"/><path class="cls-1" d="M9937.79,8031.92a7.42,7.42,0,0,0,1.85-.28l0.12,0.56a6.44,6.44,0,0,1-2,.32,1.87,1.87,0,0,1-2.17-2.12v-1.83a1.91,1.91,0,0,1,2.18-2.12,1.87,1.87,0,0,1,2.12,2.12v1.13h-3.61v0.73A1.26,1.26,0,0,0,9937.79,8031.92Zm-1.52-2.84h2.93v-0.53a1.26,1.26,0,0,0-1.44-1.5,1.29,1.29,0,0,0-1.49,1.5v0.53Z" transform="translate(-9738.27 -7913.08)"/><path class="cls-1" d="M9947.51,8032.3a3.58,3.58,0,0,1-1.22.23,1.09,1.09,0,0,1-1.32-1.26v-4.1h-1.13v-0.6H9945v-1.38l0.7-.1v1.47h1.79l-0.07.6h-1.71v4c0,0.52.07,0.73,0.67,0.73a3.62,3.62,0,0,0,1-.17Z" transform="translate(-9738.27 -7913.08)"/><path class="cls-1" d="M9951,8032.53a2,2,0,0,1-2.27-2.12v-1.83a2.27,2.27,0,0,1,4.53,0v1.83A2,2,0,0,1,9951,8032.53Zm1.57-4a1.57,1.57,0,0,0-3.14,0v1.88a1.57,1.57,0,0,0,3.14,0v-1.88Z" transform="translate(-9738.27 -7913.08)"/><path class="cls-1" d="M9962.2,8030.73a1.59,1.59,0,0,1-1.8,1.8,8.76,8.76,0,0,1-1.8-.19v2.43l-0.7.1v-8.3h0.64l0,0.55a3.35,3.35,0,0,1,2-.67,1.44,1.44,0,0,1,1.66,1.62v2.66Zm-3.6,1a9.13,9.13,0,0,0,1.82.2,1,1,0,0,0,1.08-1.18v-2.66a0.84,0.84,0,0,0-1-1,3,3,0,0,0-1.9.74v3.89Z" transform="translate(-9738.27 -7913.08)"/><path class="cls-1" d="M9966.12,8032.53a2,2,0,0,1-2.27-2.12v-1.83a2.27,2.27,0,0,1,4.53,0v1.83A2,2,0,0,1,9966.12,8032.53Zm1.57-4a1.57,1.57,0,0,0-3.14,0v1.88a1.57,1.57,0,0,0,3.14,0v-1.88Z" transform="translate(-9738.27 -7913.08)"/><path class="cls-1" d="M9972.22,8032.53a2,2,0,0,1-2.27-2.12v-1.83a2.27,2.27,0,0,1,4.53,0v1.83A2,2,0,0,1,9972.22,8032.53Zm1.57-4a1.57,1.57,0,0,0-3.14,0v1.88a1.57,1.57,0,0,0,3.14,0v-1.88Z" transform="translate(-9738.27 -7913.08)"/><path class="cls-1" d="M9978.89,8027.13a12.93,12.93,0,0,0-1.85,1.08v4.2h-0.7v-5.84H9977l0,0.89a9.87,9.87,0,0,1,1.8-1Z" transform="translate(-9738.27 -7913.08)"/><path class="cls-1" d="M9983.3,8030.54c0,1,.42,1.37,1.51,1.37a7.44,7.44,0,0,0,1.25-.12l0.08,0.58a5.67,5.67,0,0,1-1.33.17c-1.64,0-2.21-.76-2.21-2v-2.05c0-1.26.56-2,2.21-2a5.67,5.67,0,0,1,1.33.17l-0.08.58a7.44,7.44,0,0,0-1.25-.12c-1.09,0-1.51.32-1.51,1.37v2.1Z" transform="translate(-9738.27 -7913.08)"/><path class="cls-1" d="M9988.52,8026.57v4.73a0.53,0.53,0,0,0,.64.59,6.18,6.18,0,0,0,2.24-.67v-4.64h0.7v5.84h-0.61l0-.53a6.54,6.54,0,0,1-2.37.65,1.12,1.12,0,0,1-1.23-1.32v-4.64h0.7Z" transform="translate(-9738.27 -7913.08)"/><path class="cls-1" d="M9995.79,8032.53a5,5,0,0,1-1.71-.3l0.12-.56a5.72,5.72,0,0,0,1.55.24c1.08,0,1.29-.2,1.29-0.95s0-.92-1.36-1.24-1.58-.71-1.58-1.77,0.47-1.5,1.91-1.5a6.64,6.64,0,0,1,1.66.2l-0.07.59a9.31,9.31,0,0,0-1.63-.17c-1,0-1.16.26-1.16,0.9,0,0.8,0,.89,1.13,1.16,1.71,0.43,1.81.71,1.81,1.8S9997.35,8032.53,9995.79,8032.53Z" transform="translate(-9738.27 -7913.08)"/><path class="cls-1" d="M10002.61,8032.3a3.57,3.57,0,0,1-1.22.23,1.09,1.09,0,0,1-1.32-1.26v-4.1h-1.13v-0.6h1.13v-1.38l0.7-.1v1.47h1.79l-0.07.6h-1.71v4c0,0.52.07,0.73,0.67,0.73a3.62,3.62,0,0,0,1-.17Z" transform="translate(-9738.27 -7913.08)"/><path class="cls-1" d="M10006.11,8032.53a2,2,0,0,1-2.27-2.12v-1.83a2.27,2.27,0,0,1,4.53,0v1.83A2,2,0,0,1,10006.11,8032.53Zm1.57-4a1.57,1.57,0,0,0-3.14,0v1.88a1.57,1.57,0,0,0,3.14,0v-1.88Z" transform="translate(-9738.27 -7913.08)"/><path class="cls-1" d="M10017.39,8032.41v-4.73a0.53,0.53,0,0,0-.64-0.59,5.81,5.81,0,0,0-2.24.67v4.64h-0.7v-4.73a0.53,0.53,0,0,0-.64-0.59,6.18,6.18,0,0,0-2.24.67v4.64h-0.7v-5.84h0.61l0,0.53a6.55,6.55,0,0,1,2.38-.65,1.06,1.06,0,0,1,1.13.65,6.94,6.94,0,0,1,2.45-.65,1.12,1.12,0,0,1,1.24,1.32v4.64h-0.7Z" transform="translate(-9738.27 -7913.08)"/><path class="cls-1" d="M10022.11,8031.92a7.42,7.42,0,0,0,1.85-.28l0.12,0.56a6.44,6.44,0,0,1-2,.32,1.87,1.87,0,0,1-2.17-2.12v-1.83a1.91,1.91,0,0,1,2.18-2.12,1.87,1.87,0,0,1,2.12,2.12v1.13h-3.61v0.73A1.26,1.26,0,0,0,10022.11,8031.92Zm-1.52-2.84h2.93v-0.53a1.26,1.26,0,0,0-1.44-1.5,1.29,1.29,0,0,0-1.49,1.5v0.53Z" transform="translate(-9738.27 -7913.08)"/><path class="cls-1" d="M10028.6,8027.13a12.93,12.93,0,0,0-1.85,1.08v4.2h-0.7v-5.84h0.62l0,0.89a9.87,9.87,0,0,1,1.8-1Z" transform="translate(-9738.27 -7913.08)"/><path class="cls-1" d="M10037,8030.73a1.59,1.59,0,0,1-1.8,1.8,8.76,8.76,0,0,1-1.8-.19v2.43l-0.7.1v-8.3h0.64l0,0.55a3.35,3.35,0,0,1,2-.67,1.44,1.44,0,0,1,1.66,1.62v2.66Zm-3.6,1a9.13,9.13,0,0,0,1.82.2,1,1,0,0,0,1.08-1.18v-2.66a0.84,0.84,0,0,0-1-1,3,3,0,0,0-1.9.74v3.89Z" transform="translate(-9738.27 -7913.08)"/><path class="cls-1" d="M10040.85,8031.92a7.42,7.42,0,0,0,1.85-.28l0.12,0.56a6.44,6.44,0,0,1-2,.32,1.87,1.87,0,0,1-2.17-2.12v-1.83a1.91,1.91,0,0,1,2.18-2.12,1.87,1.87,0,0,1,2.12,2.12v1.13h-3.61v0.73A1.26,1.26,0,0,0,10040.85,8031.92Zm-1.52-2.84h2.93v-0.53a1.26,1.26,0,0,0-1.44-1.5,1.29,1.29,0,0,0-1.49,1.5v0.53Z" transform="translate(-9738.27 -7913.08)"/><path class="cls-1" d="M10047.35,8027.13a12.93,12.93,0,0,0-1.85,1.08v4.2h-0.7v-5.84h0.62l0,0.89a9.87,9.87,0,0,1,1.8-1Z" transform="translate(-9738.27 -7913.08)"/><path class="cls-1" d="M10050.17,8032.53a5,5,0,0,1-1.71-.3l0.12-.56a5.72,5.72,0,0,0,1.55.24c1.08,0,1.29-.2,1.29-0.95s0-.92-1.36-1.24-1.58-.71-1.58-1.77,0.47-1.5,1.91-1.5a6.64,6.64,0,0,1,1.66.2l-0.07.59a9.31,9.31,0,0,0-1.63-.17c-1,0-1.16.26-1.16,0.9,0,0.8,0,.89,1.13,1.16,1.71,0.43,1.81.71,1.81,1.8S10051.72,8032.53,10050.17,8032.53Z" transform="translate(-9738.27 -7913.08)"/><path class="cls-1" d="M10055.94,8032.53a2,2,0,0,1-2.27-2.12v-1.83a2.27,2.27,0,0,1,4.53,0v1.83A2,2,0,0,1,10055.94,8032.53Zm1.57-4a1.57,1.57,0,0,0-3.14,0v1.88a1.57,1.57,0,0,0,3.14,0v-1.88Z" transform="translate(-9738.27 -7913.08)"/><path class="cls-1" d="M10063.64,8032.41v-4.73a0.53,0.53,0,0,0-.64-0.59,6.18,6.18,0,0,0-2.24.67v4.64h-0.7v-5.84h0.61l0,0.53a6.55,6.55,0,0,1,2.38-.65,1.12,1.12,0,0,1,1.24,1.32v4.64h-0.7Z" transform="translate(-9738.27 -7913.08)"/><path class="cls-1" d="M10070.34,8032.41h-0.6l0-.46a3.69,3.69,0,0,1-2,.58,1.4,1.4,0,0,1-1.51-1.63c0-1.24.56-1.62,1.72-1.62h1.73v-1.14c0-.8-0.42-1.07-1.38-1.07a9,9,0,0,0-1.73.19l-0.11-.59a7.45,7.45,0,0,1,1.8-.23c1.51,0,2.11.6,2.11,1.69v4.27Zm-0.7-2.51h-1.7a0.84,0.84,0,0,0-1,1,0.8,0.8,0,0,0,1,1,3.29,3.29,0,0,0,1.79-.6v-1.4Z" transform="translate(-9738.27 -7913.08)"/><path class="cls-1" d="M10072.38,8032.41v-8.23l0.7-.1v8.32h-0.7Z" transform="translate(-9738.27 -7913.08)"/><path class="cls-1" d="M10075.23,8025.46v-1.28h0.7v1.28h-0.7Zm0,6.95v-5.84h0.7v5.84h-0.7Z" transform="translate(-9738.27 -7913.08)"/><path class="cls-1" d="M10081.1,8032.3a3.57,3.57,0,0,1-1.22.23,1.09,1.09,0,0,1-1.32-1.26v-4.1h-1.13v-0.6h1.13v-1.38l0.7-.1v1.47h1.79l-0.07.6h-1.71v4c0,0.52.07,0.73,0.67,0.73a3.62,3.62,0,0,0,1-.17Z" transform="translate(-9738.27 -7913.08)"/><path class="cls-1" d="M10084.93,8032.41l-0.86,2.36h-0.68l0.88-2.36h-0.4l-2-5.84h0.71l1.8,5.35,1.81-5.35h0.71Z" transform="translate(-9738.27 -7913.08)"/><path class="cls-1" d="M9751.07,8049.54c0,1,.42,1.37,1.51,1.37a7.44,7.44,0,0,0,1.25-.12l0.08,0.58a5.67,5.67,0,0,1-1.33.17c-1.64,0-2.21-.76-2.21-2v-2.05c0-1.26.56-2,2.21-2a5.67,5.67,0,0,1,1.33.17l-0.08.58a7.44,7.44,0,0,0-1.25-.12c-1.09,0-1.51.32-1.51,1.37v2.1Z" transform="translate(-9738.27 -7913.08)"/><path class="cls-1" d="M9757.58,8051.53a2,2,0,0,1-2.27-2.12v-1.83a2.27,2.27,0,0,1,4.53,0v1.83A2,2,0,0,1,9757.58,8051.53Zm1.57-4a1.57,1.57,0,0,0-3.14,0v1.88a1.57,1.57,0,0,0,3.14,0v-1.88Z" transform="translate(-9738.27 -7913.08)"/><path class="cls-1" d="M9765.29,8051.41v-4.73a0.53,0.53,0,0,0-.64-0.59,6.18,6.18,0,0,0-2.24.67v4.64h-0.7v-5.84h0.61l0,0.53a6.55,6.55,0,0,1,2.38-.65,1.12,1.12,0,0,1,1.24,1.32v4.64h-0.7Z" transform="translate(-9738.27 -7913.08)"/><path class="cls-1" d="M9771.66,8051.41v-4.73a0.53,0.53,0,0,0-.64-0.59,6.18,6.18,0,0,0-2.24.67v4.64h-0.7v-5.84h0.61l0,0.53a6.55,6.55,0,0,1,2.38-.65,1.12,1.12,0,0,1,1.24,1.32v4.64h-0.7Z" transform="translate(-9738.27 -7913.08)"/><path class="cls-1" d="M9776.38,8050.92a7.42,7.42,0,0,0,1.85-.28l0.12,0.56a6.44,6.44,0,0,1-2,.32,1.87,1.87,0,0,1-2.17-2.12v-1.83a1.91,1.91,0,0,1,2.18-2.12,1.87,1.87,0,0,1,2.12,2.12v1.13h-3.61v0.73A1.26,1.26,0,0,0,9776.38,8050.92Zm-1.52-2.84h2.93v-0.53a1.26,1.26,0,0,0-1.44-1.5,1.29,1.29,0,0,0-1.49,1.5v0.53Z" transform="translate(-9738.27 -7913.08)"/><path class="cls-1" d="M9780.66,8049.54c0,1,.42,1.37,1.51,1.37a7.44,7.44,0,0,0,1.25-.12l0.08,0.58a5.67,5.67,0,0,1-1.33.17c-1.64,0-2.21-.76-2.21-2v-2.05c0-1.26.56-2,2.21-2a5.67,5.67,0,0,1,1.33.17l-0.08.58a7.44,7.44,0,0,0-1.25-.12c-1.09,0-1.51.32-1.51,1.37v2.1Z" transform="translate(-9738.27 -7913.08)"/><path class="cls-1" d="M9788.25,8051.3a3.58,3.58,0,0,1-1.22.23,1.09,1.09,0,0,1-1.32-1.26v-4.1h-1.13v-0.6h1.13v-1.38l0.7-.1v1.47h1.79l-0.07.6h-1.71v4c0,0.52.07,0.73,0.67,0.73a3.62,3.62,0,0,0,1-.17Z" transform="translate(-9738.27 -7913.08)"/><path class="cls-1" d="M9789.82,8044.46v-1.28h0.7v1.28h-0.7Zm0,6.95v-5.84h0.7v5.84h-0.7Z" transform="translate(-9738.27 -7913.08)"/><path class="cls-1" d="M9794.64,8051.53a2,2,0,0,1-2.27-2.12v-1.83a2.27,2.27,0,0,1,4.53,0v1.83A2,2,0,0,1,9794.64,8051.53Zm1.57-4a1.57,1.57,0,0,0-3.14,0v1.88a1.57,1.57,0,0,0,3.14,0v-1.88Z" transform="translate(-9738.27 -7913.08)"/><path class="cls-1" d="M9802.34,8051.41v-4.73a0.53,0.53,0,0,0-.64-0.59,6.18,6.18,0,0,0-2.24.67v4.64h-0.7v-5.84h0.61l0,0.53a6.55,6.55,0,0,1,2.38-.65,1.12,1.12,0,0,1,1.24,1.32v4.64h-0.7Z" transform="translate(-9738.27 -7913.08)"/><path class="cls-1" d="M9806.67,8051.53a5,5,0,0,1-1.71-.3l0.12-.56a5.71,5.71,0,0,0,1.55.24c1.08,0,1.29-.2,1.29-0.95s0-.92-1.36-1.24-1.58-.71-1.58-1.77,0.47-1.5,1.91-1.5a6.64,6.64,0,0,1,1.66.2l-0.07.59a9.31,9.31,0,0,0-1.63-.17c-1,0-1.16.26-1.16,0.9,0,0.8,0,.89,1.13,1.16,1.71,0.43,1.81.71,1.81,1.8S9808.23,8051.53,9806.67,8051.53Z" transform="translate(-9738.27 -7913.08)"/><path class="cls-1" d="M9813.85,8051.41l-1.33-5.84h0.66l1.2,5.37,1.58-5.37h0.94l1.57,5.37,1.21-5.37h0.66l-1.33,5.84h-1l-1.54-5.34-1.54,5.34h-1Z" transform="translate(-9738.27 -7913.08)"/><path class="cls-1" d="M9821.78,8044.46v-1.28h0.7v1.28h-0.7Zm0,6.95v-5.84h0.7v5.84h-0.7Z" transform="translate(-9738.27 -7913.08)"/><path class="cls-1" d="M9827.65,8051.3a3.57,3.57,0,0,1-1.22.23,1.09,1.09,0,0,1-1.32-1.26v-4.1H9824v-0.6h1.13v-1.38l0.7-.1v1.47h1.79l-0.07.6h-1.71v4c0,0.52.07,0.73,0.67,0.73a3.62,3.62,0,0,0,1-.17Z" transform="translate(-9738.27 -7913.08)"/><path class="cls-1" d="M9832.79,8051.41v-4.73a0.53,0.53,0,0,0-.64-0.59,6.18,6.18,0,0,0-2.24.67v4.64h-0.7v-8.23l0.7-.1v3a6.43,6.43,0,0,1,2.34-.63,1.12,1.12,0,0,1,1.24,1.32v4.64h-0.7Z" transform="translate(-9738.27 -7913.08)"/><path class="cls-1" d="M9841.35,8051.3a3.58,3.58,0,0,1-1.22.23,1.09,1.09,0,0,1-1.32-1.26v-4.1h-1.13v-0.6h1.13v-1.38l0.7-.1v1.47h1.79l-0.07.6h-1.71v4c0,0.52.07,0.73,0.67,0.73a3.62,3.62,0,0,0,1-.17Z" transform="translate(-9738.27 -7913.08)"/><path class="cls-1" d="M9846.49,8051.41v-4.73a0.53,0.53,0,0,0-.64-0.59,6.18,6.18,0,0,0-2.24.67v4.64h-0.7v-8.23l0.7-.1v3a6.43,6.43,0,0,1,2.34-.63,1.12,1.12,0,0,1,1.24,1.32v4.64h-0.7Z" transform="translate(-9738.27 -7913.08)"/><path class="cls-1" d="M9851.21,8050.92a7.42,7.42,0,0,0,1.85-.28l0.12,0.56a6.44,6.44,0,0,1-2,.32,1.87,1.87,0,0,1-2.17-2.12v-1.83a1.91,1.91,0,0,1,2.18-2.12,1.87,1.87,0,0,1,2.12,2.12v1.13h-3.61v0.73A1.26,1.26,0,0,0,9851.21,8050.92Zm-1.52-2.84h2.93v-0.53a1.26,1.26,0,0,0-1.44-1.5,1.29,1.29,0,0,0-1.49,1.5v0.53Z" transform="translate(-9738.27 -7913.08)"/><path class="cls-1" d="M9861.81,8051.41h-0.6l0-.46a3.69,3.69,0,0,1-2,.58,1.4,1.4,0,0,1-1.51-1.63c0-1.24.56-1.62,1.71-1.62h1.73v-1.14c0-.8-0.42-1.07-1.38-1.07a9,9,0,0,0-1.73.19l-0.11-.59a7.45,7.45,0,0,1,1.8-.23c1.51,0,2.11.6,2.11,1.69v4.27Zm-0.7-2.51h-1.7a0.84,0.84,0,0,0-1,1,0.8,0.8,0,0,0,1,1,3.29,3.29,0,0,0,1.79-.6v-1.4Z" transform="translate(-9738.27 -7913.08)"/><path class="cls-1" d="M9865.86,8049.62a3.83,3.83,0,0,1-.78-0.07,1,1,0,0,0-.46.77c0,0.23.13,0.38,0.53,0.42l1.68,0.13a1.29,1.29,0,0,1,1.45,1.39c0,1.21-.6,1.63-2.5,1.63a8.62,8.62,0,0,1-2.05-.29l0.11-.55a9.59,9.59,0,0,0,2,.24c1.58,0,1.79-.32,1.79-1s-0.24-.8-0.94-0.85l-1.58-.11a1,1,0,0,1-1.15-1,1.21,1.21,0,0,1,.55-1,1.84,1.84,0,0,1-.86-1.75v-0.07c0-1.32.59-2.05,2.24-2.05a3.34,3.34,0,0,1,1,.12h1.61v0.5l-0.73.06a2.17,2.17,0,0,1,.38,1.37v0.07C9868.1,8048.89,9867.39,8049.62,9865.86,8049.62Zm0-3.57c-1.16,0-1.57.36-1.57,1.43v0.12c0,1.1.5,1.43,1.57,1.43s1.57-.37,1.57-1.43v-0.12C9867.43,8046.42,9867,8046,9865.86,8046Z" transform="translate(-9738.27 -7913.08)"/><path class="cls-1" d="M9872,8050.92a7.42,7.42,0,0,0,1.85-.28l0.12,0.56a6.44,6.44,0,0,1-2,.32,1.87,1.87,0,0,1-2.17-2.12v-1.83a1.91,1.91,0,0,1,2.18-2.12,1.87,1.87,0,0,1,2.12,2.12v1.13h-3.61v0.73A1.26,1.26,0,0,0,9872,8050.92Zm-1.52-2.84h2.93v-0.53a1.26,1.26,0,0,0-1.44-1.5,1.29,1.29,0,0,0-1.49,1.5v0.53Z" transform="translate(-9738.27 -7913.08)"/><path class="cls-1" d="M9879.51,8051.41v-4.73a0.53,0.53,0,0,0-.64-0.59,6.18,6.18,0,0,0-2.24.67v4.64h-0.7v-5.84h0.61l0,0.53a6.55,6.55,0,0,1,2.38-.65,1.12,1.12,0,0,1,1.24,1.32v4.64h-0.7Z" transform="translate(-9738.27 -7913.08)"/><path class="cls-1" d="M9885.32,8051.3a3.57,3.57,0,0,1-1.22.23,1.09,1.09,0,0,1-1.32-1.26v-4.1h-1.13v-0.6h1.13v-1.38l0.7-.1v1.47h1.79l-0.07.6h-1.71v4c0,0.52.07,0.73,0.67,0.73a3.62,3.62,0,0,0,1-.17Z" transform="translate(-9738.27 -7913.08)"/><path class="cls-1" d="M9888.42,8051.53a5,5,0,0,1-1.71-.3l0.12-.56a5.72,5.72,0,0,0,1.55.24c1.08,0,1.29-.2,1.29-0.95s0-.92-1.36-1.24-1.58-.71-1.58-1.77,0.47-1.5,1.91-1.5a6.64,6.64,0,0,1,1.66.2l-0.07.59a9.31,9.31,0,0,0-1.63-.17c-1,0-1.16.26-1.16,0.9,0,0.8,0,.89,1.13,1.16,1.71,0.43,1.81.71,1.81,1.8S9890,8051.53,9888.42,8051.53Z" transform="translate(-9738.27 -7913.08)"/><path class="cls-1" d="M9891.86,8047.75h2.78v0.59h-2.78v-0.59Z" transform="translate(-9738.27 -7913.08)"/><path class="cls-1" d="M9899,8044.84V8043h1.73v1.84H9899Zm0,6.57v-5.84h1.73v5.84H9899Z" transform="translate(-9738.27 -7913.08)"/><path class="cls-1" d="M9904.39,8051.53c-1.12,0-1.76-.42-1.76-1.5V8047h-0.79v-1.39h0.79v-1.4l1.73-.24v1.64h1.33l-0.1,1.39h-1.24v2.83a0.3,0.3,0,0,0,.36.32,2.39,2.39,0,0,0,.72-0.11l0.2,1.31A4.1,4.1,0,0,1,9904.39,8051.53Z" transform="translate(-9738.27 -7913.08)"/><path class="cls-1" d="M9907.69,8047l-0.78-.44,0.68-1.34H9907v-2h1.73v2.11Z" transform="translate(-9738.27 -7913.08)"/><path class="cls-1" d="M9911.77,8051.53a7.81,7.81,0,0,1-2.12-.35l0.28-1.28a6.32,6.32,0,0,0,1.76.26c0.52,0,.6-0.14.6-0.49s0-.42-0.95-0.65c-1.42-.35-1.55-0.73-1.55-1.82s0.48-1.75,2.23-1.75a8.64,8.64,0,0,1,1.78.19l-0.16,1.34a9.79,9.79,0,0,0-1.61-.17c-0.5,0-.62.13-0.62,0.4s0,0.41.74,0.56c1.67,0.37,1.79.73,1.79,1.89S9913.44,8051.53,9911.77,8051.53Z" transform="translate(-9738.27 -7913.08)"/><path class="cls-1" d="M9921,8051.41l-0.12-.37a3.57,3.57,0,0,1-1.67.49,1.52,1.52,0,0,1-1.52-1.78,1.45,1.45,0,0,1,1.74-1.64h1.26v-0.44c0-.6-0.11-0.8-1-0.8a8.14,8.14,0,0,0-1.58.17l-0.23-1.3a8.21,8.21,0,0,1,2.1-.29c2,0,2.47.61,2.47,2.23v3.73H9921Zm-0.31-2.1h-0.83c-0.37,0-.52.1-0.52,0.42a0.39,0.39,0,0,0,.47.46,2,2,0,0,0,.88-0.2v-0.67Z" transform="translate(-9738.27 -7913.08)"/><path class="cls-1" d="M9928.16,8051.5a6.36,6.36,0,0,1-1.75-.38l0.31-1.4a6.78,6.78,0,0,0,1.91.32c0.83,0,1-.19,1-0.86s-0.06-.78-1.14-1c-1.75-.35-2-0.85-2-2.41a1.88,1.88,0,0,1,2-2.21v-1.38h1.38v1.39a8.35,8.35,0,0,1,1.36.2l-0.18,1.48a9.56,9.56,0,0,0-2-.2c-0.74,0-.86.13-0.86,0.76s0,0.68,1.18,1c1.94,0.49,2,1,2,2.39s-0.31,2.12-1.81,2.31v1.38h-1.38v-1.36Z" transform="translate(-9738.27 -7913.08)"/><path class="cls-1" d="M9932.61,8049.21v-2.93c0-2.17,1.48-2.75,3.68-2.75a8.08,8.08,0,0,1,1.18.1l-0.12,1.41a7.45,7.45,0,0,0-.82-0.06c-1.61,0-2.19.29-2.19,1.28v0.59a4.28,4.28,0,0,1,1.32-.18,1.75,1.75,0,0,1,2,2v0.52c0,1.2-.47,2.31-2.54,2.31S9932.61,8050.47,9932.61,8049.21Zm3.35,0.08v-0.53a0.52,0.52,0,0,0-.59-0.6,2.48,2.48,0,0,0-1,.21v0.91c0,0.55.18,0.74,0.8,0.74A0.66,0.66,0,0,0,9936,8049.3Z" transform="translate(-9738.27 -7913.08)"/><path class="cls-1" d="M9945.08,8045v6.39h-1.8V8045h-2.15v-1.6h6.09v1.6h-2.15Z" transform="translate(-9738.27 -7913.08)"/><path class="cls-1" d="M9949.34,8047.85v3.56h-1.73v-5.84h1.44l0.12,0.56a5.6,5.6,0,0,1,1.57-.68l0.14,1.63A8.4,8.4,0,0,0,9949.34,8047.85Z" transform="translate(-9738.27 -7913.08)"/><path class="cls-1" d="M9951.87,8044.84V8043h1.73v1.84h-1.73Zm0,6.57v-5.84h1.73v5.84h-1.73Z" transform="translate(-9738.27 -7913.08)"/><path class="cls-1" d="M9955.28,8051.41v-8.23l1.73-.24v8.47h-1.73Z" transform="translate(-9738.27 -7913.08)"/><path class="cls-1" d="M9958.69,8051.41v-8.23l1.73-.24v8.47h-1.73Z" transform="translate(-9738.27 -7913.08)"/><path class="cls-1" d="M9962.1,8044.84V8043h1.73v1.84h-1.73Zm0,6.57v-5.84h1.73v5.84h-1.73Z" transform="translate(-9738.27 -7913.08)"/><path class="cls-1" d="M9965.21,8049.17v-1.36c0-1.2.56-2.36,2.64-2.36s2.64,1.16,2.64,2.36v1.36c0,1.2-.56,2.36-2.64,2.36S9965.21,8050.36,9965.21,8049.17Zm3.55,0v-1.45a0.91,0.91,0,0,0-1.82,0v1.45A0.91,0.91,0,0,0,9968.76,8049.21Z" transform="translate(-9738.27 -7913.08)"/><path class="cls-1" d="M9975.27,8051.41v-3.86a0.37,0.37,0,0,0-.42-0.42,3.38,3.38,0,0,0-1.26.42v3.86h-1.73v-5.84h1.28l0.18,0.44a5.89,5.89,0,0,1,2.33-.56c1,0,1.34.74,1.34,1.87v4.09h-1.73Z" transform="translate(-9738.27 -7913.08)"/><path class="cls-1" d="M9984.36,8051.41h-3.09v-8h3.09c2,0,2.7,1,2.7,2.08v3.84C9987.05,8050.4,9986.32,8051.41,9984.36,8051.41Zm0.9-5.42c0-.62-0.22-1-1.12-1h-1.08v4.8h1.08c0.9,0,1.12-.35,1.12-1V8046Z" transform="translate(-9738.27 -7913.08)"/><path class="cls-1" d="M9988.26,8049.17v-1.36c0-1.2.56-2.36,2.64-2.36s2.64,1.16,2.64,2.36v1.36c0,1.2-.56,2.36-2.64,2.36S9988.26,8050.36,9988.26,8049.17Zm3.55,0v-1.45a0.91,0.91,0,0,0-1.82,0v1.45A0.91,0.91,0,0,0,9991.81,8049.21Z" transform="translate(-9738.27 -7913.08)"/><path class="cls-1" d="M9994.92,8051.41v-8.23l1.73-.24v8.47h-1.73Z" transform="translate(-9738.27 -7913.08)"/><path class="cls-1" d="M9998.33,8051.41v-8.23l1.73-.24v8.47h-1.73Z" transform="translate(-9738.27 -7913.08)"/><path class="cls-1" d="M10004.86,8051.41l-0.12-.37a3.57,3.57,0,0,1-1.67.49,1.52,1.52,0,0,1-1.52-1.78,1.45,1.45,0,0,1,1.74-1.64h1.26v-0.44c0-.6-0.11-0.8-1-0.8a8.14,8.14,0,0,0-1.58.17l-0.23-1.3a8.21,8.21,0,0,1,2.1-.29c2,0,2.47.61,2.47,2.23v3.73h-1.42Zm-0.31-2.1h-0.83c-0.37,0-.52.1-0.52,0.42a0.39,0.39,0,0,0,.47.46,2,2,0,0,0,.88-0.2v-0.67Z" transform="translate(-9738.27 -7913.08)"/><path class="cls-1" d="M10009.57,8047.85v3.56h-1.73v-5.84h1.44l0.12,0.56a5.6,5.6,0,0,1,1.57-.68l0.14,1.63A8.43,8.43,0,0,0,10009.57,8047.85Z" transform="translate(-9738.27 -7913.08)"/><path class="cls-1" d="M10020.75,8049.08c0,1.21-.84,2.45-3.09,2.45s-3.09-1.23-3.09-2.45v-3.33c0-1.21.84-2.45,3.09-2.45s3.09,1.23,3.09,2.45v3.33Zm-1.8-3.18a1.34,1.34,0,0,0-2.59,0v3a1.34,1.34,0,0,0,2.59,0v-3Z" transform="translate(-9738.27 -7913.08)"/><path class="cls-1" d="M10027.43,8049.37c0,1.38-.6,2.16-2,2.16a7.15,7.15,0,0,1-1.49-.17v2.41l-1.73.24v-8.44h1.36l0.18,0.47a3.77,3.77,0,0,1,1.8-.59c1.19,0,1.85.73,1.85,2.16v1.76Zm-3.45.52a5.2,5.2,0,0,0,1.1.14,0.57,0.57,0,0,0,.62-0.66v-1.76a0.56,0.56,0,0,0-.62-0.66,1.91,1.91,0,0,0-1.1.46v2.48Z" transform="translate(-9738.27 -7913.08)"/><path class="cls-1" d="M10034,8049.37c0,1.38-.6,2.16-2,2.16a7.15,7.15,0,0,1-1.49-.17v2.41l-1.73.24v-8.44h1.36l0.18,0.47a3.77,3.77,0,0,1,1.8-.59c1.19,0,1.85.73,1.85,2.16v1.76Zm-3.45.52a5.2,5.2,0,0,0,1.1.14,0.57,0.57,0,0,0,.62-0.66v-1.76a0.56,0.56,0,0,0-.62-0.66,1.91,1.91,0,0,0-1.1.46v2.48Z" transform="translate(-9738.27 -7913.08)"/><path class="cls-1" d="M10035.08,8049.17v-1.36c0-1.2.56-2.36,2.64-2.36s2.64,1.16,2.64,2.36v1.36c0,1.2-.56,2.36-2.64,2.36S10035.08,8050.36,10035.08,8049.17Zm3.55,0v-1.45a0.91,0.91,0,0,0-1.82,0v1.45A0.91,0.91,0,0,0,10038.63,8049.21Z" transform="translate(-9738.27 -7913.08)"/><path class="cls-1" d="M10043.47,8047.85v3.56h-1.73v-5.84h1.44l0.12,0.56a5.6,5.6,0,0,1,1.57-.68l0.14,1.63A8.4,8.4,0,0,0,10043.47,8047.85Z" transform="translate(-9738.27 -7913.08)"/><path class="cls-1" d="M10048.07,8051.53c-1.12,0-1.76-.42-1.76-1.5V8047h-0.79v-1.39h0.79v-1.4l1.73-.24v1.64h1.33l-0.1,1.39H10048v2.83a0.3,0.3,0,0,0,.36.32,2.39,2.39,0,0,0,.72-0.11l0.2,1.31A4.1,4.1,0,0,1,10048.07,8051.53Z" transform="translate(-9738.27 -7913.08)"/><path class="cls-1" d="M10052.23,8045.57v3.86a0.37,0.37,0,0,0,.42.42,3.38,3.38,0,0,0,1.26-.42v-3.86h1.73v5.84h-1.28l-0.18-.44a5.89,5.89,0,0,1-2.33.56c-1,0-1.34-.74-1.34-1.87v-4.09h1.73Z" transform="translate(-9738.27 -7913.08)"/><path class="cls-1" d="M10060.72,8051.41v-3.86a0.37,0.37,0,0,0-.42-0.42,3.38,3.38,0,0,0-1.26.42v3.86h-1.73v-5.84h1.28l0.18,0.44a5.89,5.89,0,0,1,2.33-.56c1,0,1.34.74,1.34,1.87v4.09h-1.73Z" transform="translate(-9738.27 -7913.08)"/><path class="cls-1" d="M10064.07,8044.84V8043h1.73v1.84h-1.73Zm0,6.57v-5.84h1.73v5.84h-1.73Z" transform="translate(-9738.27 -7913.08)"/><path class="cls-1" d="M10069.43,8051.53c-1.12,0-1.76-.42-1.76-1.5V8047h-0.79v-1.39h0.79v-1.4l1.73-.24v1.64h1.33l-0.1,1.39h-1.24v2.83a0.3,0.3,0,0,0,.36.32,2.39,2.39,0,0,0,.72-0.11l0.2,1.31A4.1,4.1,0,0,1,10069.43,8051.53Z" transform="translate(-9738.27 -7913.08)"/><path class="cls-1" d="M10073,8053.77l0.68-2.36h-0.55l-1.8-5.84h1.75l1.19,4.14,1.19-4.14h1.75l-1.83,5.84-0.74,2.36H10073Z" transform="translate(-9738.27 -7913.08)"/><path class="cls-1" d="M10077.5,8051.41v-2h1.73v2h-1.73Z" transform="translate(-9738.27 -7913.08)"/></svg>