<svg id="Layer_2" data-name="Layer 2" xmlns="http://www.w3.org/2000/svg" viewBox="0 0 328.36 95.36"><defs><style>.cls-1{fill:none;stroke:#03929d;stroke-miterlimit:10;stroke-width:1.5px;}</style></defs><title>section1-text</title><path d="M9170,7630.88h-2.65v-14H9170v14Z" transform="translate(-9165.23 -7616.31)"/><path d="M9179.18,7630.88v-7.14a0.71,0.71,0,0,0-.82-0.82,7.05,7.05,0,0,0-2.67.86v7.1h-2.56v-10.22h2l0.25,0.86a10.24,10.24,0,0,1,4.09-1.07c1.7,0,2.31,1.2,2.31,3v7.41h-2.56Z" transform="translate(-9165.23 -7616.31)"/><path d="M9184.12,7627.17v-2.79c0-2.75,1.2-3.93,4.41-3.93a8.8,8.8,0,0,1,2.5.38l-0.31,2.1a9.29,9.29,0,0,0-2.12-.27c-1.47,0-1.91.44-1.91,1.7v2.83c0,1.26.44,1.7,1.91,1.7a8.62,8.62,0,0,0,2.12-.27l0.31,2.1a8.44,8.44,0,0,1-2.5.38C9185.31,7631.09,9184.12,7629.92,9184.12,7627.17Z" transform="translate(-9165.23 -7616.31)"/><path d="M9198.65,7622.8a20.13,20.13,0,0,0-2.71,1.49v6.59h-2.56v-10.22h2.16l0.17,1.13a11.51,11.51,0,0,1,2.69-1.34Z" transform="translate(-9165.23 -7616.31)"/><path d="M9204.47,7629a10.72,10.72,0,0,0,3.13-.48l0.4,1.93a11,11,0,0,1-3.76.65c-3.21,0-4.33-1.49-4.33-3.95v-2.71c0-2.16,1-4,4.24-4s4,1.91,4,4.12v2.18h-5.69v0.53C9202.47,7628.51,9202.91,7629,9204.47,7629Zm-2-4.3h3.25v-0.5a1.37,1.37,0,0,0-1.55-1.64,1.47,1.47,0,0,0-1.7,1.64v0.5Z" transform="translate(-9165.23 -7616.31)"/><path d="M9218.05,7630.88H9216l-0.19-.69a5.59,5.59,0,0,1-3,.9c-1.87,0-2.67-1.28-2.67-3,0-2.08.9-2.88,3-2.88h2.46v-1.07c0-1.13-.31-1.53-2-1.53a14.34,14.34,0,0,0-2.83.31l-0.31-2a13.35,13.35,0,0,1,3.51-.48c3.21,0,4.16,1.13,4.16,3.7v6.74Zm-2.56-3.86h-1.89c-0.84,0-1.07.23-1.07,1a0.86,0.86,0,0,0,1,1,4,4,0,0,0,1.93-.53V7627Z" transform="translate(-9165.23 -7616.31)"/><path d="M9224,7631.09a12.05,12.05,0,0,1-3.53-.59l0.36-2a11.45,11.45,0,0,0,3,.44c1.13,0,1.3-.25,1.3-1s-0.12-.95-1.78-1.34c-2.5-.61-2.79-1.24-2.79-3.21s0.9-3,3.82-3a13.5,13.5,0,0,1,3.07.36l-0.25,2a18,18,0,0,0-2.81-.29c-1.11,0-1.3.25-1.3,0.88,0,0.82.06,0.88,1.45,1.24,2.86,0.76,3.13,1.13,3.13,3.23S9227,7631.09,9224,7631.09Z" transform="translate(-9165.23 -7616.31)"/><path d="M9234.26,7629a10.72,10.72,0,0,0,3.13-.48l0.4,1.93a11,11,0,0,1-3.76.65c-3.21,0-4.33-1.49-4.33-3.95v-2.71c0-2.16,1-4,4.24-4s4,1.91,4,4.12v2.18h-5.69v0.53C9232.27,7628.51,9232.71,7629,9234.26,7629Zm-2-4.3h3.25v-0.5a1.37,1.37,0,0,0-1.55-1.64,1.47,1.47,0,0,0-1.7,1.64v0.5Z" transform="translate(-9165.23 -7616.31)"/><path d="M9252.18,7616.9H9255l-4.51,9.93v4.05h-2.65v-4.05l-4.51-9.93h2.81l3,7.05Z" transform="translate(-9165.23 -7616.31)"/><path d="M9259,7631.09c-3.51,0-4.45-1.93-4.45-4v-2.58c0-2.1.94-4,4.45-4s4.45,1.93,4.45,4v2.58C9263.5,7629.16,9262.55,7631.09,9259,7631.09Zm0-8.46c-1.36,0-1.89.61-1.89,1.76v2.75c0,1.16.53,1.76,1.89,1.76s1.89-.61,1.89-1.76v-2.75C9260.93,7623.24,9260.41,7622.63,9259,7622.63Z" transform="translate(-9165.23 -7616.31)"/><path d="M9268.43,7620.66v7.14a0.71,0.71,0,0,0,.82.82,7.06,7.06,0,0,0,2.67-.86v-7.1h2.56v10.22h-2l-0.25-.86a10.23,10.23,0,0,1-4.09,1.07c-1.7,0-2.31-1.2-2.31-3v-7.41h2.56Z" transform="translate(-9165.23 -7616.31)"/><path d="M9282.69,7622.8a20.13,20.13,0,0,0-2.71,1.49v6.59h-2.56v-10.22h2.16l0.17,1.13a11.51,11.51,0,0,1,2.69-1.34Z" transform="translate(-9165.23 -7616.31)"/><path d="M9297.31,7630.88l-3.21-4.62h-2.52v4.62h-2.65v-14h5.73c3.25,0,4.45,1.32,4.45,3.78v1.83a3.19,3.19,0,0,1-2.1,3.38l3.46,5h-3.17Zm-2.75-11.65h-3V7624h3c1.45,0,1.91-.52,1.91-1.7v-1.39C9296.47,7619.71,9296,7619.23,9294.55,7619.23Z" transform="translate(-9165.23 -7616.31)"/><path d="M9306.36,7629a10.72,10.72,0,0,0,3.13-.48l0.4,1.93a11,11,0,0,1-3.76.65c-3.21,0-4.33-1.49-4.33-3.95v-2.71c0-2.16,1-4,4.24-4s4,1.91,4,4.12v2.18h-5.69v0.53C9304.36,7628.51,9304.8,7629,9306.36,7629Zm-2-4.3h3.25v-0.5a1.37,1.37,0,0,0-1.55-1.64,1.47,1.47,0,0,0-1.7,1.64v0.5Z" transform="translate(-9165.23 -7616.31)"/><path d="M9317.65,7630.88h-3.38l-3.28-10.22h2.63l2.33,7.77,2.35-7.77h2.63Z" transform="translate(-9165.23 -7616.31)"/><path d="M9326.6,7629a10.72,10.72,0,0,0,3.13-.48l0.4,1.93a11,11,0,0,1-3.76.65c-3.21,0-4.33-1.49-4.33-3.95v-2.71c0-2.16,1-4,4.24-4s4,1.91,4,4.12v2.18h-5.69v0.53C9324.61,7628.51,9325,7629,9326.6,7629Zm-2-4.3h3.25v-0.5a1.37,1.37,0,0,0-1.55-1.64,1.47,1.47,0,0,0-1.7,1.64v0.5Z" transform="translate(-9165.23 -7616.31)"/><path d="M9338.65,7630.88v-7.14a0.71,0.71,0,0,0-.82-0.82,7.06,7.06,0,0,0-2.67.86v7.1h-2.56v-10.22h2l0.25,0.86a10.25,10.25,0,0,1,4.09-1.07c1.7,0,2.31,1.2,2.31,3v7.41h-2.56Z" transform="translate(-9165.23 -7616.31)"/><path d="M9346.51,7620.66v7.14a0.71,0.71,0,0,0,.82.82,7.06,7.06,0,0,0,2.67-.86v-7.1h2.56v10.22h-2l-0.25-.86a10.23,10.23,0,0,1-4.09,1.07c-1.7,0-2.31-1.2-2.31-3v-7.41h2.56Z" transform="translate(-9165.23 -7616.31)"/><path d="M9359.59,7629a10.72,10.72,0,0,0,3.13-.48l0.4,1.93a11,11,0,0,1-3.76.65c-3.21,0-4.33-1.49-4.33-3.95v-2.71c0-2.16,1-4,4.24-4s4,1.91,4,4.12v2.18h-5.69v0.53C9357.6,7628.51,9358,7629,9359.59,7629Zm-2-4.3h3.25v-0.5a1.37,1.37,0,0,0-1.55-1.64,1.47,1.47,0,0,0-1.7,1.64v0.5Z" transform="translate(-9165.23 -7616.31)"/><path d="M9376.45,7620.57l1.91,9.59,2.37-5.86a5.33,5.33,0,0,0,.36-2.08,6.71,6.71,0,0,0-.17-1.49l1.11-.17a9.79,9.79,0,0,1,.15,1.6,6.45,6.45,0,0,1-.4,2.35l-2.58,6.36h-1.81l-1.26-6.45-3.49,6.45h-1.78a44.55,44.55,0,0,0-1-10.14l1.09-.17a47.31,47.31,0,0,1,.92,9.59l4-7.29-0.4-2.14Z" transform="translate(-9165.23 -7616.31)"/><path d="M9385.28,7620.74l1.2-.17-1.81,10.31h-1.18Zm0.73-4.26,1.22-.17-0.42,2.37-1.2.17Z" transform="translate(-9165.23 -7616.31)"/><path d="M9389.24,7629.73a2.94,2.94,0,0,1,0-.4l1.34-7.66h-2l0.17-1h2l0.44-2.5,1.2-.17-0.46,2.67h3.07l-0.23,1h-3l-1.32,7.54a3,3,0,0,0,0,.38c0,0.4.21,0.5,0.69,0.5a5.55,5.55,0,0,0,2-.48l0.29,0.8a5.2,5.2,0,0,1-2.54.69C9389.89,7631.09,9389.24,7630.65,9389.24,7629.73Z" transform="translate(-9165.23 -7616.31)"/><path d="M9403.5,7622.57a2.48,2.48,0,0,0,0-.34c0-.5-0.27-0.69-0.86-0.69a11,11,0,0,0-4.37,1.76l-1.34,7.58h-1.18l2.54-14.4,1.2-.17-1,5.79a10.24,10.24,0,0,1,4.37-1.66,1.56,1.56,0,0,1,1.81,1.68,3.88,3.88,0,0,1-.06.65l-1.43,8.1H9402Z" transform="translate(-9165.23 -7616.31)"/><path d="M9422.06,7630.88l-0.9-13.21-5.33,13.21h-1.93l-1.3-14h1.11L9415,7630l5.38-13.14h1.85l1,13.14,5.44-13.14h1.22l-5.77,14h-2Z" transform="translate(-9165.23 -7616.31)"/><path d="M9429.46,7628.24a4.69,4.69,0,0,1,.08-0.92l0.54-3.11c0.4-2.25,1.58-3.76,4.6-3.76,2.27,0,3.4,1.18,3.4,2.88a5.17,5.17,0,0,1-.08.78l-0.59,3.34c-0.4,2.27-1.66,3.65-4.6,3.65C9430.4,7631.09,9429.46,7629.88,9429.46,7628.24Zm7.37-4.14a4.29,4.29,0,0,0,.06-0.71c0-1.26-.73-1.89-2.39-1.89a2.92,2.92,0,0,0-3.23,2.71l-0.57,3.21a5.27,5.27,0,0,0-.06.78c0,1.2.65,1.85,2.37,1.85a2.9,2.9,0,0,0,3.23-2.62Z" transform="translate(-9165.23 -7616.31)"/><path d="M9445.59,7621.6c-1.11.65-2.18,1.34-3.28,2.06l-1.26,7.22h-1.18l1.76-10.14,1.09-.17-0.25,1.8a23.51,23.51,0,0,1,3-1.93Z" transform="translate(-9165.23 -7616.31)"/><path d="M9448.71,7616.48l1.2-.17-2.56,14.57h-1.18Zm0.21,9.22,4.68-5.19,1.13,0.42-4.51,4.81,3.07,5.14H9452Z" transform="translate(-9165.23 -7616.31)"/><path d="M9455.35,7630.57l0.25-1a9.71,9.71,0,0,0,2.71.44c1.72,0,2.14-.23,2.37-1.68,0.17-1-.15-1.3-1.89-2.23-2-1-2.56-1.6-2.31-3.23s1-2.46,3.55-2.46a10.27,10.27,0,0,1,2.83.42l-0.21,1a12.28,12.28,0,0,0-2.69-.36c-1.72,0-2.08.25-2.31,1.51s0.17,1.41,1.62,2.2c2.42,1.32,2.81,1.74,2.54,3.34-0.29,1.76-.88,2.54-3.55,2.54A8.29,8.29,0,0,1,9455.35,7630.57Z" transform="translate(-9165.23 -7616.31)"/><path d="M9465.24,7629.73a2.94,2.94,0,0,1,0-.4l1.34-7.66h-2l0.17-1h2l0.44-2.5,1.2-.17-0.46,2.67h3.07l-0.23,1h-3l-1.32,7.54a3,3,0,0,0,0,.38c0,0.4.21,0.5,0.69,0.5a5.55,5.55,0,0,0,2-.48l0.29,0.8a5.2,5.2,0,0,1-2.54.69C9465.89,7631.09,9465.24,7630.65,9465.24,7629.73Z" transform="translate(-9165.23 -7616.31)"/><path d="M9471,7635.19l-0.32-.9a6.4,6.4,0,0,0,3.76-3.4h-0.59l-1.68-10.14,1.13-.17,1.53,9.53,3.25-6.45a3.55,3.55,0,0,0,.46-1.64,4.36,4.36,0,0,0-.25-1.28l1.2-.17a5.24,5.24,0,0,1,.21,1.41,4.07,4.07,0,0,1-.38,1.72l-3.7,7.18C9474.54,7632.84,9473.6,7634.33,9471,7635.19Z" transform="translate(-9165.23 -7616.31)"/><path d="M9483.15,7616.48l1.2-.17-2.56,14.57h-1.18Z" transform="translate(-9165.23 -7616.31)"/><path d="M9486.6,7628.22a5,5,0,0,0,0,.54c0,0.86.34,1.3,1.76,1.3a8.66,8.66,0,0,0,3.61-1l0.29,0.9a9,9,0,0,1-4.05,1.11c-1.91,0-2.79-.76-2.79-2.31a5.94,5.94,0,0,1,.11-1l0.61-3.44c0.46-2.6,1.8-3.88,4.43-3.88,1.66,0,2.71.84,2.71,2.37s-1.09,2.52-3.88,3.3l-2.5.69Zm5.5-5.42c0-.92-0.61-1.34-1.68-1.34-1.83,0-2.79.95-3.15,3l-0.23,1.3,2.37-.63C9491.32,7624.58,9492.1,7623.89,9492.1,7622.8Z" transform="translate(-9165.23 -7616.31)"/><path d="M9167.69,7653.62h-2.46V7653h5.63v0.64h-2.46V7661h-0.71v-7.35Z" transform="translate(-9165.23 -7616.31)"/><path d="M9173.64,7655.69a12.94,12.94,0,0,0-1.85,1.08v4.2h-0.7v-5.84h0.62l0,0.89a9.93,9.93,0,0,1,1.8-1Z" transform="translate(-9165.23 -7616.31)"/><path d="M9178.65,7661h-0.6l0-.46a3.69,3.69,0,0,1-2,.58,1.4,1.4,0,0,1-1.51-1.63c0-1.24.56-1.62,1.72-1.62H9178v-1.14c0-.8-0.42-1.07-1.38-1.07a9.11,9.11,0,0,0-1.73.19l-0.11-.59a7.4,7.4,0,0,1,1.8-.23c1.51,0,2.11.6,2.11,1.69V7661Zm-0.7-2.51h-1.7a0.84,0.84,0,0,0-1,1,0.8,0.8,0,0,0,1,1,3.28,3.28,0,0,0,1.79-.6v-1.4Z" transform="translate(-9165.23 -7616.31)"/><path d="M9180.58,7654v-1.28h0.7V7654h-0.7Zm0,6.94v-5.84h0.7V7661h-0.7Z" transform="translate(-9165.23 -7616.31)"/><path d="M9186.89,7661v-4.73a0.53,0.53,0,0,0-.64-0.59,6.17,6.17,0,0,0-2.24.67V7661h-0.7v-5.84h0.61l0,0.53a6.55,6.55,0,0,1,2.38-.65,1.12,1.12,0,0,1,1.24,1.32V7661h-0.7Z" transform="translate(-9165.23 -7616.31)"/><path d="M9189.56,7654v-1.28h0.7V7654h-0.7Zm0,6.94v-5.84h0.7V7661h-0.7Z" transform="translate(-9165.23 -7616.31)"/><path d="M9195.88,7661v-4.73a0.53,0.53,0,0,0-.64-0.59,6.17,6.17,0,0,0-2.24.67V7661h-0.7v-5.84h0.61l0,0.53a6.55,6.55,0,0,1,2.38-.65,1.12,1.12,0,0,1,1.24,1.32V7661h-0.7Z" transform="translate(-9165.23 -7616.31)"/><path d="M9200.56,7659.18a3.77,3.77,0,0,1-.78-0.07,1,1,0,0,0-.46.77c0,0.23.13,0.38,0.53,0.42l1.68,0.13a1.29,1.29,0,0,1,1.45,1.39c0,1.21-.6,1.63-2.5,1.63a8.57,8.57,0,0,1-2.05-.29l0.11-.55a9.59,9.59,0,0,0,2,.24c1.58,0,1.79-.32,1.79-1s-0.24-.8-0.94-0.85l-1.58-.11a1,1,0,0,1-1.15-1,1.21,1.21,0,0,1,.55-1,1.84,1.84,0,0,1-.86-1.75v-0.07c0-1.32.59-2.05,2.24-2.05a3.34,3.34,0,0,1,1,.12h1.61v0.5l-0.73.06a2.17,2.17,0,0,1,.38,1.37v0.07C9202.8,7658.45,9202.09,7659.18,9200.56,7659.18Zm0-3.57c-1.16,0-1.57.36-1.57,1.43v0.12c0,1.1.5,1.43,1.57,1.43s1.57-.37,1.57-1.43V7657C9202.13,7656,9201.72,7655.61,9200.56,7655.61Z" transform="translate(-9165.23 -7616.31)"/><path d="M9209.56,7661l-0.86,2.36H9208l0.88-2.36h-0.4l-2-5.84h0.71l1.8,5.35,1.81-5.35h0.71Z" transform="translate(-9165.23 -7616.31)"/><path d="M9214.64,7661.09a2,2,0,0,1-2.27-2.12v-1.83a2.27,2.27,0,0,1,4.53,0V7659A2,2,0,0,1,9214.64,7661.09Zm1.57-4a1.57,1.57,0,0,0-3.14,0V7659a1.57,1.57,0,0,0,3.14,0v-1.88Z" transform="translate(-9165.23 -7616.31)"/><path d="M9219.29,7655.13v4.73a0.53,0.53,0,0,0,.64.59,6.16,6.16,0,0,0,2.24-.67v-4.64h0.7V7661h-0.61l0-.53a6.54,6.54,0,0,1-2.37.65,1.12,1.12,0,0,1-1.24-1.32v-4.64h0.7Z" transform="translate(-9165.23 -7616.31)"/><path d="M9227.45,7655.69a12.94,12.94,0,0,0-1.85,1.08v4.2h-0.7v-5.84h0.62l0,0.89a9.93,9.93,0,0,1,1.8-1Z" transform="translate(-9165.23 -7616.31)"/><path d="M9235.19,7661h-0.6l0-.46a3.69,3.69,0,0,1-2,.58,1.4,1.4,0,0,1-1.51-1.63c0-1.24.56-1.62,1.72-1.62h1.73v-1.14c0-.8-0.42-1.07-1.38-1.07a9.11,9.11,0,0,0-1.73.19l-0.11-.59a7.4,7.4,0,0,1,1.8-.23c1.51,0,2.11.6,2.11,1.69V7661Zm-0.7-2.51h-1.7a0.84,0.84,0,0,0-1,1,0.8,0.8,0,0,0,1,1,3.28,3.28,0,0,0,1.79-.6v-1.4Z" transform="translate(-9165.23 -7616.31)"/><path d="M9239.11,7659.18a3.77,3.77,0,0,1-.78-0.07,1,1,0,0,0-.46.77c0,0.23.13,0.38,0.53,0.42l1.68,0.13a1.29,1.29,0,0,1,1.45,1.39c0,1.21-.6,1.63-2.5,1.63a8.57,8.57,0,0,1-2.05-.29l0.11-.55a9.59,9.59,0,0,0,2,.24c1.58,0,1.79-.32,1.79-1s-0.24-.8-0.94-0.85l-1.58-.11a1,1,0,0,1-1.15-1,1.21,1.21,0,0,1,.55-1,1.84,1.84,0,0,1-.86-1.75v-0.07c0-1.32.59-2.05,2.24-2.05a3.34,3.34,0,0,1,1,.12h1.61v0.5l-0.73.06a2.17,2.17,0,0,1,.38,1.37v0.07C9241.35,7658.45,9240.65,7659.18,9239.11,7659.18Zm0-3.57c-1.16,0-1.57.36-1.57,1.43v0.12c0,1.1.5,1.43,1.57,1.43s1.57-.37,1.57-1.43V7657C9240.68,7656,9240.27,7655.61,9239.11,7655.61Z" transform="translate(-9165.23 -7616.31)"/><path d="M9245.12,7660.48a7.38,7.38,0,0,0,1.85-.28l0.12,0.56a6.44,6.44,0,0,1-2,.32,1.87,1.87,0,0,1-2.17-2.12v-1.83a1.91,1.91,0,0,1,2.18-2.12,1.87,1.87,0,0,1,2.12,2.12v1.13h-3.61V7659A1.26,1.26,0,0,0,9245.12,7660.48Zm-1.52-2.84h2.93v-0.53a1.26,1.26,0,0,0-1.44-1.5,1.29,1.29,0,0,0-1.49,1.5v0.53Z" transform="translate(-9165.23 -7616.31)"/><path d="M9252.53,7661v-4.73a0.53,0.53,0,0,0-.64-0.59,6.17,6.17,0,0,0-2.24.67V7661H9249v-5.84h0.61l0,0.53a6.55,6.55,0,0,1,2.38-.65,1.12,1.12,0,0,1,1.24,1.32V7661h-0.7Z" transform="translate(-9165.23 -7616.31)"/><path d="M9258.21,7660.86a3.56,3.56,0,0,1-1.22.23,1.09,1.09,0,0,1-1.32-1.26v-4.1h-1.13v-0.6h1.13v-1.38l0.7-.1v1.48h1.79l-0.07.6h-1.71v4c0,0.52.07,0.73,0.67,0.73a3.65,3.65,0,0,0,1-.17Z" transform="translate(-9165.23 -7616.31)"/><path d="M9261.19,7661.09a5,5,0,0,1-1.71-.3l0.12-.56a5.76,5.76,0,0,0,1.55.24c1.08,0,1.29-.2,1.29-0.95s0-.92-1.36-1.24-1.58-.71-1.58-1.78,0.47-1.5,1.91-1.5a6.59,6.59,0,0,1,1.66.2l-0.07.59a9.31,9.31,0,0,0-1.63-.17c-1,0-1.16.26-1.16,0.9,0,0.8,0,.89,1.13,1.16,1.71,0.43,1.81.71,1.81,1.8S9262.75,7661.09,9261.19,7661.09Z" transform="translate(-9165.23 -7616.31)"/><path d="M9270.53,7660.86a3.55,3.55,0,0,1-1.22.23,1.09,1.09,0,0,1-1.32-1.26v-4.1h-1.13v-0.6H9268v-1.38l0.7-.1v1.48h1.79l-0.07.6h-1.71v4c0,0.52.07,0.73,0.67,0.73a3.65,3.65,0,0,0,1-.17Z" transform="translate(-9165.23 -7616.31)"/><path d="M9273.91,7661.09a2,2,0,0,1-2.27-2.12v-1.83a2.27,2.27,0,0,1,4.53,0V7659A2,2,0,0,1,9273.91,7661.09Zm1.57-4a1.57,1.57,0,0,0-3.14,0V7659a1.57,1.57,0,0,0,3.14,0v-1.88Z" transform="translate(-9165.23 -7616.31)"/><path d="M9284.85,7659c0,1.31-.58,2.06-2.34,2.06a10.17,10.17,0,0,1-2-.22v-8.13l0.7-.1v2.81a4.12,4.12,0,0,1,1.92-.44,1.51,1.51,0,0,1,1.68,1.7V7659Zm-3.6,1.31a7.55,7.55,0,0,0,1.34.12c1.26,0,1.56-.53,1.56-1.4v-2.35a0.9,0.9,0,0,0-1.08-1,3.54,3.54,0,0,0-1.82.5v4.15Z" transform="translate(-9165.23 -7616.31)"/><path d="M9288.57,7660.48a7.38,7.38,0,0,0,1.85-.28l0.12,0.56a6.44,6.44,0,0,1-2,.32,1.87,1.87,0,0,1-2.17-2.12v-1.83a1.91,1.91,0,0,1,2.18-2.12,1.87,1.87,0,0,1,2.12,2.12v1.13H9287V7659A1.26,1.26,0,0,0,9288.57,7660.48Zm-1.52-2.84H9290v-0.53a1.26,1.26,0,0,0-1.44-1.5,1.29,1.29,0,0,0-1.49,1.5v0.53Z" transform="translate(-9165.23 -7616.31)"/><path d="M9295.41,7660.86a3.55,3.55,0,0,1-1.22.23,1.09,1.09,0,0,1-1.32-1.26v-4.1h-1.13v-0.6h1.13v-1.38l0.7-.1v1.48h1.79l-0.07.6h-1.71v4c0,0.52.07,0.73,0.67,0.73a3.65,3.65,0,0,0,1-.17Z" transform="translate(-9165.23 -7616.31)"/><path d="M9299.87,7660.86a3.56,3.56,0,0,1-1.22.23,1.09,1.09,0,0,1-1.32-1.26v-4.1h-1.13v-0.6h1.13v-1.38l0.7-.1v1.48h1.79l-0.07.6H9298v4c0,0.52.07,0.73,0.67,0.73a3.65,3.65,0,0,0,1-.17Z" transform="translate(-9165.23 -7616.31)"/><path d="M9303.2,7660.48a7.38,7.38,0,0,0,1.85-.28l0.12,0.56a6.44,6.44,0,0,1-2,.32A1.87,1.87,0,0,1,9301,7659v-1.83a1.91,1.91,0,0,1,2.18-2.12,1.87,1.87,0,0,1,2.12,2.12v1.13h-3.61V7659A1.26,1.26,0,0,0,9303.2,7660.48Zm-1.52-2.84h2.93v-0.53a1.26,1.26,0,0,0-1.44-1.5,1.29,1.29,0,0,0-1.49,1.5v0.53Z" transform="translate(-9165.23 -7616.31)"/><path d="M9309.57,7655.69a12.94,12.94,0,0,0-1.85,1.08v4.2H9307v-5.84h0.62l0,0.89a9.93,9.93,0,0,1,1.8-1Z" transform="translate(-9165.23 -7616.31)"/><path d="M9313.75,7659.1c0,1,.42,1.37,1.51,1.37a7.44,7.44,0,0,0,1.25-.12l0.08,0.58a5.72,5.72,0,0,1-1.33.17c-1.64,0-2.21-.76-2.21-2V7657c0-1.26.56-2,2.21-2a5.72,5.72,0,0,1,1.33.17l-0.08.58a7.44,7.44,0,0,0-1.25-.12c-1.09,0-1.51.32-1.51,1.37v2.1Z" transform="translate(-9165.23 -7616.31)"/><path d="M9320.15,7661.09a2,2,0,0,1-2.27-2.12v-1.83a2.27,2.27,0,0,1,4.53,0V7659A2,2,0,0,1,9320.15,7661.09Zm1.57-4a1.57,1.57,0,0,0-3.14,0V7659a1.57,1.57,0,0,0,3.14,0v-1.88Z" transform="translate(-9165.23 -7616.31)"/><path d="M9327.73,7661v-4.73a0.53,0.53,0,0,0-.64-0.59,6.17,6.17,0,0,0-2.24.67V7661h-0.7v-5.84h0.61l0,0.53a6.55,6.55,0,0,1,2.38-.65,1.12,1.12,0,0,1,1.24,1.32V7661h-0.7Z" transform="translate(-9165.23 -7616.31)"/><path d="M9334,7661v-4.73a0.53,0.53,0,0,0-.64-0.59,6.17,6.17,0,0,0-2.24.67V7661h-0.7v-5.84H9331l0,0.53a6.55,6.55,0,0,1,2.38-.65,1.12,1.12,0,0,1,1.24,1.32V7661H9334Z" transform="translate(-9165.23 -7616.31)"/><path d="M9338.58,7660.48a7.38,7.38,0,0,0,1.85-.28l0.12,0.56a6.44,6.44,0,0,1-2,.32,1.87,1.87,0,0,1-2.17-2.12v-1.83a1.91,1.91,0,0,1,2.18-2.12,1.87,1.87,0,0,1,2.12,2.12v1.13h-3.61V7659A1.26,1.26,0,0,0,9338.58,7660.48Zm-1.52-2.84H9340v-0.53a1.26,1.26,0,0,0-1.44-1.5,1.29,1.29,0,0,0-1.49,1.5v0.53Z" transform="translate(-9165.23 -7616.31)"/><path d="M9342.74,7659.1c0,1,.42,1.37,1.51,1.37a7.44,7.44,0,0,0,1.25-.12l0.08,0.58a5.73,5.73,0,0,1-1.33.17c-1.64,0-2.21-.76-2.21-2V7657c0-1.26.56-2,2.21-2a5.73,5.73,0,0,1,1.33.17l-0.08.58a7.44,7.44,0,0,0-1.25-.12c-1.09,0-1.51.32-1.51,1.37v2.1Z" transform="translate(-9165.23 -7616.31)"/><path d="M9350.22,7660.86a3.56,3.56,0,0,1-1.22.23,1.09,1.09,0,0,1-1.32-1.26v-4.1h-1.13v-0.6h1.13v-1.38l0.7-.1v1.48h1.79l-0.07.6h-1.71v4c0,0.52.07,0.73,0.67,0.73a3.65,3.65,0,0,0,1-.17Z" transform="translate(-9165.23 -7616.31)"/><path d="M9354.91,7661l-1.33-5.84h0.66l1.2,5.37,1.58-5.37H9358l1.57,5.37,1.21-5.37h0.66l-1.33,5.84h-1l-1.54-5.34L9356,7661h-1Z" transform="translate(-9165.23 -7616.31)"/><path d="M9362.72,7654v-1.28h0.7V7654h-0.7Zm0,6.94v-5.84h0.7V7661h-0.7Z" transform="translate(-9165.23 -7616.31)"/><path d="M9368.47,7660.86a3.56,3.56,0,0,1-1.22.23,1.09,1.09,0,0,1-1.32-1.26v-4.1h-1.13v-0.6h1.13v-1.38l0.7-.1v1.48h1.79l-0.07.6h-1.71v4c0,0.52.07,0.73,0.67,0.73a3.65,3.65,0,0,0,1-.17Z" transform="translate(-9165.23 -7616.31)"/><path d="M9373.48,7661v-4.73a0.53,0.53,0,0,0-.64-0.59,6.17,6.17,0,0,0-2.24.67V7661h-0.7v-8.23l0.7-.1v3a6.42,6.42,0,0,1,2.34-.64,1.12,1.12,0,0,1,1.24,1.32V7661h-0.7Z" transform="translate(-9165.23 -7616.31)"/><path d="M9381,7661l-0.86,2.36h-0.68l0.88-2.36h-0.4l-2-5.84h0.71l1.8,5.35,1.81-5.35H9383Z" transform="translate(-9165.23 -7616.31)"/><path d="M9386.1,7661.09a2,2,0,0,1-2.27-2.12v-1.83a2.27,2.27,0,0,1,4.53,0V7659A2,2,0,0,1,9386.1,7661.09Zm1.57-4a1.57,1.57,0,0,0-3.14,0V7659a1.57,1.57,0,0,0,3.14,0v-1.88Z" transform="translate(-9165.23 -7616.31)"/><path d="M9390.74,7655.13v4.73a0.53,0.53,0,0,0,.64.59,6.16,6.16,0,0,0,2.24-.67v-4.64h0.7V7661h-0.61l0-.53a6.54,6.54,0,0,1-2.37.65,1.12,1.12,0,0,1-1.24-1.32v-4.64h0.7Z" transform="translate(-9165.23 -7616.31)"/><path d="M9398.9,7655.69a12.94,12.94,0,0,0-1.85,1.08v4.2h-0.7v-5.84H9397l0,0.89a9.93,9.93,0,0,1,1.8-1Z" transform="translate(-9165.23 -7616.31)"/><path d="M9403.08,7659.1c0,1,.42,1.37,1.51,1.37a7.44,7.44,0,0,0,1.25-.12l0.08,0.58a5.72,5.72,0,0,1-1.33.17c-1.64,0-2.21-.76-2.21-2V7657c0-1.26.56-2,2.21-2a5.72,5.72,0,0,1,1.33.17l-0.08.58a7.44,7.44,0,0,0-1.25-.12c-1.09,0-1.51.32-1.51,1.37v2.1Z" transform="translate(-9165.23 -7616.31)"/><path d="M9408.18,7655.13v4.73a0.53,0.53,0,0,0,.64.59,6.16,6.16,0,0,0,2.24-.67v-4.64h0.7V7661h-0.61l0-.53a6.54,6.54,0,0,1-2.37.65,1.12,1.12,0,0,1-1.24-1.32v-4.64h0.7Z" transform="translate(-9165.23 -7616.31)"/><path d="M9415.33,7661.09a5,5,0,0,1-1.71-.3l0.12-.56a5.76,5.76,0,0,0,1.55.24c1.08,0,1.29-.2,1.29-0.95s0-.92-1.36-1.24-1.58-.71-1.58-1.78,0.47-1.5,1.91-1.5a6.59,6.59,0,0,1,1.66.2l-0.07.59a9.31,9.31,0,0,0-1.63-.17c-1,0-1.16.26-1.16,0.9,0,0.8,0,.89,1.13,1.16,1.71,0.43,1.81.71,1.81,1.8S9416.89,7661.09,9415.33,7661.09Z" transform="translate(-9165.23 -7616.31)"/><path d="M9422,7660.86a3.56,3.56,0,0,1-1.22.23,1.09,1.09,0,0,1-1.32-1.26v-4.1h-1.13v-0.6h1.13v-1.38l0.7-.1v1.48H9422l-0.07.6h-1.71v4c0,0.52.07,0.73,0.67,0.73a3.65,3.65,0,0,0,1-.17Z" transform="translate(-9165.23 -7616.31)"/><path d="M9425.41,7661.09a2,2,0,0,1-2.27-2.12v-1.83a2.27,2.27,0,0,1,4.53,0V7659A2,2,0,0,1,9425.41,7661.09Zm1.57-4a1.57,1.57,0,0,0-3.14,0V7659a1.57,1.57,0,0,0,3.14,0v-1.88Z" transform="translate(-9165.23 -7616.31)"/><path d="M9436.56,7661v-4.73a0.53,0.53,0,0,0-.64-0.59,5.8,5.8,0,0,0-2.24.67V7661H9433v-4.73a0.53,0.53,0,0,0-.64-0.59,6.17,6.17,0,0,0-2.24.67V7661h-0.7v-5.84H9430l0,0.53a6.55,6.55,0,0,1,2.38-.65,1.06,1.06,0,0,1,1.13.65,6.93,6.93,0,0,1,2.45-.65,1.12,1.12,0,0,1,1.24,1.32V7661h-0.7Z" transform="translate(-9165.23 -7616.31)"/><path d="M9441.16,7660.48a7.38,7.38,0,0,0,1.85-.28l0.12,0.56a6.44,6.44,0,0,1-2,.32,1.87,1.87,0,0,1-2.17-2.12v-1.83a1.91,1.91,0,0,1,2.18-2.12,1.87,1.87,0,0,1,2.12,2.12v1.13h-3.61V7659A1.26,1.26,0,0,0,9441.16,7660.48Zm-1.52-2.84h2.93v-0.53a1.26,1.26,0,0,0-1.44-1.5,1.29,1.29,0,0,0-1.49,1.5v0.53Z" transform="translate(-9165.23 -7616.31)"/><path d="M9447.54,7655.69a12.94,12.94,0,0,0-1.85,1.08v4.2H9445v-5.84h0.62l0,0.89a9.93,9.93,0,0,1,1.8-1Z" transform="translate(-9165.23 -7616.31)"/><path d="M9450.24,7661.09a5,5,0,0,1-1.71-.3l0.12-.56a5.76,5.76,0,0,0,1.55.24c1.08,0,1.29-.2,1.29-0.95s0-.92-1.36-1.24-1.58-.71-1.58-1.78,0.47-1.5,1.91-1.5a6.59,6.59,0,0,1,1.66.2l-0.07.59a9.31,9.31,0,0,0-1.63-.17c-1,0-1.16.26-1.16,0.9,0,0.8,0,.89,1.13,1.16,1.71,0.43,1.81.71,1.81,1.8S9451.79,7661.09,9450.24,7661.09Z" transform="translate(-9165.23 -7616.31)"/><path d="M9459.57,7660.86a3.55,3.55,0,0,1-1.22.23,1.09,1.09,0,0,1-1.32-1.26v-4.1h-1.13v-0.6H9457v-1.38l0.7-.1v1.48h1.79l-0.07.6h-1.71v4c0,0.52.07,0.73,0.67,0.73a3.65,3.65,0,0,0,1-.17Z" transform="translate(-9165.23 -7616.31)"/><path d="M9464.59,7661v-4.73a0.53,0.53,0,0,0-.64-0.59,6.17,6.17,0,0,0-2.24.67V7661H9461v-8.23l0.7-.1v3a6.42,6.42,0,0,1,2.34-.64,1.12,1.12,0,0,1,1.24,1.32V7661h-0.7Z" transform="translate(-9165.23 -7616.31)"/><path d="M9469.81,7655.69a12.94,12.94,0,0,0-1.85,1.08v4.2h-0.7v-5.84h0.62l0,0.89a9.93,9.93,0,0,1,1.8-1Z" transform="translate(-9165.23 -7616.31)"/><path d="M9472.9,7661.09a2,2,0,0,1-2.27-2.12v-1.83a2.27,2.27,0,0,1,4.53,0V7659A2,2,0,0,1,9472.9,7661.09Zm1.57-4a1.57,1.57,0,0,0-3.14,0V7659a1.57,1.57,0,0,0,3.14,0v-1.88Z" transform="translate(-9165.23 -7616.31)"/><path d="M9477.55,7655.13v4.73a0.53,0.53,0,0,0,.64.59,6.16,6.16,0,0,0,2.24-.67v-4.64h0.7V7661h-0.61l0-.53a6.54,6.54,0,0,1-2.37.65,1.12,1.12,0,0,1-1.24-1.32v-4.64h0.7Z" transform="translate(-9165.23 -7616.31)"/><path d="M9485.17,7659.18a3.77,3.77,0,0,1-.78-0.07,1,1,0,0,0-.46.77c0,0.23.13,0.38,0.53,0.42l1.68,0.13a1.29,1.29,0,0,1,1.45,1.39c0,1.21-.6,1.63-2.5,1.63a8.57,8.57,0,0,1-2.05-.29l0.11-.55a9.59,9.59,0,0,0,2,.24c1.58,0,1.79-.32,1.79-1s-0.24-.8-0.94-0.85l-1.58-.11a1,1,0,0,1-1.15-1,1.21,1.21,0,0,1,.55-1,1.84,1.84,0,0,1-.86-1.75v-0.07c0-1.32.59-2.05,2.24-2.05a3.34,3.34,0,0,1,1,.12h1.61v0.5l-0.73.06a2.17,2.17,0,0,1,.38,1.37v0.07C9487.41,7658.45,9486.7,7659.18,9485.17,7659.18Zm0-3.57c-1.16,0-1.57.36-1.57,1.43v0.12c0,1.1.5,1.43,1.57,1.43s1.57-.37,1.57-1.43V7657C9486.74,7656,9486.33,7655.61,9485.17,7655.61Z" transform="translate(-9165.23 -7616.31)"/><path d="M9492.89,7661v-4.73a0.53,0.53,0,0,0-.64-0.59,6.17,6.17,0,0,0-2.24.67V7661h-0.7v-8.23l0.7-.1v3a6.42,6.42,0,0,1,2.34-.64,1.12,1.12,0,0,1,1.24,1.32V7661h-0.7Z" transform="translate(-9165.23 -7616.31)"/><path d="M9201.72,7672.57l-1.77,7.48h-1.1l-2.16-8h0.68l2,7.45,1.79-7.45h1.13l1.79,7.45,2-7.45h0.68l-2.16,8h-1.1Z" transform="translate(-9165.23 -7616.31)"/><path d="M9209.71,7680.17a2,2,0,0,1-2.27-2.12v-1.83a2.27,2.27,0,0,1,4.53,0V7678A2,2,0,0,1,9209.71,7680.17Zm1.57-4a1.57,1.57,0,0,0-3.14,0v1.88a1.57,1.57,0,0,0,3.14,0v-1.88Z" transform="translate(-9165.23 -7616.31)"/><path d="M9216.26,7674.78a12.94,12.94,0,0,0-1.85,1.08v4.2h-0.7v-5.84h0.62l0,0.89a9.93,9.93,0,0,1,1.8-1Z" transform="translate(-9165.23 -7616.31)"/><path d="M9217.46,7680.05v-8.23l0.7-.1v8.32h-0.7Zm4.17-5.84-2.33,2.88,2.42,3h-0.89l-2.37-3,2.3-2.88h0.86Z" transform="translate(-9165.23 -7616.31)"/><path d="M9224.63,7680.17a5,5,0,0,1-1.71-.3l0.12-.56a5.76,5.76,0,0,0,1.55.24c1.08,0,1.29-.2,1.29-0.95s0-.92-1.36-1.24-1.58-.71-1.58-1.78,0.47-1.5,1.91-1.5a6.59,6.59,0,0,1,1.66.2l-0.07.59a9.31,9.31,0,0,0-1.63-.17c-1,0-1.16.26-1.16,0.9,0,0.8,0,.89,1.13,1.16,1.71,0.43,1.81.71,1.81,1.8S9226.19,7680.17,9224.63,7680.17Z" transform="translate(-9165.23 -7616.31)"/><path d="M9231.32,7679.94a3.56,3.56,0,0,1-1.22.23,1.09,1.09,0,0,1-1.32-1.26v-4.1h-1.13v-0.6h1.13v-1.38l0.7-.1v1.48h1.79l-0.07.6h-1.71v4c0,0.52.07,0.73,0.67,0.73a3.65,3.65,0,0,0,1-.17Z" transform="translate(-9165.23 -7616.31)"/><path d="M9235,7680.05l-0.86,2.36h-0.68l0.88-2.36H9234l-2-5.84h0.71l1.8,5.35,1.81-5.35H9237Z" transform="translate(-9165.23 -7616.31)"/><path d="M9238.15,7680.05v-8.23l0.7-.1v8.32h-0.7Z" transform="translate(-9165.23 -7616.31)"/><path d="M9242.81,7679.56a7.38,7.38,0,0,0,1.85-.28l0.12,0.56a6.44,6.44,0,0,1-2,.32,1.87,1.87,0,0,1-2.17-2.12v-1.83a1.91,1.91,0,0,1,2.18-2.12,1.87,1.87,0,0,1,2.12,2.12v1.13h-3.61v0.73A1.26,1.26,0,0,0,9242.81,7679.56Zm-1.52-2.84h2.93v-0.53a1.26,1.26,0,0,0-1.44-1.5,1.29,1.29,0,0,0-1.49,1.5v0.53Z" transform="translate(-9165.23 -7616.31)"/><path d="M9246.56,7671.83h0.74v1l-0.58,1.3-0.33-.14,0.43-1.15h-0.26v-1Z" transform="translate(-9165.23 -7616.31)"/><path d="M9250.34,7680.17a5,5,0,0,1-1.71-.3l0.12-.56a5.76,5.76,0,0,0,1.55.24c1.08,0,1.29-.2,1.29-0.95s0-.92-1.36-1.24-1.58-.71-1.58-1.78,0.47-1.5,1.91-1.5a6.59,6.59,0,0,1,1.66.2l-0.07.59a9.31,9.31,0,0,0-1.63-.17c-1,0-1.16.26-1.16,0.9,0,0.8,0,.89,1.13,1.16,1.71,0.43,1.81.71,1.81,1.8S9251.9,7680.17,9250.34,7680.17Z" transform="translate(-9165.23 -7616.31)"/><path d="M9261,7678.37a1.59,1.59,0,0,1-1.8,1.8,8.77,8.77,0,0,1-1.8-.19v2.43l-0.7.1v-8.3h0.64l0,0.55a3.36,3.36,0,0,1,2-.67,1.44,1.44,0,0,1,1.66,1.62v2.66Zm-3.6,1a9.14,9.14,0,0,0,1.82.2,1,1,0,0,0,1.08-1.17v-2.66a0.84,0.84,0,0,0-1-1,3,3,0,0,0-1.9.74v3.89Z" transform="translate(-9165.23 -7616.31)"/><path d="M9264.72,7679.56a7.38,7.38,0,0,0,1.85-.28l0.12,0.56a6.44,6.44,0,0,1-2,.32,1.87,1.87,0,0,1-2.17-2.12v-1.83a1.91,1.91,0,0,1,2.18-2.12,1.87,1.87,0,0,1,2.12,2.12v1.13h-3.61v0.73A1.26,1.26,0,0,0,9264.72,7679.56Zm-1.52-2.84h2.93v-0.53a1.26,1.26,0,0,0-1.44-1.5,1.29,1.29,0,0,0-1.49,1.5v0.53Z" transform="translate(-9165.23 -7616.31)"/><path d="M9271.09,7674.78a12.94,12.94,0,0,0-1.85,1.08v4.2h-0.7v-5.84h0.62l0,0.89a9.93,9.93,0,0,1,1.8-1Z" transform="translate(-9165.23 -7616.31)"/><path d="M9273.79,7680.17a5,5,0,0,1-1.71-.3l0.12-.56a5.76,5.76,0,0,0,1.55.24c1.08,0,1.29-.2,1.29-0.95s0-.92-1.36-1.24-1.58-.71-1.58-1.78,0.47-1.5,1.91-1.5a6.59,6.59,0,0,1,1.66.2l-0.07.59a9.31,9.31,0,0,0-1.63-.17c-1,0-1.16.26-1.16,0.9,0,0.8,0,.89,1.13,1.16,1.71,0.43,1.81.71,1.81,1.8S9275.35,7680.17,9273.79,7680.17Z" transform="translate(-9165.23 -7616.31)"/><path d="M9279.44,7680.17a2,2,0,0,1-2.27-2.12v-1.83a2.27,2.27,0,0,1,4.53,0V7678A2,2,0,0,1,9279.44,7680.17Zm1.57-4a1.57,1.57,0,0,0-3.14,0v1.88a1.57,1.57,0,0,0,3.14,0v-1.88Z" transform="translate(-9165.23 -7616.31)"/><path d="M9287,7680.05v-4.73a0.53,0.53,0,0,0-.64-0.59,6.17,6.17,0,0,0-2.24.67v4.64h-0.7v-5.84h0.61l0,0.53a6.55,6.55,0,0,1,2.38-.65,1.12,1.12,0,0,1,1.24,1.32v4.64H9287Z" transform="translate(-9165.23 -7616.31)"/><path d="M9293.6,7680.05H9293l0-.46a3.69,3.69,0,0,1-2,.58,1.4,1.4,0,0,1-1.51-1.63c0-1.24.56-1.62,1.71-1.62h1.73v-1.14c0-.8-0.42-1.07-1.38-1.07a9.11,9.11,0,0,0-1.73.19l-0.11-.59a7.4,7.4,0,0,1,1.8-.23c1.51,0,2.11.6,2.11,1.69v4.27Zm-0.7-2.51h-1.7a0.84,0.84,0,0,0-1,1,0.8,0.8,0,0,0,1,1,3.28,3.28,0,0,0,1.79-.6v-1.4Z" transform="translate(-9165.23 -7616.31)"/><path d="M9295.52,7680.05v-8.23l0.7-.1v8.32h-0.7Z" transform="translate(-9165.23 -7616.31)"/><path d="M9298.26,7673.11v-1.28h0.7v1.28h-0.7Zm0,6.94v-5.84h0.7v5.84h-0.7Z" transform="translate(-9165.23 -7616.31)"/><path d="M9304,7679.94a3.55,3.55,0,0,1-1.22.23,1.09,1.09,0,0,1-1.32-1.26v-4.1h-1.13v-0.6h1.13v-1.38l0.7-.1v1.48h1.79l-0.07.6h-1.71v4c0,0.52.07,0.73,0.67,0.73a3.65,3.65,0,0,0,1-.17Z" transform="translate(-9165.23 -7616.31)"/><path d="M9307.72,7680.05l-0.86,2.36h-0.68l0.88-2.36h-0.4l-2-5.84h0.71l1.8,5.35,1.81-5.35h0.71Z" transform="translate(-9165.23 -7616.31)"/><path d="M9316.49,7679.94a3.55,3.55,0,0,1-1.22.23,1.09,1.09,0,0,1-1.32-1.26v-4.1h-1.13v-0.6h1.13v-1.38l0.7-.1v1.48h1.79l-0.07.6h-1.71v4c0,0.52.07,0.73,0.67,0.73a3.65,3.65,0,0,0,1-.17Z" transform="translate(-9165.23 -7616.31)"/><path d="M9320.47,7674.78a12.94,12.94,0,0,0-1.85,1.08v4.2h-0.7v-5.84h0.62l0,0.89a9.93,9.93,0,0,1,1.8-1Z" transform="translate(-9165.23 -7616.31)"/><path d="M9325.49,7680.05h-0.6l0-.46a3.69,3.69,0,0,1-2,.58,1.4,1.4,0,0,1-1.51-1.63c0-1.24.56-1.62,1.72-1.62h1.73v-1.14c0-.8-0.42-1.07-1.38-1.07a9.11,9.11,0,0,0-1.73.19l-0.11-.59a7.4,7.4,0,0,1,1.8-.23c1.51,0,2.11.6,2.11,1.69v4.27Zm-0.7-2.51h-1.7a0.84,0.84,0,0,0-1,1,0.8,0.8,0,0,0,1,1,3.28,3.28,0,0,0,1.79-.6v-1.4Z" transform="translate(-9165.23 -7616.31)"/><path d="M9327.41,7673.11v-1.28h0.7v1.28h-0.7Zm0,6.94v-5.84h0.7v5.84h-0.7Z" transform="translate(-9165.23 -7616.31)"/><path d="M9333.72,7680.05v-4.73a0.53,0.53,0,0,0-.64-0.59,6.17,6.17,0,0,0-2.24.67v4.64h-0.7v-5.84h0.61l0,0.53a6.55,6.55,0,0,1,2.38-.65,1.12,1.12,0,0,1,1.24,1.32v4.64h-0.7Z" transform="translate(-9165.23 -7616.31)"/><path d="M9336.4,7673.11v-1.28h0.7v1.28h-0.7Zm0,6.94v-5.84h0.7v5.84h-0.7Z" transform="translate(-9165.23 -7616.31)"/><path d="M9342.71,7680.05v-4.73a0.53,0.53,0,0,0-.64-0.59,6.17,6.17,0,0,0-2.24.67v4.64h-0.7v-5.84h0.61l0,0.53a6.55,6.55,0,0,1,2.38-.65,1.12,1.12,0,0,1,1.24,1.32v4.64h-0.7Z" transform="translate(-9165.23 -7616.31)"/><path d="M9347.39,7678.27a3.77,3.77,0,0,1-.78-0.07,1,1,0,0,0-.46.77c0,0.23.13,0.38,0.53,0.42l1.68,0.13a1.29,1.29,0,0,1,1.45,1.39c0,1.21-.6,1.63-2.5,1.63a8.57,8.57,0,0,1-2.05-.29l0.11-.55a9.59,9.59,0,0,0,2,.24c1.58,0,1.79-.32,1.79-1s-0.24-.8-0.94-0.85l-1.58-.11a1,1,0,0,1-1.15-1,1.21,1.21,0,0,1,.55-1,1.84,1.84,0,0,1-.86-1.75v-0.07c0-1.32.59-2.05,2.24-2.05a3.34,3.34,0,0,1,1,.12H9350v0.5l-0.73.06a2.17,2.17,0,0,1,.38,1.37v0.07C9349.63,7677.53,9348.92,7678.27,9347.39,7678.27Zm0-3.57c-1.16,0-1.57.36-1.57,1.43v0.12c0,1.1.5,1.43,1.57,1.43s1.57-.37,1.57-1.43v-0.12C9349,7675.06,9348.55,7674.69,9347.39,7674.69Z" transform="translate(-9165.23 -7616.31)"/><path d="M9354.18,7673.11v-1.28h0.7v1.28h-0.7Zm0,6.94v-5.84h0.7v5.84h-0.7Z" transform="translate(-9165.23 -7616.31)"/><path d="M9358.45,7680.17a5,5,0,0,1-1.71-.3l0.12-.56a5.74,5.74,0,0,0,1.55.24c1.08,0,1.29-.2,1.29-0.95s0-.92-1.36-1.24-1.58-.71-1.58-1.78,0.47-1.5,1.91-1.5a6.59,6.59,0,0,1,1.66.2l-0.07.59a9.31,9.31,0,0,0-1.63-.17c-1,0-1.16.26-1.16,0.9,0,0.8,0,.89,1.13,1.16,1.71,0.43,1.81.71,1.81,1.8S9360,7680.17,9358.45,7680.17Z" transform="translate(-9165.23 -7616.31)"/><path d="M9368.67,7680.05h-0.6l0-.46a3.69,3.69,0,0,1-2,.58,1.4,1.4,0,0,1-1.51-1.63c0-1.24.56-1.62,1.72-1.62H9368v-1.14c0-.8-0.42-1.07-1.38-1.07a9.11,9.11,0,0,0-1.73.19l-0.11-.59a7.4,7.4,0,0,1,1.8-.23c1.51,0,2.11.6,2.11,1.69v4.27Zm-0.7-2.51h-1.7a0.84,0.84,0,0,0-1,1,0.8,0.8,0,0,0,1,1,3.28,3.28,0,0,0,1.79-.6v-1.4Z" transform="translate(-9165.23 -7616.31)"/><path d="M9374.77,7680.17a5,5,0,0,1-1.71-.3l0.12-.56a5.74,5.74,0,0,0,1.55.24c1.08,0,1.29-.2,1.29-0.95s0-.92-1.36-1.24-1.58-.71-1.58-1.78,0.47-1.5,1.91-1.5a6.59,6.59,0,0,1,1.66.2l-0.07.59a9.31,9.31,0,0,0-1.63-.17c-1,0-1.16.26-1.16,0.9,0,0.8,0,.89,1.13,1.16,1.71,0.43,1.81.71,1.81,1.8S9376.33,7680.17,9374.77,7680.17Z" transform="translate(-9165.23 -7616.31)"/><path d="M9385.6,7680.05v-4.73a0.53,0.53,0,0,0-.64-0.59,5.8,5.8,0,0,0-2.24.67v4.64H9382v-4.73a0.53,0.53,0,0,0-.64-0.59,6.17,6.17,0,0,0-2.24.67v4.64h-0.7v-5.84h0.61l0,0.53a6.55,6.55,0,0,1,2.38-.65,1.06,1.06,0,0,1,1.13.65,6.93,6.93,0,0,1,2.45-.65,1.12,1.12,0,0,1,1.24,1.32v4.64h-0.7Z" transform="translate(-9165.23 -7616.31)"/><path d="M9392.18,7680.05h-0.6l0-.46a3.69,3.69,0,0,1-2,.58,1.4,1.4,0,0,1-1.51-1.63c0-1.24.56-1.62,1.71-1.62h1.73v-1.14c0-.8-0.42-1.07-1.38-1.07a9.11,9.11,0,0,0-1.73.19l-0.11-.59a7.4,7.4,0,0,1,1.8-.23c1.51,0,2.11.6,2.11,1.69v4.27Zm-0.7-2.51h-1.7a0.84,0.84,0,0,0-1,1,0.8,0.8,0,0,0,1,1,3.28,3.28,0,0,0,1.79-.6v-1.4Z" transform="translate(-9165.23 -7616.31)"/><path d="M9396.65,7674.78a12.94,12.94,0,0,0-1.85,1.08v4.2h-0.7v-5.84h0.62l0,0.89a9.93,9.93,0,0,1,1.8-1Z" transform="translate(-9165.23 -7616.31)"/><path d="M9400.88,7679.94a3.55,3.55,0,0,1-1.22.23,1.09,1.09,0,0,1-1.32-1.26v-4.1h-1.13v-0.6h1.13v-1.38l0.7-.1v1.48h1.79l-0.07.6H9399v4c0,0.52.07,0.73,0.67,0.73a3.65,3.65,0,0,0,1-.17Z" transform="translate(-9165.23 -7616.31)"/><path d="M9405,7673.11v-1.28h0.7v1.28H9405Zm0,6.94v-5.84h0.7v5.84H9405Z" transform="translate(-9165.23 -7616.31)"/><path d="M9411.27,7680.05v-4.73a0.53,0.53,0,0,0-.64-0.59,6.17,6.17,0,0,0-2.24.67v4.64h-0.7v-5.84h0.61l0,0.53a6.55,6.55,0,0,1,2.38-.65,1.12,1.12,0,0,1,1.24,1.32v4.64h-0.7Z" transform="translate(-9165.23 -7616.31)"/><path d="M9416.16,7680.05h-1.07l-2-5.84h0.71l1.8,5.35,1.81-5.35h0.71Z" transform="translate(-9165.23 -7616.31)"/><path d="M9421.26,7679.56a7.38,7.38,0,0,0,1.85-.28l0.12,0.56a6.44,6.44,0,0,1-2,.32A1.87,1.87,0,0,1,9419,7678v-1.83a1.91,1.91,0,0,1,2.18-2.12,1.87,1.87,0,0,1,2.12,2.12v1.13h-3.61v0.73A1.26,1.26,0,0,0,9421.26,7679.56Zm-1.52-2.84h2.93v-0.53a1.26,1.26,0,0,0-1.44-1.5,1.29,1.29,0,0,0-1.49,1.5v0.53Z" transform="translate(-9165.23 -7616.31)"/><path d="M9426.62,7680.17a5,5,0,0,1-1.71-.3l0.12-.56a5.76,5.76,0,0,0,1.55.24c1.08,0,1.29-.2,1.29-0.95s0-.92-1.36-1.24-1.58-.71-1.58-1.78,0.47-1.5,1.91-1.5a6.59,6.59,0,0,1,1.66.2l-0.07.59a9.31,9.31,0,0,0-1.63-.17c-1,0-1.16.26-1.16,0.9,0,0.8,0,.89,1.13,1.16,1.71,0.43,1.81.71,1.81,1.8S9428.18,7680.17,9426.62,7680.17Z" transform="translate(-9165.23 -7616.31)"/><path d="M9433.32,7679.94a3.55,3.55,0,0,1-1.22.23,1.09,1.09,0,0,1-1.32-1.26v-4.1h-1.13v-0.6h1.13v-1.38l0.7-.1v1.48h1.79l-0.07.6h-1.71v4c0,0.52.07,0.73,0.67,0.73a3.65,3.65,0,0,0,1-.17Z" transform="translate(-9165.23 -7616.31)"/><path d="M9441.91,7680.05v-4.73a0.53,0.53,0,0,0-.64-0.59,5.8,5.8,0,0,0-2.24.67v4.64h-0.7v-4.73a0.53,0.53,0,0,0-.64-0.59,6.17,6.17,0,0,0-2.24.67v4.64h-0.7v-5.84h0.61l0,0.53a6.55,6.55,0,0,1,2.38-.65,1.06,1.06,0,0,1,1.13.65,6.93,6.93,0,0,1,2.45-.65,1.12,1.12,0,0,1,1.24,1.32v4.64h-0.7Z" transform="translate(-9165.23 -7616.31)"/><path d="M9446.51,7679.56a7.38,7.38,0,0,0,1.85-.28l0.12,0.56a6.44,6.44,0,0,1-2,.32,1.87,1.87,0,0,1-2.17-2.12v-1.83a1.91,1.91,0,0,1,2.18-2.12,1.87,1.87,0,0,1,2.12,2.12v1.13H9445v0.73A1.26,1.26,0,0,0,9446.51,7679.56Zm-1.52-2.84h2.93v-0.53a1.26,1.26,0,0,0-1.44-1.5,1.29,1.29,0,0,0-1.49,1.5v0.53Z" transform="translate(-9165.23 -7616.31)"/><path d="M9453.91,7680.05v-4.73a0.53,0.53,0,0,0-.64-0.59,6.17,6.17,0,0,0-2.24.67v4.64h-0.7v-5.84h0.61l0,0.53a6.55,6.55,0,0,1,2.38-.65,1.12,1.12,0,0,1,1.24,1.32v4.64h-0.7Z" transform="translate(-9165.23 -7616.31)"/><path d="M9459.6,7679.94a3.55,3.55,0,0,1-1.22.23,1.09,1.09,0,0,1-1.32-1.26v-4.1h-1.13v-0.6h1.13v-1.38l0.7-.1v1.48h1.79l-0.07.6h-1.71v4c0,0.52.07,0.73,0.67,0.73a3.65,3.65,0,0,0,1-.17Z" transform="translate(-9165.23 -7616.31)"/><path d="M9461.28,7679H9462v1h-0.74v-1Z" transform="translate(-9165.23 -7616.31)"/><line class="cls-1" x1="134.61" y1="94.61" x2="197.61" y2="94.61"/></svg>