<svg id="Layer_2" data-name="Layer 2" xmlns="http://www.w3.org/2000/svg" viewBox="0 0 408.22 122.38"><defs><style>.cls-1{fill:none;stroke:#03929d;stroke-miterlimit:10;stroke-width:2px;}</style></defs><title>section1-text</title><path d="M9127.64,7636.31h6v2.42h-8.73V7624.2h2.75v12.11Z" transform="translate(-9124.89 -7623.33)"/><path d="M9139.83,7639c-3.64,0-4.62-2-4.62-4.19v-2.68c0-2.18,1-4.19,4.63-4.19s4.63,2,4.63,4.19v2.68C9144.46,7636.94,9143.48,7639,9139.83,7639Zm0-8.79c-1.42,0-2,.63-2,1.83v2.86c0,1.2.55,1.83,2,1.83s2-.63,2-1.83V7632C9141.8,7630.79,9141.25,7630.16,9139.83,7630.16Z" transform="translate(-9124.89 -7623.33)"/><path d="M9147.86,7638.73l-2-10.63h2.49l1.31,7.11,2.12-7.11h2.77l2.09,7.11,1.31-7.11h2.49l-2,10.63h-3.08l-2.25-7.64-2.25,7.64h-3.08Z" transform="translate(-9124.89 -7623.33)"/><path d="M9166.64,7636.77a11.12,11.12,0,0,0,3.25-.5l0.42,2a11.41,11.41,0,0,1-3.91.68c-3.34,0-4.49-1.55-4.49-4.1V7632c0-2.25,1-4.15,4.41-4.15s4.17,2,4.17,4.28v2.27h-5.91V7635C9164.57,7636.27,9165,7636.77,9166.64,7636.77Zm-2.07-4.47H9168v-0.52a1.42,1.42,0,0,0-1.62-1.7,1.53,1.53,0,0,0-1.77,1.7v0.52Z" transform="translate(-9124.89 -7623.33)"/><path d="M9178.36,7630.33a20.77,20.77,0,0,0-2.81,1.55v6.85h-2.66v-10.63h2.25l0.17,1.18a11.9,11.9,0,0,1,2.79-1.4Z" transform="translate(-9124.89 -7623.33)"/><path d="M9184.51,7628.19c0-2.66,1.55-4.21,5.17-4.21a16.45,16.45,0,0,1,3.95.48l-0.3,2.38a21.39,21.39,0,0,0-3.56-.37c-1.9,0-2.51.65-2.51,2.2v5.59c0,1.55.61,2.2,2.51,2.2a21.39,21.39,0,0,0,3.56-.37l0.3,2.38a16.45,16.45,0,0,1-3.95.48c-3.62,0-5.17-1.55-5.17-4.21v-6.55Z" transform="translate(-9124.89 -7623.33)"/><path d="M9200.06,7639c-3.64,0-4.63-2-4.63-4.19v-2.68c0-2.18,1-4.19,4.63-4.19s4.63,2,4.63,4.19v2.68C9204.69,7636.94,9203.71,7639,9200.06,7639Zm0-8.79c-1.42,0-2,.63-2,1.83v2.86c0,1.2.55,1.83,2,1.83s2-.63,2-1.83V7632C9202,7630.79,9201.48,7630.16,9200.06,7630.16Z" transform="translate(-9124.89 -7623.33)"/><path d="M9210.55,7639a12.54,12.54,0,0,1-3.67-.61l0.37-2a11.9,11.9,0,0,0,3.16.46c1.18,0,1.35-.26,1.35-1.07,0-.65-0.13-1-1.85-1.4-2.6-.63-2.9-1.29-2.9-3.34s0.94-3.08,4-3.08a14,14,0,0,1,3.19.37l-0.26,2.12a18.76,18.76,0,0,0-2.92-.3c-1.16,0-1.35.26-1.35,0.92,0,0.85.07,0.92,1.5,1.29,3,0.79,3.25,1.18,3.25,3.36S9213.76,7639,9210.55,7639Z" transform="translate(-9124.89 -7623.33)"/><path d="M9222.66,7638.54a7.38,7.38,0,0,1-2.33.41c-1.94,0-2.92-.92-2.92-2.81v-5.91h-1.59v-2.12h1.59v-2.64l2.66-.37v3h2.73l-0.17,2.12h-2.55v5.56a0.84,0.84,0,0,0,1,.94,5.12,5.12,0,0,0,1.33-.22Z" transform="translate(-9124.89 -7623.33)"/><path d="M9228,7639a12.54,12.54,0,0,1-3.67-.61l0.37-2a11.9,11.9,0,0,0,3.16.46c1.18,0,1.35-.26,1.35-1.07,0-.65-0.13-1-1.85-1.4-2.6-.63-2.9-1.29-2.9-3.34s0.94-3.08,4-3.08a14,14,0,0,1,3.19.37l-0.26,2.12a18.76,18.76,0,0,0-2.92-.3c-1.16,0-1.35.26-1.35,0.92,0,0.85.07,0.92,1.5,1.29,3,0.79,3.25,1.18,3.25,3.36S9231.25,7639,9228,7639Z" transform="translate(-9124.89 -7623.33)"/><path d="M9234.61,7635.68h2.71v3.05h-2.71v-3.05Z" transform="translate(-9124.89 -7623.33)"/><path d="M9248,7638.73h-2.75V7624.2H9248v14.53Z" transform="translate(-9124.89 -7623.33)"/><path d="M9257.58,7638.73v-7.42a0.74,0.74,0,0,0-.85-0.85,7.34,7.34,0,0,0-2.77.89v7.38h-2.66v-10.63h2l0.26,0.89a10.64,10.64,0,0,1,4.25-1.11c1.77,0,2.4,1.24,2.4,3.14v7.7h-2.66Z" transform="translate(-9124.89 -7623.33)"/><path d="M9262.71,7634.87V7632c0-2.86,1.24-4.08,4.58-4.08a9.16,9.16,0,0,1,2.6.39l-0.33,2.18a9.68,9.68,0,0,0-2.2-.28c-1.53,0-2,.46-2,1.77v2.95c0,1.31.46,1.77,2,1.77a9,9,0,0,0,2.2-.28l0.33,2.18a8.76,8.76,0,0,1-2.6.39C9264,7639,9262.71,7637.73,9262.71,7634.87Z" transform="translate(-9124.89 -7623.33)"/><path d="M9277.8,7630.33a20.77,20.77,0,0,0-2.81,1.55v6.85h-2.66v-10.63h2.25l0.17,1.18a11.9,11.9,0,0,1,2.79-1.4Z" transform="translate(-9124.89 -7623.33)"/><path d="M9283.85,7636.77a11.12,11.12,0,0,0,3.25-.5l0.42,2a11.41,11.41,0,0,1-3.91.68c-3.34,0-4.49-1.55-4.49-4.1V7632c0-2.25,1-4.15,4.41-4.15s4.17,2,4.17,4.28v2.27h-5.91V7635C9281.77,7636.27,9282.23,7636.77,9283.85,7636.77Zm-2.07-4.47h3.38v-0.52a1.42,1.42,0,0,0-1.62-1.7,1.53,1.53,0,0,0-1.77,1.7v0.52Z" transform="translate(-9124.89 -7623.33)"/><path d="M9298,7638.73h-2.18l-0.2-.72a5.81,5.81,0,0,1-3.16.94c-1.94,0-2.77-1.33-2.77-3.16,0-2.16.94-3,3.1-3h2.55v-1.11c0-1.18-.33-1.59-2-1.59a14.86,14.86,0,0,0-2.95.33l-0.33-2a13.86,13.86,0,0,1,3.64-.5c3.34,0,4.32,1.18,4.32,3.84v7Zm-2.66-4h-2c-0.87,0-1.11.24-1.11,1a0.89,0.89,0,0,0,1.07,1.07,4.18,4.18,0,0,0,2-.55v-1.57Z" transform="translate(-9124.89 -7623.33)"/><path d="M9304.09,7639a12.54,12.54,0,0,1-3.67-.61l0.37-2a11.9,11.9,0,0,0,3.16.46c1.18,0,1.35-.26,1.35-1.07,0-.65-0.13-1-1.85-1.4-2.6-.63-2.9-1.29-2.9-3.34s0.94-3.08,4-3.08a14,14,0,0,1,3.19.37l-0.26,2.12a18.76,18.76,0,0,0-2.92-.3c-1.16,0-1.35.26-1.35,0.92,0,0.85.07,0.92,1.5,1.29,3,0.79,3.25,1.18,3.25,3.36S9307.3,7639,9304.09,7639Z" transform="translate(-9124.89 -7623.33)"/><path d="M9314.8,7636.77a11.12,11.12,0,0,0,3.25-.5l0.42,2a11.41,11.41,0,0,1-3.91.68c-3.34,0-4.5-1.55-4.5-4.1V7632c0-2.25,1-4.15,4.41-4.15s4.17,2,4.17,4.28v2.27h-5.91V7635C9312.73,7636.27,9313.19,7636.77,9314.8,7636.77Zm-2.07-4.47h3.38v-0.52a1.42,1.42,0,0,0-1.62-1.7,1.53,1.53,0,0,0-1.77,1.7v0.52Z" transform="translate(-9124.89 -7623.33)"/><path d="M9325.73,7624.2h8.9v2.42h-6.15v3.51h5.67v2.42h-5.67v3.75h6.15v2.42h-8.9V7624.2Z" transform="translate(-9124.89 -7623.33)"/><path d="M9353.2,7638.73v-8.51h-4.54v8.51H9346v-8.51h-5.26v8.51h-2.66v-8.51h-1.7v-2.12h1.7v-1.48c0-2.2,1-3.29,3.38-3.29a10.79,10.79,0,0,1,2.75.35l-0.31,2.05a11.47,11.47,0,0,0-2-.22,1,1,0,0,0-1.2,1.27v1.33H9346v-1.48c0-2.2,1-3.29,3.38-3.29a7.7,7.7,0,0,1,2,.26l-0.28,2.05a6.65,6.65,0,0,0-1.24-.13,1,1,0,0,0-1.2,1.27v1.33h7.2v10.63h-2.66Zm0-12.13v-3.08h2.66v3.08h-2.66Z" transform="translate(-9124.89 -7623.33)"/><path d="M9358.43,7634.87V7632c0-2.86,1.24-4.08,4.58-4.08a9.16,9.16,0,0,1,2.6.39l-0.33,2.18a9.68,9.68,0,0,0-2.2-.28c-1.53,0-2,.46-2,1.77v2.95c0,1.31.46,1.77,2,1.77a9,9,0,0,0,2.2-.28l0.33,2.18a8.76,8.76,0,0,1-2.6.39C9359.67,7639,9358.43,7637.73,9358.43,7634.87Z" transform="translate(-9124.89 -7623.33)"/><path d="M9368,7626.6v-3.08h2.66v3.08H9368Zm0,12.13v-10.63h2.66v10.63H9368Z" transform="translate(-9124.89 -7623.33)"/><path d="M9378,7636.77a11.12,11.12,0,0,0,3.25-.5l0.42,2a11.41,11.41,0,0,1-3.91.68c-3.34,0-4.5-1.55-4.5-4.1V7632c0-2.25,1-4.15,4.41-4.15s4.17,2,4.17,4.28v2.27h-5.91V7635C9375.94,7636.27,9376.4,7636.77,9378,7636.77Zm-2.07-4.47h3.38v-0.52a1.42,1.42,0,0,0-1.62-1.7,1.53,1.53,0,0,0-1.77,1.7v0.52Z" transform="translate(-9124.89 -7623.33)"/><path d="M9390.54,7638.73v-7.42a0.74,0.74,0,0,0-.85-0.85,7.34,7.34,0,0,0-2.77.89v7.38h-2.66v-10.63h2l0.26,0.89a10.64,10.64,0,0,1,4.25-1.11c1.77,0,2.4,1.24,2.4,3.14v7.7h-2.66Z" transform="translate(-9124.89 -7623.33)"/><path d="M9395.66,7634.87V7632c0-2.86,1.24-4.08,4.58-4.08a9.16,9.16,0,0,1,2.6.39l-0.33,2.18a9.68,9.68,0,0,0-2.2-.28c-1.53,0-2,.46-2,1.77v2.95c0,1.31.46,1.77,2,1.77a9,9,0,0,0,2.2-.28l0.33,2.18a8.76,8.76,0,0,1-2.6.39C9396.91,7639,9395.66,7637.73,9395.66,7634.87Z" transform="translate(-9124.89 -7623.33)"/><path d="M9410.89,7638.73l-1.42,4.3h-2.53l1.33-4.3h-0.94l-3.36-10.63h2.73l2.42,8.07,2.44-8.07h2.73Z" transform="translate(-9124.89 -7623.33)"/><path d="M9414.73,7635.68h2.71v3.05h-2.71v-3.05Z" transform="translate(-9124.89 -7623.33)"/><path d="M9428.14,7638.73h-2.75V7624.2h2.75v14.53Z" transform="translate(-9124.89 -7623.33)"/><path d="M9437.7,7638.73v-7.42a0.74,0.74,0,0,0-.85-0.85,7.34,7.34,0,0,0-2.77.89v7.38h-2.66v-10.63h2l0.26,0.89a10.64,10.64,0,0,1,4.25-1.11,2,2,0,0,1,2,1.13,10.43,10.43,0,0,1,4.28-1.13c1.77,0,2.4,1.24,2.4,3.14v7.7H9444v-7.42a0.74,0.74,0,0,0-.85-0.85,7,7,0,0,0-2.77.89v7.38h-2.66Z" transform="translate(-9124.89 -7623.33)"/><path d="M9458.6,7635.2c0,2.36-1,3.75-3.51,3.75a14.73,14.73,0,0,1-2.84-.3V7643l-2.66.37v-15.3h2.12L9452,7629a5.59,5.59,0,0,1,3.36-1.11c2.14,0,3.27,1.27,3.27,3.69v3.62Zm-6.35,1.2a11.76,11.76,0,0,0,2.36.28,1.18,1.18,0,0,0,1.33-1.42v-3.75a1.15,1.15,0,0,0-1.31-1.35,3.77,3.77,0,0,0-2.38,1v5.28Z" transform="translate(-9124.89 -7623.33)"/><path d="M9466.69,7630.33a20.77,20.77,0,0,0-2.81,1.55v6.85h-2.66v-10.63h2.25l0.17,1.18a11.9,11.9,0,0,1,2.79-1.4Z" transform="translate(-9124.89 -7623.33)"/><path d="M9472.62,7639c-3.64,0-4.62-2-4.62-4.19v-2.68c0-2.18,1-4.19,4.63-4.19s4.63,2,4.63,4.19v2.68C9477.25,7636.94,9476.26,7639,9472.62,7639Zm0-8.79c-1.42,0-2,.63-2,1.83v2.86c0,1.2.55,1.83,2,1.83s2-.63,2-1.83V7632C9474.58,7630.79,9474,7630.16,9472.62,7630.16Z" transform="translate(-9124.89 -7623.33)"/><path d="M9485.21,7638.73h-3.51l-3.4-10.63H9481l2.42,8.07,2.44-8.07h2.73Z" transform="translate(-9124.89 -7623.33)"/><path d="M9494.5,7636.77a11.12,11.12,0,0,0,3.25-.5l0.42,2a11.41,11.41,0,0,1-3.91.68c-3.34,0-4.5-1.55-4.5-4.1V7632c0-2.25,1-4.15,4.41-4.15s4.17,2,4.17,4.28v2.27h-5.91V7635C9492.43,7636.27,9492.89,7636.77,9494.5,7636.77Zm-2.07-4.47h3.38v-0.52a1.42,1.42,0,0,0-1.62-1.7,1.53,1.53,0,0,0-1.77,1.7v0.52Z" transform="translate(-9124.89 -7623.33)"/><path d="M9505.1,7628.19c0-2.66,1.55-4.21,5.17-4.21a16.45,16.45,0,0,1,3.95.48l-0.31,2.38a21.36,21.36,0,0,0-3.56-.37c-1.9,0-2.51.65-2.51,2.2v5.59c0,1.55.61,2.2,2.51,2.2a21.36,21.36,0,0,0,3.56-.37l0.31,2.38a16.45,16.45,0,0,1-3.95.48c-3.62,0-5.17-1.55-5.17-4.21v-6.55Z" transform="translate(-9124.89 -7623.33)"/><path d="M9528,7638.73h-3l-3.16-5.15-3.16,5.15h-3l4.56-7.31-4.39-7.22h2.95l3,5.06,3-5.06h2.95l-4.39,7.22Z" transform="translate(-9124.89 -7623.33)"/><path d="M9530.4,7635.68h2.71v3.05h-2.71v-3.05Z" transform="translate(-9124.89 -7623.33)"/><path d="M9133.85,7661.07h-2.54v-0.66h5.81v0.66h-2.54v7.59h-0.73v-7.59Z" transform="translate(-9124.89 -7623.33)"/><path d="M9140,7663.21a13.5,13.5,0,0,0-1.91,1.11v4.34h-0.72v-6H9138l0,0.92a10.32,10.32,0,0,1,1.86-1Z" transform="translate(-9124.89 -7623.33)"/><path d="M9145.18,7668.66h-0.62l0-.47a3.82,3.82,0,0,1-2,.59,1.45,1.45,0,0,1-1.56-1.69c0-1.28.58-1.67,1.77-1.67h1.78v-1.18c0-.83-0.43-1.1-1.42-1.1a9.38,9.38,0,0,0-1.78.2l-0.11-.61a7.71,7.71,0,0,1,1.86-.24c1.56,0,2.18.62,2.18,1.75v4.41Zm-0.72-2.59h-1.76a0.87,0.87,0,0,0-1.08,1,0.83,0.83,0,0,0,1,1,3.4,3.4,0,0,0,1.85-.62v-1.45Z" transform="translate(-9124.89 -7623.33)"/><path d="M9147.16,7661.49v-1.33h0.72v1.33h-0.72Zm0,7.17v-6h0.72v6h-0.72Z" transform="translate(-9124.89 -7623.33)"/><path d="M9153.68,7668.66v-4.88a0.55,0.55,0,0,0-.66-0.61,6.37,6.37,0,0,0-2.32.69v4.79H9150v-6h0.63l0,0.54a6.77,6.77,0,0,1,2.45-.67,1.16,1.16,0,0,1,1.28,1.36v4.79h-0.72Z" transform="translate(-9124.89 -7623.33)"/><path d="M9156.44,7661.49v-1.33h0.72v1.33h-0.72Zm0,7.17v-6h0.72v6h-0.72Z" transform="translate(-9124.89 -7623.33)"/><path d="M9163,7668.66v-4.88a0.55,0.55,0,0,0-.66-0.61,6.37,6.37,0,0,0-2.32.69v4.79h-0.72v-6h0.63l0,0.54a6.77,6.77,0,0,1,2.45-.67,1.16,1.16,0,0,1,1.28,1.36v4.79H9163Z" transform="translate(-9124.89 -7623.33)"/><path d="M9167.8,7666.82a3.93,3.93,0,0,1-.8-0.08,1,1,0,0,0-.47.79c0,0.24.14,0.4,0.55,0.43l1.73,0.14a1.34,1.34,0,0,1,1.5,1.44c0,1.25-.62,1.68-2.58,1.68a8.89,8.89,0,0,1-2.12-.3l0.11-.57a9.88,9.88,0,0,0,2,.25c1.63,0,1.85-.33,1.85-1s-0.25-.83-1-0.88l-1.63-.11a1.07,1.07,0,0,1-1.19-1.07,1.25,1.25,0,0,1,.57-1,1.9,1.9,0,0,1-.89-1.81v-0.07c0-1.36.61-2.12,2.32-2.12a3.45,3.45,0,0,1,1,.12h1.66v0.52l-0.76.06a2.25,2.25,0,0,1,.4,1.41v0.07C9170.11,7666.06,9169.38,7666.82,9167.8,7666.82Zm0-3.69c-1.2,0-1.62.37-1.62,1.47v0.12c0,1.14.52,1.47,1.62,1.47s1.62-.38,1.62-1.47v-0.12C9169.42,7663.51,9169,7663.13,9167.8,7663.13Z" transform="translate(-9124.89 -7623.33)"/><path d="M9177.09,7668.66l-0.89,2.44h-0.71l0.9-2.44H9176l-2-6h0.73l1.86,5.53,1.87-5.53h0.73Z" transform="translate(-9124.89 -7623.33)"/><path d="M9182.35,7668.79a2,2,0,0,1-2.34-2.19v-1.9a2.35,2.35,0,0,1,4.68,0v1.9A2,2,0,0,1,9182.35,7668.79Zm1.62-4.11a1.63,1.63,0,0,0-3.25,0v1.95a1.63,1.63,0,0,0,3.25,0v-1.95Z" transform="translate(-9124.89 -7623.33)"/><path d="M9187.14,7662.63v4.88a0.55,0.55,0,0,0,.66.61,6.37,6.37,0,0,0,2.32-.69v-4.79h0.72v6h-0.63l0-.54a6.77,6.77,0,0,1-2.45.67,1.16,1.16,0,0,1-1.28-1.36v-4.79h0.72Z" transform="translate(-9124.89 -7623.33)"/><path d="M9195.57,7663.21a13.5,13.5,0,0,0-1.91,1.11v4.34h-0.72v-6h0.64l0,0.92a10.32,10.32,0,0,1,1.86-1Z" transform="translate(-9124.89 -7623.33)"/><path d="M9203.56,7668.66h-0.62l0-.47a3.82,3.82,0,0,1-2,.59,1.45,1.45,0,0,1-1.56-1.69c0-1.28.58-1.67,1.77-1.67h1.78v-1.18c0-.83-0.43-1.1-1.42-1.1a9.38,9.38,0,0,0-1.78.2l-0.11-.61a7.72,7.72,0,0,1,1.86-.24c1.56,0,2.18.62,2.18,1.75v4.41Zm-0.72-2.59h-1.76a0.87,0.87,0,0,0-1.08,1,0.83,0.83,0,0,0,1,1,3.4,3.4,0,0,0,1.85-.62v-1.45Z" transform="translate(-9124.89 -7623.33)"/><path d="M9207.62,7666.82a3.93,3.93,0,0,1-.8-0.08,1,1,0,0,0-.47.79c0,0.24.14,0.4,0.55,0.43l1.73,0.14a1.34,1.34,0,0,1,1.5,1.44c0,1.25-.62,1.68-2.58,1.68a8.89,8.89,0,0,1-2.12-.3l0.11-.57a9.88,9.88,0,0,0,2,.25c1.64,0,1.85-.33,1.85-1s-0.25-.83-1-0.88l-1.63-.11a1.07,1.07,0,0,1-1.19-1.07,1.25,1.25,0,0,1,.57-1,1.9,1.9,0,0,1-.89-1.81v-0.07c0-1.36.61-2.12,2.32-2.12a3.45,3.45,0,0,1,1,.12h1.66v0.52l-0.76.06a2.25,2.25,0,0,1,.4,1.41v0.07C9209.93,7666.06,9209.2,7666.82,9207.62,7666.82Zm0-3.69c-1.2,0-1.62.37-1.62,1.47v0.12c0,1.14.52,1.47,1.62,1.47s1.62-.38,1.62-1.47v-0.12C9209.24,7663.51,9208.82,7663.13,9207.62,7663.13Z" transform="translate(-9124.89 -7623.33)"/><path d="M9213.83,7668.16a7.64,7.64,0,0,0,1.91-.29l0.12,0.58a6.66,6.66,0,0,1-2.08.33,1.94,1.94,0,0,1-2.24-2.19v-1.9a2,2,0,0,1,2.25-2.19,1.93,1.93,0,0,1,2.19,2.19v1.17h-3.73v0.76A1.3,1.3,0,0,0,9213.83,7668.16Zm-1.57-2.94h3v-0.54a1.3,1.3,0,0,0-1.49-1.55,1.33,1.33,0,0,0-1.54,1.55v0.54Z" transform="translate(-9124.89 -7623.33)"/><path d="M9221.47,7668.66v-4.88a0.55,0.55,0,0,0-.66-0.61,6.37,6.37,0,0,0-2.32.69v4.79h-0.72v-6h0.63l0,0.54a6.77,6.77,0,0,1,2.45-.67,1.16,1.16,0,0,1,1.28,1.36v4.79h-0.72Z" transform="translate(-9124.89 -7623.33)"/><path d="M9227.35,7668.55a3.71,3.71,0,0,1-1.26.24,1.13,1.13,0,0,1-1.36-1.3v-4.24h-1.16v-0.62h1.16v-1.42l0.72-.1v1.52h1.85l-0.08.62h-1.77v4.16c0,0.53.07,0.75,0.69,0.75a3.76,3.76,0,0,0,1.08-.17Z" transform="translate(-9124.89 -7623.33)"/><path d="M9230.42,7668.79a5.15,5.15,0,0,1-1.77-.31l0.12-.58a5.92,5.92,0,0,0,1.6.25c1.12,0,1.34-.21,1.34-1s0-1-1.4-1.28-1.64-.73-1.64-1.83,0.48-1.55,2-1.55a6.78,6.78,0,0,1,1.71.21l-0.07.61a9.55,9.55,0,0,0-1.69-.17c-1.05,0-1.2.27-1.2,0.93,0,0.83,0,.92,1.17,1.2,1.77,0.45,1.87.73,1.87,1.86S9232,7668.79,9230.42,7668.79Z" transform="translate(-9124.89 -7623.33)"/><path d="M9240.06,7668.55a3.71,3.71,0,0,1-1.26.24,1.13,1.13,0,0,1-1.36-1.3v-4.24h-1.16v-0.62h1.16v-1.42l0.72-.1v1.52H9240l-0.08.62h-1.77v4.16c0,0.53.07,0.75,0.69,0.75a3.76,3.76,0,0,0,1.08-.17Z" transform="translate(-9124.89 -7623.33)"/><path d="M9243.56,7668.79a2,2,0,0,1-2.34-2.19v-1.9a2.35,2.35,0,0,1,4.68,0v1.9A2,2,0,0,1,9243.56,7668.79Zm1.62-4.11a1.63,1.63,0,0,0-3.25,0v1.95a1.63,1.63,0,0,0,3.25,0v-1.95Z" transform="translate(-9124.89 -7623.33)"/><path d="M9254.86,7666.66c0,1.35-.59,2.13-2.42,2.13a10.47,10.47,0,0,1-2-.22v-8.4l0.72-.1v2.9a4.25,4.25,0,0,1,2-.46,1.56,1.56,0,0,1,1.74,1.76v2.39Zm-3.72,1.35a7.87,7.87,0,0,0,1.39.12c1.3,0,1.61-.54,1.61-1.45v-2.43a0.93,0.93,0,0,0-1.12-1.05,3.67,3.67,0,0,0-1.88.52V7668Z" transform="translate(-9124.89 -7623.33)"/><path d="M9258.7,7668.16a7.64,7.64,0,0,0,1.91-.29l0.12,0.58a6.66,6.66,0,0,1-2.08.33,1.94,1.94,0,0,1-2.24-2.19v-1.9a2,2,0,0,1,2.25-2.19,1.93,1.93,0,0,1,2.19,2.19v1.17h-3.73v0.76A1.3,1.3,0,0,0,9258.7,7668.16Zm-1.57-2.94h3v-0.54a1.3,1.3,0,0,0-1.49-1.55,1.33,1.33,0,0,0-1.54,1.55v0.54Z" transform="translate(-9124.89 -7623.33)"/><path d="M9265.77,7668.55a3.71,3.71,0,0,1-1.26.24,1.13,1.13,0,0,1-1.36-1.3v-4.24H9262v-0.62h1.16v-1.42l0.72-.1v1.52h1.85l-0.08.62h-1.77v4.16c0,0.53.07,0.75,0.69,0.75a3.76,3.76,0,0,0,1.08-.17Z" transform="translate(-9124.89 -7623.33)"/><path d="M9270.37,7668.55a3.71,3.71,0,0,1-1.26.24,1.13,1.13,0,0,1-1.36-1.3v-4.24h-1.16v-0.62h1.16v-1.42l0.72-.1v1.52h1.85l-0.08.62h-1.77v4.16c0,0.53.07,0.75,0.69,0.75a3.76,3.76,0,0,0,1.08-.17Z" transform="translate(-9124.89 -7623.33)"/><path d="M9273.81,7668.16a7.64,7.64,0,0,0,1.91-.29l0.12,0.58a6.66,6.66,0,0,1-2.08.33,1.94,1.94,0,0,1-2.24-2.19v-1.9a2,2,0,0,1,2.25-2.19,1.93,1.93,0,0,1,2.19,2.19v1.17h-3.73v0.76A1.3,1.3,0,0,0,9273.81,7668.16Zm-1.57-2.94h3v-0.54a1.3,1.3,0,0,0-1.49-1.55,1.33,1.33,0,0,0-1.54,1.55v0.54Z" transform="translate(-9124.89 -7623.33)"/><path d="M9280.39,7663.21a13.5,13.5,0,0,0-1.91,1.11v4.34h-0.72v-6h0.64l0,0.92a10.32,10.32,0,0,1,1.86-1Z" transform="translate(-9124.89 -7623.33)"/><path d="M9284.71,7666.73c0,1.08.43,1.41,1.56,1.41a7.68,7.68,0,0,0,1.29-.12l0.09,0.59a5.91,5.91,0,0,1-1.38.17c-1.7,0-2.28-.78-2.28-2.08v-2.12c0-1.3.58-2.08,2.28-2.08a5.91,5.91,0,0,1,1.38.17l-0.09.59a7.68,7.68,0,0,0-1.29-.12c-1.13,0-1.56.33-1.56,1.41v2.17Z" transform="translate(-9124.89 -7623.33)"/><path d="M9291.31,7668.79a2,2,0,0,1-2.34-2.19v-1.9a2.35,2.35,0,0,1,4.68,0v1.9A2,2,0,0,1,9291.31,7668.79Zm1.62-4.11a1.63,1.63,0,0,0-3.25,0v1.95a1.63,1.63,0,0,0,3.25,0v-1.95Z" transform="translate(-9124.89 -7623.33)"/><path d="M9299.14,7668.66v-4.88a0.55,0.55,0,0,0-.66-0.61,6.37,6.37,0,0,0-2.32.69v4.79h-0.72v-6h0.63l0,0.54a6.77,6.77,0,0,1,2.45-.67,1.16,1.16,0,0,1,1.28,1.36v4.79h-0.72Z" transform="translate(-9124.89 -7623.33)"/><path d="M9305.6,7668.66v-4.88a0.55,0.55,0,0,0-.66-0.61,6.37,6.37,0,0,0-2.32.69v4.79h-0.72v-6h0.63l0,0.54a6.77,6.77,0,0,1,2.45-.67,1.16,1.16,0,0,1,1.28,1.36v4.79h-0.72Z" transform="translate(-9124.89 -7623.33)"/><path d="M9310.35,7668.16a7.64,7.64,0,0,0,1.91-.29l0.12,0.58a6.66,6.66,0,0,1-2.08.33,1.94,1.94,0,0,1-2.24-2.19v-1.9a2,2,0,0,1,2.25-2.19,1.93,1.93,0,0,1,2.19,2.19v1.17h-3.73v0.76A1.3,1.3,0,0,0,9310.35,7668.16Zm-1.57-2.94h3v-0.54a1.3,1.3,0,0,0-1.49-1.55,1.33,1.33,0,0,0-1.54,1.55v0.54Z" transform="translate(-9124.89 -7623.33)"/><path d="M9314.65,7666.73c0,1.08.43,1.41,1.56,1.41a7.68,7.68,0,0,0,1.29-.12l0.09,0.59a5.91,5.91,0,0,1-1.38.17c-1.7,0-2.28-.78-2.28-2.08v-2.12c0-1.3.58-2.08,2.28-2.08a5.91,5.91,0,0,1,1.38.17l-0.09.59a7.68,7.68,0,0,0-1.29-.12c-1.13,0-1.56.33-1.56,1.41v2.17Z" transform="translate(-9124.89 -7623.33)"/><path d="M9322.37,7668.55a3.71,3.71,0,0,1-1.26.24,1.13,1.13,0,0,1-1.36-1.3v-4.24h-1.16v-0.62h1.16v-1.42l0.72-.1v1.52h1.85l-0.08.62h-1.77v4.16c0,0.53.07,0.75,0.69,0.75a3.76,3.76,0,0,0,1.08-.17Z" transform="translate(-9124.89 -7623.33)"/><path d="M9327.22,7668.66l-1.37-6h0.68l1.24,5.55,1.64-5.55h1l1.62,5.55,1.25-5.55h0.68l-1.37,6h-1.08l-1.59-5.51-1.59,5.51h-1.08Z" transform="translate(-9124.89 -7623.33)"/><path d="M9335.29,7661.49v-1.33H9336v1.33h-0.72Zm0,7.17v-6H9336v6h-0.72Z" transform="translate(-9124.89 -7623.33)"/><path d="M9341.22,7668.55a3.71,3.71,0,0,1-1.26.24,1.13,1.13,0,0,1-1.36-1.3v-4.24h-1.16v-0.62h1.16v-1.42l0.72-.1v1.52h1.85l-0.08.62h-1.77v4.16c0,0.53.07,0.75,0.69,0.75a3.76,3.76,0,0,0,1.08-.17Z" transform="translate(-9124.89 -7623.33)"/><path d="M9346.4,7668.66v-4.88a0.55,0.55,0,0,0-.66-0.61,6.37,6.37,0,0,0-2.32.69v4.79h-0.72v-8.5l0.72-.1v3.1a6.63,6.63,0,0,1,2.42-.66,1.16,1.16,0,0,1,1.28,1.36v4.79h-0.72Z" transform="translate(-9124.89 -7623.33)"/><path d="M9354.17,7668.66l-0.89,2.44h-0.71l0.9-2.44h-0.41l-2-6h0.73l1.86,5.53,1.87-5.53h0.73Z" transform="translate(-9124.89 -7623.33)"/><path d="M9359.43,7668.79a2,2,0,0,1-2.34-2.19v-1.9a2.35,2.35,0,0,1,4.68,0v1.9A2,2,0,0,1,9359.43,7668.79Zm1.62-4.11a1.63,1.63,0,0,0-3.25,0v1.95a1.63,1.63,0,0,0,3.25,0v-1.95Z" transform="translate(-9124.89 -7623.33)"/><path d="M9364.22,7662.63v4.88a0.55,0.55,0,0,0,.66.61,6.37,6.37,0,0,0,2.32-.69v-4.79h0.72v6h-0.63l0-.54a6.77,6.77,0,0,1-2.45.67,1.16,1.16,0,0,1-1.28-1.36v-4.79h0.72Z" transform="translate(-9124.89 -7623.33)"/><path d="M9372.65,7663.21a13.5,13.5,0,0,0-1.91,1.11v4.34H9370v-6h0.64l0,0.92a10.32,10.32,0,0,1,1.86-1Z" transform="translate(-9124.89 -7623.33)"/><path d="M9377,7666.73c0,1.08.43,1.41,1.56,1.41a7.68,7.68,0,0,0,1.29-.12l0.09,0.59a5.91,5.91,0,0,1-1.38.17c-1.7,0-2.28-.78-2.28-2.08v-2.12c0-1.3.58-2.08,2.28-2.08a5.91,5.91,0,0,1,1.38.17l-0.09.59a7.68,7.68,0,0,0-1.29-.12c-1.13,0-1.56.33-1.56,1.41v2.17Z" transform="translate(-9124.89 -7623.33)"/><path d="M9382.23,7662.63v4.88a0.55,0.55,0,0,0,.66.61,6.37,6.37,0,0,0,2.32-.69v-4.79h0.72v6h-0.63l0-.54a6.77,6.77,0,0,1-2.45.67,1.16,1.16,0,0,1-1.28-1.36v-4.79h0.72Z" transform="translate(-9124.89 -7623.33)"/><path d="M9389.62,7668.79a5.15,5.15,0,0,1-1.77-.31l0.12-.58a5.92,5.92,0,0,0,1.6.25c1.12,0,1.34-.21,1.34-1s0-1-1.4-1.28-1.64-.73-1.64-1.83,0.48-1.55,2-1.55a6.78,6.78,0,0,1,1.71.21l-0.07.61a9.55,9.55,0,0,0-1.69-.17c-1.05,0-1.2.27-1.2,0.93,0,0.83,0,.92,1.17,1.2,1.77,0.45,1.87.73,1.87,1.86S9391.23,7668.79,9389.62,7668.79Z" transform="translate(-9124.89 -7623.33)"/><path d="M9396.54,7668.55a3.71,3.71,0,0,1-1.26.24,1.13,1.13,0,0,1-1.36-1.3v-4.24h-1.16v-0.62h1.16v-1.42l0.72-.1v1.52h1.85l-0.08.62h-1.77v4.16c0,0.53.07,0.75,0.69,0.75a3.76,3.76,0,0,0,1.08-.17Z" transform="translate(-9124.89 -7623.33)"/><path d="M9400,7668.79a2,2,0,0,1-2.34-2.19v-1.9a2.35,2.35,0,0,1,4.68,0v1.9A2,2,0,0,1,9400,7668.79Zm1.62-4.11a1.63,1.63,0,0,0-3.25,0v1.95a1.63,1.63,0,0,0,3.25,0v-1.95Z" transform="translate(-9124.89 -7623.33)"/><path d="M9411.55,7668.66v-4.88a0.55,0.55,0,0,0-.66-0.61,6,6,0,0,0-2.32.69v4.79h-0.72v-4.88a0.55,0.55,0,0,0-.66-0.61,6.37,6.37,0,0,0-2.32.69v4.79h-0.72v-6h0.63l0,0.54a6.77,6.77,0,0,1,2.45-.67,1.1,1.1,0,0,1,1.17.67,7.18,7.18,0,0,1,2.53-.67,1.16,1.16,0,0,1,1.28,1.36v4.79h-0.72Z" transform="translate(-9124.89 -7623.33)"/><path d="M9416.3,7668.16a7.64,7.64,0,0,0,1.91-.29l0.12,0.58a6.66,6.66,0,0,1-2.08.33,1.94,1.94,0,0,1-2.24-2.19v-1.9a2,2,0,0,1,2.25-2.19,1.93,1.93,0,0,1,2.19,2.19v1.17h-3.73v0.76A1.3,1.3,0,0,0,9416.3,7668.16Zm-1.57-2.94h3v-0.54a1.3,1.3,0,0,0-1.49-1.55,1.33,1.33,0,0,0-1.54,1.55v0.54Z" transform="translate(-9124.89 -7623.33)"/><path d="M9422.88,7663.21a13.5,13.5,0,0,0-1.91,1.11v4.34h-0.72v-6h0.64l0,0.92a10.32,10.32,0,0,1,1.86-1Z" transform="translate(-9124.89 -7623.33)"/><path d="M9425.67,7668.79a5.15,5.15,0,0,1-1.77-.31l0.12-.58a5.92,5.92,0,0,0,1.6.25c1.12,0,1.34-.21,1.34-1s0-1-1.4-1.28-1.63-.73-1.63-1.83,0.48-1.55,2-1.55a6.78,6.78,0,0,1,1.71.21l-0.07.61a9.55,9.55,0,0,0-1.69-.17c-1.05,0-1.2.27-1.2,0.93,0,0.83,0,.92,1.17,1.2,1.77,0.45,1.87.73,1.87,1.86S9427.28,7668.79,9425.67,7668.79Z" transform="translate(-9124.89 -7623.33)"/><path d="M9432.84,7668.66l-1.37-6h0.68l1.24,5.55,1.64-5.55h1l1.62,5.55,1.25-5.55h0.68l-1.37,6h-1.08l-1.59-5.51-1.59,5.51h-1.08Z" transform="translate(-9124.89 -7623.33)"/><path d="M9440.91,7661.49v-1.33h0.72v1.33h-0.72Zm0,7.17v-6h0.72v6h-0.72Z" transform="translate(-9124.89 -7623.33)"/><path d="M9446.84,7668.55a3.71,3.71,0,0,1-1.26.24,1.13,1.13,0,0,1-1.36-1.3v-4.24h-1.16v-0.62h1.16v-1.42l0.72-.1v1.52h1.85l-0.08.62h-1.77v4.16c0,0.53.07,0.75,0.69,0.75a3.76,3.76,0,0,0,1.08-.17Z" transform="translate(-9124.89 -7623.33)"/><path d="M9452,7668.66v-4.88a0.55,0.55,0,0,0-.66-0.61,6.37,6.37,0,0,0-2.32.69v4.79h-0.72v-8.5l0.72-.1v3.1a6.63,6.63,0,0,1,2.42-.66,1.16,1.16,0,0,1,1.28,1.36v4.79H9452Z" transform="translate(-9124.89 -7623.33)"/><path d="M9462,7660.93l-1.83,7.73H9459l-2.23-8.25h0.71l2.07,7.69,1.85-7.69h1.16l1.85,7.69,2.07-7.69h0.71l-2.23,8.25h-1.14Z" transform="translate(-9124.89 -7623.33)"/><path d="M9470.23,7668.79a2,2,0,0,1-2.34-2.19v-1.9a2.35,2.35,0,0,1,4.68,0v1.9A2,2,0,0,1,9470.23,7668.79Zm1.62-4.11a1.63,1.63,0,0,0-3.25,0v1.95a1.63,1.63,0,0,0,3.25,0v-1.95Z" transform="translate(-9124.89 -7623.33)"/><path d="M9477,7663.21a13.5,13.5,0,0,0-1.91,1.11v4.34h-0.72v-6H9475l0,0.92a10.32,10.32,0,0,1,1.86-1Z" transform="translate(-9124.89 -7623.33)"/><path d="M9478.24,7668.66v-8.5l0.72-.1v8.6h-0.72Zm4.31-6-2.4,3,2.5,3.06h-0.92l-2.45-3.06,2.38-3h0.89Z" transform="translate(-9124.89 -7623.33)"/><path d="M9485.64,7668.79a5.15,5.15,0,0,1-1.77-.31l0.12-.58a5.92,5.92,0,0,0,1.6.25c1.12,0,1.34-.21,1.34-1s0-1-1.4-1.28-1.63-.73-1.63-1.83,0.48-1.55,2-1.55a6.78,6.78,0,0,1,1.71.21l-0.07.61a9.55,9.55,0,0,0-1.69-.17c-1.05,0-1.2.27-1.2,0.93,0,0.83,0,.92,1.17,1.2,1.77,0.45,1.87.73,1.87,1.86S9487.25,7668.79,9485.64,7668.79Z" transform="translate(-9124.89 -7623.33)"/><path d="M9492.55,7668.55a3.71,3.71,0,0,1-1.26.24,1.13,1.13,0,0,1-1.36-1.3v-4.24h-1.16v-0.62h1.16v-1.42l0.72-.1v1.52h1.85l-0.08.62h-1.77v4.16c0,0.53.07,0.75,0.69,0.75a3.76,3.76,0,0,0,1.08-.17Z" transform="translate(-9124.89 -7623.33)"/><path d="M9496.38,7668.66l-0.89,2.44h-0.71l0.9-2.44h-0.41l-2-6H9494l1.86,5.53,1.87-5.53h0.73Z" transform="translate(-9124.89 -7623.33)"/><path d="M9499.6,7668.66v-8.5l0.72-.1v8.6h-0.72Z" transform="translate(-9124.89 -7623.33)"/><path d="M9504.41,7668.16a7.64,7.64,0,0,0,1.91-.29l0.12,0.58a6.66,6.66,0,0,1-2.08.33,1.94,1.94,0,0,1-2.24-2.19v-1.9a2,2,0,0,1,2.25-2.19,1.93,1.93,0,0,1,2.19,2.19v1.17h-3.73v0.76A1.3,1.3,0,0,0,9504.41,7668.16Zm-1.57-2.94h3v-0.54a1.3,1.3,0,0,0-1.49-1.55,1.33,1.33,0,0,0-1.54,1.55v0.54Z" transform="translate(-9124.89 -7623.33)"/><path d="M9511.09,7661.49v-1.33h0.72v1.33h-0.72Zm0,7.17v-6h0.72v6h-0.72Z" transform="translate(-9124.89 -7623.33)"/><path d="M9515.5,7668.79a5.15,5.15,0,0,1-1.77-.31l0.12-.58a5.92,5.92,0,0,0,1.6.25c1.12,0,1.34-.21,1.34-1s0-1-1.4-1.28-1.63-.73-1.63-1.83,0.48-1.55,2-1.55a6.78,6.78,0,0,1,1.71.21l-0.07.61a9.55,9.55,0,0,0-1.69-.17c-1.05,0-1.2.27-1.2,0.93,0,0.83,0,.92,1.17,1.2,1.77,0.45,1.87.73,1.87,1.86S9517.12,7668.79,9515.5,7668.79Z" transform="translate(-9124.89 -7623.33)"/><path d="M9526.06,7668.66h-0.62l0-.47a3.82,3.82,0,0,1-2,.59,1.45,1.45,0,0,1-1.56-1.69c0-1.28.58-1.67,1.77-1.67h1.78v-1.18c0-.83-0.43-1.1-1.42-1.1a9.38,9.38,0,0,0-1.78.2l-0.11-.61a7.72,7.72,0,0,1,1.86-.24c1.56,0,2.18.62,2.18,1.75v4.41Zm-0.72-2.59h-1.76a0.87,0.87,0,0,0-1.08,1,0.83,0.83,0,0,0,1,1,3.4,3.4,0,0,0,1.85-.62v-1.45Z" transform="translate(-9124.89 -7623.33)"/><path d="M9284.7,7686.14a5.15,5.15,0,0,1-1.77-.31l0.12-.58a5.92,5.92,0,0,0,1.6.25c1.12,0,1.34-.21,1.34-1s0-1-1.4-1.28-1.63-.73-1.63-1.83,0.48-1.55,2-1.55a6.78,6.78,0,0,1,1.71.21l-0.07.61a9.55,9.55,0,0,0-1.69-.17c-1.05,0-1.2.27-1.2,0.93,0,0.83,0,.92,1.17,1.2,1.77,0.45,1.87.73,1.87,1.86S9286.31,7686.14,9284.7,7686.14Z" transform="translate(-9124.89 -7623.33)"/><path d="M9295.89,7686v-4.88a0.55,0.55,0,0,0-.66-0.61,6,6,0,0,0-2.32.69V7686h-0.72v-4.88a0.55,0.55,0,0,0-.66-0.61,6.37,6.37,0,0,0-2.32.69V7686h-0.72v-6h0.63l0,0.54a6.77,6.77,0,0,1,2.45-.67,1.1,1.1,0,0,1,1.17.67,7.18,7.18,0,0,1,2.53-.67,1.16,1.16,0,0,1,1.28,1.36V7686h-0.72Z" transform="translate(-9124.89 -7623.33)"/><path d="M9302.69,7686h-0.62l0-.47a3.82,3.82,0,0,1-2,.59,1.45,1.45,0,0,1-1.56-1.69c0-1.28.58-1.67,1.77-1.67H9302v-1.18c0-.83-0.43-1.1-1.42-1.1a9.38,9.38,0,0,0-1.78.2l-0.11-.61a7.72,7.72,0,0,1,1.86-.24c1.56,0,2.18.62,2.18,1.75V7686Zm-0.72-2.59h-1.76a0.87,0.87,0,0,0-1.08,1,0.83,0.83,0,0,0,1,1,3.4,3.4,0,0,0,1.85-.62v-1.45Z" transform="translate(-9124.89 -7623.33)"/><path d="M9307.3,7680.56a13.5,13.5,0,0,0-1.91,1.11V7686h-0.72v-6h0.64l0,0.92a10.32,10.32,0,0,1,1.86-1Z" transform="translate(-9124.89 -7623.33)"/><path d="M9311.67,7685.9a3.71,3.71,0,0,1-1.26.24,1.13,1.13,0,0,1-1.36-1.3v-4.24h-1.16V7680H9309v-1.42l0.72-.1V7680h1.85l-0.08.62h-1.77v4.16c0,0.53.07,0.75,0.69,0.75a3.76,3.76,0,0,0,1.08-.17Z" transform="translate(-9124.89 -7623.33)"/><path d="M9315.88,7678.84v-1.33h0.72v1.33h-0.72Zm0,7.17v-6h0.72v6h-0.72Z" transform="translate(-9124.89 -7623.33)"/><path d="M9322.4,7686v-4.88a0.55,0.55,0,0,0-.66-0.61,6.37,6.37,0,0,0-2.32.69V7686h-0.72v-6h0.63l0,0.54a6.77,6.77,0,0,1,2.45-.67,1.16,1.16,0,0,1,1.28,1.36V7686h-0.72Z" transform="translate(-9124.89 -7623.33)"/><path d="M9327.45,7686h-1.1l-2-6H9325l1.86,5.53,1.87-5.53h0.73Z" transform="translate(-9124.89 -7623.33)"/><path d="M9332.71,7685.51a7.64,7.64,0,0,0,1.91-.29l0.12,0.58a6.66,6.66,0,0,1-2.08.33,1.94,1.94,0,0,1-2.24-2.19v-1.9a2,2,0,0,1,2.25-2.19,1.93,1.93,0,0,1,2.19,2.19v1.17h-3.73V7684A1.3,1.3,0,0,0,9332.71,7685.51Zm-1.57-2.94h3V7682a1.3,1.3,0,0,0-1.49-1.55,1.33,1.33,0,0,0-1.54,1.55v0.54Z" transform="translate(-9124.89 -7623.33)"/><path d="M9338.25,7686.14a5.15,5.15,0,0,1-1.77-.31l0.12-.58a5.92,5.92,0,0,0,1.6.25c1.12,0,1.34-.21,1.34-1s0-1-1.4-1.28-1.63-.73-1.63-1.83,0.48-1.55,2-1.55a6.78,6.78,0,0,1,1.71.21l-0.07.61a9.55,9.55,0,0,0-1.69-.17c-1.05,0-1.2.27-1.2,0.93,0,0.83,0,.92,1.17,1.2,1.77,0.45,1.87.73,1.87,1.86S9339.87,7686.14,9338.25,7686.14Z" transform="translate(-9124.89 -7623.33)"/><path d="M9345.17,7685.9a3.71,3.71,0,0,1-1.26.24,1.13,1.13,0,0,1-1.36-1.3v-4.24h-1.16V7680h1.16v-1.42l0.72-.1V7680h1.85l-0.08.62h-1.77v4.16c0,0.53.07,0.75,0.69,0.75a3.76,3.76,0,0,0,1.08-.17Z" transform="translate(-9124.89 -7623.33)"/><path d="M9354,7686v-4.88a0.55,0.55,0,0,0-.66-0.61,6,6,0,0,0-2.32.69V7686h-0.72v-4.88a0.55,0.55,0,0,0-.66-0.61,6.37,6.37,0,0,0-2.32.69V7686h-0.72v-6h0.63l0,0.54a6.77,6.77,0,0,1,2.45-.67,1.1,1.1,0,0,1,1.17.67,7.18,7.18,0,0,1,2.53-.67,1.16,1.16,0,0,1,1.28,1.36V7686H9354Z" transform="translate(-9124.89 -7623.33)"/><path d="M9358.79,7685.51a7.64,7.64,0,0,0,1.91-.29l0.12,0.58a6.66,6.66,0,0,1-2.08.33,1.94,1.94,0,0,1-2.24-2.19v-1.9a2,2,0,0,1,2.25-2.19,1.93,1.93,0,0,1,2.19,2.19v1.17h-3.73V7684A1.3,1.3,0,0,0,9358.79,7685.51Zm-1.57-2.94h3V7682a1.3,1.3,0,0,0-1.49-1.55,1.33,1.33,0,0,0-1.54,1.55v0.54Z" transform="translate(-9124.89 -7623.33)"/><path d="M9366.44,7686v-4.88a0.55,0.55,0,0,0-.66-0.61,6.37,6.37,0,0,0-2.32.69V7686h-0.72v-6h0.63l0,0.54a6.77,6.77,0,0,1,2.45-.67,1.16,1.16,0,0,1,1.28,1.36V7686h-0.72Z" transform="translate(-9124.89 -7623.33)"/><path d="M9372.31,7685.9a3.71,3.71,0,0,1-1.26.24,1.13,1.13,0,0,1-1.36-1.3v-4.24h-1.16V7680h1.16v-1.42l0.72-.1V7680h1.85l-0.08.62h-1.77v4.16c0,0.53.07,0.75,0.69,0.75a3.76,3.76,0,0,0,1.08-.17Z" transform="translate(-9124.89 -7623.33)"/><path d="M9374,7685h0.77V7686H9374V7685Z" transform="translate(-9124.89 -7623.33)"/><path d="M9289.34,7736.66h1.79l-2.88,6.33v2.58h-1.69V7743l-2.88-6.33h1.79l1.93,4.5Z" transform="translate(-9124.89 -7623.33)"/><path d="M9298.49,7743c0,1.49-.86,2.74-3.37,2.74s-3.37-1.26-3.37-2.74v-3.69c0-1.49.86-2.74,3.37-2.74s3.37,1.26,3.37,2.74V7743Zm-5.06-.09c0,0.84.43,1.35,1.69,1.35s1.69-.51,1.69-1.35v-3.51c0-.84-0.43-1.35-1.69-1.35s-1.69.51-1.69,1.35v3.51Z" transform="translate(-9124.89 -7623.33)"/><path d="M9306.81,7736.66V7743c0,1.41-.79,2.72-3.29,2.72s-3.29-1.31-3.29-2.72v-6.33h1.69v6.2c0,0.87.42,1.37,1.61,1.37s1.61-.5,1.61-1.37v-6.2h1.69Z" transform="translate(-9124.89 -7623.33)"/><path d="M9314.09,7745.57l-2-2.94h-1.61v2.94h-1.69v-8.91h3.65c2.07,0,2.84.84,2.84,2.41v1.16a2,2,0,0,1-1.34,2.16l2.21,3.18h-2Zm-1.75-7.43h-1.9v3h1.9a1,1,0,0,0,1.22-1.08v-0.88C9313.56,7738.45,9313.24,7738.14,9312.34,7738.14Z" transform="translate(-9124.89 -7623.33)"/><path d="M9325.6,7745.57l-2-2.94H9322v2.94h-1.69v-8.91h3.65c2.07,0,2.84.84,2.84,2.41v1.16a2,2,0,0,1-1.34,2.16l2.21,3.18h-2Zm-1.75-7.43H9322v3h1.9a1,1,0,0,0,1.22-1.08v-0.88C9325.07,7738.45,9324.75,7738.14,9323.85,7738.14Z" transform="translate(-9124.89 -7623.33)"/><path d="M9329,7736.66h5.46v1.49h-3.77v2.15h3.48v1.49h-3.48v2.3h3.77v1.49H9329v-8.91Z" transform="translate(-9124.89 -7623.33)"/><path d="M9338.59,7745.7a7.5,7.5,0,0,1-2.78-.54l0.29-1.33a8.38,8.38,0,0,0,2.52.42c1.22,0,1.42-.25,1.42-1.11s0-1.07-1.63-1.42c-2.15-.48-2.45-0.9-2.45-2.78,0-1.62.74-2.42,3-2.42a12.19,12.19,0,0,1,2.6.29l-0.19,1.42a11.67,11.67,0,0,0-2.38-.27c-1.14,0-1.34.24-1.34,1,0,1,0,1,1.57,1.42,2.4,0.58,2.52,1,2.52,2.74S9341.23,7745.7,9338.59,7745.7Z" transform="translate(-9124.89 -7623.33)"/><path d="M9349.91,7736.66V7743c0,1.41-.79,2.72-3.29,2.72s-3.29-1.31-3.29-2.72v-6.33H9345v6.2c0,0.87.42,1.37,1.61,1.37s1.61-.5,1.61-1.37v-6.2h1.69Z" transform="translate(-9124.89 -7623.33)"/><path d="M9353.54,7744.08h3.67v1.49h-5.35v-8.91h1.69v7.43Z" transform="translate(-9124.89 -7623.33)"/><path d="M9359,7738.14h-2.49v-1.49h6.66v1.49h-2.49v7.43H9359v-7.43Z" transform="translate(-9124.89 -7623.33)"/><path d="M9366.9,7745.7a7.5,7.5,0,0,1-2.78-.54l0.29-1.33a8.38,8.38,0,0,0,2.52.42c1.22,0,1.42-.25,1.42-1.11s0-1.07-1.63-1.42c-2.15-.48-2.45-0.9-2.45-2.78,0-1.62.74-2.42,3-2.42a12.19,12.19,0,0,1,2.6.29l-0.19,1.42a11.67,11.67,0,0,0-2.38-.27c-1.14,0-1.34.24-1.34,1,0,1,0,1,1.57,1.42,2.4,0.58,2.52,1,2.52,2.74S9369.54,7745.7,9366.9,7745.7Z" transform="translate(-9124.89 -7623.33)"/><path d="M9371.71,7739.63h1.66v1.87h-1.66v-1.87Zm0,4.07h1.66v1.87h-1.66v-1.87Z" transform="translate(-9124.89 -7623.33)"/><line class="cls-1" x1="175.46" y1="86.4" x2="232.75" y2="86.4"/></svg>