<svg id="Layer_2" data-name="Layer 2" xmlns="http://www.w3.org/2000/svg" viewBox="0 0 501.84 131.83"><defs><style>.cls-1{fill:#fff;}</style></defs><title>section3-text</title><path class="cls-1" d="M9369.08,8111.89h-3.46l-0.59,1.93h-1.85l2.94-9.33h2.46l2.94,9.33h-1.85Zm-3-1.53h2.58l-1.27-4.41Z" transform="translate(-9083.02 -8104.35)"/><path class="cls-1" d="M9381.66,8112.61h-2.24l-1.72-4.83-0.15,6h-1.81l0.42-9.33h2l2.41,6.63,2.41-6.63h2l0.42,9.33h-1.81l-0.15-6Z" transform="translate(-9083.02 -8104.35)"/><path class="cls-1" d="M9392.56,8111.89h-3.46l-0.59,1.93h-1.85l2.94-9.33h2.46l2.94,9.33h-1.85Zm-3-1.53h2.58l-1.27-4.41Z" transform="translate(-9083.02 -8104.35)"/><path class="cls-1" d="M9398.94,8114a7.86,7.86,0,0,1-2.91-.56l0.31-1.39a8.8,8.8,0,0,0,2.63.43c1.27,0,1.48-.27,1.48-1.16s0-1.12-1.71-1.49c-2.25-.5-2.56-0.94-2.56-2.91,0-1.7.77-2.54,3.14-2.54a12.74,12.74,0,0,1,2.72.31l-0.2,1.49a12.19,12.19,0,0,0-2.49-.28c-1.19,0-1.4.25-1.4,1.06,0,1.06,0,1.09,1.64,1.48,2.51,0.6,2.63,1,2.63,2.87S9401.7,8114,9398.94,8114Z" transform="translate(-9083.02 -8104.35)"/><path class="cls-1" d="M9406.5,8114a7.87,7.87,0,0,1-2.91-.56l0.31-1.39a8.8,8.8,0,0,0,2.63.43c1.27,0,1.48-.27,1.48-1.16s0-1.12-1.71-1.49c-2.25-.5-2.56-0.94-2.56-2.91,0-1.7.77-2.54,3.14-2.54a12.74,12.74,0,0,1,2.72.31l-0.2,1.49a12.19,12.19,0,0,0-2.49-.28c-1.19,0-1.4.25-1.4,1.06,0,1.06,0,1.09,1.64,1.48,2.51,0.6,2.63,1,2.63,2.87S9409.26,8114,9406.5,8114Z" transform="translate(-9083.02 -8104.35)"/><path class="cls-1" d="M9413.36,8113.82h-1.77v-9.33h1.77v9.33Z" transform="translate(-9083.02 -8104.35)"/><path class="cls-1" d="M9420.94,8104.49h1.83l-2.79,9.33h-2.61l-2.79-9.33h1.83l2.25,7.77Z" transform="translate(-9083.02 -8104.35)"/><path class="cls-1" d="M9423.93,8104.49h5.71V8106h-4v2.26h3.64v1.55h-3.64v2.41h4v1.55h-5.71v-9.33Z" transform="translate(-9083.02 -8104.35)"/><path class="cls-1" d="M9441.25,8111.09c0,1.55-.9,2.87-3.53,2.87s-3.53-1.32-3.53-2.87v-3.87c0-1.55.9-2.87,3.53-2.87s3.53,1.32,3.53,2.87v3.87Zm-5.29-.1c0,0.88.45,1.41,1.76,1.41s1.77-.53,1.77-1.41v-3.67c0-.88-0.45-1.42-1.77-1.42s-1.76.53-1.76,1.42V8111Z" transform="translate(-9083.02 -8104.35)"/><path class="cls-1" d="M9443.14,8104.49h3.64c2.16,0,3,.88,3,2.52v1.27c0,1.63-.87,2.51-3,2.51h-1.79v3h-1.76v-9.33Zm3.54,1.55h-1.78v3.19h1.78c1,0,1.29-.36,1.29-1.13v-1C9448,8106.38,9447.65,8106,9446.68,8106Z" transform="translate(-9083.02 -8104.35)"/><path class="cls-1" d="M9451.2,8104.49h3.64c2.16,0,3,.88,3,2.52v1.27c0,1.63-.87,2.51-3,2.51H9453v3h-1.76v-9.33Zm3.54,1.55H9453v3.19h1.78c1,0,1.29-.36,1.29-1.13v-1C9456,8106.38,9455.71,8106,9454.75,8106Z" transform="translate(-9083.02 -8104.35)"/><path class="cls-1" d="M9466.12,8111.09c0,1.55-.9,2.87-3.53,2.87s-3.53-1.32-3.53-2.87v-3.87c0-1.55.9-2.87,3.53-2.87s3.53,1.32,3.53,2.87v3.87Zm-5.29-.1c0,0.88.45,1.41,1.76,1.41s1.77-.53,1.77-1.41v-3.67c0-.88-0.45-1.42-1.77-1.42s-1.76.53-1.76,1.42V8111Z" transform="translate(-9083.02 -8104.35)"/><path class="cls-1" d="M9473.59,8113.82l-2.14-3.08h-1.68v3.08H9468v-9.33h3.82c2.17,0,3,.88,3,2.52v1.22a2.13,2.13,0,0,1-1.4,2.25l2.31,3.33h-2.12Zm-1.83-7.77h-2v3.17h2c1,0,1.27-.35,1.27-1.13v-0.92C9473,8106.37,9472.7,8106,9471.76,8106Z" transform="translate(-9083.02 -8104.35)"/><path class="cls-1" d="M9478.52,8106h-2.61v-1.55h7V8106h-2.61v7.77h-1.76V8106Z" transform="translate(-9083.02 -8104.35)"/><path class="cls-1" d="M9491.11,8104.49v6.63c0,1.47-.83,2.84-3.45,2.84s-3.45-1.37-3.45-2.84v-6.63H9486V8111c0,0.91.43,1.43,1.68,1.43s1.68-.52,1.68-1.43v-6.49h1.76Z" transform="translate(-9083.02 -8104.35)"/><path class="cls-1" d="M9494.85,8106.74v7.07h-1.72v-9.33h2.35l3.54,7.09v-7.09h1.72v9.33h-2.35Z" transform="translate(-9083.02 -8104.35)"/><path class="cls-1" d="M9504.68,8113.82h-1.76v-9.33h1.76v9.33Z" transform="translate(-9083.02 -8104.35)"/><path class="cls-1" d="M9508.76,8106h-2.61v-1.55h7V8106h-2.61v7.77h-1.76V8106Z" transform="translate(-9083.02 -8104.35)"/><path class="cls-1" d="M9519.73,8104.49h1.88l-3,6.63v2.7h-1.76v-2.7l-3-6.63h1.88l2,4.71Z" transform="translate(-9083.02 -8104.35)"/><path class="cls-1" d="M9368.41,8135.72h-3.72l-0.74,2.1h-0.7l2.78-8h1l2.78,8h-0.7Zm-3.5-.61h3.29l-1.64-4.87Z" transform="translate(-9083.02 -8104.35)"/><path class="cls-1" d="M9374.28,8135.95c0,1,.42,1.37,1.51,1.37a7.44,7.44,0,0,0,1.25-.12l0.08,0.58a5.72,5.72,0,0,1-1.33.17c-1.64,0-2.21-.76-2.21-2v-2.05c0-1.26.56-2,2.21-2a5.72,5.72,0,0,1,1.33.17l-0.08.58a7.44,7.44,0,0,0-1.25-.12c-1.09,0-1.51.32-1.51,1.37v2.1Z" transform="translate(-9083.02 -8104.35)"/><path class="cls-1" d="M9380.68,8137.94a2,2,0,0,1-2.27-2.12V8134a2.27,2.27,0,0,1,4.53,0v1.83A2,2,0,0,1,9380.68,8137.94Zm1.57-4a1.57,1.57,0,0,0-3.14,0v1.88a1.57,1.57,0,0,0,3.14,0V8134Z" transform="translate(-9083.02 -8104.35)"/><path class="cls-1" d="M9391.84,8137.82v-4.73a0.53,0.53,0,0,0-.64-0.59,5.8,5.8,0,0,0-2.24.67v4.64h-0.7v-4.73a0.53,0.53,0,0,0-.64-0.59,6.17,6.17,0,0,0-2.24.67v4.64h-0.7V8132h0.61l0,0.53a6.55,6.55,0,0,1,2.38-.65,1.06,1.06,0,0,1,1.13.65,6.93,6.93,0,0,1,2.45-.65,1.12,1.12,0,0,1,1.24,1.32v4.64h-0.7Z" transform="translate(-9083.02 -8104.35)"/><path class="cls-1" d="M9398.81,8135.88c0,1.31-.58,2.06-2.34,2.06a10.17,10.17,0,0,1-2-.22v-8.13l0.7-.1v2.81a4.12,4.12,0,0,1,1.92-.44,1.51,1.51,0,0,1,1.68,1.7v2.31Zm-3.6,1.31a7.55,7.55,0,0,0,1.34.12c1.26,0,1.56-.53,1.56-1.4v-2.35a0.9,0.9,0,0,0-1.08-1,3.54,3.54,0,0,0-1.82.5v4.15Z" transform="translate(-9083.02 -8104.35)"/><path class="cls-1" d="M9400.61,8130.87v-1.28h0.7v1.28h-0.7Zm0,6.94V8132h0.7v5.84h-0.7Z" transform="translate(-9083.02 -8104.35)"/><path class="cls-1" d="M9406.92,8137.82v-4.73a0.53,0.53,0,0,0-.64-0.59,6.17,6.17,0,0,0-2.24.67v4.64h-0.7V8132H9404l0,0.53a6.55,6.55,0,0,1,2.38-.65,1.12,1.12,0,0,1,1.24,1.32v4.64h-0.7Z" transform="translate(-9083.02 -8104.35)"/><path class="cls-1" d="M9413.5,8137.82h-0.6l0-.46a3.69,3.69,0,0,1-2,.58,1.4,1.4,0,0,1-1.51-1.63c0-1.24.56-1.62,1.71-1.62h1.73v-1.14c0-.8-0.42-1.07-1.38-1.07a9.11,9.11,0,0,0-1.73.19l-0.11-.59a7.4,7.4,0,0,1,1.8-.23c1.51,0,2.11.6,2.11,1.69v4.27Zm-0.7-2.51h-1.7a0.84,0.84,0,0,0-1,1,0.8,0.8,0,0,0,1,1,3.28,3.28,0,0,0,1.79-.6v-1.4Z" transform="translate(-9083.02 -8104.35)"/><path class="cls-1" d="M9418.43,8137.71a3.56,3.56,0,0,1-1.22.23,1.09,1.09,0,0,1-1.32-1.26v-4.1h-1.13V8132h1.13v-1.38l0.7-.1V8132h1.79l-0.07.6h-1.71v4c0,0.52.07,0.73,0.67,0.73a3.65,3.65,0,0,0,1-.17Z" transform="translate(-9083.02 -8104.35)"/><path class="cls-1" d="M9419.87,8130.87v-1.28h0.7v1.28h-0.7Zm0,6.94V8132h0.7v5.84h-0.7Z" transform="translate(-9083.02 -8104.35)"/><path class="cls-1" d="M9424.57,8137.94a2,2,0,0,1-2.27-2.12V8134a2.27,2.27,0,0,1,4.53,0v1.83A2,2,0,0,1,9424.57,8137.94Zm1.57-4a1.57,1.57,0,0,0-3.14,0v1.88a1.57,1.57,0,0,0,3.14,0V8134Z" transform="translate(-9083.02 -8104.35)"/><path class="cls-1" d="M9432.16,8137.82v-4.73a0.53,0.53,0,0,0-.64-0.59,6.17,6.17,0,0,0-2.24.67v4.64h-0.7V8132h0.61l0,0.53a6.55,6.55,0,0,1,2.38-.65,1.12,1.12,0,0,1,1.24,1.32v4.64h-0.7Z" transform="translate(-9083.02 -8104.35)"/><path class="cls-1" d="M9439.44,8137.94a2,2,0,0,1-2.27-2.12V8134a2.27,2.27,0,0,1,4.53,0v1.83A2,2,0,0,1,9439.44,8137.94Zm1.57-4a1.57,1.57,0,0,0-3.14,0v1.88a1.57,1.57,0,0,0,3.14,0V8134Z" transform="translate(-9083.02 -8104.35)"/><path class="cls-1" d="M9446.56,8130.06a5.7,5.7,0,0,0-1.06-.11,0.73,0.73,0,0,0-.86.89V8132h1.8l-0.07.6h-1.73v5.24h-0.7v-5.24h-1.09V8132h1.09v-1.22a1.31,1.31,0,0,1,1.51-1.4,4.68,4.68,0,0,1,1.2.17Z" transform="translate(-9083.02 -8104.35)"/><path class="cls-1" d="M9453.95,8137.82v-4.73a0.53,0.53,0,0,0-.64-0.59,6.17,6.17,0,0,0-2.24.67v4.64h-0.7V8132H9451l0,0.53a6.55,6.55,0,0,1,2.38-.65,1.12,1.12,0,0,1,1.24,1.32v4.64h-0.7Z" transform="translate(-9083.02 -8104.35)"/><path class="cls-1" d="M9458.54,8137.33a7.38,7.38,0,0,0,1.85-.28l0.12,0.56a6.44,6.44,0,0,1-2,.32,1.87,1.87,0,0,1-2.17-2.12V8134a1.91,1.91,0,0,1,2.18-2.12,1.87,1.87,0,0,1,2.12,2.12v1.13H9457v0.73A1.26,1.26,0,0,0,9458.54,8137.33Zm-1.52-2.84h2.93V8134a1.26,1.26,0,0,0-1.44-1.5,1.29,1.29,0,0,0-1.49,1.5v0.53Z" transform="translate(-9083.02 -8104.35)"/><path class="cls-1" d="M9463,8137.82l-1.33-5.84h0.66l1.2,5.37,1.58-5.37H9466l1.57,5.37,1.21-5.37h0.66l-1.33,5.84h-1l-1.54-5.34-1.54,5.34h-1Z" transform="translate(-9083.02 -8104.35)"/><path class="cls-1" d="M9477,8137.82v-4.73a0.53,0.53,0,0,0-.64-0.59,6.17,6.17,0,0,0-2.24.67v4.64h-0.7v-8.23l0.7-.1v3a6.42,6.42,0,0,1,2.34-.64,1.12,1.12,0,0,1,1.24,1.32v4.64H9477Z" transform="translate(-9083.02 -8104.35)"/><path class="cls-1" d="M9479.69,8130.87v-1.28h0.7v1.28h-0.7Zm0,6.94V8132h0.7v5.84h-0.7Z" transform="translate(-9083.02 -8104.35)"/><path class="cls-1" d="M9485,8132.54a12.94,12.94,0,0,0-1.85,1.08v4.2h-0.7V8132H9483l0,0.89a9.93,9.93,0,0,1,1.8-1Z" transform="translate(-9083.02 -8104.35)"/><path class="cls-1" d="M9488.13,8137.33a7.38,7.38,0,0,0,1.85-.28l0.12,0.56a6.44,6.44,0,0,1-2,.32,1.87,1.87,0,0,1-2.17-2.12V8134a1.91,1.91,0,0,1,2.18-2.12,1.87,1.87,0,0,1,2.12,2.12v1.13h-3.61v0.73A1.26,1.26,0,0,0,9488.13,8137.33Zm-1.52-2.84h2.93V8134a1.26,1.26,0,0,0-1.44-1.5,1.29,1.29,0,0,0-1.49,1.5v0.53Z" transform="translate(-9083.02 -8104.35)"/><path class="cls-1" d="M9498.89,8136.14a1.59,1.59,0,0,1-1.8,1.8,8.77,8.77,0,0,1-1.8-.19v2.43l-0.7.1V8132h0.64l0,0.55a3.36,3.36,0,0,1,2-.67,1.44,1.44,0,0,1,1.66,1.62v2.66Zm-3.6,1a9.06,9.06,0,0,0,1.82.2,1,1,0,0,0,1.08-1.17v-2.66a0.84,0.84,0,0,0-1-1,3,3,0,0,0-1.9.74v3.89Z" transform="translate(-9083.02 -8104.35)"/><path class="cls-1" d="M9502.64,8137.33a7.38,7.38,0,0,0,1.85-.28l0.12,0.56a6.44,6.44,0,0,1-2,.32,1.87,1.87,0,0,1-2.17-2.12V8134a1.91,1.91,0,0,1,2.18-2.12,1.87,1.87,0,0,1,2.12,2.12v1.13h-3.61v0.73A1.26,1.26,0,0,0,9502.64,8137.33Zm-1.52-2.84H9504V8134a1.26,1.26,0,0,0-1.44-1.5,1.29,1.29,0,0,0-1.49,1.5v0.53Z" transform="translate(-9083.02 -8104.35)"/><path class="cls-1" d="M9509,8132.54a12.94,12.94,0,0,0-1.85,1.08v4.2h-0.7V8132h0.62l0,0.89a9.93,9.93,0,0,1,1.8-1Z" transform="translate(-9083.02 -8104.35)"/><path class="cls-1" d="M9513.38,8130.06a5.7,5.7,0,0,0-1.06-.11,0.73,0.73,0,0,0-.86.89V8132h1.8l-0.07.6h-1.73v5.24h-0.7v-5.24h-1.09V8132h1.09v-1.22a1.31,1.31,0,0,1,1.51-1.4,4.68,4.68,0,0,1,1.2.17Z" transform="translate(-9083.02 -8104.35)"/><path class="cls-1" d="M9516.36,8137.94a2,2,0,0,1-2.27-2.12V8134a2.27,2.27,0,0,1,4.53,0v1.83A2,2,0,0,1,9516.36,8137.94Zm1.57-4a1.57,1.57,0,0,0-3.14,0v1.88a1.57,1.57,0,0,0,3.14,0V8134Z" transform="translate(-9083.02 -8104.35)"/><path class="cls-1" d="M9522.91,8132.54a12.94,12.94,0,0,0-1.85,1.08v4.2h-0.7V8132H9521l0,0.89a9.93,9.93,0,0,1,1.8-1Z" transform="translate(-9083.02 -8104.35)"/><path class="cls-1" d="M9531.26,8137.82v-4.73a0.53,0.53,0,0,0-.64-0.59,5.8,5.8,0,0,0-2.24.67v4.64h-0.7v-4.73a0.53,0.53,0,0,0-.64-0.59,6.17,6.17,0,0,0-2.24.67v4.64h-0.7V8132h0.61l0,0.53a6.55,6.55,0,0,1,2.38-.65,1.06,1.06,0,0,1,1.13.65,6.93,6.93,0,0,1,2.45-.65,1.12,1.12,0,0,1,1.24,1.32v4.64h-0.7Z" transform="translate(-9083.02 -8104.35)"/><path class="cls-1" d="M9537.84,8137.82h-0.6l0-.46a3.69,3.69,0,0,1-2,.58,1.4,1.4,0,0,1-1.51-1.63c0-1.24.56-1.62,1.71-1.62h1.73v-1.14c0-.8-0.42-1.07-1.38-1.07a9.11,9.11,0,0,0-1.73.19l-0.11-.59a7.4,7.4,0,0,1,1.8-.23c1.51,0,2.11.6,2.11,1.69v4.27Zm-0.7-2.51h-1.7a0.84,0.84,0,0,0-1,1,0.8,0.8,0,0,0,1,1,3.28,3.28,0,0,0,1.79-.6v-1.4Z" transform="translate(-9083.02 -8104.35)"/><path class="cls-1" d="M9543.33,8137.82v-4.73a0.53,0.53,0,0,0-.64-0.59,6.17,6.17,0,0,0-2.24.67v4.64h-0.7V8132h0.61l0,0.53a6.55,6.55,0,0,1,2.38-.65,1.12,1.12,0,0,1,1.24,1.32v4.64h-0.7Z" transform="translate(-9083.02 -8104.35)"/><path class="cls-1" d="M9546.35,8135.95c0,1,.42,1.37,1.51,1.37a7.44,7.44,0,0,0,1.25-.12l0.08,0.58a5.72,5.72,0,0,1-1.33.17c-1.64,0-2.21-.76-2.21-2v-2.05c0-1.26.56-2,2.21-2a5.72,5.72,0,0,1,1.33.17l-0.08.58a7.44,7.44,0,0,0-1.25-.12c-1.09,0-1.51.32-1.51,1.37v2.1Z" transform="translate(-9083.02 -8104.35)"/><path class="cls-1" d="M9552.7,8137.33a7.38,7.38,0,0,0,1.85-.28l0.12,0.56a6.44,6.44,0,0,1-2,.32,1.87,1.87,0,0,1-2.17-2.12V8134a1.91,1.91,0,0,1,2.18-2.12,1.87,1.87,0,0,1,2.12,2.12v1.13h-3.61v0.73A1.26,1.26,0,0,0,9552.7,8137.33Zm-1.52-2.84h2.93V8134a1.26,1.26,0,0,0-1.44-1.5,1.29,1.29,0,0,0-1.49,1.5v0.53Z" transform="translate(-9083.02 -8104.35)"/><path class="cls-1" d="M9561.71,8132.54a12.94,12.94,0,0,0-1.85,1.08v4.2h-0.7V8132h0.62l0,0.89a9.93,9.93,0,0,1,1.8-1Z" transform="translate(-9083.02 -8104.35)"/><path class="cls-1" d="M9566.72,8137.82h-0.6l0-.46a3.69,3.69,0,0,1-2,.58,1.4,1.4,0,0,1-1.51-1.63c0-1.24.56-1.62,1.72-1.62H9566v-1.14c0-.8-0.42-1.07-1.38-1.07a9.11,9.11,0,0,0-1.73.19l-0.11-.59a7.4,7.4,0,0,1,1.8-.23c1.51,0,2.11.6,2.11,1.69v4.27Zm-0.7-2.51h-1.7a0.84,0.84,0,0,0-1,1,0.8,0.8,0,0,0,1,1,3.28,3.28,0,0,0,1.79-.6v-1.4Z" transform="translate(-9083.02 -8104.35)"/><path class="cls-1" d="M9575.79,8137.82v-4.73a0.53,0.53,0,0,0-.64-0.59,5.8,5.8,0,0,0-2.24.67v4.64h-0.7v-4.73a0.53,0.53,0,0,0-.64-0.59,6.17,6.17,0,0,0-2.24.67v4.64h-0.7V8132h0.61l0,0.53a6.55,6.55,0,0,1,2.38-.65,1.06,1.06,0,0,1,1.13.65,6.94,6.94,0,0,1,2.45-.65,1.12,1.12,0,0,1,1.24,1.32v4.64h-0.7Z" transform="translate(-9083.02 -8104.35)"/><path class="cls-1" d="M9582.77,8136.14a1.59,1.59,0,0,1-1.8,1.8,8.77,8.77,0,0,1-1.8-.19v2.43l-0.7.1V8132h0.64l0,0.55a3.36,3.36,0,0,1,2-.67,1.44,1.44,0,0,1,1.66,1.62v2.66Zm-3.6,1a9.06,9.06,0,0,0,1.82.2,1,1,0,0,0,1.08-1.17v-2.66a0.84,0.84,0,0,0-1-1,3,3,0,0,0-1.9.74v3.89Z" transform="translate(-9083.02 -8104.35)"/><path class="cls-1" d="M9364.49,8148v4.73a0.53,0.53,0,0,0,.64.59,6.16,6.16,0,0,0,2.24-.67V8148h0.7v5.84h-0.61l0-.53a6.54,6.54,0,0,1-2.37.65,1.12,1.12,0,0,1-1.23-1.32V8148h0.7Z" transform="translate(-9083.02 -8104.35)"/><path class="cls-1" d="M9374.4,8152.14a1.59,1.59,0,0,1-1.8,1.8,8.77,8.77,0,0,1-1.8-.19v2.43l-0.7.1V8148h0.64l0,0.55a3.36,3.36,0,0,1,2-.67,1.44,1.44,0,0,1,1.66,1.62v2.66Zm-3.6,1a9.06,9.06,0,0,0,1.82.2,1,1,0,0,0,1.08-1.17v-2.66a0.84,0.84,0,0,0-1-1,3,3,0,0,0-1.9.74v3.89Z" transform="translate(-9083.02 -8104.35)"/><path class="cls-1" d="M9382.78,8153.82h-0.6l0-.46a3.69,3.69,0,0,1-2,.58,1.4,1.4,0,0,1-1.51-1.63c0-1.24.56-1.62,1.72-1.62h1.73v-1.14c0-.8-0.42-1.07-1.38-1.07a9.11,9.11,0,0,0-1.73.19l-0.11-.59a7.4,7.4,0,0,1,1.8-.23c1.51,0,2.11.6,2.11,1.69v4.27Zm-0.7-2.51h-1.7a0.84,0.84,0,0,0-1,1,0.8,0.8,0,0,0,1,1,3.28,3.28,0,0,0,1.79-.6v-1.4Z" transform="translate(-9083.02 -8104.35)"/><path class="cls-1" d="M9388.27,8153.82v-4.73a0.53,0.53,0,0,0-.64-0.59,6.17,6.17,0,0,0-2.24.67v4.64h-0.7V8148h0.61l0,0.53a6.55,6.55,0,0,1,2.38-.65,1.12,1.12,0,0,1,1.24,1.32v4.64h-0.7Z" transform="translate(-9083.02 -8104.35)"/><path class="cls-1" d="M9390.77,8149.66a1.59,1.59,0,0,1,1.8-1.8,8.77,8.77,0,0,1,1.8.19v-2.46l0.7-.1v8.32h-0.64l0-.55a3.36,3.36,0,0,1-2,.67,1.44,1.44,0,0,1-1.65-1.62v-2.66Zm3.6-1a9.13,9.13,0,0,0-1.82-.2,1,1,0,0,0-1.08,1.17v2.66a0.84,0.84,0,0,0,1,1,3,3,0,0,0,1.89-.74v-3.89Z" transform="translate(-9083.02 -8104.35)"/><path class="cls-1" d="M9401.75,8152a3.77,3.77,0,0,1-.78-0.07,1,1,0,0,0-.46.77c0,0.23.13,0.38,0.53,0.42l1.68,0.13a1.29,1.29,0,0,1,1.45,1.39c0,1.21-.6,1.63-2.5,1.63a8.57,8.57,0,0,1-2.05-.29l0.11-.55a9.59,9.59,0,0,0,2,.24c1.58,0,1.79-.32,1.79-1s-0.24-.8-0.94-0.85l-1.58-.11a1,1,0,0,1-1.15-1,1.21,1.21,0,0,1,.55-1,1.84,1.84,0,0,1-.86-1.75v-0.07c0-1.32.59-2.05,2.24-2.05a3.34,3.34,0,0,1,1,.12h1.61v0.5l-0.73.06a2.17,2.17,0,0,1,.38,1.37V8150C9404,8151.3,9403.29,8152,9401.75,8152Zm0-3.57c-1.16,0-1.57.36-1.57,1.43V8150c0,1.1.5,1.43,1.57,1.43s1.57-.37,1.57-1.43v-0.12C9403.32,8148.83,9402.91,8148.46,9401.75,8148.46Z" transform="translate(-9083.02 -8104.35)"/><path class="cls-1" d="M9407.76,8153.33a7.38,7.38,0,0,0,1.85-.28l0.12,0.56a6.44,6.44,0,0,1-2,.32,1.87,1.87,0,0,1-2.17-2.12V8150a1.91,1.91,0,0,1,2.18-2.12,1.87,1.87,0,0,1,2.12,2.12v1.13h-3.61v0.73A1.26,1.26,0,0,0,9407.76,8153.33Zm-1.52-2.84h2.93V8150a1.26,1.26,0,0,0-1.44-1.5,1.29,1.29,0,0,0-1.49,1.5v0.53Z" transform="translate(-9083.02 -8104.35)"/><path class="cls-1" d="M9415.17,8153.82v-4.73a0.53,0.53,0,0,0-.64-0.59,6.17,6.17,0,0,0-2.24.67v4.64h-0.7V8148h0.61l0,0.53a6.55,6.55,0,0,1,2.38-.65,1.12,1.12,0,0,1,1.24,1.32v4.64h-0.7Z" transform="translate(-9083.02 -8104.35)"/><path class="cls-1" d="M9419.76,8153.33a7.38,7.38,0,0,0,1.85-.28l0.12,0.56a6.44,6.44,0,0,1-2,.32,1.87,1.87,0,0,1-2.17-2.12V8150a1.91,1.91,0,0,1,2.18-2.12,1.87,1.87,0,0,1,2.12,2.12v1.13h-3.61v0.73A1.26,1.26,0,0,0,9419.76,8153.33Zm-1.52-2.84h2.93V8150a1.26,1.26,0,0,0-1.44-1.5,1.29,1.29,0,0,0-1.49,1.5v0.53Z" transform="translate(-9083.02 -8104.35)"/><path class="cls-1" d="M9426.13,8148.54a12.94,12.94,0,0,0-1.85,1.08v4.2h-0.7V8148h0.62l0,0.89a9.93,9.93,0,0,1,1.8-1Z" transform="translate(-9083.02 -8104.35)"/><path class="cls-1" d="M9431.15,8153.82h-0.6l0-.46a3.69,3.69,0,0,1-2,.58,1.4,1.4,0,0,1-1.51-1.63c0-1.24.56-1.62,1.71-1.62h1.73v-1.14c0-.8-0.42-1.07-1.38-1.07a9.11,9.11,0,0,0-1.73.19l-0.11-.59a7.4,7.4,0,0,1,1.8-.23c1.51,0,2.11.6,2.11,1.69v4.27Zm-0.7-2.51h-1.7a0.84,0.84,0,0,0-1,1,0.8,0.8,0,0,0,1,1,3.28,3.28,0,0,0,1.79-.6v-1.4Z" transform="translate(-9083.02 -8104.35)"/><path class="cls-1" d="M9433.07,8153.82v-8.23l0.7-.1v8.32h-0.7Z" transform="translate(-9083.02 -8104.35)"/><path class="cls-1" d="M9442.34,8153.82h-0.6l0-.46a3.69,3.69,0,0,1-2,.58,1.4,1.4,0,0,1-1.51-1.63c0-1.24.56-1.62,1.71-1.62h1.73v-1.14c0-.8-0.42-1.07-1.38-1.07a9.11,9.11,0,0,0-1.73.19l-0.11-.59a7.4,7.4,0,0,1,1.8-.23c1.51,0,2.11.6,2.11,1.69v4.27Zm-0.7-2.51h-1.7a0.84,0.84,0,0,0-1,1,0.8,0.8,0,0,0,1,1,3.28,3.28,0,0,0,1.79-.6v-1.4Z" transform="translate(-9083.02 -8104.35)"/><path class="cls-1" d="M9446.27,8152a3.77,3.77,0,0,1-.78-0.07,1,1,0,0,0-.46.77c0,0.23.13,0.38,0.53,0.42l1.68,0.13a1.29,1.29,0,0,1,1.45,1.39c0,1.21-.6,1.63-2.5,1.63a8.57,8.57,0,0,1-2.05-.29l0.11-.55a9.59,9.59,0,0,0,2,.24c1.58,0,1.79-.32,1.79-1s-0.24-.8-0.94-0.85l-1.58-.11a1,1,0,0,1-1.15-1,1.21,1.21,0,0,1,.55-1,1.84,1.84,0,0,1-.86-1.75v-0.07c0-1.32.59-2.05,2.24-2.05a3.34,3.34,0,0,1,1,.12h1.61v0.5l-0.73.06a2.17,2.17,0,0,1,.38,1.37V8150C9448.51,8151.3,9447.8,8152,9446.27,8152Zm0-3.57c-1.16,0-1.57.36-1.57,1.43V8150c0,1.1.5,1.43,1.57,1.43s1.57-.37,1.57-1.43v-0.12C9447.84,8148.83,9447.43,8148.46,9446.27,8148.46Z" transform="translate(-9083.02 -8104.35)"/><path class="cls-1" d="M9452.28,8153.33a7.38,7.38,0,0,0,1.85-.28l0.12,0.56a6.44,6.44,0,0,1-2,.32,1.87,1.87,0,0,1-2.17-2.12V8150a1.91,1.91,0,0,1,2.18-2.12,1.87,1.87,0,0,1,2.12,2.12v1.13h-3.61v0.73A1.26,1.26,0,0,0,9452.28,8153.33Zm-1.52-2.84h2.93V8150a1.26,1.26,0,0,0-1.44-1.5,1.29,1.29,0,0,0-1.49,1.5v0.53Z" transform="translate(-9083.02 -8104.35)"/><path class="cls-1" d="M9459.69,8153.82v-4.73a0.53,0.53,0,0,0-.64-0.59,6.17,6.17,0,0,0-2.24.67v4.64h-0.7V8148h0.61l0,0.53a6.55,6.55,0,0,1,2.38-.65,1.12,1.12,0,0,1,1.24,1.32v4.64h-0.7Z" transform="translate(-9083.02 -8104.35)"/><path class="cls-1" d="M9465.37,8153.71a3.55,3.55,0,0,1-1.22.23,1.09,1.09,0,0,1-1.32-1.26v-4.1h-1.13V8148h1.13v-1.38l0.7-.1V8148h1.79l-0.07.6h-1.71v4c0,0.52.07,0.73,0.67,0.73a3.65,3.65,0,0,0,1-.17Z" transform="translate(-9083.02 -8104.35)"/><path class="cls-1" d="M9469.46,8146.87v-1.28h0.7v1.28h-0.7Zm0,6.94V8148h0.7v5.84h-0.7Z" transform="translate(-9083.02 -8104.35)"/><path class="cls-1" d="M9475.77,8153.82v-4.73a0.53,0.53,0,0,0-.64-0.59,6.17,6.17,0,0,0-2.24.67v4.64h-0.7V8148h0.61l0,0.53a6.55,6.55,0,0,1,2.38-.65,1.12,1.12,0,0,1,1.24,1.32v4.64h-0.7Z" transform="translate(-9083.02 -8104.35)"/><path class="cls-1" d="M9482.34,8153.82h-0.6l0-.46a3.69,3.69,0,0,1-2,.58,1.4,1.4,0,0,1-1.51-1.63c0-1.24.56-1.62,1.71-1.62h1.73v-1.14c0-.8-0.42-1.07-1.38-1.07a9.11,9.11,0,0,0-1.73.19l-0.11-.59a7.4,7.4,0,0,1,1.8-.23c1.51,0,2.11.6,2.11,1.69v4.27Zm-0.7-2.51h-1.7a0.84,0.84,0,0,0-1,1,0.8,0.8,0,0,0,1,1,3.28,3.28,0,0,0,1.79-.6v-1.4Z" transform="translate(-9083.02 -8104.35)"/><path class="cls-1" d="M9488.56,8151.88c0,1.31-.58,2.06-2.34,2.06a10.17,10.17,0,0,1-2-.22v-8.13l0.7-.1v2.81a4.12,4.12,0,0,1,1.92-.44,1.51,1.51,0,0,1,1.68,1.7v2.31Zm-3.6,1.31a7.55,7.55,0,0,0,1.34.12c1.26,0,1.56-.53,1.56-1.4v-2.35a0.9,0.9,0,0,0-1.08-1,3.54,3.54,0,0,0-1.82.5v4.15Z" transform="translate(-9083.02 -8104.35)"/><path class="cls-1" d="M9490.36,8146.87v-1.28h0.7v1.28h-0.7Zm0,6.94V8148h0.7v5.84h-0.7Z" transform="translate(-9083.02 -8104.35)"/><path class="cls-1" d="M9493.1,8153.82v-8.23l0.7-.1v8.32h-0.7Z" transform="translate(-9083.02 -8104.35)"/><path class="cls-1" d="M9495.83,8146.87v-1.28h0.7v1.28h-0.7Zm0,6.94V8148h0.7v5.84h-0.7Z" transform="translate(-9083.02 -8104.35)"/><path class="cls-1" d="M9501.58,8153.71a3.55,3.55,0,0,1-1.22.23,1.09,1.09,0,0,1-1.32-1.26v-4.1h-1.13V8148H9499v-1.38l0.7-.1V8148h1.79l-0.07.6h-1.71v4c0,0.52.07,0.73,0.67,0.73a3.65,3.65,0,0,0,1-.17Z" transform="translate(-9083.02 -8104.35)"/><path class="cls-1" d="M9505.29,8153.82l-0.86,2.36h-0.68l0.88-2.36h-0.4l-2-5.84h0.71l1.8,5.35,1.81-5.35h0.71Z" transform="translate(-9083.02 -8104.35)"/><path class="cls-1" d="M9514.06,8153.71a3.56,3.56,0,0,1-1.22.23,1.09,1.09,0,0,1-1.32-1.26v-4.1h-1.13V8148h1.13v-1.38l0.7-.1V8148H9514l-0.07.6h-1.71v4c0,0.52.07,0.73,0.67,0.73a3.65,3.65,0,0,0,1-.17Z" transform="translate(-9083.02 -8104.35)"/><path class="cls-1" d="M9517.44,8153.94a2,2,0,0,1-2.27-2.12V8150a2.27,2.27,0,0,1,4.53,0v1.83A2,2,0,0,1,9517.44,8153.94Zm1.57-4a1.57,1.57,0,0,0-3.14,0v1.88a1.57,1.57,0,0,0,3.14,0V8150Z" transform="translate(-9083.02 -8104.35)"/><path class="cls-1" d="M9524.43,8151.95c0,1,.42,1.37,1.51,1.37a7.44,7.44,0,0,0,1.25-.12l0.08,0.58a5.72,5.72,0,0,1-1.33.17c-1.64,0-2.21-.76-2.21-2v-2.05c0-1.26.56-2,2.21-2a5.72,5.72,0,0,1,1.33.17l-0.08.58a7.44,7.44,0,0,0-1.25-.12c-1.09,0-1.51.32-1.51,1.37v2.1Z" transform="translate(-9083.02 -8104.35)"/><path class="cls-1" d="M9530.82,8153.94a2,2,0,0,1-2.27-2.12V8150a2.27,2.27,0,0,1,4.53,0v1.83A2,2,0,0,1,9530.82,8153.94Zm1.57-4a1.57,1.57,0,0,0-3.14,0v1.88a1.57,1.57,0,0,0,3.14,0V8150Z" transform="translate(-9083.02 -8104.35)"/><path class="cls-1" d="M9538.4,8153.82v-4.73a0.53,0.53,0,0,0-.64-0.59,6.17,6.17,0,0,0-2.24.67v4.64h-0.7V8148h0.61l0,0.53a6.55,6.55,0,0,1,2.38-.65,1.12,1.12,0,0,1,1.24,1.32v4.64h-0.7Z" transform="translate(-9083.02 -8104.35)"/><path class="cls-1" d="M9544.66,8153.82v-4.73a0.53,0.53,0,0,0-.64-0.59,6.17,6.17,0,0,0-2.24.67v4.64h-0.7V8148h0.61l0,0.53a6.55,6.55,0,0,1,2.38-.65,1.12,1.12,0,0,1,1.24,1.32v4.64h-0.7Z" transform="translate(-9083.02 -8104.35)"/><path class="cls-1" d="M9549.25,8153.33a7.38,7.38,0,0,0,1.85-.28l0.12,0.56a6.44,6.44,0,0,1-2,.32,1.87,1.87,0,0,1-2.17-2.12V8150a1.91,1.91,0,0,1,2.18-2.12,1.87,1.87,0,0,1,2.12,2.12v1.13h-3.61v0.73A1.26,1.26,0,0,0,9549.25,8153.33Zm-1.52-2.84h2.93V8150a1.26,1.26,0,0,0-1.44-1.5,1.29,1.29,0,0,0-1.49,1.5v0.53Z" transform="translate(-9083.02 -8104.35)"/><path class="cls-1" d="M9553.42,8151.95c0,1,.42,1.37,1.51,1.37a7.44,7.44,0,0,0,1.25-.12l0.08,0.58a5.73,5.73,0,0,1-1.33.17c-1.64,0-2.21-.76-2.21-2v-2.05c0-1.26.56-2,2.21-2a5.73,5.73,0,0,1,1.33.17l-0.08.58a7.44,7.44,0,0,0-1.25-.12c-1.09,0-1.51.32-1.51,1.37v2.1Z" transform="translate(-9083.02 -8104.35)"/><path class="cls-1" d="M9560.89,8153.71a3.55,3.55,0,0,1-1.22.23,1.09,1.09,0,0,1-1.32-1.26v-4.1h-1.13V8148h1.13v-1.38l0.7-.1V8148h1.79l-0.07.6H9559v4c0,0.52.07,0.73,0.67,0.73a3.65,3.65,0,0,0,1-.17Z" transform="translate(-9083.02 -8104.35)"/><path class="cls-1" d="M9565.59,8153.82l-1.33-5.84h0.66l1.2,5.37,1.58-5.37h0.94l1.57,5.37,1.21-5.37h0.66l-1.33,5.84h-1l-1.54-5.34-1.54,5.34h-1Z" transform="translate(-9083.02 -8104.35)"/><path class="cls-1" d="M9573.4,8146.87v-1.28h0.7v1.28h-0.7Zm0,6.94V8148h0.7v5.84h-0.7Z" transform="translate(-9083.02 -8104.35)"/><path class="cls-1" d="M9579.14,8153.71a3.55,3.55,0,0,1-1.22.23,1.09,1.09,0,0,1-1.32-1.26v-4.1h-1.13V8148h1.13v-1.38l0.7-.1V8148h1.79l-0.07.6h-1.71v4c0,0.52.07,0.73,0.67,0.73a3.65,3.65,0,0,0,1-.17Z" transform="translate(-9083.02 -8104.35)"/><path class="cls-1" d="M9584.16,8153.82v-4.73a0.53,0.53,0,0,0-.64-0.59,6.17,6.17,0,0,0-2.24.67v4.64h-0.7v-8.23l0.7-.1v3a6.42,6.42,0,0,1,2.34-.64,1.12,1.12,0,0,1,1.24,1.32v4.64h-0.7Z" transform="translate(-9083.02 -8104.35)"/><path class="cls-1" d="M9367.75,8169.82h-0.6l0-.46a3.69,3.69,0,0,1-2,.58,1.4,1.4,0,0,1-1.51-1.63c0-1.24.56-1.62,1.72-1.62h1.73v-1.14c0-.8-0.42-1.07-1.38-1.07a9.11,9.11,0,0,0-1.73.19l-0.11-.59a7.4,7.4,0,0,1,1.8-.23c1.51,0,2.11.6,2.11,1.69v4.27Zm-0.7-2.51h-1.7a0.84,0.84,0,0,0-1,1,0.8,0.8,0,0,0,1,1,3.28,3.28,0,0,0,1.79-.6v-1.4Z" transform="translate(-9083.02 -8104.35)"/><path class="cls-1" d="M9369.68,8169.82v-8.23l0.7-.1v8.32h-0.7Z" transform="translate(-9083.02 -8104.35)"/><path class="cls-1" d="M9372.41,8169.82v-8.23l0.7-.1v8.32h-0.7Z" transform="translate(-9083.02 -8104.35)"/><path class="cls-1" d="M9382.08,8168.14a1.59,1.59,0,0,1-1.8,1.8,8.77,8.77,0,0,1-1.8-.19v2.43l-0.7.1V8164h0.64l0,0.55a3.36,3.36,0,0,1,2-.67,1.44,1.44,0,0,1,1.66,1.62v2.66Zm-3.6,1a9.06,9.06,0,0,0,1.82.2,1,1,0,0,0,1.08-1.17v-2.66a0.84,0.84,0,0,0-1-1,3,3,0,0,0-1.9.74v3.89Z" transform="translate(-9083.02 -8104.35)"/><path class="cls-1" d="M9385.84,8169.33a7.38,7.38,0,0,0,1.85-.28l0.12,0.56a6.44,6.44,0,0,1-2,.32,1.87,1.87,0,0,1-2.17-2.12V8166a1.91,1.91,0,0,1,2.18-2.12,1.87,1.87,0,0,1,2.12,2.12v1.13h-3.61v0.73A1.26,1.26,0,0,0,9385.84,8169.33Zm-1.52-2.84h2.93V8166a1.26,1.26,0,0,0-1.44-1.5,1.29,1.29,0,0,0-1.49,1.5v0.53Z" transform="translate(-9083.02 -8104.35)"/><path class="cls-1" d="M9392.21,8164.54a12.94,12.94,0,0,0-1.85,1.08v4.2h-0.7V8164h0.62l0,0.89a9.93,9.93,0,0,1,1.8-1Z" transform="translate(-9083.02 -8104.35)"/><path class="cls-1" d="M9394.91,8169.94a5,5,0,0,1-1.71-.3l0.12-.56a5.74,5.74,0,0,0,1.55.24c1.08,0,1.29-.2,1.29-0.95s0-.92-1.36-1.24-1.58-.71-1.58-1.78,0.47-1.5,1.91-1.5a6.59,6.59,0,0,1,1.66.2l-0.07.59a9.31,9.31,0,0,0-1.63-.17c-1,0-1.16.26-1.16,0.9,0,0.8,0,.89,1.13,1.16,1.71,0.43,1.81.71,1.81,1.8S9396.47,8169.94,9394.91,8169.94Z" transform="translate(-9083.02 -8104.35)"/><path class="cls-1" d="M9400.56,8169.94a2,2,0,0,1-2.27-2.12V8166a2.27,2.27,0,0,1,4.53,0v1.83A2,2,0,0,1,9400.56,8169.94Zm1.57-4a1.57,1.57,0,0,0-3.14,0v1.88a1.57,1.57,0,0,0,3.14,0V8166Z" transform="translate(-9083.02 -8104.35)"/><path class="cls-1" d="M9408.15,8169.82v-4.73a0.53,0.53,0,0,0-.64-0.59,6.17,6.17,0,0,0-2.24.67v4.64h-0.7V8164h0.61l0,0.53a6.55,6.55,0,0,1,2.38-.65,1.12,1.12,0,0,1,1.24,1.32v4.64h-0.7Z" transform="translate(-9083.02 -8104.35)"/><path class="cls-1" d="M9414.72,8169.82h-0.6l0-.46a3.69,3.69,0,0,1-2,.58,1.4,1.4,0,0,1-1.51-1.63c0-1.24.56-1.62,1.72-1.62H9414v-1.14c0-.8-0.42-1.07-1.38-1.07a9.11,9.11,0,0,0-1.73.19l-0.11-.59a7.4,7.4,0,0,1,1.8-.23c1.51,0,2.11.6,2.11,1.69v4.27Zm-0.7-2.51h-1.7a0.84,0.84,0,0,0-1,1,0.8,0.8,0,0,0,1,1,3.28,3.28,0,0,0,1.79-.6v-1.4Z" transform="translate(-9083.02 -8104.35)"/><path class="cls-1" d="M9416.64,8169.82v-8.23l0.7-.1v8.32h-0.7Z" transform="translate(-9083.02 -8104.35)"/><path class="cls-1" d="M9419.38,8162.87v-1.28h0.7v1.28h-0.7Zm0,6.94V8164h0.7v5.84h-0.7Z" transform="translate(-9083.02 -8104.35)"/><path class="cls-1" d="M9425.13,8169.71a3.56,3.56,0,0,1-1.22.23,1.09,1.09,0,0,1-1.32-1.26v-4.1h-1.13V8164h1.13v-1.38l0.7-.1V8164h1.79l-0.07.6h-1.71v4c0,0.52.07,0.73,0.67,0.73a3.65,3.65,0,0,0,1-.17Z" transform="translate(-9083.02 -8104.35)"/><path class="cls-1" d="M9428.84,8169.82l-0.86,2.36h-0.68l0.88-2.36h-0.4l-2-5.84h0.71l1.8,5.35,1.81-5.35h0.71Z" transform="translate(-9083.02 -8104.35)"/><path class="cls-1" d="M9436.13,8169.94a5,5,0,0,1-1.71-.3l0.12-.56a5.74,5.74,0,0,0,1.55.24c1.08,0,1.29-.2,1.29-0.95s0-.92-1.36-1.24-1.58-.71-1.58-1.78,0.47-1.5,1.91-1.5a6.59,6.59,0,0,1,1.66.2l-0.07.59a9.31,9.31,0,0,0-1.63-.17c-1,0-1.16.26-1.16,0.9,0,0.8,0,.89,1.13,1.16,1.71,0.43,1.81.71,1.81,1.8S9437.69,8169.94,9436.13,8169.94Z" transform="translate(-9083.02 -8104.35)"/><path class="cls-1" d="M9442.83,8169.71a3.55,3.55,0,0,1-1.22.23,1.09,1.09,0,0,1-1.32-1.26v-4.1h-1.13V8164h1.13v-1.38l0.7-.1V8164h1.79l-0.07.6H9441v4c0,0.52.07,0.73,0.67,0.73a3.65,3.65,0,0,0,1-.17Z" transform="translate(-9083.02 -8104.35)"/><path class="cls-1" d="M9446.54,8169.82l-0.86,2.36H9445l0.88-2.36h-0.4l-2-5.84h0.71l1.8,5.35,1.81-5.35h0.71Z" transform="translate(-9083.02 -8104.35)"/><path class="cls-1" d="M9449.66,8169.82v-8.23l0.7-.1v8.32h-0.7Z" transform="translate(-9083.02 -8104.35)"/><path class="cls-1" d="M9454.31,8169.33a7.38,7.38,0,0,0,1.85-.28l0.12,0.56a6.44,6.44,0,0,1-2,.32,1.87,1.87,0,0,1-2.17-2.12V8166a1.91,1.91,0,0,1,2.18-2.12,1.87,1.87,0,0,1,2.12,2.12v1.13h-3.61v0.73A1.26,1.26,0,0,0,9454.31,8169.33Zm-1.52-2.84h2.93V8166a1.26,1.26,0,0,0-1.44-1.5,1.29,1.29,0,0,0-1.49,1.5v0.53Z" transform="translate(-9083.02 -8104.35)"/><path class="cls-1" d="M9459.68,8169.94a5,5,0,0,1-1.71-.3l0.12-.56a5.76,5.76,0,0,0,1.55.24c1.08,0,1.29-.2,1.29-0.95s0-.92-1.36-1.24-1.58-.71-1.58-1.78,0.47-1.5,1.91-1.5a6.59,6.59,0,0,1,1.66.2l-0.07.59a9.31,9.31,0,0,0-1.63-.17c-1,0-1.16.26-1.16,0.9,0,0.8,0,.89,1.13,1.16,1.71,0.43,1.81.71,1.81,1.8S9461.23,8169.94,9459.68,8169.94Z" transform="translate(-9083.02 -8104.35)"/><path class="cls-1" d="M9466,8162.87v-1.28h0.7v1.28H9466Zm0,6.94V8164h0.7v5.84H9466Z" transform="translate(-9083.02 -8104.35)"/><path class="cls-1" d="M9470.27,8169.94a5,5,0,0,1-1.71-.3l0.12-.56a5.76,5.76,0,0,0,1.55.24c1.08,0,1.29-.2,1.29-0.95s0-.92-1.36-1.24-1.58-.71-1.58-1.78,0.47-1.5,1.91-1.5a6.59,6.59,0,0,1,1.66.2l-0.07.59a9.31,9.31,0,0,0-1.63-.17c-1,0-1.16.26-1.16,0.9,0,0.8,0,.89,1.13,1.16,1.71,0.43,1.81.71,1.81,1.8S9471.83,8169.94,9470.27,8169.94Z" transform="translate(-9083.02 -8104.35)"/><path class="cls-1" d="M9476.6,8169.82v-8.23l0.7-.1v8.32h-0.7Z" transform="translate(-9083.02 -8104.35)"/><path class="cls-1" d="M9483.23,8169.82h-0.6l0-.46a3.69,3.69,0,0,1-2,.58,1.4,1.4,0,0,1-1.51-1.63c0-1.24.56-1.62,1.71-1.62h1.73v-1.14c0-.8-0.42-1.07-1.38-1.07a9.11,9.11,0,0,0-1.73.19l-0.11-.59a7.4,7.4,0,0,1,1.8-.23c1.51,0,2.11.6,2.11,1.69v4.27Zm-0.7-2.51h-1.7a0.84,0.84,0,0,0-1,1,0.8,0.8,0,0,0,1,1,3.28,3.28,0,0,0,1.79-.6v-1.4Z" transform="translate(-9083.02 -8104.35)"/><path class="cls-1" d="M9487.7,8164.54a12.94,12.94,0,0,0-1.85,1.08v4.2h-0.7V8164h0.62l0,0.89a9.93,9.93,0,0,1,1.8-1Z" transform="translate(-9083.02 -8104.35)"/><path class="cls-1" d="M9490.84,8168a3.77,3.77,0,0,1-.78-0.07,1,1,0,0,0-.46.77c0,0.23.13,0.38,0.53,0.42l1.68,0.13a1.29,1.29,0,0,1,1.45,1.39c0,1.21-.6,1.63-2.5,1.63a8.57,8.57,0,0,1-2.05-.29l0.11-.55a9.59,9.59,0,0,0,2,.24c1.58,0,1.79-.32,1.79-1s-0.24-.8-0.94-0.85l-1.58-.11a1,1,0,0,1-1.15-1,1.21,1.21,0,0,1,.55-1,1.84,1.84,0,0,1-.86-1.75v-0.07c0-1.32.59-2.05,2.24-2.05a3.34,3.34,0,0,1,1,.12h1.61v0.5l-0.73.06a2.17,2.17,0,0,1,.38,1.37V8166C9493.08,8167.3,9492.38,8168,9490.84,8168Zm0-3.57c-1.16,0-1.57.36-1.57,1.43V8166c0,1.1.5,1.43,1.57,1.43s1.57-.37,1.57-1.43v-0.12C9492.41,8164.83,9492,8164.46,9490.84,8164.46Z" transform="translate(-9083.02 -8104.35)"/><path class="cls-1" d="M9496.85,8169.33a7.38,7.38,0,0,0,1.85-.28l0.12,0.56a6.44,6.44,0,0,1-2,.32,1.87,1.87,0,0,1-2.17-2.12V8166a1.91,1.91,0,0,1,2.18-2.12,1.87,1.87,0,0,1,2.12,2.12v1.13h-3.61v0.73A1.26,1.26,0,0,0,9496.85,8169.33Zm-1.52-2.84h2.93V8166a1.26,1.26,0,0,0-1.44-1.5,1.29,1.29,0,0,0-1.49,1.5v0.53Z" transform="translate(-9083.02 -8104.35)"/><path class="cls-1" d="M9503.32,8169.82v-8.23l0.7-.1v8.32h-0.7Z" transform="translate(-9083.02 -8104.35)"/><path class="cls-1" d="M9508,8169.94a2,2,0,0,1-2.27-2.12V8166a2.27,2.27,0,0,1,4.53,0v1.83A2,2,0,0,1,9508,8169.94Zm1.57-4a1.57,1.57,0,0,0-3.14,0v1.88a1.57,1.57,0,0,0,3.14,0V8166Z" transform="translate(-9083.02 -8104.35)"/><path class="cls-1" d="M9513.57,8169.94a5,5,0,0,1-1.71-.3l0.12-.56a5.74,5.74,0,0,0,1.55.24c1.08,0,1.29-.2,1.29-0.95s0-.92-1.36-1.24-1.58-.71-1.58-1.78,0.47-1.5,1.91-1.5a6.59,6.59,0,0,1,1.66.2l-0.07.59a9.31,9.31,0,0,0-1.63-.17c-1,0-1.16.26-1.16,0.9,0,0.8,0,.89,1.13,1.16,1.71,0.43,1.81.71,1.81,1.8S9515.13,8169.94,9513.57,8169.94Z" transform="translate(-9083.02 -8104.35)"/><path class="cls-1" d="M9518.79,8169.94a5,5,0,0,1-1.71-.3l0.12-.56a5.76,5.76,0,0,0,1.55.24c1.08,0,1.29-.2,1.29-0.95s0-.92-1.36-1.24-1.58-.71-1.58-1.78,0.47-1.5,1.91-1.5a6.59,6.59,0,0,1,1.66.2l-0.07.59a9.31,9.31,0,0,0-1.63-.17c-1,0-1.16.26-1.16,0.9,0,0.8,0,.89,1.13,1.16,1.71,0.43,1.81.71,1.81,1.8S9520.35,8169.94,9518.79,8169.94Z" transform="translate(-9083.02 -8104.35)"/><path class="cls-1" d="M9524.93,8165.66a1.59,1.59,0,0,1,1.8-1.8,8.77,8.77,0,0,1,1.8.19v-2.46l0.7-.1v8.32h-0.64l0-.55a3.36,3.36,0,0,1-2,.67,1.44,1.44,0,0,1-1.65-1.62v-2.66Zm3.6-1a9.13,9.13,0,0,0-1.82-.2,1,1,0,0,0-1.08,1.17v2.66a0.84,0.84,0,0,0,1,1,3,3,0,0,0,1.89-.74v-3.89Z" transform="translate(-9083.02 -8104.35)"/><path class="cls-1" d="M9533.81,8164.54a12.94,12.94,0,0,0-1.85,1.08v4.2h-0.7V8164h0.62l0,0.89a9.93,9.93,0,0,1,1.8-1Z" transform="translate(-9083.02 -8104.35)"/><path class="cls-1" d="M9535,8162.87v-1.28h0.7v1.28H9535Zm0,6.94V8164h0.7v5.84H9535Z" transform="translate(-9083.02 -8104.35)"/><path class="cls-1" d="M9540,8169.82h-1.07l-2-5.84h0.71l1.8,5.35,1.81-5.35h0.71Z" transform="translate(-9083.02 -8104.35)"/><path class="cls-1" d="M9545.05,8169.33a7.38,7.38,0,0,0,1.85-.28l0.12,0.56a6.44,6.44,0,0,1-2,.32,1.87,1.87,0,0,1-2.17-2.12V8166a1.91,1.91,0,0,1,2.18-2.12,1.87,1.87,0,0,1,2.12,2.12v1.13h-3.61v0.73A1.26,1.26,0,0,0,9545.05,8169.33Zm-1.52-2.84h2.93V8166a1.26,1.26,0,0,0-1.44-1.5,1.29,1.29,0,0,0-1.49,1.5v0.53Z" transform="translate(-9083.02 -8104.35)"/><path class="cls-1" d="M9551.43,8164.54a12.94,12.94,0,0,0-1.85,1.08v4.2h-0.7V8164h0.62l0,0.89a9.93,9.93,0,0,1,1.8-1Z" transform="translate(-9083.02 -8104.35)"/><path class="cls-1" d="M9551.85,8168.79h0.74v1h-0.74v-1Z" transform="translate(-9083.02 -8104.35)"/><path class="cls-1" d="M9368.17,8178.33l-1.77,7.48h-1.1l-2.16-8h0.68l2,7.45,1.79-7.45h1.13l1.79,7.45,2-7.45h0.68l-2.16,8h-1.1Z" transform="translate(-9083.02 -8104.35)"/><path class="cls-1" d="M9376.17,8185.94a2,2,0,0,1-2.27-2.12V8182a2.27,2.27,0,0,1,4.53,0v1.83A2,2,0,0,1,9376.17,8185.94Zm1.57-4a1.57,1.57,0,0,0-3.14,0v1.88a1.57,1.57,0,0,0,3.14,0V8182Z" transform="translate(-9083.02 -8104.35)"/><path class="cls-1" d="M9382.72,8180.54a12.94,12.94,0,0,0-1.85,1.08v4.2h-0.7V8180h0.62l0,0.89a9.93,9.93,0,0,1,1.8-1Z" transform="translate(-9083.02 -8104.35)"/><path class="cls-1" d="M9383.92,8185.82v-8.23l0.7-.1v8.32h-0.7Zm4.17-5.84-2.33,2.88,2.42,3h-0.89l-2.37-3,2.3-2.88h0.86Z" transform="translate(-9083.02 -8104.35)"/><path class="cls-1" d="M9391.08,8185.94a5,5,0,0,1-1.71-.3l0.12-.56a5.74,5.74,0,0,0,1.55.24c1.08,0,1.29-.2,1.29-0.95s0-.92-1.36-1.24-1.58-.71-1.58-1.78,0.47-1.5,1.91-1.5a6.59,6.59,0,0,1,1.66.2l-0.07.59a9.31,9.31,0,0,0-1.63-.17c-1,0-1.16.26-1.16,0.9,0,0.8,0,.89,1.13,1.16,1.71,0.43,1.81.71,1.81,1.8S9392.64,8185.94,9391.08,8185.94Z" transform="translate(-9083.02 -8104.35)"/><path class="cls-1" d="M9397.78,8185.71a3.55,3.55,0,0,1-1.22.23,1.09,1.09,0,0,1-1.32-1.26v-4.1h-1.13V8180h1.13v-1.38l0.7-.1V8180h1.79l-0.07.6h-1.71v4c0,0.52.07,0.73,0.67,0.73a3.65,3.65,0,0,0,1-.17Z" transform="translate(-9083.02 -8104.35)"/><path class="cls-1" d="M9401.49,8185.82l-0.86,2.36h-0.68l0.88-2.36h-0.4l-2-5.84h0.71l1.8,5.35,1.81-5.35h0.71Z" transform="translate(-9083.02 -8104.35)"/><path class="cls-1" d="M9404.61,8185.82v-8.23l0.7-.1v8.32h-0.7Z" transform="translate(-9083.02 -8104.35)"/><path class="cls-1" d="M9409.26,8185.33a7.38,7.38,0,0,0,1.85-.28l0.12,0.56a6.44,6.44,0,0,1-2,.32,1.87,1.87,0,0,1-2.17-2.12V8182a1.91,1.91,0,0,1,2.18-2.12,1.87,1.87,0,0,1,2.12,2.12v1.13h-3.61v0.73A1.26,1.26,0,0,0,9409.26,8185.33Zm-1.52-2.84h2.93V8182a1.26,1.26,0,0,0-1.44-1.5,1.29,1.29,0,0,0-1.49,1.5v0.53Z" transform="translate(-9083.02 -8104.35)"/><path class="cls-1" d="M9417.27,8185.94a5,5,0,0,1-1.71-.3l0.12-.56a5.76,5.76,0,0,0,1.55.24c1.08,0,1.29-.2,1.29-0.95s0-.92-1.36-1.24-1.58-.71-1.58-1.78,0.47-1.5,1.91-1.5a6.59,6.59,0,0,1,1.66.2l-0.07.59a9.31,9.31,0,0,0-1.63-.17c-1,0-1.16.26-1.16,0.9,0,0.8,0,.89,1.13,1.16,1.71,0.43,1.81.71,1.81,1.8S9418.83,8185.94,9417.27,8185.94Z" transform="translate(-9083.02 -8104.35)"/><path class="cls-1" d="M9424.53,8185.82v-4.73a0.53,0.53,0,0,0-.64-0.59,6.17,6.17,0,0,0-2.24.67v4.64H9421v-8.23l0.7-.1v3a6.42,6.42,0,0,1,2.34-.64,1.12,1.12,0,0,1,1.24,1.32v4.64h-0.7Z" transform="translate(-9083.02 -8104.35)"/><path class="cls-1" d="M9429.75,8180.54a12.94,12.94,0,0,0-1.85,1.08v4.2h-0.7V8180h0.62l0,0.89a9.93,9.93,0,0,1,1.8-1Z" transform="translate(-9083.02 -8104.35)"/><path class="cls-1" d="M9430.95,8178.87v-1.28h0.7v1.28h-0.7Zm0,6.94V8180h0.7v5.84h-0.7Z" transform="translate(-9083.02 -8104.35)"/><path class="cls-1" d="M9437.26,8185.82v-4.73a0.53,0.53,0,0,0-.64-0.59,6.17,6.17,0,0,0-2.24.67v4.64h-0.7V8180h0.61l0,0.53a6.55,6.55,0,0,1,2.38-.65,1.12,1.12,0,0,1,1.24,1.32v4.64h-0.7Z" transform="translate(-9083.02 -8104.35)"/><path class="cls-1" d="M9439.94,8185.82v-8.23l0.7-.1v8.32h-0.7Zm4.17-5.84-2.33,2.88,2.42,3h-0.89l-2.37-3,2.3-2.88h0.86Z" transform="translate(-9083.02 -8104.35)"/><path class="cls-1" d="M9447.1,8185.94a5,5,0,0,1-1.71-.3l0.12-.56a5.76,5.76,0,0,0,1.55.24c1.08,0,1.29-.2,1.29-0.95s0-.92-1.36-1.24-1.58-.71-1.58-1.78,0.47-1.5,1.91-1.5a6.59,6.59,0,0,1,1.66.2l-0.07.59a9.31,9.31,0,0,0-1.63-.17c-1,0-1.16.26-1.16,0.9,0,0.8,0,.89,1.13,1.16,1.71,0.43,1.81.71,1.81,1.8S9448.66,8185.94,9447.1,8185.94Z" transform="translate(-9083.02 -8104.35)"/><path class="cls-1" d="M9456.43,8185.71a3.55,3.55,0,0,1-1.22.23,1.09,1.09,0,0,1-1.32-1.26v-4.1h-1.13V8180h1.13v-1.38l0.7-.1V8180h1.79l-0.07.6h-1.71v4c0,0.52.07,0.73,0.67,0.73a3.65,3.65,0,0,0,1-.17Z" transform="translate(-9083.02 -8104.35)"/><path class="cls-1" d="M9461.45,8185.82v-4.73a0.53,0.53,0,0,0-.64-0.59,6.17,6.17,0,0,0-2.24.67v4.64h-0.7v-8.23l0.7-.1v3a6.42,6.42,0,0,1,2.34-.64,1.12,1.12,0,0,1,1.24,1.32v4.64h-0.7Z" transform="translate(-9083.02 -8104.35)"/><path class="cls-1" d="M9466,8185.33a7.38,7.38,0,0,0,1.85-.28l0.12,0.56a6.44,6.44,0,0,1-2,.32,1.87,1.87,0,0,1-2.17-2.12V8182a1.91,1.91,0,0,1,2.18-2.12,1.87,1.87,0,0,1,2.12,2.12v1.13h-3.61v0.73A1.26,1.26,0,0,0,9466,8185.33Zm-1.52-2.84h2.93V8182a1.26,1.26,0,0,0-1.44-1.5,1.29,1.29,0,0,0-1.49,1.5v0.53Z" transform="translate(-9083.02 -8104.35)"/><path class="cls-1" d="M9475.53,8185.71a3.55,3.55,0,0,1-1.22.23,1.09,1.09,0,0,1-1.32-1.26v-4.1h-1.13V8180H9473v-1.38l0.7-.1V8180h1.79l-0.07.6h-1.71v4c0,0.52.07,0.73,0.67,0.73a3.65,3.65,0,0,0,1-.17Z" transform="translate(-9083.02 -8104.35)"/><path class="cls-1" d="M9477,8178.87v-1.28h0.7v1.28H9477Zm0,6.94V8180h0.7v5.84H9477Z" transform="translate(-9083.02 -8104.35)"/><path class="cls-1" d="M9486.85,8185.82v-4.73a0.53,0.53,0,0,0-.64-0.59,5.8,5.8,0,0,0-2.24.67v4.64h-0.7v-4.73a0.53,0.53,0,0,0-.64-0.59,6.17,6.17,0,0,0-2.24.67v4.64h-0.7V8180h0.61l0,0.53a6.55,6.55,0,0,1,2.38-.65,1.06,1.06,0,0,1,1.13.65,6.94,6.94,0,0,1,2.45-.65,1.12,1.12,0,0,1,1.24,1.32v4.64h-0.7Z" transform="translate(-9083.02 -8104.35)"/><path class="cls-1" d="M9491.45,8185.33a7.38,7.38,0,0,0,1.85-.28l0.12,0.56a6.44,6.44,0,0,1-2,.32,1.87,1.87,0,0,1-2.17-2.12V8182a1.91,1.91,0,0,1,2.18-2.12,1.87,1.87,0,0,1,2.12,2.12v1.13h-3.61v0.73A1.26,1.26,0,0,0,9491.45,8185.33Zm-1.52-2.84h2.93V8182a1.26,1.26,0,0,0-1.44-1.5,1.29,1.29,0,0,0-1.49,1.5v0.53Z" transform="translate(-9083.02 -8104.35)"/><path class="cls-1" d="M9502.21,8183.88c0,1.31-.58,2.06-2.34,2.06a10.17,10.17,0,0,1-2-.22v-8.13l0.7-.1v2.81a4.12,4.12,0,0,1,1.92-.44,1.51,1.51,0,0,1,1.68,1.7v2.31Zm-3.6,1.31a7.55,7.55,0,0,0,1.34.12c1.26,0,1.56-.53,1.56-1.4v-2.35a0.9,0.9,0,0,0-1.08-1,3.54,3.54,0,0,0-1.82.5v4.15Z" transform="translate(-9083.02 -8104.35)"/><path class="cls-1" d="M9505.93,8185.33a7.38,7.38,0,0,0,1.85-.28l0.12,0.56a6.44,6.44,0,0,1-2,.32,1.87,1.87,0,0,1-2.17-2.12V8182a1.91,1.91,0,0,1,2.18-2.12A1.87,1.87,0,0,1,9508,8182v1.13h-3.61v0.73A1.26,1.26,0,0,0,9505.93,8185.33Zm-1.52-2.84h2.93V8182a1.26,1.26,0,0,0-1.44-1.5,1.29,1.29,0,0,0-1.49,1.5v0.53Z" transform="translate(-9083.02 -8104.35)"/><path class="cls-1" d="M9512.77,8185.71a3.55,3.55,0,0,1-1.22.23,1.09,1.09,0,0,1-1.32-1.26v-4.1h-1.13V8180h1.13v-1.38l0.7-.1V8180h1.79l-0.07.6h-1.71v4c0,0.52.07,0.73,0.67,0.73a3.65,3.65,0,0,0,1-.17Z" transform="translate(-9083.02 -8104.35)"/><path class="cls-1" d="M9514.91,8185.82l-1.33-5.84h0.66l1.2,5.37L9517,8180H9518l1.57,5.37,1.21-5.37h0.66l-1.33,5.84h-1l-1.54-5.34-1.54,5.34h-1Z" transform="translate(-9083.02 -8104.35)"/><path class="cls-1" d="M9524.64,8185.33a7.38,7.38,0,0,0,1.85-.28l0.12,0.56a6.44,6.44,0,0,1-2,.32,1.87,1.87,0,0,1-2.17-2.12V8182a1.91,1.91,0,0,1,2.18-2.12,1.87,1.87,0,0,1,2.12,2.12v1.13h-3.61v0.73A1.26,1.26,0,0,0,9524.64,8185.33Zm-1.52-2.84H9526V8182a1.26,1.26,0,0,0-1.44-1.5,1.29,1.29,0,0,0-1.49,1.5v0.53Z" transform="translate(-9083.02 -8104.35)"/><path class="cls-1" d="M9530.39,8185.33a7.38,7.38,0,0,0,1.85-.28l0.12,0.56a6.44,6.44,0,0,1-2,.32,1.87,1.87,0,0,1-2.17-2.12V8182a1.91,1.91,0,0,1,2.18-2.12,1.87,1.87,0,0,1,2.12,2.12v1.13h-3.61v0.73A1.26,1.26,0,0,0,9530.39,8185.33Zm-1.52-2.84h2.93V8182a1.26,1.26,0,0,0-1.44-1.5,1.29,1.29,0,0,0-1.49,1.5v0.53Z" transform="translate(-9083.02 -8104.35)"/><path class="cls-1" d="M9537.79,8185.82v-4.73a0.53,0.53,0,0,0-.64-0.59,6.17,6.17,0,0,0-2.24.67v4.64h-0.7V8180h0.61l0,0.53a6.55,6.55,0,0,1,2.38-.65,1.12,1.12,0,0,1,1.24,1.32v4.64h-0.7Z" transform="translate(-9083.02 -8104.35)"/><path class="cls-1" d="M9546.69,8185.82v-4.73a0.53,0.53,0,0,0-.64-0.59,6.17,6.17,0,0,0-2.24.67v4.64h-0.7v-8.23l0.7-.1v3a6.42,6.42,0,0,1,2.34-.64,1.12,1.12,0,0,1,1.24,1.32v4.64h-0.7Z" transform="translate(-9083.02 -8104.35)"/><path class="cls-1" d="M9549.36,8178.87v-1.28h0.7v1.28h-0.7Zm0,6.94V8180h0.7v5.84h-0.7Z" transform="translate(-9083.02 -8104.35)"/><path class="cls-1" d="M9554.64,8180.54a12.94,12.94,0,0,0-1.85,1.08v4.2h-0.7V8180h0.62l0,0.89a9.93,9.93,0,0,1,1.8-1Z" transform="translate(-9083.02 -8104.35)"/><path class="cls-1" d="M9557.8,8185.33a7.38,7.38,0,0,0,1.85-.28l0.12,0.56a6.44,6.44,0,0,1-2,.32,1.87,1.87,0,0,1-2.17-2.12V8182a1.91,1.91,0,0,1,2.18-2.12,1.87,1.87,0,0,1,2.12,2.12v1.13h-3.61v0.73A1.26,1.26,0,0,0,9557.8,8185.33Zm-1.52-2.84h2.93V8182a1.26,1.26,0,0,0-1.44-1.5,1.29,1.29,0,0,0-1.49,1.5v0.53Z" transform="translate(-9083.02 -8104.35)"/><path class="cls-1" d="M9564.09,8181.66a1.59,1.59,0,0,1,1.8-1.8,8.77,8.77,0,0,1,1.8.19v-2.46l0.7-.1v8.32h-0.64l0-.55a3.36,3.36,0,0,1-2,.67,1.44,1.44,0,0,1-1.65-1.62v-2.66Zm3.6-1a9.13,9.13,0,0,0-1.82-.2,1,1,0,0,0-1.08,1.17v2.66a0.84,0.84,0,0,0,1,1,3,3,0,0,0,1.89-.74v-3.89Z" transform="translate(-9083.02 -8104.35)"/><path class="cls-1" d="M9574.32,8185.82h-0.6l0-.46a3.69,3.69,0,0,1-2,.58,1.4,1.4,0,0,1-1.51-1.63c0-1.24.56-1.62,1.71-1.62h1.73v-1.14c0-.8-0.42-1.07-1.38-1.07a9.11,9.11,0,0,0-1.73.19l-0.11-.59a7.4,7.4,0,0,1,1.8-.23c1.51,0,2.11.6,2.11,1.69v4.27Zm-0.7-2.51h-1.7a0.84,0.84,0,0,0-1,1,0.8,0.8,0,0,0,1,1,3.28,3.28,0,0,0,1.79-.6v-1.4Z" transform="translate(-9083.02 -8104.35)"/><path class="cls-1" d="M9579.25,8185.71a3.56,3.56,0,0,1-1.22.23,1.09,1.09,0,0,1-1.32-1.26v-4.1h-1.13V8180h1.13v-1.38l0.7-.1V8180h1.79l-0.07.6h-1.71v4c0,0.52.07,0.73,0.67,0.73a3.65,3.65,0,0,0,1-.17Z" transform="translate(-9083.02 -8104.35)"/><path class="cls-1" d="M9582.59,8185.33a7.38,7.38,0,0,0,1.85-.28l0.12,0.56a6.44,6.44,0,0,1-2,.32,1.87,1.87,0,0,1-2.17-2.12V8182a1.91,1.91,0,0,1,2.18-2.12,1.87,1.87,0,0,1,2.12,2.12v1.13h-3.61v0.73A1.26,1.26,0,0,0,9582.59,8185.33Zm-1.52-2.84H9584V8182a1.26,1.26,0,0,0-1.44-1.5,1.29,1.29,0,0,0-1.49,1.5v0.53Z" transform="translate(-9083.02 -8104.35)"/><path class="cls-1" d="M9367.75,8201.82h-0.6l0-.46a3.69,3.69,0,0,1-2,.58,1.4,1.4,0,0,1-1.51-1.63c0-1.24.56-1.62,1.72-1.62h1.73v-1.14c0-.8-0.42-1.07-1.38-1.07a9.11,9.11,0,0,0-1.73.19l-0.11-.59a7.4,7.4,0,0,1,1.8-.23c1.51,0,2.11.6,2.11,1.69v4.27Zm-0.7-2.51h-1.7a0.84,0.84,0,0,0-1,1,0.8,0.8,0,0,0,1,1,3.28,3.28,0,0,0,1.79-.6v-1.4Z" transform="translate(-9083.02 -8104.35)"/><path class="cls-1" d="M9373.25,8201.82v-4.73a0.53,0.53,0,0,0-.64-0.59,6.17,6.17,0,0,0-2.24.67v4.64h-0.7V8196h0.61l0,0.53a6.55,6.55,0,0,1,2.38-.65,1.12,1.12,0,0,1,1.24,1.32v4.64h-0.7Z" transform="translate(-9083.02 -8104.35)"/><path class="cls-1" d="M9375.75,8197.66a1.59,1.59,0,0,1,1.8-1.8,8.77,8.77,0,0,1,1.8.19v-2.46l0.7-.1v8.32h-0.64l0-.55a3.36,3.36,0,0,1-2,.67,1.44,1.44,0,0,1-1.65-1.62v-2.66Zm3.6-1a9.13,9.13,0,0,0-1.82-.2,1,1,0,0,0-1.08,1.17v2.66a0.84,0.84,0,0,0,1,1,3,3,0,0,0,1.89-.74v-3.89Z" transform="translate(-9083.02 -8104.35)"/><path class="cls-1" d="M9387.83,8194.06a5.7,5.7,0,0,0-1.06-.11,0.73,0.73,0,0,0-.86.89V8196h1.8l-0.07.6h-1.73v5.24h-0.7v-5.24h-1.09V8196h1.09v-1.22a1.31,1.31,0,0,1,1.51-1.4,4.68,4.68,0,0,1,1.2.17Z" transform="translate(-9083.02 -8104.35)"/><path class="cls-1" d="M9389.64,8196v4.73a0.53,0.53,0,0,0,.64.59,6.16,6.16,0,0,0,2.24-.67V8196h0.7v5.84h-0.61l0-.53a6.54,6.54,0,0,1-2.37.65,1.12,1.12,0,0,1-1.24-1.32V8196h0.7Z" transform="translate(-9083.02 -8104.35)"/><path class="cls-1" d="M9395.26,8201.82v-8.23l0.7-.1v8.32h-0.7Z" transform="translate(-9083.02 -8104.35)"/><path class="cls-1" d="M9398,8201.82v-8.23l0.7-.1v8.32H9398Z" transform="translate(-9083.02 -8104.35)"/><path class="cls-1" d="M9405.34,8201.94a2,2,0,0,1-2.27-2.12V8198a2.27,2.27,0,0,1,4.53,0v1.83A2,2,0,0,1,9405.34,8201.94Zm1.57-4a1.57,1.57,0,0,0-3.14,0v1.88a1.57,1.57,0,0,0,3.14,0V8198Z" transform="translate(-9083.02 -8104.35)"/><path class="cls-1" d="M9410,8196v4.73a0.53,0.53,0,0,0,.64.59,6.16,6.16,0,0,0,2.24-.67V8196h0.7v5.84h-0.61l0-.53a6.54,6.54,0,0,1-2.37.65,1.12,1.12,0,0,1-1.24-1.32V8196h0.7Z" transform="translate(-9083.02 -8104.35)"/><path class="cls-1" d="M9418.61,8201.71a3.55,3.55,0,0,1-1.22.23,1.09,1.09,0,0,1-1.32-1.26v-4.1h-1.13V8196h1.13v-1.38l0.7-.1V8196h1.79l-0.07.6h-1.71v4c0,0.52.07,0.73,0.67,0.73a3.65,3.65,0,0,0,1-.17Z" transform="translate(-9083.02 -8104.35)"/><path class="cls-1" d="M9424.35,8200.14a1.59,1.59,0,0,1-1.8,1.8,8.77,8.77,0,0,1-1.8-.19v2.43l-0.7.1V8196h0.64l0,0.55a3.36,3.36,0,0,1,2-.67,1.44,1.44,0,0,1,1.66,1.62v2.66Zm-3.6,1a9.06,9.06,0,0,0,1.82.2,1,1,0,0,0,1.08-1.17v-2.66a0.84,0.84,0,0,0-1-1,3,3,0,0,0-1.9.74v3.89Z" transform="translate(-9083.02 -8104.35)"/><path class="cls-1" d="M9426.82,8196v4.73a0.53,0.53,0,0,0,.64.59,6.16,6.16,0,0,0,2.24-.67V8196h0.7v5.84h-0.61l0-.53a6.54,6.54,0,0,1-2.37.65,1.12,1.12,0,0,1-1.24-1.32V8196h0.7Z" transform="translate(-9083.02 -8104.35)"/><path class="cls-1" d="M9435.45,8201.71a3.55,3.55,0,0,1-1.22.23,1.09,1.09,0,0,1-1.32-1.26v-4.1h-1.13V8196h1.13v-1.38l0.7-.1V8196h1.79l-0.07.6h-1.71v4c0,0.52.07,0.73,0.67,0.73a3.65,3.65,0,0,0,1-.17Z" transform="translate(-9083.02 -8104.35)"/><path class="cls-1" d="M9437.12,8200.79h0.74v1l-0.58,1.29-0.34-.14,0.43-1.15h-0.26v-1Z" transform="translate(-9083.02 -8104.35)"/><path class="cls-1" d="M9446.5,8201.82h-0.6l0-.46a3.69,3.69,0,0,1-2,.58,1.4,1.4,0,0,1-1.51-1.63c0-1.24.56-1.62,1.72-1.62h1.73v-1.14c0-.8-0.42-1.07-1.38-1.07a9.11,9.11,0,0,0-1.73.19l-0.11-.59a7.4,7.4,0,0,1,1.8-.23c1.51,0,2.11.6,2.11,1.69v4.27Zm-0.7-2.51h-1.7a0.84,0.84,0,0,0-1,1,0.8,0.8,0,0,0,1,1,3.28,3.28,0,0,0,1.79-.6v-1.4Z" transform="translate(-9083.02 -8104.35)"/><path class="cls-1" d="M9452,8201.82v-4.73a0.53,0.53,0,0,0-.64-0.59,6.17,6.17,0,0,0-2.24.67v4.64h-0.7V8196H9449l0,0.53a6.55,6.55,0,0,1,2.38-.65,1.12,1.12,0,0,1,1.24,1.32v4.64H9452Z" transform="translate(-9083.02 -8104.35)"/><path class="cls-1" d="M9454.49,8197.66a1.59,1.59,0,0,1,1.8-1.8,8.77,8.77,0,0,1,1.8.19v-2.46l0.7-.1v8.32h-0.64l0-.55a3.36,3.36,0,0,1-2,.67,1.44,1.44,0,0,1-1.65-1.62v-2.66Zm3.6-1a9.13,9.13,0,0,0-1.82-.2,1,1,0,0,0-1.08,1.17v2.66a0.84,0.84,0,0,0,1,1,3,3,0,0,0,1.89-.74v-3.89Z" transform="translate(-9083.02 -8104.35)"/><path class="cls-1" d="M9466.48,8201.71a3.56,3.56,0,0,1-1.22.23,1.09,1.09,0,0,1-1.32-1.26v-4.1h-1.13V8196h1.13v-1.38l0.7-.1V8196h1.79l-0.07.6h-1.71v4c0,0.52.07,0.73,0.67,0.73a3.65,3.65,0,0,0,1-.17Z" transform="translate(-9083.02 -8104.35)"/><path class="cls-1" d="M9469.81,8201.33a7.38,7.38,0,0,0,1.85-.28l0.12,0.56a6.44,6.44,0,0,1-2,.32,1.87,1.87,0,0,1-2.17-2.12V8198a1.91,1.91,0,0,1,2.18-2.12,1.87,1.87,0,0,1,2.12,2.12v1.13h-3.61v0.73A1.26,1.26,0,0,0,9469.81,8201.33Zm-1.52-2.84h2.93V8198a1.26,1.26,0,0,0-1.44-1.5,1.29,1.29,0,0,0-1.49,1.5v0.53Z" transform="translate(-9083.02 -8104.35)"/><path class="cls-1" d="M9477.44,8201.82h-0.6l0-.46a3.69,3.69,0,0,1-2,.58,1.4,1.4,0,0,1-1.51-1.63c0-1.24.56-1.62,1.71-1.62h1.73v-1.14c0-.8-0.42-1.07-1.38-1.07a9.11,9.11,0,0,0-1.73.19l-0.11-.59a7.4,7.4,0,0,1,1.8-.23c1.51,0,2.11.6,2.11,1.69v4.27Zm-0.7-2.51H9475a0.84,0.84,0,0,0-1,1,0.8,0.8,0,0,0,1,1,3.28,3.28,0,0,0,1.79-.6v-1.4Z" transform="translate(-9083.02 -8104.35)"/><path class="cls-1" d="M9479.7,8199.95c0,1,.42,1.37,1.51,1.37a7.44,7.44,0,0,0,1.25-.12l0.08,0.58a5.73,5.73,0,0,1-1.33.17c-1.64,0-2.21-.76-2.21-2v-2.05c0-1.26.56-2,2.21-2a5.73,5.73,0,0,1,1.33.17l-0.08.58a7.44,7.44,0,0,0-1.25-.12c-1.09,0-1.51.32-1.51,1.37v2.1Z" transform="translate(-9083.02 -8104.35)"/><path class="cls-1" d="M9487.74,8201.82v-4.73a0.53,0.53,0,0,0-.64-0.59,6.17,6.17,0,0,0-2.24.67v4.64h-0.7v-8.23l0.7-.1v3a6.42,6.42,0,0,1,2.34-.64,1.12,1.12,0,0,1,1.24,1.32v4.64h-0.7Z" transform="translate(-9083.02 -8104.35)"/><path class="cls-1" d="M9492.34,8201.33a7.38,7.38,0,0,0,1.85-.28l0.12,0.56a6.44,6.44,0,0,1-2,.32,1.87,1.87,0,0,1-2.17-2.12V8198a1.91,1.91,0,0,1,2.18-2.12,1.87,1.87,0,0,1,2.12,2.12v1.13h-3.61v0.73A1.26,1.26,0,0,0,9492.34,8201.33Zm-1.52-2.84h2.93V8198a1.26,1.26,0,0,0-1.44-1.5,1.29,1.29,0,0,0-1.49,1.5v0.53Z" transform="translate(-9083.02 -8104.35)"/><path class="cls-1" d="M9497.7,8201.94a5,5,0,0,1-1.71-.3l0.12-.56a5.76,5.76,0,0,0,1.55.24c1.08,0,1.29-.2,1.29-0.95s0-.92-1.36-1.24-1.58-.71-1.58-1.78,0.47-1.5,1.91-1.5a6.59,6.59,0,0,1,1.66.2l-0.07.59a9.31,9.31,0,0,0-1.63-.17c-1,0-1.16.26-1.16,0.9,0,0.8,0,.89,1.13,1.16,1.71,0.43,1.81.71,1.81,1.8S9499.26,8201.94,9497.7,8201.94Z" transform="translate(-9083.02 -8104.35)"/><path class="cls-1" d="M9508.58,8199.72h-3.72l-0.74,2.1h-0.7l2.78-8h1l2.78,8h-0.7Zm-3.5-.61h3.29l-1.64-4.87Z" transform="translate(-9083.02 -8104.35)"/><path class="cls-1" d="M9512.25,8201.18h3.6v0.64h-4.31v-8h0.71v7.35Z" transform="translate(-9083.02 -8104.35)"/><path class="cls-1" d="M9518.17,8201.18h3.6v0.64h-4.31v-8h0.71v7.35Z" transform="translate(-9083.02 -8104.35)"/><path class="cls-1" d="M9527.94,8201.94a2,2,0,0,1-2.27-2.12V8198a2.27,2.27,0,0,1,4.53,0v1.83A2,2,0,0,1,9527.94,8201.94Zm1.57-4a1.57,1.57,0,0,0-3.14,0v1.88a1.57,1.57,0,0,0,3.14,0V8198Z" transform="translate(-9083.02 -8104.35)"/><path class="cls-1" d="M9535.06,8194.06a5.7,5.7,0,0,0-1.06-.11,0.73,0.73,0,0,0-.86.89V8196h1.8l-0.07.6h-1.73v5.24h-0.7v-5.24h-1.09V8196h1.09v-1.22a1.31,1.31,0,0,1,1.51-1.4,4.68,4.68,0,0,1,1.2.17Z" transform="translate(-9083.02 -8104.35)"/><path class="cls-1" d="M9541.08,8201.82l-0.86,2.36h-0.68l0.88-2.36H9540l-2-5.84h0.71l1.8,5.35,1.81-5.35h0.71Z" transform="translate(-9083.02 -8104.35)"/><path class="cls-1" d="M9546.17,8201.94a2,2,0,0,1-2.27-2.12V8198a2.27,2.27,0,0,1,4.53,0v1.83A2,2,0,0,1,9546.17,8201.94Zm1.57-4a1.57,1.57,0,0,0-3.14,0v1.88a1.57,1.57,0,0,0,3.14,0V8198Z" transform="translate(-9083.02 -8104.35)"/><path class="cls-1" d="M9550.81,8196v4.73a0.53,0.53,0,0,0,.64.59,6.16,6.16,0,0,0,2.24-.67V8196h0.7v5.84h-0.61l0-.53a6.54,6.54,0,0,1-2.37.65,1.12,1.12,0,0,1-1.24-1.32V8196h0.7Z" transform="translate(-9083.02 -8104.35)"/><path class="cls-1" d="M9559,8196.54a12.94,12.94,0,0,0-1.85,1.08v4.2h-0.7V8196h0.62l0,0.89a9.93,9.93,0,0,1,1.8-1Z" transform="translate(-9083.02 -8104.35)"/><path class="cls-1" d="M9367.75,8217.82h-0.6l0-.46a3.69,3.69,0,0,1-2,.58,1.4,1.4,0,0,1-1.51-1.63c0-1.24.56-1.62,1.72-1.62h1.73v-1.14c0-.8-0.42-1.07-1.38-1.07a9.11,9.11,0,0,0-1.73.19l-0.11-.59a7.4,7.4,0,0,1,1.8-.23c1.51,0,2.11.6,2.11,1.69v4.27Zm-0.7-2.51h-1.7a0.84,0.84,0,0,0-1,1,0.8,0.8,0,0,0,1,1,3.28,3.28,0,0,0,1.79-.6v-1.4Z" transform="translate(-9083.02 -8104.35)"/><path class="cls-1" d="M9371.68,8216a3.77,3.77,0,0,1-.78-0.07,1,1,0,0,0-.46.77c0,0.23.13,0.38,0.53,0.42l1.68,0.13a1.29,1.29,0,0,1,1.45,1.39c0,1.21-.6,1.63-2.5,1.63a8.57,8.57,0,0,1-2.05-.29l0.11-.55a9.59,9.59,0,0,0,2,.24c1.58,0,1.79-.32,1.79-1s-0.24-.8-0.94-0.85l-1.58-.11a1,1,0,0,1-1.15-1,1.21,1.21,0,0,1,.55-1,1.84,1.84,0,0,1-.86-1.75v-0.07c0-1.32.59-2.05,2.24-2.05a3.34,3.34,0,0,1,1,.12h1.61v0.5l-0.73.06a2.17,2.17,0,0,1,.38,1.37V8214C9373.92,8215.3,9373.21,8216,9371.68,8216Zm0-3.57c-1.16,0-1.57.36-1.57,1.43V8214c0,1.1.5,1.43,1.57,1.43s1.57-.37,1.57-1.43v-0.12C9373.25,8212.83,9372.84,8212.46,9371.68,8212.46Z" transform="translate(-9083.02 -8104.35)"/><path class="cls-1" d="M9377.69,8217.33a7.38,7.38,0,0,0,1.85-.28l0.12,0.56a6.44,6.44,0,0,1-2,.32,1.87,1.87,0,0,1-2.17-2.12V8214a1.91,1.91,0,0,1,2.18-2.12,1.87,1.87,0,0,1,2.12,2.12v1.13h-3.61v0.73A1.26,1.26,0,0,0,9377.69,8217.33Zm-1.52-2.84h2.93V8214a1.26,1.26,0,0,0-1.44-1.5,1.29,1.29,0,0,0-1.49,1.5v0.53Z" transform="translate(-9083.02 -8104.35)"/><path class="cls-1" d="M9385.09,8217.82v-4.73a0.53,0.53,0,0,0-.64-0.59,6.17,6.17,0,0,0-2.24.67v4.64h-0.7V8212h0.61l0,0.53a6.55,6.55,0,0,1,2.38-.65,1.12,1.12,0,0,1,1.24,1.32v4.64h-0.7Z" transform="translate(-9083.02 -8104.35)"/><path class="cls-1" d="M9390.78,8217.71a3.56,3.56,0,0,1-1.22.23,1.09,1.09,0,0,1-1.32-1.26v-4.1h-1.13V8212h1.13v-1.38l0.7-.1V8212h1.79l-0.07.6h-1.71v4c0,0.52.07,0.73,0.67,0.73a3.65,3.65,0,0,0,1-.17Z" transform="translate(-9083.02 -8104.35)"/><path class="cls-1" d="M9393.76,8217.94a5,5,0,0,1-1.71-.3l0.12-.56a5.76,5.76,0,0,0,1.55.24c1.08,0,1.29-.2,1.29-0.95s0-.92-1.36-1.24-1.58-.71-1.58-1.78,0.47-1.5,1.91-1.5a6.59,6.59,0,0,1,1.66.2l-0.07.59a9.31,9.31,0,0,0-1.63-.17c-1,0-1.16.26-1.16,0.9,0,0.8,0,.89,1.13,1.16,1.71,0.43,1.81.71,1.81,1.8S9395.32,8217.94,9393.76,8217.94Z" transform="translate(-9083.02 -8104.35)"/><path class="cls-1" d="M9403.09,8217.71a3.55,3.55,0,0,1-1.22.23,1.09,1.09,0,0,1-1.32-1.26v-4.1h-1.13V8212h1.13v-1.38l0.7-.1V8212H9403l-0.07.6h-1.71v4c0,0.52.07,0.73,0.67,0.73a3.65,3.65,0,0,0,1-.17Z" transform="translate(-9083.02 -8104.35)"/><path class="cls-1" d="M9406.48,8217.94a2,2,0,0,1-2.27-2.12V8214a2.27,2.27,0,0,1,4.53,0v1.83A2,2,0,0,1,9406.48,8217.94Zm1.57-4a1.57,1.57,0,0,0-3.14,0v1.88a1.57,1.57,0,0,0,3.14,0V8214Z" transform="translate(-9083.02 -8104.35)"/><path class="cls-1" d="M9416.7,8217.82v-4.73a0.53,0.53,0,0,0-.64-0.59,6.17,6.17,0,0,0-2.24.67v4.64h-0.7V8212h0.61l0,0.53a6.55,6.55,0,0,1,2.38-.65,1.12,1.12,0,0,1,1.24,1.32v4.64h-0.7Z" transform="translate(-9083.02 -8104.35)"/><path class="cls-1" d="M9423.28,8217.82h-0.6l0-.46a3.69,3.69,0,0,1-2,.58,1.4,1.4,0,0,1-1.51-1.63c0-1.24.56-1.62,1.71-1.62h1.73v-1.14c0-.8-0.42-1.07-1.38-1.07a9.11,9.11,0,0,0-1.73.19l-0.11-.59a7.4,7.4,0,0,1,1.8-.23c1.51,0,2.11.6,2.11,1.69v4.27Zm-0.7-2.51h-1.7a0.84,0.84,0,0,0-1,1,0.8,0.8,0,0,0,1,1,3.28,3.28,0,0,0,1.79-.6v-1.4Z" transform="translate(-9083.02 -8104.35)"/><path class="cls-1" d="M9428.21,8217.71a3.55,3.55,0,0,1-1.22.23,1.09,1.09,0,0,1-1.32-1.26v-4.1h-1.13V8212h1.13v-1.38l0.7-.1V8212h1.79l-0.07.6h-1.71v4c0,0.52.07,0.73,0.67,0.73a3.65,3.65,0,0,0,1-.17Z" transform="translate(-9083.02 -8104.35)"/><path class="cls-1" d="M9430.29,8212v4.73a0.53,0.53,0,0,0,.64.59,6.16,6.16,0,0,0,2.24-.67V8212h0.7v5.84h-0.61l0-.53a6.54,6.54,0,0,1-2.37.65,1.12,1.12,0,0,1-1.23-1.32V8212h0.7Z" transform="translate(-9083.02 -8104.35)"/><path class="cls-1" d="M9438.45,8212.54a12.94,12.94,0,0,0-1.85,1.08v4.2h-0.7V8212h0.62l0,0.89a9.93,9.93,0,0,1,1.8-1Z" transform="translate(-9083.02 -8104.35)"/><path class="cls-1" d="M9443.46,8217.82h-0.6l0-.46a3.69,3.69,0,0,1-2,.58,1.4,1.4,0,0,1-1.51-1.63c0-1.24.56-1.62,1.72-1.62h1.73v-1.14c0-.8-0.42-1.07-1.38-1.07a9.11,9.11,0,0,0-1.73.19l-0.11-.59a7.4,7.4,0,0,1,1.8-.23c1.51,0,2.11.6,2.11,1.69v4.27Zm-0.7-2.51h-1.7a0.84,0.84,0,0,0-1,1,0.8,0.8,0,0,0,1,1,3.28,3.28,0,0,0,1.79-.6v-1.4Z" transform="translate(-9083.02 -8104.35)"/><path class="cls-1" d="M9445.38,8217.82v-8.23l0.7-.1v8.32h-0.7Z" transform="translate(-9083.02 -8104.35)"/><path class="cls-1" d="M9448.12,8217.82v-8.23l0.7-.1v8.32h-0.7Z" transform="translate(-9083.02 -8104.35)"/><path class="cls-1" d="M9453.06,8217.82l-0.86,2.36h-0.68l0.88-2.36H9452l-2-5.84h0.71l1.8,5.35,1.81-5.35H9455Z" transform="translate(-9083.02 -8104.35)"/><path class="cls-1" d="M9463.55,8214.11v3.5a8.15,8.15,0,0,1-2.23.32c-1.81,0-2.49-.55-2.49-1.88v-0.77a1.47,1.47,0,0,1,1.1-1.51,1.3,1.3,0,0,1-.91-1.38v-1c0-1.14.73-1.71,2.24-1.71a10,10,0,0,1,2.13.28l-0.08.59a11.24,11.24,0,0,0-2.08-.24c-1.07,0-1.52.31-1.52,1.09v1a1,1,0,0,0,1.24,1h3.78v0.62h-1.17Zm-0.67,3v-3h-1.8c-0.92,0-1.56.34-1.56,1.25V8216c0,1,.4,1.31,1.78,1.31A6.88,6.88,0,0,0,9462.88,8217.15Z" transform="translate(-9083.02 -8104.35)"/><path class="cls-1" d="M9470.79,8217.33a7.38,7.38,0,0,0,1.85-.28l0.12,0.56a6.44,6.44,0,0,1-2,.32,1.87,1.87,0,0,1-2.17-2.12V8214a1.91,1.91,0,0,1,2.18-2.12,1.87,1.87,0,0,1,2.12,2.12v1.13h-3.61v0.73A1.26,1.26,0,0,0,9470.79,8217.33Zm-1.52-2.84h2.93V8214a1.26,1.26,0,0,0-1.44-1.5,1.29,1.29,0,0,0-1.49,1.5v0.53Z" transform="translate(-9083.02 -8104.35)"/><path class="cls-1" d="M9478.42,8217.82h-0.6l0-.46a3.69,3.69,0,0,1-2,.58,1.4,1.4,0,0,1-1.51-1.63c0-1.24.56-1.62,1.71-1.62h1.73v-1.14c0-.8-0.42-1.07-1.38-1.07a9.11,9.11,0,0,0-1.73.19l-0.11-.59a7.4,7.4,0,0,1,1.8-.23c1.51,0,2.11.6,2.11,1.69v4.27Zm-0.7-2.51H9476a0.84,0.84,0,0,0-1,1,0.8,0.8,0,0,0,1,1,3.28,3.28,0,0,0,1.79-.6v-1.4Z" transform="translate(-9083.02 -8104.35)"/><path class="cls-1" d="M9481.88,8217.94a5,5,0,0,1-1.71-.3l0.12-.56a5.76,5.76,0,0,0,1.55.24c1.08,0,1.29-.2,1.29-0.95s0-.92-1.36-1.24-1.58-.71-1.58-1.78,0.47-1.5,1.91-1.5a6.59,6.59,0,0,1,1.66.2l-0.07.59a9.31,9.31,0,0,0-1.63-.17c-1,0-1.16.26-1.16,0.9,0,0.8,0,.89,1.13,1.16,1.71,0.43,1.81.71,1.81,1.8S9483.43,8217.94,9481.88,8217.94Z" transform="translate(-9083.02 -8104.35)"/><path class="cls-1" d="M9485.56,8210.87v-1.28h0.7v1.28h-0.7Zm0,6.94V8212h0.7v5.84h-0.7Z" transform="translate(-9083.02 -8104.35)"/><path class="cls-1" d="M9488.3,8217.82v-8.23l0.7-.1v8.32h-0.7Z" transform="translate(-9083.02 -8104.35)"/><path class="cls-1" d="M9493.24,8217.82l-0.86,2.36h-0.68l0.88-2.36h-0.4l-2-5.84h0.71l1.8,5.35,1.81-5.35h0.71Z" transform="translate(-9083.02 -8104.35)"/><path class="cls-1" d="M9499.34,8215.95c0,1,.42,1.37,1.51,1.37a7.44,7.44,0,0,0,1.25-.12l0.08,0.58a5.73,5.73,0,0,1-1.33.17c-1.64,0-2.21-.76-2.21-2v-2.05c0-1.26.56-2,2.21-2a5.73,5.73,0,0,1,1.33.17l-0.08.58a7.44,7.44,0,0,0-1.25-.12c-1.09,0-1.51.32-1.51,1.37v2.1Z" transform="translate(-9083.02 -8104.35)"/><path class="cls-1" d="M9505.73,8217.94a2,2,0,0,1-2.27-2.12V8214a2.27,2.27,0,0,1,4.53,0v1.83A2,2,0,0,1,9505.73,8217.94Zm1.57-4a1.57,1.57,0,0,0-3.14,0v1.88a1.57,1.57,0,0,0,3.14,0V8214Z" transform="translate(-9083.02 -8104.35)"/><path class="cls-1" d="M9513.31,8217.82v-4.73a0.53,0.53,0,0,0-.64-0.59,6.17,6.17,0,0,0-2.24.67v4.64h-0.7V8212h0.61l0,0.53a6.55,6.55,0,0,1,2.38-.65,1.12,1.12,0,0,1,1.24,1.32v4.64h-0.7Z" transform="translate(-9083.02 -8104.35)"/><path class="cls-1" d="M9519.57,8217.82v-4.73a0.53,0.53,0,0,0-.64-0.59,6.17,6.17,0,0,0-2.24.67v4.64H9516V8212h0.61l0,0.53a6.55,6.55,0,0,1,2.38-.65,1.12,1.12,0,0,1,1.24,1.32v4.64h-0.7Z" transform="translate(-9083.02 -8104.35)"/><path class="cls-1" d="M9524.16,8217.33a7.38,7.38,0,0,0,1.85-.28l0.12,0.56a6.44,6.44,0,0,1-2,.32,1.87,1.87,0,0,1-2.17-2.12V8214a1.91,1.91,0,0,1,2.18-2.12,1.87,1.87,0,0,1,2.12,2.12v1.13h-3.61v0.73A1.26,1.26,0,0,0,9524.16,8217.33Zm-1.52-2.84h2.93V8214a1.26,1.26,0,0,0-1.44-1.5,1.29,1.29,0,0,0-1.49,1.5v0.53Z" transform="translate(-9083.02 -8104.35)"/><path class="cls-1" d="M9528.33,8215.95c0,1,.42,1.37,1.51,1.37a7.44,7.44,0,0,0,1.25-.12l0.08,0.58a5.72,5.72,0,0,1-1.33.17c-1.64,0-2.21-.76-2.21-2v-2.05c0-1.26.56-2,2.21-2a5.72,5.72,0,0,1,1.33.17l-0.08.58a7.44,7.44,0,0,0-1.25-.12c-1.09,0-1.51.32-1.51,1.37v2.1Z" transform="translate(-9083.02 -8104.35)"/><path class="cls-1" d="M9535.8,8217.71a3.55,3.55,0,0,1-1.22.23,1.09,1.09,0,0,1-1.32-1.26v-4.1h-1.13V8212h1.13v-1.38l0.7-.1V8212h1.79l-0.07.6H9534v4c0,0.52.07,0.73,0.67,0.73a3.65,3.65,0,0,0,1-.17Z" transform="translate(-9083.02 -8104.35)"/><path class="cls-1" d="M9540.49,8217.82l-1.33-5.84h0.66l1.2,5.37,1.58-5.37h0.94l1.57,5.37,1.21-5.37H9547l-1.33,5.84h-1l-1.54-5.34-1.54,5.34h-1Z" transform="translate(-9083.02 -8104.35)"/><path class="cls-1" d="M9548.31,8210.87v-1.28h0.7v1.28h-0.7Zm0,6.94V8212h0.7v5.84h-0.7Z" transform="translate(-9083.02 -8104.35)"/><path class="cls-1" d="M9554.05,8217.71a3.55,3.55,0,0,1-1.22.23,1.09,1.09,0,0,1-1.32-1.26v-4.1h-1.13V8212h1.13v-1.38l0.7-.1V8212H9554l-0.07.6h-1.71v4c0,0.52.07,0.73,0.67,0.73a3.65,3.65,0,0,0,1-.17Z" transform="translate(-9083.02 -8104.35)"/><path class="cls-1" d="M9559.07,8217.82v-4.73a0.53,0.53,0,0,0-.64-0.59,6.17,6.17,0,0,0-2.24.67v4.64h-0.7v-8.23l0.7-.1v3a6.42,6.42,0,0,1,2.34-.64,1.12,1.12,0,0,1,1.24,1.32v4.64h-0.7Z" transform="translate(-9083.02 -8104.35)"/><path class="cls-1" d="M9365.78,8233.33a7.38,7.38,0,0,0,1.85-.28l0.12,0.56a6.44,6.44,0,0,1-2,.32,1.87,1.87,0,0,1-2.17-2.12V8230a1.91,1.91,0,0,1,2.18-2.12,1.87,1.87,0,0,1,2.12,2.12v1.13h-3.61v0.73A1.26,1.26,0,0,0,9365.78,8233.33Zm-1.52-2.84h2.93V8230a1.26,1.26,0,0,0-1.44-1.5,1.29,1.29,0,0,0-1.49,1.5v0.53Z" transform="translate(-9083.02 -8104.35)"/><path class="cls-1" d="M9371.79,8233.82h-1.07l-2-5.84h0.71l1.8,5.35,1.81-5.35h0.71Z" transform="translate(-9083.02 -8104.35)"/><path class="cls-1" d="M9376.89,8233.33a7.38,7.38,0,0,0,1.85-.28l0.12,0.56a6.44,6.44,0,0,1-2,.32,1.87,1.87,0,0,1-2.17-2.12V8230a1.91,1.91,0,0,1,2.18-2.12A1.87,1.87,0,0,1,9379,8230v1.13h-3.61v0.73A1.26,1.26,0,0,0,9376.89,8233.33Zm-1.52-2.84h2.93V8230a1.26,1.26,0,0,0-1.44-1.5,1.29,1.29,0,0,0-1.49,1.5v0.53Z" transform="translate(-9083.02 -8104.35)"/><path class="cls-1" d="M9383.26,8228.54a12.94,12.94,0,0,0-1.85,1.08v4.2h-0.7V8228h0.62l0,0.89a9.93,9.93,0,0,1,1.8-1Z" transform="translate(-9083.02 -8104.35)"/><path class="cls-1" d="M9386.92,8233.82l-0.86,2.36h-0.68l0.88-2.36h-0.4l-2-5.84h0.71l1.8,5.35,1.81-5.35h0.71Z" transform="translate(-9083.02 -8104.35)"/><path class="cls-1" d="M9393,8231.95c0,1,.42,1.37,1.51,1.37a7.44,7.44,0,0,0,1.25-.12l0.08,0.58a5.73,5.73,0,0,1-1.33.17c-1.64,0-2.21-.76-2.21-2v-2.05c0-1.26.56-2,2.21-2a5.73,5.73,0,0,1,1.33.17l-0.08.58a7.44,7.44,0,0,0-1.25-.12c-1.09,0-1.51.32-1.51,1.37v2.1Z" transform="translate(-9083.02 -8104.35)"/><path class="cls-1" d="M9398.12,8228v4.73a0.53,0.53,0,0,0,.64.59,6.16,6.16,0,0,0,2.24-.67V8228h0.7v5.84h-0.61l0-.53a6.54,6.54,0,0,1-2.37.65,1.12,1.12,0,0,1-1.23-1.32V8228h0.7Z" transform="translate(-9083.02 -8104.35)"/><path class="cls-1" d="M9405.27,8233.94a5,5,0,0,1-1.71-.3l0.12-.56a5.74,5.74,0,0,0,1.55.24c1.08,0,1.29-.2,1.29-0.95s0-.92-1.36-1.24-1.58-.71-1.58-1.78,0.47-1.5,1.91-1.5a6.59,6.59,0,0,1,1.66.2l-0.07.59a9.31,9.31,0,0,0-1.63-.17c-1,0-1.16.26-1.16,0.9,0,0.8,0,.89,1.13,1.16,1.71,0.43,1.81.71,1.81,1.8S9406.83,8233.94,9405.27,8233.94Z" transform="translate(-9083.02 -8104.35)"/><path class="cls-1" d="M9412,8233.71a3.55,3.55,0,0,1-1.22.23,1.09,1.09,0,0,1-1.32-1.26v-4.1h-1.13V8228h1.13v-1.38l0.7-.1V8228h1.79l-0.07.6h-1.71v4c0,0.52.07,0.73,0.67,0.73a3.65,3.65,0,0,0,1-.17Z" transform="translate(-9083.02 -8104.35)"/><path class="cls-1" d="M9415.35,8233.94a2,2,0,0,1-2.27-2.12V8230a2.27,2.27,0,0,1,4.53,0v1.83A2,2,0,0,1,9415.35,8233.94Zm1.57-4a1.57,1.57,0,0,0-3.14,0v1.88a1.57,1.57,0,0,0,3.14,0V8230Z" transform="translate(-9083.02 -8104.35)"/><path class="cls-1" d="M9426.5,8233.82v-4.73a0.53,0.53,0,0,0-.64-0.59,5.8,5.8,0,0,0-2.24.67v4.64h-0.7v-4.73a0.53,0.53,0,0,0-.64-0.59,6.17,6.17,0,0,0-2.24.67v4.64h-0.7V8228H9420l0,0.53a6.55,6.55,0,0,1,2.38-.65,1.06,1.06,0,0,1,1.13.65,6.93,6.93,0,0,1,2.45-.65,1.12,1.12,0,0,1,1.24,1.32v4.64h-0.7Z" transform="translate(-9083.02 -8104.35)"/><path class="cls-1" d="M9431.1,8233.33a7.38,7.38,0,0,0,1.85-.28l0.12,0.56a6.44,6.44,0,0,1-2,.32,1.87,1.87,0,0,1-2.17-2.12V8230a1.91,1.91,0,0,1,2.18-2.12,1.87,1.87,0,0,1,2.12,2.12v1.13h-3.61v0.73A1.26,1.26,0,0,0,9431.1,8233.33Zm-1.52-2.84h2.93V8230a1.26,1.26,0,0,0-1.44-1.5,1.29,1.29,0,0,0-1.49,1.5v0.53Z" transform="translate(-9083.02 -8104.35)"/><path class="cls-1" d="M9437.47,8228.54a12.94,12.94,0,0,0-1.85,1.08v4.2h-0.7V8228h0.62l0,0.89a9.93,9.93,0,0,1,1.8-1Z" transform="translate(-9083.02 -8104.35)"/><path class="cls-1" d="M9437.88,8232.79h0.74v1l-0.58,1.29-0.34-.14,0.43-1.15h-0.26v-1Z" transform="translate(-9083.02 -8104.35)"/><path class="cls-1" d="M9445.29,8233.33a7.38,7.38,0,0,0,1.85-.28l0.12,0.56a6.44,6.44,0,0,1-2,.32,1.87,1.87,0,0,1-2.17-2.12V8230a1.91,1.91,0,0,1,2.18-2.12,1.87,1.87,0,0,1,2.12,2.12v1.13h-3.61v0.73A1.26,1.26,0,0,0,9445.29,8233.33Zm-1.52-2.84h2.93V8230a1.26,1.26,0,0,0-1.44-1.5,1.29,1.29,0,0,0-1.49,1.5v0.53Z" transform="translate(-9083.02 -8104.35)"/><path class="cls-1" d="M9451.3,8233.82h-1.07l-2-5.84H9449l1.8,5.35,1.81-5.35h0.71Z" transform="translate(-9083.02 -8104.35)"/><path class="cls-1" d="M9456.4,8233.33a7.38,7.38,0,0,0,1.85-.28l0.12,0.56a6.44,6.44,0,0,1-2,.32,1.87,1.87,0,0,1-2.17-2.12V8230a1.91,1.91,0,0,1,2.18-2.12,1.87,1.87,0,0,1,2.12,2.12v1.13h-3.61v0.73A1.26,1.26,0,0,0,9456.4,8233.33Zm-1.52-2.84h2.93V8230a1.26,1.26,0,0,0-1.44-1.5,1.29,1.29,0,0,0-1.49,1.5v0.53Z" transform="translate(-9083.02 -8104.35)"/><path class="cls-1" d="M9462.77,8228.54a12.94,12.94,0,0,0-1.85,1.08v4.2h-0.7V8228h0.62l0,0.89a9.93,9.93,0,0,1,1.8-1Z" transform="translate(-9083.02 -8104.35)"/><path class="cls-1" d="M9466.43,8233.82l-0.86,2.36h-0.68l0.88-2.36h-0.4l-2-5.84h0.71l1.8,5.35,1.81-5.35h0.71Z" transform="translate(-9083.02 -8104.35)"/><path class="cls-1" d="M9475.2,8233.71a3.56,3.56,0,0,1-1.22.23,1.09,1.09,0,0,1-1.32-1.26v-4.1h-1.13V8228h1.13v-1.38l0.7-.1V8228h1.79l-0.07.6h-1.71v4c0,0.52.07,0.73,0.67,0.73a3.65,3.65,0,0,0,1-.17Z" transform="translate(-9083.02 -8104.35)"/><path class="cls-1" d="M9476.64,8226.87v-1.28h0.7v1.28h-0.7Zm0,6.94V8228h0.7v5.84h-0.7Z" transform="translate(-9083.02 -8104.35)"/><path class="cls-1" d="M9486.53,8233.82v-4.73a0.53,0.53,0,0,0-.64-0.59,5.8,5.8,0,0,0-2.24.67v4.64H9483v-4.73a0.53,0.53,0,0,0-.64-0.59,6.17,6.17,0,0,0-2.24.67v4.64h-0.7V8228H9480l0,0.53a6.55,6.55,0,0,1,2.38-.65,1.06,1.06,0,0,1,1.13.65,6.93,6.93,0,0,1,2.45-.65,1.12,1.12,0,0,1,1.24,1.32v4.64h-0.7Z" transform="translate(-9083.02 -8104.35)"/><path class="cls-1" d="M9491.13,8233.33a7.38,7.38,0,0,0,1.85-.28l0.12,0.56a6.44,6.44,0,0,1-2,.32,1.87,1.87,0,0,1-2.17-2.12V8230a1.91,1.91,0,0,1,2.18-2.12,1.87,1.87,0,0,1,2.12,2.12v1.13h-3.61v0.73A1.26,1.26,0,0,0,9491.13,8233.33Zm-1.52-2.84h2.93V8230a1.26,1.26,0,0,0-1.44-1.5,1.29,1.29,0,0,0-1.49,1.5v0.53Z" transform="translate(-9083.02 -8104.35)"/><path class="cls-1" d="M9495.11,8232.79h0.74v1h-0.74v-1Z" transform="translate(-9083.02 -8104.35)"/><path class="cls-1" d="M9088.93,8104.49h1.88l-3,6.63v2.7H9086v-2.7l-3-6.63h1.88l2,4.71Z" transform="translate(-9083.02 -8104.35)"/><path class="cls-1" d="M9098.49,8111.09c0,1.55-.9,2.87-3.53,2.87s-3.53-1.32-3.53-2.87v-3.87c0-1.55.9-2.87,3.53-2.87s3.53,1.32,3.53,2.87v3.87Zm-5.29-.1c0,0.88.45,1.42,1.76,1.42s1.76-.53,1.76-1.42v-3.67c0-.88-0.45-1.42-1.76-1.42s-1.76.53-1.76,1.42V8111Z" transform="translate(-9083.02 -8104.35)"/><path class="cls-1" d="M9107.2,8104.49v6.63c0,1.47-.83,2.84-3.45,2.84s-3.45-1.37-3.45-2.84v-6.63h1.76V8111c0,0.91.43,1.43,1.68,1.43s1.68-.52,1.68-1.43v-6.49h1.76Z" transform="translate(-9083.02 -8104.35)"/><path class="cls-1" d="M9114.81,8113.82l-2.14-3.08H9111v3.08h-1.76v-9.33H9113c2.17,0,3,.88,3,2.52v1.22a2.13,2.13,0,0,1-1.4,2.25l2.31,3.33h-2.12ZM9113,8106h-2v3.17h2c1,0,1.27-.35,1.27-1.13v-0.92C9114.25,8106.37,9113.92,8106,9113,8106Z" transform="translate(-9083.02 -8104.35)"/><path class="cls-1" d="M9123.17,8106h-2.61v-1.55h7V8106h-2.61v7.77h-1.77V8106Z" transform="translate(-9083.02 -8104.35)"/><path class="cls-1" d="M9135.53,8111.09c0,1.55-.9,2.87-3.53,2.87s-3.53-1.32-3.53-2.87v-3.87c0-1.55.9-2.87,3.53-2.87s3.53,1.32,3.53,2.87v3.87Zm-5.29-.1c0,0.88.45,1.42,1.76,1.42s1.76-.53,1.76-1.42v-3.67c0-.88-0.45-1.42-1.76-1.42s-1.76.53-1.76,1.42V8111Z" transform="translate(-9083.02 -8104.35)"/><path class="cls-1" d="M9139.07,8106h-2.61v-1.55h7V8106h-2.61v7.77h-1.77V8106Z" transform="translate(-9083.02 -8104.35)"/><path class="cls-1" d="M9149.17,8111.89h-3.46l-0.59,1.93h-1.85l2.94-9.33h2.46l2.94,9.33h-1.85Zm-3-1.53h2.58l-1.28-4.41Z" transform="translate(-9083.02 -8104.35)"/><path class="cls-1" d="M9154.78,8112.26h3.84v1.55H9153v-9.33h1.76v7.77Z" transform="translate(-9083.02 -8104.35)"/><path class="cls-1" d="M9164.79,8112.26h3.84v1.55H9163v-9.33h1.76v7.77Z" transform="translate(-9083.02 -8104.35)"/><path class="cls-1" d="M9176.69,8111.09c0,1.55-.9,2.87-3.53,2.87s-3.53-1.32-3.53-2.87v-3.87c0-1.55.9-2.87,3.53-2.87s3.53,1.32,3.53,2.87v3.87Zm-5.29-.1c0,0.88.45,1.42,1.76,1.42s1.76-.53,1.76-1.42v-3.67c0-.88-0.45-1.42-1.76-1.42s-1.76.53-1.76,1.42V8111Z" transform="translate(-9083.02 -8104.35)"/><path class="cls-1" d="M9181.11,8114a7.85,7.85,0,0,1-2.91-.56l0.31-1.39a8.81,8.81,0,0,0,2.63.43c1.27,0,1.48-.27,1.48-1.16s0-1.12-1.71-1.48c-2.25-.5-2.56-0.94-2.56-2.91,0-1.7.77-2.54,3.14-2.54a12.74,12.74,0,0,1,2.72.31l-0.2,1.49a12.26,12.26,0,0,0-2.49-.28c-1.19,0-1.4.25-1.4,1.06,0,1.06,0,1.09,1.64,1.49,2.51,0.6,2.63,1,2.63,2.87S9183.87,8114,9181.11,8114Z" transform="translate(-9083.02 -8104.35)"/><path class="cls-1" d="M9188.67,8114a7.85,7.85,0,0,1-2.91-.56l0.31-1.39a8.81,8.81,0,0,0,2.63.43c1.27,0,1.49-.27,1.49-1.16s0-1.12-1.71-1.48c-2.26-.5-2.56-0.94-2.56-2.91,0-1.7.77-2.54,3.14-2.54a12.73,12.73,0,0,1,2.72.31l-0.2,1.49a12.27,12.27,0,0,0-2.49-.28c-1.19,0-1.4.25-1.4,1.06,0,1.06,0,1.09,1.64,1.49,2.51,0.6,2.63,1,2.63,2.87S9191.43,8114,9188.67,8114Z" transform="translate(-9083.02 -8104.35)"/><path class="cls-1" d="M9193.7,8104.49h5.71V8106h-4v2.26h3.64v1.55h-3.64v2.41h4v1.55h-5.71v-9.33Z" transform="translate(-9083.02 -8104.35)"/><path class="cls-1" d="M9203.77,8114a7.85,7.85,0,0,1-2.91-.56l0.31-1.39a8.81,8.81,0,0,0,2.63.43c1.27,0,1.49-.27,1.49-1.16s0-1.12-1.71-1.48c-2.26-.5-2.56-0.94-2.56-2.91,0-1.7.77-2.54,3.14-2.54a12.73,12.73,0,0,1,2.72.31l-0.2,1.49a12.27,12.27,0,0,0-2.49-.28c-1.19,0-1.4.25-1.4,1.06,0,1.06,0,1.09,1.64,1.49,2.51,0.6,2.63,1,2.63,2.87S9206.53,8114,9203.77,8114Z" transform="translate(-9083.02 -8104.35)"/><path class="cls-1" d="M9211.73,8104.49h3.64c2.16,0,3,.88,3,2.52v1.27c0,1.63-.87,2.51-3,2.51h-1.79v3h-1.77v-9.33Zm3.54,1.55h-1.78v3.19h1.78c1,0,1.29-.36,1.29-1.13v-1C9216.56,8106.38,9216.24,8106,9215.27,8106Z" transform="translate(-9083.02 -8104.35)"/><path class="cls-1" d="M9219.79,8104.49h5.71V8106h-4v2.26h3.64v1.55h-3.64v2.41h4v1.55h-5.71v-9.33Z" transform="translate(-9083.02 -8104.35)"/><path class="cls-1" d="M9232.92,8113.82l-2.14-3.08h-1.68v3.08h-1.77v-9.33h3.82c2.17,0,3,.88,3,2.52v1.22a2.13,2.13,0,0,1-1.4,2.25l2.31,3.33h-2.12Zm-1.84-7.77h-2v3.17h2c1,0,1.28-.35,1.28-1.13v-0.92C9232.36,8106.37,9232,8106,9231.08,8106Z" transform="translate(-9083.02 -8104.35)"/><path class="cls-1" d="M9244.59,8113.82v-3.94h-3.46v3.94h-1.76v-9.33h1.76v3.84h3.46v-3.84h1.76v9.33h-1.76Z" transform="translate(-9083.02 -8104.35)"/><path class="cls-1" d="M9250.29,8113.82h-1.76v-9.33h1.76v9.33Z" transform="translate(-9083.02 -8104.35)"/><path class="cls-1" d="M9258,8113.82l-2.14-3.08h-1.68v3.08h-1.76v-9.33h3.82c2.17,0,3,.88,3,2.52v1.22a2.12,2.12,0,0,1-1.4,2.25l2.31,3.33H9258Zm-1.83-7.77h-2v3.17h2c1,0,1.27-.35,1.27-1.13v-0.92C9257.48,8106.37,9257.15,8106,9256.21,8106Z" transform="translate(-9083.02 -8104.35)"/><path class="cls-1" d="M9261.56,8104.49h5.71V8106h-4v2.26H9267v1.55h-3.64v2.41h4v1.55h-5.71v-9.33Z" transform="translate(-9083.02 -8104.35)"/><path class="cls-1" d="M9132.8,8191.65l-1.55-3.31,1.08-.17,1.25,2.7,2-2.62h1.33l-2.86,3.52,1.6,3.31h-1.19l-1.18-2.42-2,2.42H9130Z" transform="translate(-9083.02 -8104.35)"/><path class="cls-1" d="M9137,8194.07c1.35-1.33,1.63-1.61,2.89-2.9s1.89-1.92,2-2.62l0.06-.31a3,3,0,0,0,.06-0.53c0-.55-0.31-0.8-1.49-0.8a9.34,9.34,0,0,0-2.23.32l-0.12-.94a9.34,9.34,0,0,1,2.62-.41c1.61,0,2.38.64,2.38,1.76a3.24,3.24,0,0,1-.06.52l-0.07.38c-0.2,1.06-.39,1.32-2.07,3-1.11,1.13-1.44,1.49-2.44,2.49h3.6l-0.17,1h-5.07Z" transform="translate(-9083.02 -8104.35)"/><path class="cls-1" d="M9144.17,8193.32a3.35,3.35,0,0,1,0-.53l0.8-4.54c0.31-1.74,1.18-2.35,3.28-2.35,1.56,0,2.49.8,2.49,2a2.83,2.83,0,0,1,0,.48l-0.77,4.37c-0.28,1.6-.91,2.44-3.32,2.44C9144.84,8195.22,9144.17,8194.42,9144.17,8193.32Zm5.41-4.83a3.08,3.08,0,0,0,.06-0.48c0-.71-0.41-1.11-1.53-1.11-1.33,0-1.78.45-2,1.51l-0.77,4.36a2.84,2.84,0,0,0,0,.48c0,0.64.35,1,1.51,1,1.36,0,1.81-.43,2-1.53Z" transform="translate(-9083.02 -8104.35)"/><path class="cls-1" d="M9151.38,8196.47l0.84-1.39h-0.45l0.27-1.54h1.19l-0.28,1.6-1.13,1.64Z" transform="translate(-9083.02 -8104.35)"/><path class="cls-1" d="M9155.45,8193.32a3.24,3.24,0,0,1,0-.53l0.8-4.54c0.31-1.74,1.18-2.35,3.28-2.35,1.55,0,2.49.8,2.49,2a2.83,2.83,0,0,1,0,.48l-0.77,4.37c-0.28,1.6-.91,2.44-3.32,2.44C9156.12,8195.22,9155.45,8194.42,9155.45,8193.32Zm5.41-4.83a3,3,0,0,0,.06-0.48c0-.71-0.41-1.11-1.53-1.11-1.33,0-1.78.45-2,1.51l-0.77,4.36a2.84,2.84,0,0,0,0,.48c0,0.64.35,1,1.51,1,1.36,0,1.81-.43,2-1.53Z" transform="translate(-9083.02 -8104.35)"/><path class="cls-1" d="M9163.17,8193.32a3.35,3.35,0,0,1,0-.53l0.8-4.54c0.31-1.74,1.18-2.35,3.28-2.35,1.55,0,2.49.8,2.49,2a2.83,2.83,0,0,1,0,.48l-0.77,4.37c-0.28,1.6-.91,2.44-3.32,2.44C9163.84,8195.22,9163.17,8194.42,9163.17,8193.32Zm5.41-4.83a3.2,3.2,0,0,0,.06-0.48c0-.71-0.41-1.11-1.53-1.11-1.33,0-1.78.45-2,1.51l-0.77,4.36a2.94,2.94,0,0,0,0,.48c0,0.64.35,1,1.51,1,1.36,0,1.81-.43,2-1.53Z" transform="translate(-9083.02 -8104.35)"/><path class="cls-1" d="M9170.88,8193.32a3.24,3.24,0,0,1,0-.53l0.8-4.54c0.31-1.74,1.18-2.35,3.28-2.35,1.55,0,2.49.8,2.49,2a2.83,2.83,0,0,1,0,.48l-0.77,4.37c-0.28,1.6-.91,2.44-3.32,2.44C9171.55,8195.22,9170.88,8194.42,9170.88,8193.32Zm5.41-4.83a3,3,0,0,0,.06-0.48c0-.71-0.41-1.11-1.53-1.11-1.33,0-1.78.45-2,1.51l-0.77,4.36a2.84,2.84,0,0,0,0,.48c0,0.64.35,1,1.51,1,1.36,0,1.81-.43,2-1.53Z" transform="translate(-9083.02 -8104.35)"/><path class="cls-1" d="M9187.07,8192.81h-3.89l-1.16,2.27h-1.23l4.69-9.33h1.68l1.46,9.33h-1.2Zm-3.42-1h3.26l-0.71-5.24Z" transform="translate(-9083.02 -8104.35)"/><path class="cls-1" d="M9194.86,8196.12c-0.25,1.43-.83,1.86-2.4,1.86a8.39,8.39,0,0,1-2.8-.57l0.24-.87a7.73,7.73,0,0,0,2.61.49,1,1,0,0,0,1.22-1l0.35-2a4,4,0,0,1-2.51.88,1.25,1.25,0,0,1-1.44-1.36,3.59,3.59,0,0,1,.06-0.53l0.43-2.4c0.29-1.65,1-2.54,3.12-2.54a7.21,7.21,0,0,1,2.44.49Zm0.06-6.82a5.74,5.74,0,0,0-1.37-.18c-1.13,0-1.57.35-1.81,1.69l-0.39,2.19a3,3,0,0,0-.06.45,0.46,0.46,0,0,0,.56.5,4.34,4.34,0,0,0,2.44-1.11Z" transform="translate(-9083.02 -8104.35)"/><path class="cls-1" d="M9198.54,8193.26a1.62,1.62,0,0,0,0,.31c0,0.43.21,0.69,0.94,0.69a6,6,0,0,0,2.49-.71l0.25,0.85a5.8,5.8,0,0,1-2.9.83c-1.37,0-1.92-.64-1.92-1.58a3.72,3.72,0,0,1,.06-0.63l0.41-2.3c0.31-1.72,1.08-2.59,3-2.59,1.13,0,1.95.53,1.95,1.54s-0.53,1.72-2.45,2.37c-0.83.28-1.09,0.35-1.68,0.53Zm3.18-3.47a0.79,0.79,0,0,0-1-.73,1.52,1.52,0,0,0-1.75,1.5l-0.17.94,1.26-.38C9201.25,8190.78,9201.72,8190.35,9201.72,8189.79Z" transform="translate(-9083.02 -8104.35)"/><path class="cls-1" d="M9209.84,8189.32a3.2,3.2,0,0,1-.06.59l-0.91,5.17h-1.15l0.92-5.25a1.68,1.68,0,0,0,0-.24c0-.28-0.14-0.38-0.48-0.38a6.06,6.06,0,0,0-2.58,1l-0.85,4.85h-1.15l1.19-6.74,1-.17-0.08,1a6.41,6.41,0,0,1,2.89-1A1.08,1.08,0,0,1,9209.84,8189.32Z" transform="translate(-9083.02 -8104.35)"/><path class="cls-1" d="M9211.63,8194.13a1.62,1.62,0,0,1,0-.31l0.81-4.61h-1.21l0.17-1h1.21l0.29-1.68,1.18-.15-0.32,1.83h1.88l-0.2,1h-1.85l-0.81,4.59a0.77,0.77,0,0,0,0,.15c0,0.2.11,0.29,0.39,0.29a3.07,3.07,0,0,0,1.26-.29l0.27,0.8a4,4,0,0,1-1.85.46A1.07,1.07,0,0,1,9211.63,8194.13Z" transform="translate(-9083.02 -8104.35)"/><path class="cls-1" d="M9215.9,8194.84l0.24-.9a6.11,6.11,0,0,0,1.82.31c1,0,1.19-.17,1.32-0.92,0.1-.57-0.06-0.8-1.15-1.3-1.4-.64-1.64-1.26-1.47-2.25,0.2-1.18.71-1.65,2.44-1.65a7.09,7.09,0,0,1,1.93.29l-0.2.91a7.92,7.92,0,0,0-1.76-.24c-1,0-1.16.14-1.29,0.83s0.08,0.78,1,1.25c1.58,0.84,1.88,1.18,1.68,2.24-0.24,1.27-.64,1.82-2.51,1.82A5.65,5.65,0,0,1,9215.9,8194.84Z" transform="translate(-9083.02 -8104.35)"/></svg>