<svg id="Layer_1" data-name="Layer 1" xmlns="http://www.w3.org/2000/svg" viewBox="0 0 353.02 123.33"><defs><style>.cls-1{fill:#2a2c30;}.cls-2{fill:#4a8eda;}.cls-3{fill:#754296;}.cls-4{fill:#ff6c36;}.cls-5{fill:#0e8986;}.cls-6{fill:#d54154;}.cls-7{fill:#edaa00;}</style></defs><title>section4-text</title><path class="cls-1" d="M9064.74,8396.8h-2.4v-12.66h2.4v12.66Z" transform="translate(-9062.34 -8305.44)"/><path class="cls-1" d="M9073.07,8396.8v-6.46a0.64,0.64,0,0,0-.74-0.74,6.4,6.4,0,0,0-2.42.78v6.43h-2.32v-9.26h1.77l0.23,0.78a9.28,9.28,0,0,1,3.71-1,1.76,1.76,0,0,1,1.75,1,9.08,9.08,0,0,1,3.73-1c1.54,0,2.09,1.08,2.09,2.74v6.71h-2.32v-6.46a0.64,0.64,0,0,0-.74-0.74,6.12,6.12,0,0,0-2.42.78v6.43h-2.32Z" transform="translate(-9062.34 -8305.44)"/><path class="cls-1" d="M9091.28,8393.72c0,2.05-.91,3.27-3.06,3.27a12.77,12.77,0,0,1-2.47-.27v3.82l-2.32.32v-13.33h1.84l0.23,0.78a4.87,4.87,0,0,1,2.93-1c1.86,0,2.85,1.1,2.85,3.21v3.16Zm-5.53,1a10.3,10.3,0,0,0,2.05.25,1,1,0,0,0,1.16-1.24v-3.27a1,1,0,0,0-1.14-1.18,3.28,3.28,0,0,0-2.07.84v4.6Z" transform="translate(-9062.34 -8305.44)"/><path class="cls-1" d="M9098.34,8389.49a18.1,18.1,0,0,0-2.45,1.35v6h-2.32v-9.26h2l0.15,1a10.41,10.41,0,0,1,2.43-1.22Z" transform="translate(-9062.34 -8305.44)"/><path class="cls-1" d="M9103.51,8397c-3.17,0-4-1.75-4-3.65V8391c0-1.9.86-3.65,4-3.65s4,1.75,4,3.65v2.34C9107.54,8395.25,9106.68,8397,9103.51,8397Zm0-7.66a1.43,1.43,0,0,0-1.71,1.6v2.49a1.72,1.72,0,0,0,3.42,0v-2.49A1.43,1.43,0,0,0,9103.51,8389.33Z" transform="translate(-9062.34 -8305.44)"/><path class="cls-1" d="M9114.48,8396.8h-3.06l-3-9.26h2.38l2.11,7,2.13-7h2.38Z" transform="translate(-9062.34 -8305.44)"/><path class="cls-1" d="M9122.58,8395.09a9.69,9.69,0,0,0,2.83-.44l0.36,1.75a9.94,9.94,0,0,1-3.4.59c-2.91,0-3.92-1.35-3.92-3.57V8391c0-2,.87-3.61,3.84-3.61s3.63,1.73,3.63,3.73v2h-5.15v0.47C9120.78,8394.66,9121.18,8395.09,9122.58,8395.09Zm-1.81-3.9h2.95v-0.46a1.24,1.24,0,0,0-1.41-1.48,1.33,1.33,0,0,0-1.54,1.48v0.46Z" transform="translate(-9062.34 -8305.44)"/><path class="cls-1" d="M9136.81,8396.8l-1.24,3.75h-2.21l1.16-3.75h-0.82l-2.93-9.26h2.38l2.11,7,2.13-7h2.38Z" transform="translate(-9062.34 -8305.44)"/><path class="cls-1" d="M9144.72,8397c-3.17,0-4-1.75-4-3.65V8391c0-1.9.86-3.65,4-3.65s4,1.75,4,3.65v2.34C9148.75,8395.25,9147.89,8397,9144.72,8397Zm0-7.66a1.43,1.43,0,0,0-1.71,1.6v2.49a1.72,1.72,0,0,0,3.42,0v-2.49A1.43,1.43,0,0,0,9144.72,8389.33Z" transform="translate(-9062.34 -8305.44)"/><path class="cls-1" d="M9153.22,8387.55V8394a0.64,0.64,0,0,0,.74.74,6.39,6.39,0,0,0,2.41-.78v-6.43h2.32v9.26h-1.77l-0.23-.78a9.27,9.27,0,0,1-3.71,1c-1.54,0-2.09-1.08-2.09-2.74v-6.71h2.32Z" transform="translate(-9062.34 -8305.44)"/><path class="cls-1" d="M9166.13,8389.49a18.1,18.1,0,0,0-2.45,1.35v6h-2.32v-9.26h2l0.15,1a10.41,10.41,0,0,1,2.43-1.22Z" transform="translate(-9062.34 -8305.44)"/><path class="cls-1" d="M9178.54,8396.8h-1.9l-0.17-.63a5.07,5.07,0,0,1-2.76.82c-1.69,0-2.42-1.16-2.42-2.76,0-1.88.82-2.6,2.7-2.6h2.22v-1c0-1-.29-1.39-1.77-1.39a13,13,0,0,0-2.57.29l-0.29-1.77a12.07,12.07,0,0,1,3.17-.44c2.91,0,3.76,1,3.76,3.35v6.1Zm-2.32-3.5h-1.71c-0.76,0-1,.21-1,0.91a0.78,0.78,0,0,0,.93.93,3.64,3.64,0,0,0,1.75-.48v-1.37Z" transform="translate(-9062.34 -8305.44)"/><path class="cls-1" d="M9183.64,8394.31a1,1,0,0,0-.55.74c0,0.25.15,0.36,0.51,0.4l2.68,0.29a1.93,1.93,0,0,1,2,2.24c0,2-.72,2.76-4.18,2.76a13.48,13.48,0,0,1-3.57-.48l0.29-1.73a12.86,12.86,0,0,0,3.12.4c1.84,0,2.21-.13,2.21-0.74s-0.17-.67-0.87-0.74l-2.68-.3c-1.31-.15-1.83-0.59-1.83-1.77a2,2,0,0,1,1-1.58,2.69,2.69,0,0,1-1.25-2.49v-0.87c0-1.92,1-3.08,3.73-3.08a6.29,6.29,0,0,1,1.58.19h2.85v1.16l-1,.29a3.18,3.18,0,0,1,.32,1.45v0.88c0,1.88-1.14,3-3.73,3A4.92,4.92,0,0,1,9183.64,8394.31Zm0.53-5.1c-1.14,0-1.54.42-1.54,1.29v0.7c0,0.91.46,1.25,1.54,1.25s1.56-.36,1.56-1.25v-0.7C9185.73,8389.64,9185.33,8389.22,9184.17,8389.22Z" transform="translate(-9062.34 -8305.44)"/><path class="cls-1" d="M9194,8395.09a9.69,9.69,0,0,0,2.83-.44l0.36,1.75a9.94,9.94,0,0,1-3.4.59c-2.91,0-3.92-1.35-3.92-3.57V8391c0-2,.88-3.61,3.84-3.61s3.63,1.73,3.63,3.73v2h-5.15v0.47C9192.22,8394.66,9192.62,8395.09,9194,8395.09Zm-1.81-3.9h2.95v-0.46a1.24,1.24,0,0,0-1.41-1.48,1.33,1.33,0,0,0-1.54,1.48v0.46Z" transform="translate(-9062.34 -8305.44)"/><path class="cls-1" d="M9204.94,8396.8v-6.46a0.64,0.64,0,0,0-.74-0.74,6.4,6.4,0,0,0-2.42.78v6.43h-2.32v-9.26h1.77l0.23,0.78a9.28,9.28,0,0,1,3.71-1c1.54,0,2.09,1.08,2.09,2.74v6.71h-2.32Z" transform="translate(-9062.34 -8305.44)"/><path class="cls-1" d="M9214.75,8396.63a6.43,6.43,0,0,1-2,.36c-1.69,0-2.55-.8-2.55-2.45v-5.15h-1.39v-1.84h1.39v-2.3l2.32-.32v2.62h2.38l-0.15,1.84h-2.22v4.85a0.73,0.73,0,0,0,.84.82,4.46,4.46,0,0,0,1.16-.19Z" transform="translate(-9062.34 -8305.44)"/><path class="cls-1" d="M9228.42,8393.72c0,2.05-.91,3.27-3.06,3.27a12.77,12.77,0,0,1-2.47-.27v3.82l-2.32.32v-13.33h1.84l0.23,0.78a4.87,4.87,0,0,1,2.93-1c1.86,0,2.85,1.1,2.85,3.21v3.16Zm-5.53,1a10.3,10.3,0,0,0,2.05.25,1,1,0,0,0,1.16-1.24v-3.27a1,1,0,0,0-1.14-1.18,3.28,3.28,0,0,0-2.07.84v4.6Z" transform="translate(-9062.34 -8305.44)"/><path class="cls-1" d="M9234.41,8395.09a9.69,9.69,0,0,0,2.83-.44l0.36,1.75a9.94,9.94,0,0,1-3.4.59c-2.91,0-3.92-1.35-3.92-3.57V8391c0-2,.87-3.61,3.84-3.61s3.63,1.73,3.63,3.73v2h-5.15v0.47C9232.6,8394.66,9233,8395.09,9234.41,8395.09Zm-1.81-3.9h2.95v-0.46a1.24,1.24,0,0,0-1.41-1.48,1.33,1.33,0,0,0-1.54,1.48v0.46Z" transform="translate(-9062.34 -8305.44)"/><path class="cls-1" d="M9244.62,8389.49a18.1,18.1,0,0,0-2.45,1.35v6h-2.32v-9.26h2l0.15,1a10.39,10.39,0,0,1,2.43-1.22Z" transform="translate(-9062.34 -8305.44)"/><path class="cls-1" d="M9251.6,8385.44a6.76,6.76,0,0,0-1.33-.15,0.89,0.89,0,0,0-1,1.1v1.16h2.36l-0.13,1.84h-2.22v7.42h-2.32v-7.42h-1.48v-1.84h1.48v-1.29c0-1.92.89-2.87,2.95-2.87a7.31,7.31,0,0,1,2,.27Z" transform="translate(-9062.34 -8305.44)"/><path class="cls-1" d="M9256.64,8397c-3.17,0-4-1.75-4-3.65V8391c0-1.9.86-3.65,4-3.65s4,1.75,4,3.65v2.34C9260.67,8395.25,9259.81,8397,9256.64,8397Zm0-7.66a1.43,1.43,0,0,0-1.71,1.6v2.49a1.72,1.72,0,0,0,3.42,0v-2.49A1.43,1.43,0,0,0,9256.64,8389.33Z" transform="translate(-9062.34 -8305.44)"/><path class="cls-1" d="M9267.69,8389.49a18.1,18.1,0,0,0-2.45,1.35v6h-2.32v-9.26h2l0.15,1a10.39,10.39,0,0,1,2.43-1.22Z" transform="translate(-9062.34 -8305.44)"/><path class="cls-1" d="M9274.72,8396.8v-6.46a0.64,0.64,0,0,0-.74-0.74,6.4,6.4,0,0,0-2.42.78v6.43h-2.32v-9.26H9271l0.23,0.78a9.28,9.28,0,0,1,3.71-1,1.76,1.76,0,0,1,1.75,1,9.08,9.08,0,0,1,3.73-1c1.54,0,2.09,1.08,2.09,2.74v6.71h-2.32v-6.46a0.64,0.64,0,0,0-.74-0.74,6.12,6.12,0,0,0-2.42.78v6.43h-2.32Z" transform="translate(-9062.34 -8305.44)"/><path class="cls-1" d="M9291.95,8396.8H9290l-0.17-.63a5.07,5.07,0,0,1-2.76.82c-1.69,0-2.42-1.16-2.42-2.76,0-1.88.82-2.6,2.7-2.6h2.22v-1c0-1-.29-1.39-1.77-1.39a13,13,0,0,0-2.57.29l-0.29-1.77a12.07,12.07,0,0,1,3.17-.44c2.91,0,3.76,1,3.76,3.35v6.1Zm-2.32-3.5h-1.71c-0.76,0-1,.21-1,0.91a0.78,0.78,0,0,0,.93.93,3.64,3.64,0,0,0,1.75-.48v-1.37Z" transform="translate(-9062.34 -8305.44)"/><path class="cls-1" d="M9299.9,8396.8v-6.46a0.64,0.64,0,0,0-.74-0.74,6.4,6.4,0,0,0-2.42.78v6.43h-2.32v-9.26h1.77l0.23,0.78a9.28,9.28,0,0,1,3.71-1c1.54,0,2.09,1.08,2.09,2.74v6.71h-2.32Z" transform="translate(-9062.34 -8305.44)"/><path class="cls-1" d="M9304.37,8393.44v-2.53c0-2.49,1.08-3.56,4-3.56a8,8,0,0,1,2.26.34l-0.29,1.9a8.45,8.45,0,0,0-1.92-.25c-1.33,0-1.73.4-1.73,1.54v2.57c0,1.14.4,1.54,1.73,1.54a7.8,7.8,0,0,0,1.92-.25l0.29,1.9a7.64,7.64,0,0,1-2.26.34C9305.45,8397,9304.37,8395.93,9304.37,8393.44Z" transform="translate(-9062.34 -8305.44)"/><path class="cls-1" d="M9316.31,8395.09a9.69,9.69,0,0,0,2.83-.44l0.36,1.75a9.94,9.94,0,0,1-3.4.59c-2.91,0-3.92-1.35-3.92-3.57V8391c0-2,.87-3.61,3.84-3.61s3.63,1.73,3.63,3.73v2h-5.15v0.47C9314.5,8394.66,9314.9,8395.09,9316.31,8395.09Zm-1.81-3.9h2.95v-0.46a1.24,1.24,0,0,0-1.41-1.48,1.33,1.33,0,0,0-1.54,1.48v0.46Z" transform="translate(-9062.34 -8305.44)"/><path class="cls-1" d="M9333.59,8393.25c0,2.24-.68,3.75-4.26,3.75a21,21,0,0,1-3.59-.32v-12.91l2.32-.32v4.47a7.6,7.6,0,0,1,2.74-.55c2,0,2.79,1.22,2.79,3.17v2.72Zm-5.53,1.69a10.6,10.6,0,0,0,1.39.08c1.52,0,1.83-.61,1.83-1.69v-2.85a1,1,0,0,0-1.18-1.14,5.37,5.37,0,0,0-2,.53v5.08Z" transform="translate(-9062.34 -8305.44)"/><path class="cls-1" d="M9340.57,8396.8l-1.24,3.75h-2.21l1.16-3.75h-0.82l-2.93-9.26h2.38l2.11,7,2.13-7h2.38Z" transform="translate(-9062.34 -8305.44)"/><path class="cls-1" d="M9353.79,8396.63a6.43,6.43,0,0,1-2,.36c-1.69,0-2.55-.8-2.55-2.45v-5.15h-1.39v-1.84h1.39v-2.3l2.32-.32v2.62h2.38l-0.15,1.84h-2.22v4.85a0.73,0.73,0,0,0,.84.82,4.46,4.46,0,0,0,1.16-.19Z" transform="translate(-9062.34 -8305.44)"/><path class="cls-1" d="M9359.32,8395.09a9.69,9.69,0,0,0,2.83-.44l0.36,1.75a9.94,9.94,0,0,1-3.4.59c-2.91,0-3.92-1.35-3.92-3.57V8391c0-2,.87-3.61,3.84-3.61s3.63,1.73,3.63,3.73v2h-5.15v0.47C9357.51,8394.66,9357.91,8395.09,9359.32,8395.09Zm-1.81-3.9h2.95v-0.46a1.24,1.24,0,0,0-1.41-1.48,1.33,1.33,0,0,0-1.54,1.48v0.46Z" transform="translate(-9062.34 -8305.44)"/><path class="cls-1" d="M9371.62,8396.8h-1.9l-0.17-.63a5.07,5.07,0,0,1-2.76.82c-1.69,0-2.42-1.16-2.42-2.76,0-1.88.82-2.6,2.7-2.6h2.22v-1c0-1-.29-1.39-1.77-1.39a13,13,0,0,0-2.57.29l-0.29-1.77a12.07,12.07,0,0,1,3.17-.44c2.91,0,3.76,1,3.76,3.35v6.1Zm-2.32-3.5h-1.71c-0.76,0-1,.21-1,0.91a0.78,0.78,0,0,0,.93.93,3.64,3.64,0,0,0,1.75-.48v-1.37Z" transform="translate(-9062.34 -8305.44)"/><path class="cls-1" d="M9373.68,8393.44v-2.53c0-2.49,1.08-3.56,4-3.56a8,8,0,0,1,2.26.34l-0.29,1.9a8.45,8.45,0,0,0-1.92-.25c-1.33,0-1.73.4-1.73,1.54v2.57c0,1.14.4,1.54,1.73,1.54a7.8,7.8,0,0,0,1.92-.25l0.29,1.9a7.64,7.64,0,0,1-2.26.34C9374.76,8397,9373.68,8395.93,9373.68,8393.44Z" transform="translate(-9062.34 -8305.44)"/><path class="cls-1" d="M9387.54,8396.8v-6.46a0.64,0.64,0,0,0-.74-0.74,6.4,6.4,0,0,0-2.42.78v6.43h-2.32v-13l2.32-.32v4.81a8.17,8.17,0,0,1,3.38-.89c1.54,0,2.09,1.08,2.09,2.74v6.71h-2.32Z" transform="translate(-9062.34 -8305.44)"/><path class="cls-1" d="M9392.43,8386.23v-2.68h2.32v2.68h-2.32Zm0,10.57v-9.26h2.32v9.26h-2.32Z" transform="translate(-9062.34 -8305.44)"/><path class="cls-1" d="M9402.88,8396.8v-6.46a0.64,0.64,0,0,0-.74-0.74,6.4,6.4,0,0,0-2.42.78v6.43h-2.32v-9.26h1.77l0.23,0.78a9.28,9.28,0,0,1,3.71-1c1.54,0,2.09,1.08,2.09,2.74v6.71h-2.32Z" transform="translate(-9062.34 -8305.44)"/><path class="cls-1" d="M9410.39,8394.31a1,1,0,0,0-.55.74c0,0.25.15,0.36,0.51,0.4l2.68,0.29a1.93,1.93,0,0,1,2,2.24c0,2-.72,2.76-4.18,2.76a13.48,13.48,0,0,1-3.57-.48l0.29-1.73a12.86,12.86,0,0,0,3.12.4c1.84,0,2.21-.13,2.21-0.74s-0.17-.67-0.87-0.74l-2.68-.3c-1.31-.15-1.83-0.59-1.83-1.77a2,2,0,0,1,1-1.58,2.69,2.69,0,0,1-1.25-2.49v-0.87c0-1.92,1-3.08,3.73-3.08a6.29,6.29,0,0,1,1.58.19h2.85v1.16l-1,.29a3.18,3.18,0,0,1,.32,1.45v0.88c0,1.88-1.14,3-3.73,3A5,5,0,0,1,9410.39,8394.31Zm0.53-5.1c-1.14,0-1.54.42-1.54,1.29v0.7c0,0.91.46,1.25,1.54,1.25s1.56-.36,1.56-1.25v-0.7C9412.49,8389.64,9412.09,8389.22,9410.93,8389.22Z" transform="translate(-9062.34 -8305.44)"/><path class="cls-1" d="M9091.41,8423.83a2.68,2.68,0,0,1,0-.36l1.22-6.94h-1.77l0.15-.91h1.79l0.4-2.26,1.08-.15-0.42,2.42h2.78l-0.21.91h-2.74l-1.2,6.83a2.58,2.58,0,0,0,0,.34c0,0.36.19,0.46,0.63,0.46a5,5,0,0,0,1.84-.44l0.27,0.72a4.69,4.69,0,0,1-2.3.63A1.26,1.26,0,0,1,9091.41,8423.83Z" transform="translate(-9062.34 -8305.44)"/><path class="cls-1" d="M9104.32,8417.35a2.25,2.25,0,0,0,0-.3c0-.46-0.25-0.63-0.78-0.63a10,10,0,0,0-4,1.6l-1.22,6.86h-1.06l2.3-13,1.08-.15-0.91,5.25a9.27,9.27,0,0,1,4-1.5,1.41,1.41,0,0,1,1.63,1.52,3.59,3.59,0,0,1-.06.59l-1.29,7.34H9103Z" transform="translate(-9062.34 -8305.44)"/><path class="cls-1" d="M9108.31,8422.46a4.83,4.83,0,0,0,0,.5c0,0.78.3,1.18,1.6,1.18a7.84,7.84,0,0,0,3.27-.89l0.27,0.82a8.12,8.12,0,0,1-3.67,1c-1.73,0-2.53-.68-2.53-2.09a5.26,5.26,0,0,1,.1-0.91l0.55-3.12c0.42-2.36,1.63-3.52,4-3.52,1.5,0,2.45.76,2.45,2.15s-1,2.28-3.52,3l-2.26.63Zm5-4.9c0-.84-0.55-1.22-1.52-1.22-1.65,0-2.53.86-2.85,2.68l-0.21,1.18,2.15-.57C9112.59,8419.17,9113.29,8418.54,9113.29,8417.56Z" transform="translate(-9062.34 -8305.44)"/><path class="cls-1" d="M9128.24,8417.35a2.25,2.25,0,0,0,0-.3c0-.46-0.25-0.63-0.78-0.63a9.72,9.72,0,0,0-4,1.6l-1.22,6.86h-1.06l1.33-7.53a2.25,2.25,0,0,0,0-.3c0-.46-0.25-0.63-0.78-0.63a10,10,0,0,0-4,1.6l-1.22,6.86h-1.06l1.62-9.18,0.93-.15L9118,8417a9.37,9.37,0,0,1,4-1.54,1.42,1.42,0,0,1,1.63,1.54,9.15,9.15,0,0,1,4-1.54,1.41,1.41,0,0,1,1.64,1.52,3.6,3.6,0,0,1-.06.59l-1.29,7.34h-1.06Z" transform="translate(-9062.34 -8305.44)"/><path class="cls-1" d="M9136.21,8423.83a2.68,2.68,0,0,1,0-.36l1.22-6.94h-1.77l0.15-.91h1.79l0.4-2.26,1.08-.15-0.42,2.42h2.78l-0.21.91h-2.74l-1.2,6.83a2.58,2.58,0,0,0,0,.34c0,0.36.19,0.46,0.63,0.46a5,5,0,0,0,1.84-.44l0.27,0.72a4.69,4.69,0,0,1-2.3.63A1.26,1.26,0,0,1,9136.21,8423.83Z" transform="translate(-9062.34 -8305.44)"/><path class="cls-1" d="M9142.1,8422.48a4.31,4.31,0,0,1,.08-0.84l0.49-2.81c0.36-2,1.43-3.4,4.16-3.4,2.05,0,3.08,1.06,3.08,2.6a4.67,4.67,0,0,1-.08.7l-0.53,3c-0.36,2.05-1.5,3.31-4.16,3.31C9143,8425.07,9142.1,8424,9142.1,8422.48Zm6.67-3.75a3.88,3.88,0,0,0,.06-0.65c0-1.14-.67-1.71-2.17-1.71a2.64,2.64,0,0,0-2.93,2.45l-0.51,2.91a4.76,4.76,0,0,0-.06.7c0,1.08.59,1.67,2.15,1.67a2.63,2.63,0,0,0,2.93-2.38Z" transform="translate(-9062.34 -8305.44)"/><path class="cls-1" d="M9162.26,8416.7a8.34,8.34,0,0,0-2.19-.32c-1.69,0-2.3.61-2.66,2.66l-0.65,3.69a3.51,3.51,0,0,0,0,.42c0,0.72.46,1,1.37,1a8,8,0,0,0,3-.65l0.17,0.89a8.1,8.1,0,0,1-3.31.7c-1.37,0-2.3-.65-2.3-1.9a3,3,0,0,1,.06-0.57l0.67-3.75c0.46-2.51,1.43-3.42,3.8-3.42a7.88,7.88,0,0,1,2.3.38Z" transform="translate(-9062.34 -8305.44)"/><path class="cls-1" d="M9163.31,8422.48a4.31,4.31,0,0,1,.08-0.84l0.49-2.81c0.36-2,1.43-3.4,4.16-3.4,2.05,0,3.08,1.06,3.08,2.6a4.67,4.67,0,0,1-.08.7l-0.53,3c-0.36,2.05-1.5,3.31-4.16,3.31C9164.16,8425.07,9163.31,8424,9163.31,8422.48Zm6.67-3.75a3.88,3.88,0,0,0,.06-0.65c0-1.14-.67-1.71-2.17-1.71a2.64,2.64,0,0,0-2.93,2.45l-0.51,2.91a4.76,4.76,0,0,0-.06.7c0,1.08.59,1.67,2.15,1.67a2.63,2.63,0,0,0,2.93-2.38Z" transform="translate(-9062.34 -8305.44)"/><path class="cls-1" d="M9179.7,8417.35a2.25,2.25,0,0,0,0-.3c0-.46-0.25-0.63-0.78-0.63a10,10,0,0,0-4,1.6l-1.22,6.86h-1.06l1.62-9.18,0.93-.15-0.15,1.43a9.37,9.37,0,0,1,4-1.54,1.41,1.41,0,0,1,1.63,1.52,3.59,3.59,0,0,1-.06.59l-1.29,7.34h-1.06Z" transform="translate(-9062.34 -8305.44)"/><path class="cls-1" d="M9189.55,8417.35a2.25,2.25,0,0,0,0-.3c0-.46-0.25-0.63-0.78-0.63a10,10,0,0,0-4,1.6l-1.22,6.86h-1.06l1.62-9.18,0.93-.15L9185,8417a9.37,9.37,0,0,1,4-1.54,1.41,1.41,0,0,1,1.63,1.52,3.59,3.59,0,0,1-.06.59l-1.29,7.34h-1.06Z" transform="translate(-9062.34 -8305.44)"/><path class="cls-1" d="M9193.54,8422.46a4.83,4.83,0,0,0,0,.5c0,0.78.3,1.18,1.6,1.18a7.84,7.84,0,0,0,3.27-.89l0.27,0.82a8.12,8.12,0,0,1-3.67,1c-1.73,0-2.53-.68-2.53-2.09a5.26,5.26,0,0,1,.1-0.91l0.55-3.12c0.42-2.36,1.63-3.52,4-3.52,1.5,0,2.45.76,2.45,2.15s-1,2.28-3.52,3l-2.26.63Zm5-4.9c0-.84-0.55-1.22-1.52-1.22-1.65,0-2.53.86-2.85,2.68l-0.21,1.18,2.15-.57C9197.82,8419.17,9198.52,8418.54,9198.52,8417.56Z" transform="translate(-9062.34 -8305.44)"/><path class="cls-1" d="M9207.4,8416.7a8.34,8.34,0,0,0-2.19-.32c-1.69,0-2.3.61-2.66,2.66l-0.65,3.69a3.51,3.51,0,0,0,0,.42c0,0.72.46,1,1.37,1a8,8,0,0,0,3-.65l0.17,0.89a8.1,8.1,0,0,1-3.31.7c-1.37,0-2.3-.65-2.3-1.9a3,3,0,0,1,.06-0.57l0.67-3.75c0.46-2.51,1.43-3.42,3.8-3.42a7.88,7.88,0,0,1,2.3.38Z" transform="translate(-9062.34 -8305.44)"/><path class="cls-1" d="M9209.34,8423.83a2.68,2.68,0,0,1,0-.36l1.22-6.94h-1.77l0.15-.91h1.79l0.4-2.26,1.08-.15-0.42,2.42h2.78l-0.21.91h-2.74l-1.2,6.83a2.58,2.58,0,0,0,0,.34c0,0.36.19,0.46,0.63,0.46a5,5,0,0,0,1.84-.44l0.27,0.72a4.69,4.69,0,0,1-2.3.63A1.26,1.26,0,0,1,9209.34,8423.83Z" transform="translate(-9062.34 -8305.44)"/><path class="cls-1" d="M9221.76,8411.83l1.08-.15-0.91,5.25a6,6,0,0,1,3.73-1.5c1.18,0,1.84.42,1.84,1.56a4.68,4.68,0,0,1-.08.68l-0.7,4c-0.42,2.38-1.45,3.42-3.94,3.42a11.11,11.11,0,0,1-3.27-.53Zm-1.06,12.05a11.35,11.35,0,0,0,2.24.23c1.73,0,2.4-.63,2.76-2.66l0.67-3.78a3.37,3.37,0,0,0,.06-0.57c0-.59-0.29-0.72-0.86-0.72a6.51,6.51,0,0,0-3.86,1.83Z" transform="translate(-9062.34 -8305.44)"/><path class="cls-1" d="M9230.13,8422.46a4.83,4.83,0,0,0,0,.5c0,0.78.3,1.18,1.6,1.18a7.84,7.84,0,0,0,3.27-.89l0.27,0.82a8.12,8.12,0,0,1-3.67,1c-1.73,0-2.53-.68-2.53-2.09a5.26,5.26,0,0,1,.1-0.91l0.55-3.12c0.42-2.36,1.63-3.52,4-3.52,1.5,0,2.45.76,2.45,2.15s-1,2.28-3.52,3l-2.26.63Zm5-4.9c0-.84-0.55-1.22-1.52-1.22-1.65,0-2.53.86-2.85,2.68l-0.21,1.18,2.15-.57C9234.4,8419.17,9235.11,8418.54,9235.11,8417.56Z" transform="translate(-9062.34 -8305.44)"/><path class="cls-1" d="M9238.34,8423.83a2.68,2.68,0,0,1,0-.36l1.22-6.94h-1.77l0.15-.91h1.79l0.4-2.26,1.08-.15-0.42,2.42h2.78l-0.21.91h-2.74l-1.2,6.83a2.58,2.58,0,0,0,0,.34c0,0.36.19,0.46,0.63,0.46a5,5,0,0,0,1.84-.44l0.27,0.72a4.69,4.69,0,0,1-2.3.63A1.26,1.26,0,0,1,9238.34,8423.83Z" transform="translate(-9062.34 -8305.44)"/><path class="cls-1" d="M9245.19,8423.83a2.68,2.68,0,0,1,0-.36l1.22-6.94h-1.77l0.15-.91h1.79l0.4-2.26,1.08-.15-0.42,2.42h2.78l-0.21.91h-2.74l-1.2,6.83a2.58,2.58,0,0,0,0,.34c0,0.36.19,0.46,0.63,0.46a5,5,0,0,0,1.84-.44l0.27,0.72a4.69,4.69,0,0,1-2.3.63A1.26,1.26,0,0,1,9245.19,8423.83Z" transform="translate(-9062.34 -8305.44)"/><path class="cls-1" d="M9252.18,8422.46a4.83,4.83,0,0,0,0,.5c0,0.78.3,1.18,1.6,1.18a7.84,7.84,0,0,0,3.27-.89l0.27,0.82a8.12,8.12,0,0,1-3.67,1c-1.73,0-2.53-.68-2.53-2.09a5.26,5.26,0,0,1,.1-0.91l0.55-3.12c0.42-2.36,1.63-3.52,4-3.52,1.5,0,2.45.76,2.45,2.15s-1,2.28-3.52,3l-2.26.63Zm5-4.9c0-.84-0.55-1.22-1.52-1.22-1.65,0-2.53.86-2.85,2.68l-0.21,1.18,2.15-.57C9256.46,8419.17,9257.17,8418.54,9257.17,8417.56Z" transform="translate(-9062.34 -8305.44)"/><path class="cls-1" d="M9264.68,8416.47c-1,.59-2,1.22-3,1.86l-1.14,6.54h-1.06l1.6-9.18,1-.15-0.23,1.63a21.29,21.29,0,0,1,2.76-1.75Z" transform="translate(-9062.34 -8305.44)"/><path class="cls-1" d="M9275.8,8415.54l1.73,8.69,2.15-5.3a4.83,4.83,0,0,0,.32-1.88,6.13,6.13,0,0,0-.15-1.35l1-.15a8.85,8.85,0,0,1,.13,1.44,5.83,5.83,0,0,1-.36,2.13l-2.34,5.76h-1.63l-1.14-5.84-3.16,5.84h-1.62a40.3,40.3,0,0,0-.91-9.18l1-.15a42.8,42.8,0,0,1,.84,8.69l3.59-6.6-0.36-1.94Z" transform="translate(-9062.34 -8305.44)"/><path class="cls-1" d="M9283.79,8415.69l1.08-.15-1.63,9.33h-1.06Zm0.67-3.86,1.1-.15-0.38,2.15-1.08.15Z" transform="translate(-9062.34 -8305.44)"/><path class="cls-1" d="M9287.38,8423.83a2.68,2.68,0,0,1,0-.36l1.22-6.94h-1.77l0.15-.91h1.79l0.4-2.26,1.08-.15-0.42,2.42h2.78l-0.21.91h-2.74l-1.2,6.83a2.58,2.58,0,0,0,0,.34c0,0.36.19,0.46,0.63,0.46a5,5,0,0,0,1.84-.44l0.27,0.72a4.69,4.69,0,0,1-2.3.63A1.26,1.26,0,0,1,9287.38,8423.83Z" transform="translate(-9062.34 -8305.44)"/><path class="cls-1" d="M9300.29,8417.35a2.25,2.25,0,0,0,0-.3c0-.46-0.25-0.63-0.78-0.63a10,10,0,0,0-4,1.6l-1.22,6.86h-1.06l2.3-13,1.08-.15-0.91,5.25a9.27,9.27,0,0,1,4-1.5,1.41,1.41,0,0,1,1.64,1.52,3.6,3.6,0,0,1-.06.59l-1.29,7.34H9299Z" transform="translate(-9062.34 -8305.44)"/><path class="cls-1" d="M9317.1,8424.88l-0.82-12-4.83,12h-1.75l-1.18-12.66h1l1.14,11.9,4.87-11.9h1.67l0.88,11.9,4.92-11.9h1.1l-5.23,12.66h-1.79Z" transform="translate(-9062.34 -8305.44)"/><path class="cls-1" d="M9323.8,8422.48a4.31,4.31,0,0,1,.08-0.84l0.49-2.81c0.36-2,1.43-3.4,4.16-3.4,2.05,0,3.08,1.06,3.08,2.6a4.67,4.67,0,0,1-.08.7l-0.53,3c-0.36,2.05-1.5,3.31-4.16,3.31C9324.65,8425.07,9323.8,8424,9323.8,8422.48Zm6.67-3.75a3.88,3.88,0,0,0,.06-0.65c0-1.14-.67-1.71-2.17-1.71a2.64,2.64,0,0,0-2.93,2.45l-0.51,2.91a4.76,4.76,0,0,0-.06.7c0,1.08.59,1.67,2.15,1.67a2.63,2.63,0,0,0,2.93-2.38Z" transform="translate(-9062.34 -8305.44)"/><path class="cls-1" d="M9338.4,8416.47c-1,.59-2,1.22-3,1.86l-1.14,6.54h-1.06l1.6-9.18,1-.15-0.23,1.63a21.29,21.29,0,0,1,2.76-1.75Z" transform="translate(-9062.34 -8305.44)"/><path class="cls-1" d="M9341.23,8411.83l1.08-.15-2.32,13.19h-1.06Zm0.19,8.35,4.24-4.7,1,0.38-4.09,4.35,2.78,4.66h-1.18Z" transform="translate(-9062.34 -8305.44)"/><path class="cls-1" d="M9347.24,8424.59l0.23-.87a8.81,8.81,0,0,0,2.45.4c1.56,0,1.94-.21,2.15-1.52,0.15-1-.13-1.18-1.71-2-1.79-1-2.32-1.45-2.09-2.93s0.88-2.22,3.21-2.22a9.33,9.33,0,0,1,2.57.38l-0.19.89a11.17,11.17,0,0,0-2.43-.32c-1.56,0-1.88.23-2.09,1.37s0.15,1.27,1.46,2c2.19,1.2,2.55,1.58,2.3,3-0.27,1.6-.8,2.3-3.21,2.3A7.51,7.51,0,0,1,9347.24,8424.59Z" transform="translate(-9062.34 -8305.44)"/><path class="cls-1" d="M9356.2,8423.83a2.68,2.68,0,0,1,0-.36l1.22-6.94h-1.77l0.15-.91h1.79l0.4-2.26,1.08-.15-0.42,2.42h2.78l-0.21.91h-2.74l-1.2,6.83a2.58,2.58,0,0,0,0,.34c0,0.36.19,0.46,0.63,0.46a5,5,0,0,0,1.84-.44l0.27,0.72a4.69,4.69,0,0,1-2.3.63A1.26,1.26,0,0,1,9356.2,8423.83Z" transform="translate(-9062.34 -8305.44)"/><path class="cls-1" d="M9361.43,8428.77l-0.29-.82a5.8,5.8,0,0,0,3.4-3.08H9364l-1.52-9.18,1-.15,1.39,8.63,2.95-5.84a3.22,3.22,0,0,0,.42-1.48,4,4,0,0,0-.23-1.16l1.08-.15a4.71,4.71,0,0,1,.19,1.27,3.68,3.68,0,0,1-.34,1.56l-3.35,6.5C9364.62,8426.64,9363.77,8428,9361.43,8428.77Z" transform="translate(-9062.34 -8305.44)"/><path class="cls-1" d="M9372.42,8411.83l1.08-.15-2.32,13.19h-1.06Z" transform="translate(-9062.34 -8305.44)"/><path class="cls-1" d="M9375.54,8422.46a4.83,4.83,0,0,0,0,.5c0,0.78.3,1.18,1.6,1.18a7.84,7.84,0,0,0,3.27-.89l0.27,0.82a8.12,8.12,0,0,1-3.67,1c-1.73,0-2.53-.68-2.53-2.09a5.26,5.26,0,0,1,.1-0.91l0.55-3.12c0.42-2.36,1.63-3.52,4-3.52,1.5,0,2.45.76,2.45,2.15s-1,2.28-3.52,3l-2.26.63Zm5-4.9c0-.84-0.55-1.22-1.52-1.22-1.65,0-2.53.86-2.85,2.68l-0.21,1.18,2.15-.57C9379.81,8419.17,9380.52,8418.54,9380.52,8417.56Z" transform="translate(-9062.34 -8305.44)"/><path class="cls-1" d="M9383.41,8423.24h1.14l-0.29,1.63h-1.14Z" transform="translate(-9062.34 -8305.44)"/><path class="cls-1" d="M9160.11,8328.52h6c3.56,0,4.88,1.46,4.88,4.16v2.1c0,2.68-1.43,4.14-5,4.14h-3v5h-2.91v-15.39Zm5.85,2.57H9163v5.27H9166c1.64,0,2.13-.6,2.13-1.87v-1.57C9168.08,8331.64,9167.55,8331.08,9166,8331.08Z" transform="translate(-9062.34 -8305.44)"/><path class="cls-1" d="M9178.62,8341.83a11.8,11.8,0,0,0,3.44-.53l0.44,2.13a12.09,12.09,0,0,1-4.14.72c-3.54,0-4.76-1.64-4.76-4.35v-3c0-2.38,1.06-4.39,4.67-4.39s4.41,2.1,4.41,4.53v2.4h-6.26v0.58C9176.43,8341.3,9176.91,8341.83,9178.62,8341.83Zm-2.2-4.74H9180v-0.55a1.51,1.51,0,0,0-1.71-1.8,1.62,1.62,0,0,0-1.87,1.8v0.55Z" transform="translate(-9062.34 -8305.44)"/><path class="cls-1" d="M9191.48,8335a22.13,22.13,0,0,0-3,1.64v7.26h-2.82v-11.26h2.38l0.18,1.25a12.64,12.64,0,0,1,3-1.48Z" transform="translate(-9062.34 -8305.44)"/><path class="cls-1" d="M9197.64,8344.14a13.27,13.27,0,0,1-3.88-.65l0.39-2.15a12.62,12.62,0,0,0,3.35.49c1.25,0,1.43-.28,1.43-1.13,0-.69-0.14-1-2-1.48-2.75-.67-3.07-1.36-3.07-3.54s1-3.26,4.21-3.26a14.8,14.8,0,0,1,3.37.39l-0.28,2.24a19.83,19.83,0,0,0-3.1-.32c-1.23,0-1.43.28-1.43,1,0,0.9.07,1,1.59,1.36,3.14,0.83,3.44,1.25,3.44,3.56S9201,8344.14,9197.64,8344.14Z" transform="translate(-9062.34 -8305.44)"/><path class="cls-1" d="M9209.34,8344.14c-3.86,0-4.9-2.13-4.9-4.44v-2.84c0-2.31,1-4.44,4.9-4.44s4.9,2.13,4.9,4.44v2.84C9214.24,8342,9213.2,8344.14,9209.34,8344.14Zm0-9.32c-1.5,0-2.08.67-2.08,1.94v3c0,1.27.58,1.94,2.08,1.94s2.08-.67,2.08-1.94v-3C9211.42,8335.5,9210.84,8334.83,9209.34,8334.83Z" transform="translate(-9062.34 -8305.44)"/><path class="cls-1" d="M9224,8343.91v-7.86a0.78,0.78,0,0,0-.9-0.9,7.78,7.78,0,0,0-2.94.95v7.81h-2.82v-11.26h2.15l0.28,0.95a11.26,11.26,0,0,1,4.51-1.18c1.87,0,2.54,1.32,2.54,3.33v8.16H9224Z" transform="translate(-9062.34 -8305.44)"/><path class="cls-1" d="M9238.54,8343.91h-2.31l-0.21-.76a6.15,6.15,0,0,1-3.35,1c-2.06,0-2.94-1.41-2.94-3.35,0-2.29,1-3.17,3.28-3.17h2.7v-1.18c0-1.25-.35-1.69-2.15-1.69a15.72,15.72,0,0,0-3.12.35l-0.35-2.15a14.7,14.7,0,0,1,3.86-.53c3.54,0,4.58,1.25,4.58,4.07v7.42Zm-2.82-4.25h-2.08c-0.92,0-1.18.25-1.18,1.11a1,1,0,0,0,1.13,1.13,4.44,4.44,0,0,0,2.13-.58v-1.66Z" transform="translate(-9062.34 -8305.44)"/><path class="cls-1" d="M9241.85,8343.91v-15.86l2.82-.39v16.25h-2.82Z" transform="translate(-9062.34 -8305.44)"/><path class="cls-1" d="M9248.1,8331.06v-3.26h2.82v3.26h-2.82Zm0,12.85v-11.26h2.82v11.26h-2.82Z" transform="translate(-9062.34 -8305.44)"/><path class="cls-1" d="M9260.74,8343.7a7.82,7.82,0,0,1-2.47.44c-2.06,0-3.1-1-3.1-3v-6.26h-1.69v-2.24h1.69v-2.8l2.82-.39v3.19h2.89l-0.18,2.24H9258v5.89a0.89,0.89,0,0,0,1,1,5.44,5.44,0,0,0,1.41-.23Z" transform="translate(-9062.34 -8305.44)"/><path class="cls-1" d="M9270.11,8343.91l-1.5,4.55h-2.68l1.41-4.55h-1l-3.56-11.26h2.89l2.57,8.55,2.59-8.55h2.89Z" transform="translate(-9062.34 -8305.44)"/><path class="cls-1" d="M9288,8343.91v-7.86a0.78,0.78,0,0,0-.9-0.9,7.78,7.78,0,0,0-2.94.95v7.81h-2.82v-11.26h2.15l0.28,0.95a11.27,11.27,0,0,1,4.51-1.18,2.14,2.14,0,0,1,2.13,1.2,11,11,0,0,1,4.53-1.2c1.87,0,2.54,1.32,2.54,3.33v8.16h-2.82v-7.86a0.78,0.78,0,0,0-.9-0.9,7.46,7.46,0,0,0-2.94.95v7.81H9288Z" transform="translate(-9062.34 -8305.44)"/><path class="cls-1" d="M9309.23,8343.91h-2.31l-0.21-.76a6.15,6.15,0,0,1-3.35,1c-2.06,0-2.94-1.41-2.94-3.35,0-2.29,1-3.17,3.28-3.17h2.7v-1.18c0-1.25-.35-1.69-2.15-1.69a15.74,15.74,0,0,0-3.12.35l-0.35-2.15a14.7,14.7,0,0,1,3.86-.53c3.54,0,4.58,1.25,4.58,4.07v7.42Zm-2.82-4.25h-2.08c-0.92,0-1.18.25-1.18,1.11a1,1,0,0,0,1.13,1.13,4.44,4.44,0,0,0,2.13-.58v-1.66Z" transform="translate(-9062.34 -8305.44)"/><path class="cls-1" d="M9318.91,8343.7a7.82,7.82,0,0,1-2.47.44c-2.06,0-3.1-1-3.1-3v-6.26h-1.69v-2.24h1.69v-2.8l2.82-.39v3.19H9319l-0.18,2.24h-2.7v5.89a0.89,0.89,0,0,0,1,1,5.44,5.44,0,0,0,1.41-.23Z" transform="translate(-9062.34 -8305.44)"/><path class="cls-1" d="M9328.32,8343.7a7.82,7.82,0,0,1-2.47.44c-2.06,0-3.1-1-3.1-3v-6.26h-1.69v-2.24h1.69v-2.8l2.82-.39v3.19h2.89l-0.18,2.24h-2.7v5.89a0.89,0.89,0,0,0,1,1,5.44,5.44,0,0,0,1.41-.23Z" transform="translate(-9062.34 -8305.44)"/><path class="cls-1" d="M9335.66,8341.83a11.8,11.8,0,0,0,3.44-.53l0.44,2.13a12.09,12.09,0,0,1-4.14.72c-3.54,0-4.76-1.64-4.76-4.35v-3c0-2.38,1.06-4.39,4.67-4.39s4.41,2.1,4.41,4.53v2.4h-6.26v0.58C9333.47,8341.3,9334,8341.83,9335.66,8341.83Zm-2.2-4.74H9337v-0.55a1.51,1.51,0,0,0-1.71-1.8,1.62,1.62,0,0,0-1.87,1.8v0.55Z" transform="translate(-9062.34 -8305.44)"/><path class="cls-1" d="M9348.52,8335a22.07,22.07,0,0,0-3,1.64v7.26h-2.82v-11.26h2.38l0.18,1.25a12.64,12.64,0,0,1,3-1.48Z" transform="translate(-9062.34 -8305.44)"/><path class="cls-1" d="M9354.68,8344.14a13.27,13.27,0,0,1-3.88-.65l0.39-2.15a12.62,12.62,0,0,0,3.35.49c1.25,0,1.43-.28,1.43-1.13,0-.69-0.14-1-2-1.48-2.75-.67-3.07-1.36-3.07-3.54s1-3.26,4.21-3.26a14.8,14.8,0,0,1,3.37.39l-0.28,2.24a19.83,19.83,0,0,0-3.1-.32c-1.22,0-1.43.28-1.43,1,0,0.9.07,1,1.59,1.36,3.14,0.83,3.44,1.25,3.44,3.56S9358.08,8344.14,9354.68,8344.14Z" transform="translate(-9062.34 -8305.44)"/><path class="cls-1" d="M9362.06,8340.67h2.87v3.24h-2.87v-3.24Z" transform="translate(-9062.34 -8305.44)"/><circle id="_Path_" data-name="&lt;Path&gt;" class="cls-2" cx="9124.99" cy="8312.31" r="4.95" transform="translate(-12014.05 -2545.22) rotate(-30.4)"/><circle id="_Path_2" data-name="&lt;Path&gt;" class="cls-3" cx="9122.92" cy="8321.9" r="2.87" transform="translate(-8337.2 9069.57) rotate(-89.52)"/><circle id="_Path_3" data-name="&lt;Path&gt;" class="cls-4" cx="9133.73" cy="8318.91" r="3.8" transform="matrix(0.86, -0.51, 0.51, 0.86, -12016.19, -2539.89)"/><circle id="_Path_4" data-name="&lt;Path&gt;" class="cls-5" cx="9137.3" cy="8310.18" r="2.86" transform="translate(-12011.28 -2539.29) rotate(-30.4)"/><circle id="_Path_5" data-name="&lt;Path&gt;" class="cls-6" cx="9131.74" cy="8307.01" r="1.56" transform="translate(-12010.44 -2542.53) rotate(-30.4)"/><circle id="_Path_6" data-name="&lt;Path&gt;" class="cls-7" cx="9117.3" cy="8317.34" r="2.09" transform="translate(-12017.66 -2548.42) rotate(-30.4)"/><path class="cls-1" d="M9151.1,8327.49l-5.45-13.76a0.71,0.71,0,0,0-1.36.25,25,25,0,0,1-7,10.65c-6.45,6.06-17,3.28-17,3.28a0.71,0.71,0,0,0-.59.8l2.74,15.28a0.71,0.71,0,0,0,.5.58l14,5a0.71,0.71,0,0,0,.91-0.68l-2.1-8.4a0.71,0.71,0,0,1,.63-0.71l10.3-.88a0.71,0.71,0,0,0,.63-0.73l-0.27-8.91a0.71,0.71,0,0,1,.71-0.73h2.7A0.71,0.71,0,0,0,9151.1,8327.49Zm-6.28-1a2.38,2.38,0,1,1,.85-3.25A2.38,2.38,0,0,1,9144.82,8326.46Z" transform="translate(-9062.34 -8305.44)"/></svg>