<svg id="Layer_2" data-name="Layer 2" xmlns="http://www.w3.org/2000/svg" viewBox="0 0 386.63 102.84"><defs><style>.cls-1{fill:#fff;}</style></defs><title>section2-text</title><path class="cls-1" d="M9163,7932.25h2.81l-4.51,9.93v4.05h-2.64v-4.05l-4.51-9.93h2.81l3,7.05Z" transform="translate(-9137.25 -7931.48)"/><path class="cls-1" d="M9169.84,7946.45c-3.51,0-4.45-1.93-4.45-4v-2.58c0-2.1.95-4,4.45-4s4.45,1.93,4.45,4v2.58C9174.29,7944.51,9173.35,7946.45,9169.84,7946.45Zm0-8.46c-1.36,0-1.89.61-1.89,1.76v2.75c0,1.15.52,1.76,1.89,1.76s1.89-.61,1.89-1.76v-2.75C9171.73,7938.59,9171.21,7938,9169.84,7938Z" transform="translate(-9137.25 -7931.48)"/><path class="cls-1" d="M9179.23,7936v7.14a0.71,0.71,0,0,0,.82.82,7.06,7.06,0,0,0,2.67-.86V7936h2.56v10.23h-2l-0.25-.86a10.25,10.25,0,0,1-4.09,1.07c-1.7,0-2.31-1.2-2.31-3V7936h2.56Z" transform="translate(-9137.25 -7931.48)"/><path class="cls-1" d="M9193.49,7938.15a20.08,20.08,0,0,0-2.71,1.49v6.59h-2.56V7936h2.16l0.17,1.13a11.43,11.43,0,0,1,2.69-1.34Z" transform="translate(-9137.25 -7931.48)"/><path class="cls-1" d="M9207.52,7943.34h-5.19l-0.88,2.9h-2.77l4.41-14h3.7l4.41,14h-2.77ZM9203,7941h3.86l-1.91-6.61Z" transform="translate(-9137.25 -7931.48)"/><path class="cls-1" d="M9216,7943.49a1.1,1.1,0,0,0-.61.82c0,0.27.17,0.4,0.57,0.44l3,0.32a2.13,2.13,0,0,1,2.18,2.48c0,2.18-.8,3-4.62,3a14.91,14.91,0,0,1-3.95-.52l0.31-1.91a14.16,14.16,0,0,0,3.44.44c2,0,2.44-.15,2.44-0.82s-0.19-.73-1-0.82l-3-.34c-1.45-.17-2-0.65-2-2a2.16,2.16,0,0,1,1.07-1.74,3,3,0,0,1-1.39-2.75v-1c0-2.12,1.16-3.4,4.12-3.4a7,7,0,0,1,1.74.21h3.15v1.28l-1.13.31a3.51,3.51,0,0,1,.36,1.6v1c0,2.08-1.26,3.34-4.12,3.34A5.18,5.18,0,0,1,9216,7943.49Zm0.59-5.63c-1.26,0-1.7.46-1.7,1.43v0.78c0,1,.5,1.39,1.7,1.39s1.72-.4,1.72-1.39v-0.78C9218.33,7938.32,9217.89,7937.86,9216.61,7937.86Z" transform="translate(-9137.25 -7931.48)"/><path class="cls-1" d="M9227.49,7944.35a10.73,10.73,0,0,0,3.13-.48l0.4,1.93a11,11,0,0,1-3.76.65c-3.21,0-4.33-1.49-4.33-3.95v-2.71c0-2.16,1-4,4.24-4s4,1.91,4,4.12v2.18h-5.69v0.53C9225.49,7943.86,9225.93,7944.35,9227.49,7944.35Zm-2-4.3h3.25v-0.5a1.37,1.37,0,0,0-1.55-1.64,1.47,1.47,0,0,0-1.7,1.64v0.5Z" transform="translate(-9137.25 -7931.48)"/><path class="cls-1" d="M9239.54,7946.24v-7.14a0.71,0.71,0,0,0-.82-0.82,7.06,7.06,0,0,0-2.67.86v7.1h-2.56V7936h2l0.25,0.86a10.25,10.25,0,0,1,4.09-1.07c1.7,0,2.31,1.2,2.31,3v7.41h-2.56Z" transform="translate(-9137.25 -7931.48)"/><path class="cls-1" d="M9250.38,7946a7.09,7.09,0,0,1-2.25.4c-1.87,0-2.81-.88-2.81-2.71V7938h-1.53v-2h1.53v-2.54l2.56-.36v2.9h2.63l-0.17,2h-2.46v5.35a0.81,0.81,0,0,0,.92.9,4.94,4.94,0,0,0,1.28-.21Z" transform="translate(-9137.25 -7931.48)"/><path class="cls-1" d="M9256.59,7936.09c0-2.56,1.49-4.05,5-4.05a15.84,15.84,0,0,1,3.8.46l-0.29,2.29a20.6,20.6,0,0,0-3.42-.36c-1.83,0-2.41.63-2.41,2.12v5.38c0,1.49.59,2.12,2.41,2.12a20.61,20.61,0,0,0,3.42-.36l0.29,2.29a15.84,15.84,0,0,1-3.8.46c-3.49,0-5-1.49-5-4.05v-6.3Z" transform="translate(-9137.25 -7931.48)"/><path class="cls-1" d="M9271.57,7946.45c-3.51,0-4.45-1.93-4.45-4v-2.58c0-2.1.95-4,4.45-4s4.45,1.93,4.45,4v2.58C9276,7944.51,9275.07,7946.45,9271.57,7946.45Zm0-8.46c-1.37,0-1.89.61-1.89,1.76v2.75c0,1.15.52,1.76,1.89,1.76s1.89-.61,1.89-1.76v-2.75C9273.46,7938.59,9272.93,7938,9271.57,7938Z" transform="translate(-9137.25 -7931.48)"/><path class="cls-1" d="M9284.54,7946.24v-7.14a0.71,0.71,0,0,0-.82-0.82,7.06,7.06,0,0,0-2.67.86v7.1h-2.56V7936h2l0.25,0.86a10.25,10.25,0,0,1,4.09-1.07c1.7,0,2.31,1.2,2.31,3v7.41h-2.56Z" transform="translate(-9137.25 -7931.48)"/><path class="cls-1" d="M9296,7946.24v-7.14a0.71,0.71,0,0,0-.82-0.82,7.06,7.06,0,0,0-2.67.86v7.1h-2.56V7936h2l0.25,0.86a10.25,10.25,0,0,1,4.09-1.07c1.7,0,2.31,1.2,2.31,3v7.41H9296Z" transform="translate(-9137.25 -7931.48)"/><path class="cls-1" d="M9305.48,7944.35a10.72,10.72,0,0,0,3.13-.48l0.4,1.93a11,11,0,0,1-3.76.65c-3.21,0-4.33-1.49-4.33-3.95v-2.71c0-2.16,1-4,4.24-4s4,1.91,4,4.12v2.18h-5.69v0.53C9303.49,7943.86,9303.93,7944.35,9305.48,7944.35Zm-2-4.3h3.25v-0.5a1.37,1.37,0,0,0-1.55-1.64,1.47,1.47,0,0,0-1.7,1.64v0.5Z" transform="translate(-9137.25 -7931.48)"/><path class="cls-1" d="M9311,7942.52v-2.79c0-2.75,1.2-3.93,4.41-3.93a8.81,8.81,0,0,1,2.5.38l-0.32,2.1a9.33,9.33,0,0,0-2.12-.27c-1.47,0-1.91.44-1.91,1.7v2.83c0,1.26.44,1.7,1.91,1.7a8.67,8.67,0,0,0,2.12-.27l0.32,2.1a8.45,8.45,0,0,1-2.5.38C9312.22,7946.45,9311,7945.27,9311,7942.52Z" transform="translate(-9137.25 -7931.48)"/><path class="cls-1" d="M9325.72,7946a7.1,7.1,0,0,1-2.25.4c-1.87,0-2.81-.88-2.81-2.71V7938h-1.53v-2h1.53v-2.54l2.56-.36v2.9h2.62l-0.17,2h-2.46v5.35a0.81,0.81,0,0,0,.92.9,4.92,4.92,0,0,0,1.28-.21Z" transform="translate(-9137.25 -7931.48)"/><path class="cls-1" d="M9327.74,7934.56v-3h2.56v3h-2.56Zm0,11.67V7936h2.56v10.23h-2.56Z" transform="translate(-9137.25 -7931.48)"/><path class="cls-1" d="M9337.23,7946.45c-3.51,0-4.45-1.93-4.45-4v-2.58c0-2.1.95-4,4.45-4s4.45,1.93,4.45,4v2.58C9341.68,7944.51,9340.74,7946.45,9337.23,7946.45Zm0-8.46c-1.37,0-1.89.61-1.89,1.76v2.75c0,1.15.52,1.76,1.89,1.76s1.89-.61,1.89-1.76v-2.75C9339.12,7938.59,9338.6,7938,9337.23,7938Z" transform="translate(-9137.25 -7931.48)"/><path class="cls-1" d="M9350.21,7946.24v-7.14a0.71,0.71,0,0,0-.82-0.82,7.06,7.06,0,0,0-2.67.86v7.1h-2.56V7936h2l0.25,0.86a10.25,10.25,0,0,1,4.09-1.07c1.7,0,2.31,1.2,2.31,3v7.41h-2.56Z" transform="translate(-9137.25 -7931.48)"/><path class="cls-1" d="M9358.78,7946.45a12,12,0,0,1-3.53-.59l0.36-2a11.45,11.45,0,0,0,3,.44c1.13,0,1.3-.25,1.3-1s-0.13-.94-1.78-1.34c-2.5-.61-2.79-1.24-2.79-3.21s0.9-3,3.82-3a13.43,13.43,0,0,1,3.07.36l-0.25,2a18.07,18.07,0,0,0-2.81-.29c-1.11,0-1.3.25-1.3,0.88,0,0.82.06,0.88,1.45,1.24,2.86,0.76,3.13,1.13,3.13,3.23S9361.87,7946.45,9358.78,7946.45Z" transform="translate(-9137.25 -7931.48)"/><path class="cls-1" d="M9370.2,7946.24l-1.89-10.23h2.39l1.26,6.84,2-6.84h2.67l2,6.84,1.26-6.84h2.39l-1.89,10.23h-3l-2.16-7.35-2.16,7.35h-3Z" transform="translate(-9137.25 -7931.48)"/><path class="cls-1" d="M9384.19,7934.56v-3h2.56v3h-2.56Zm0,11.67V7936h2.56v10.23h-2.56Z" transform="translate(-9137.25 -7931.48)"/><path class="cls-1" d="M9395.13,7946a7.09,7.09,0,0,1-2.25.4c-1.87,0-2.81-.88-2.81-2.71V7938h-1.53v-2h1.53v-2.54l2.56-.36v2.9h2.63l-0.17,2h-2.46v5.35a0.81,0.81,0,0,0,.92.9,4.93,4.93,0,0,0,1.28-.21Z" transform="translate(-9137.25 -7931.48)"/><path class="cls-1" d="M9403.19,7946.24v-7.14a0.71,0.71,0,0,0-.82-0.82,7.06,7.06,0,0,0-2.67.86v7.1h-2.56v-14.4l2.56-.36v5.31a9,9,0,0,1,3.74-1c1.7,0,2.31,1.2,2.31,3v7.41h-2.56Z" transform="translate(-9137.25 -7931.48)"/><path class="cls-1" d="M9412.79,7936.09c0-2.56,1.49-4.05,5-4.05a15.84,15.84,0,0,1,3.8.46l-0.29,2.29a20.6,20.6,0,0,0-3.42-.36c-1.83,0-2.41.63-2.41,2.12v5.38c0,1.49.59,2.12,2.41,2.12a20.61,20.61,0,0,0,3.42-.36l0.29,2.29a15.84,15.84,0,0,1-3.8.46c-3.49,0-5-1.49-5-4.05v-6.3Z" transform="translate(-9137.25 -7931.48)"/><path class="cls-1" d="M9426.33,7936v7.14a0.71,0.71,0,0,0,.82.82,7.06,7.06,0,0,0,2.67-.86V7936h2.56v10.23h-2l-0.25-.86a10.24,10.24,0,0,1-4.09,1.07c-1.7,0-2.31-1.2-2.31-3V7936h2.56Z" transform="translate(-9137.25 -7931.48)"/><path class="cls-1" d="M9438.49,7946.45a12,12,0,0,1-3.53-.59l0.36-2a11.45,11.45,0,0,0,3,.44c1.13,0,1.3-.25,1.3-1s-0.13-.94-1.78-1.34c-2.5-.61-2.79-1.24-2.79-3.21s0.9-3,3.82-3a13.43,13.43,0,0,1,3.07.36l-0.25,2a18.07,18.07,0,0,0-2.81-.29c-1.11,0-1.3.25-1.3,0.88,0,0.82.06,0.88,1.45,1.24,2.86,0.76,3.13,1.13,3.13,3.23S9441.58,7946.45,9438.49,7946.45Z" transform="translate(-9137.25 -7931.48)"/><path class="cls-1" d="M9450.15,7946a7.09,7.09,0,0,1-2.25.4c-1.87,0-2.81-.88-2.81-2.71V7938h-1.53v-2h1.53v-2.54l2.56-.36v2.9h2.63l-0.17,2h-2.46v5.35a0.81,0.81,0,0,0,.92.9,4.93,4.93,0,0,0,1.28-.21Z" transform="translate(-9137.25 -7931.48)"/><path class="cls-1" d="M9456.15,7946.45c-3.51,0-4.45-1.93-4.45-4v-2.58c0-2.1.94-4,4.45-4s4.45,1.93,4.45,4v2.58C9460.61,7944.51,9459.66,7946.45,9456.15,7946.45Zm0-8.46c-1.37,0-1.89.61-1.89,1.76v2.75c0,1.15.53,1.76,1.89,1.76s1.89-.61,1.89-1.76v-2.75C9458,7938.59,9457.52,7938,9456.15,7938Z" transform="translate(-9137.25 -7931.48)"/><path class="cls-1" d="M9469.13,7946.24v-7.14a0.71,0.71,0,0,0-.82-0.82,7.06,7.06,0,0,0-2.67.86v7.1h-2.56V7936h2l0.25,0.86a10.25,10.25,0,0,1,4.09-1.07,1.94,1.94,0,0,1,1.93,1.09,10,10,0,0,1,4.12-1.09c1.7,0,2.31,1.2,2.31,3v7.41h-2.56v-7.14a0.71,0.71,0,0,0-.82-0.82,6.77,6.77,0,0,0-2.67.86v7.1h-2.56Z" transform="translate(-9137.25 -7931.48)"/><path class="cls-1" d="M9484.67,7944.35a10.72,10.72,0,0,0,3.13-.48l0.4,1.93a11,11,0,0,1-3.76.65c-3.21,0-4.33-1.49-4.33-3.95v-2.71c0-2.16,1-4,4.24-4s4,1.91,4,4.12v2.18h-5.69v0.53C9482.68,7943.86,9483.12,7944.35,9484.67,7944.35Zm-2-4.3h3.25v-0.5a1.37,1.37,0,0,0-1.55-1.64,1.47,1.47,0,0,0-1.7,1.64v0.5Z" transform="translate(-9137.25 -7931.48)"/><path class="cls-1" d="M9495.95,7938.15a20.13,20.13,0,0,0-2.71,1.49v6.59h-2.56V7936h2.16l0.17,1.13a11.47,11.47,0,0,1,2.69-1.34Z" transform="translate(-9137.25 -7931.48)"/><path class="cls-1" d="M9500.84,7946.45a12,12,0,0,1-3.53-.59l0.36-2a11.45,11.45,0,0,0,3,.44c1.13,0,1.3-.25,1.3-1s-0.13-.94-1.78-1.34c-2.5-.61-2.79-1.24-2.79-3.21s0.9-3,3.82-3a13.43,13.43,0,0,1,3.07.36l-0.25,2a18.07,18.07,0,0,0-2.81-.29c-1.11,0-1.3.25-1.3,0.88,0,0.82.06,0.88,1.45,1.24,2.86,0.76,3.13,1.13,3.13,3.23S9503.93,7946.45,9500.84,7946.45Z" transform="translate(-9137.25 -7931.48)"/><path class="cls-1" d="M9174.35,7977.24l2.46-14h4.56c2.71,0,3.76,1.26,3.76,3.13a6.78,6.78,0,0,1-.11,1.09l-1,5.86c-0.48,2.71-1.53,3.91-4.91,3.91h-4.72Zm9.6-10.83c0-1.39-.73-2.08-2.69-2.08h-3.42l-2.1,11.84h3.42c2.6,0,3.32-1,3.67-3l1-5.71A6.53,6.53,0,0,0,9183.95,7966.4Z" transform="translate(-9137.25 -7931.48)"/><path class="cls-1" d="M9187.89,7974.57a5.05,5.05,0,0,0,0,.55c0,0.86.34,1.3,1.76,1.3a8.66,8.66,0,0,0,3.61-1l0.29,0.9a9,9,0,0,1-4.05,1.11c-1.91,0-2.79-.76-2.79-2.31a5.91,5.91,0,0,1,.1-1l0.61-3.44c0.46-2.6,1.81-3.88,4.43-3.88,1.66,0,2.71.84,2.71,2.37s-1.09,2.52-3.88,3.3l-2.5.69Zm5.5-5.42c0-.92-0.61-1.34-1.68-1.34-1.83,0-2.79.95-3.15,3l-0.23,1.3,2.37-.63C9192.62,7970.94,9193.4,7970.24,9193.4,7969.15Z" transform="translate(-9137.25 -7931.48)"/><path class="cls-1" d="M9194.93,7980.83a3.92,3.92,0,0,0,1.47-2.75l1.76-10.06h-1.91l0.17-1h1.93l0.34-1.93c0.32-1.78,1.26-2.67,3-2.67a8.27,8.27,0,0,1,3,.61l-0.25.9a9.81,9.81,0,0,0-2.75-.5,1.68,1.68,0,0,0-1.83,1.66l-0.34,1.93h5.5l0.59-.08-1.81,10.31h-1.18l1.62-9.22h-4.91l-1.78,10.2a4.94,4.94,0,0,1-1.93,3.36Z" transform="translate(-9137.25 -7931.48)"/><path class="cls-1" d="M9215.09,7968.92a2.35,2.35,0,0,0,0-.34c0-.5-0.27-0.69-0.86-0.69a11,11,0,0,0-4.37,1.76l-1.34,7.58h-1.18l1.78-10.14,1-.17-0.17,1.58a10.35,10.35,0,0,1,4.45-1.7,1.56,1.56,0,0,1,1.81,1.68,4,4,0,0,1-.06.65l-1.43,8.1h-1.18Z" transform="translate(-9137.25 -7931.48)"/><path class="cls-1" d="M9219.5,7974.57a5.31,5.31,0,0,0,0,.55c0,0.86.34,1.3,1.76,1.3a8.66,8.66,0,0,0,3.61-1l0.29,0.9a9,9,0,0,1-4.05,1.11c-1.91,0-2.79-.76-2.79-2.31a5.82,5.82,0,0,1,.11-1l0.61-3.44c0.46-2.6,1.81-3.88,4.43-3.88,1.66,0,2.71.84,2.71,2.37s-1.09,2.52-3.88,3.3l-2.5.69Zm5.5-5.42c0-.92-0.61-1.34-1.68-1.34-1.83,0-2.79.95-3.15,3l-0.23,1.3,2.37-.63C9224.22,7970.94,9225,7970.24,9225,7969.15Z" transform="translate(-9137.25 -7931.48)"/><path class="cls-1" d="M9236.42,7977.24h-1.2l2.27-12.91h-4.3l0.19-1.07h9.81l-0.19,1.07h-4.3Z" transform="translate(-9137.25 -7931.48)"/><path class="cls-1" d="M9250.75,7968.92a2.5,2.5,0,0,0,0-.34c0-.5-0.27-0.69-0.86-0.69a11.06,11.06,0,0,0-4.37,1.76l-1.34,7.58H9243l2.54-14.4,1.2-.17-1,5.79a10.24,10.24,0,0,1,4.37-1.66,1.56,1.56,0,0,1,1.8,1.68,4,4,0,0,1-.06.65l-1.43,8.1h-1.18Z" transform="translate(-9137.25 -7931.48)"/><path class="cls-1" d="M9255.16,7974.57a5.05,5.05,0,0,0,0,.55c0,0.86.34,1.3,1.76,1.3a8.66,8.66,0,0,0,3.61-1l0.29,0.9a9,9,0,0,1-4.05,1.11c-1.91,0-2.79-.76-2.79-2.31a5.91,5.91,0,0,1,.1-1l0.61-3.44c0.46-2.6,1.81-3.88,4.43-3.88,1.66,0,2.71.84,2.71,2.37s-1.09,2.52-3.88,3.3l-2.5.69Zm5.5-5.42c0-.92-0.61-1.34-1.68-1.34-1.83,0-2.79.95-3.15,3l-0.23,1.3,2.37-.63C9259.88,7970.94,9260.66,7970.24,9260.66,7969.15Z" transform="translate(-9137.25 -7931.48)"/><path class="cls-1" d="M9265,7967.09l1.2-.17-1.8,10.31h-1.18Zm0.74-4.26,1.22-.17-0.42,2.37-1.2.17Z" transform="translate(-9137.25 -7931.48)"/><path class="cls-1" d="M9273.7,7968c-1.11.65-2.18,1.34-3.28,2.06l-1.26,7.22H9268l1.76-10.14,1.09-.17-0.25,1.81a23.4,23.4,0,0,1,3-1.93Z" transform="translate(-9137.25 -7931.48)"/><path class="cls-1" d="M9281.47,7963.25h7.85l-0.19,1.07h-6.63l-0.92,5.25h6.17l-0.19,1.07h-6.17l-1,5.52h6.66l-0.17,1.07H9279Z" transform="translate(-9137.25 -7931.48)"/><path class="cls-1" d="M9293.1,7972.09l-2.41-5,1.09-.17,2.12,4.33,3.48-4.24h1.39l-4.37,5.19,2.5,5h-1.26l-2-4.12-3.46,4.12h-1.38Z" transform="translate(-9137.25 -7931.48)"/><path class="cls-1" d="M9301.86,7968.5a6.69,6.69,0,0,1,4.18-1.7c1.3,0,2,.46,2,1.72a5.32,5.32,0,0,1-.08.76l-0.9,5.1c-0.38,2.14-1.32,3.07-3.65,3.07a13.77,13.77,0,0,1-3-.4l-0.78,4.33-1.2.17L9301,7967h1.07Zm-1.26,7.47a13.26,13.26,0,0,0,3.06.42c1.41,0,2-.59,2.27-2.1l0.88-5a3.84,3.84,0,0,0,.06-0.63c0-.65-0.31-0.8-0.95-0.8a7.18,7.18,0,0,0-4.26,2Z" transform="translate(-9137.25 -7931.48)"/><path class="cls-1" d="M9311.08,7974.57a5.05,5.05,0,0,0,0,.55c0,0.86.34,1.3,1.76,1.3a8.66,8.66,0,0,0,3.61-1l0.29,0.9a9,9,0,0,1-4.05,1.11c-1.91,0-2.79-.76-2.79-2.31a5.91,5.91,0,0,1,.1-1l0.61-3.44c0.46-2.6,1.81-3.88,4.43-3.88,1.66,0,2.71.84,2.71,2.37s-1.09,2.52-3.88,3.3l-2.5.69Zm5.5-5.42c0-.92-0.61-1.34-1.68-1.34-1.83,0-2.79.95-3.15,3l-0.23,1.3,2.37-.63C9315.8,7970.94,9316.58,7970.24,9316.58,7969.15Z" transform="translate(-9137.25 -7931.48)"/><path class="cls-1" d="M9324.87,7968c-1.11.65-2.18,1.34-3.28,2.06l-1.26,7.22h-1.18l1.76-10.14,1.09-.17-0.25,1.81a23.4,23.4,0,0,1,3-1.93Z" transform="translate(-9137.25 -7931.48)"/><path class="cls-1" d="M9327.25,7967.09l1.2-.17-1.81,10.31h-1.18Zm0.73-4.26,1.22-.17-0.42,2.37-1.2.17Z" transform="translate(-9137.25 -7931.48)"/><path class="cls-1" d="M9331.45,7974.57a5.3,5.3,0,0,0,0,.55c0,0.86.34,1.3,1.76,1.3a8.66,8.66,0,0,0,3.61-1l0.29,0.9a9,9,0,0,1-4.05,1.11c-1.91,0-2.79-.76-2.79-2.31a5.81,5.81,0,0,1,.1-1l0.61-3.44c0.46-2.6,1.81-3.88,4.43-3.88,1.66,0,2.71.84,2.71,2.37s-1.09,2.52-3.88,3.3l-2.5.69Zm5.5-5.42c0-.92-0.61-1.34-1.68-1.34-1.83,0-2.79.95-3.15,3l-0.23,1.3,2.37-.63C9336.17,7970.94,9336.95,7970.24,9336.95,7969.15Z" transform="translate(-9137.25 -7931.48)"/><path class="cls-1" d="M9347.22,7968.92a2.37,2.37,0,0,0,0-.34c0-.5-0.27-0.69-0.86-0.69a11.05,11.05,0,0,0-4.37,1.76l-1.34,7.58h-1.18l1.79-10.14,1-.17-0.17,1.58a10.34,10.34,0,0,1,4.45-1.7,1.56,1.56,0,0,1,1.81,1.68,4.09,4.09,0,0,1-.06.65l-1.43,8.1h-1.18Z" transform="translate(-9137.25 -7931.48)"/><path class="cls-1" d="M9357.63,7968.21a9.19,9.19,0,0,0-2.41-.36c-1.87,0-2.54.67-2.94,2.94l-0.71,4.07a3.88,3.88,0,0,0,0,.46c0,0.8.5,1.07,1.51,1.07a8.85,8.85,0,0,0,3.32-.71l0.19,1a8.94,8.94,0,0,1-3.65.78c-1.51,0-2.54-.71-2.54-2.1a3.45,3.45,0,0,1,.06-0.63l0.74-4.14c0.5-2.77,1.58-3.78,4.2-3.78a8.7,8.7,0,0,1,2.54.42Z" transform="translate(-9137.25 -7931.48)"/><path class="cls-1" d="M9360,7974.57a5.06,5.06,0,0,0,0,.55c0,0.86.34,1.3,1.76,1.3a8.66,8.66,0,0,0,3.61-1l0.29,0.9a9,9,0,0,1-4.05,1.11c-1.91,0-2.79-.76-2.79-2.31a5.92,5.92,0,0,1,.11-1l0.61-3.44c0.46-2.6,1.8-3.88,4.43-3.88,1.66,0,2.71.84,2.71,2.37s-1.09,2.52-3.88,3.3l-2.5.69Zm5.5-5.42c0-.92-0.61-1.34-1.68-1.34-1.83,0-2.79.95-3.15,3l-0.23,1.3,2.37-.63C9364.73,7970.94,9365.51,7970.24,9365.51,7969.15Z" transform="translate(-9137.25 -7931.48)"/><path class="cls-1" d="M9372.71,7974.59a4.68,4.68,0,0,1,.08-0.92l0.55-3.11c0.4-2.25,1.57-3.76,4.6-3.76,2.27,0,3.4,1.18,3.4,2.88a5.27,5.27,0,0,1-.08.78l-0.59,3.34c-0.4,2.27-1.66,3.65-4.6,3.65C9373.66,7977.45,9372.71,7976.23,9372.71,7974.59Zm7.37-4.14a4.39,4.39,0,0,0,.06-0.71c0-1.26-.73-1.89-2.39-1.89a2.92,2.92,0,0,0-3.23,2.71l-0.57,3.21a5.14,5.14,0,0,0-.06.78c0,1.2.65,1.85,2.37,1.85a2.9,2.9,0,0,0,3.23-2.62Z" transform="translate(-9137.25 -7931.48)"/><path class="cls-1" d="M9382.33,7980.83a3.91,3.91,0,0,0,1.47-2.75l1.76-10.06h-1.91l0.17-1h1.93l0.34-1.93c0.31-1.78,1.26-2.67,3-2.67a5.62,5.62,0,0,1,2,.4l-0.25.9a5.3,5.3,0,0,0-1.72-.29,1.68,1.68,0,0,0-1.83,1.66l-0.34,1.93h3.13l-0.27,1h-3l-1.78,10.2a4.94,4.94,0,0,1-1.93,3.36Z" transform="translate(-9137.25 -7931.48)"/><path class="cls-1" d="M9399.23,7977.24H9398l0.78-4.35-3-9.64H9397l2.65,8.46,5.48-8.46h1.36l-6.49,9.83Z" transform="translate(-9137.25 -7931.48)"/><path class="cls-1" d="M9404.88,7974.59a4.76,4.76,0,0,1,.08-0.92l0.55-3.11c0.4-2.25,1.58-3.76,4.6-3.76,2.27,0,3.4,1.18,3.4,2.88a5,5,0,0,1-.08.78l-0.59,3.34c-0.4,2.27-1.66,3.65-4.6,3.65C9405.83,7977.45,9404.88,7976.23,9404.88,7974.59Zm7.37-4.14a4.18,4.18,0,0,0,.06-0.71c0-1.26-.74-1.89-2.39-1.89a2.92,2.92,0,0,0-3.23,2.71l-0.57,3.21a5.4,5.4,0,0,0-.06.78c0,1.2.65,1.85,2.37,1.85a2.9,2.9,0,0,0,3.23-2.62Z" transform="translate(-9137.25 -7931.48)"/><path class="cls-1" d="M9416.68,7975.33a2.66,2.66,0,0,0,0,.38c0,0.42.27,0.65,0.86,0.65a11,11,0,0,0,4.37-1.76l1.32-7.5,1.22-.17-1.83,10.31h-1l0.17-1.49a9.49,9.49,0,0,1-4.45,1.7,1.56,1.56,0,0,1-1.81-1.68,3.51,3.51,0,0,1,.06-0.65l1.41-8,1.22-.17Z" transform="translate(-9137.25 -7931.48)"/><path class="cls-1" d="M9431.89,7968c-1.11.65-2.18,1.34-3.28,2.06l-1.26,7.22h-1.18l1.76-10.14,1.09-.17-0.25,1.81a23.48,23.48,0,0,1,3-1.93Z" transform="translate(-9137.25 -7931.48)"/><path class="cls-1" d="M9437.2,7977.24l2.46-14h5.19c1.66,0,2.62.78,2.62,2.12a3.09,3.09,0,0,1-.06.61l-0.27,1.55a2.68,2.68,0,0,1-2,2.5,1.9,1.9,0,0,1,1.62,2,3.77,3.77,0,0,1-.06.65l-0.34,1.91c-0.34,1.91-1.45,2.63-3.65,2.63h-5.48Zm8.31-5.08c0-.95-0.61-1.55-2-1.55h-3.93l-1,5.58h4.28a2,2,0,0,0,2.29-1.79l0.31-1.81A3.75,3.75,0,0,0,9445.52,7972.16Zm0.76-6.7c0-.76-0.48-1.15-1.53-1.15h-4.05l-0.92,5.25h3.46c1.6,0,2.48-.69,2.69-1.93l0.31-1.81A2.29,2.29,0,0,0,9446.27,7965.46Z" transform="translate(-9137.25 -7931.48)"/><path class="cls-1" d="M9454.57,7968c-1.11.65-2.18,1.34-3.28,2.06l-1.26,7.22h-1.18l1.76-10.14,1.09-.17-0.25,1.81a23.48,23.48,0,0,1,3-1.93Z" transform="translate(-9137.25 -7931.48)"/><path class="cls-1" d="M9461.18,7975.75a6.53,6.53,0,0,1-4.12,1.7c-1.3,0-2-.46-2-1.72a5,5,0,0,1,.06-0.76l0.78-4.39c0.48-2.69,1.6-3.78,4.35-3.78a11.17,11.17,0,0,1,3.53.67l-1.72,9.76H9461Zm1.28-7.56a9.52,9.52,0,0,0-2.39-.34c-1.91,0-2.65.69-3,2.94l-0.73,4.18a3.72,3.72,0,0,0-.06.61c0,0.65.31,0.82,0.94,0.82a7.09,7.09,0,0,0,4.2-2Z" transform="translate(-9137.25 -7931.48)"/><path class="cls-1" d="M9473.21,7968.92a2.5,2.5,0,0,0,0-.34c0-.5-0.27-0.69-0.86-0.69a11.06,11.06,0,0,0-4.37,1.76l-1.34,7.58h-1.18l1.79-10.14,1-.17-0.17,1.58a10.34,10.34,0,0,1,4.45-1.7,1.56,1.56,0,0,1,1.8,1.68,4,4,0,0,1-.06.65l-1.43,8.1h-1.18Z" transform="translate(-9137.25 -7931.48)"/><path class="cls-1" d="M9482.6,7975.75a6.69,6.69,0,0,1-4.18,1.7c-1.3,0-2-.46-2-1.72a4.87,4.87,0,0,1,.06-0.76l0.78-4.39c0.48-2.77,1.74-3.78,4.35-3.78a10.85,10.85,0,0,1,2.48.34l0.76-4.3,1.2-.17-2.56,14.57h-1.07Zm1.28-7.56a9.89,9.89,0,0,0-2.46-.34c-1.87,0-2.65.67-3,2.94l-0.73,4.18a3.63,3.63,0,0,0-.06.61c0,0.65.32,0.82,0.94,0.82a7.18,7.18,0,0,0,4.26-2Z" transform="translate(-9137.25 -7931.48)"/><path class="cls-1" d="M9145.16,8004.82H9148c1.71,0,2.31.74,2.31,2V8008c0,1.24-.6,2-2.31,2h-1.86v2.85h-1v-8Zm2.85,0.92h-1.82V8009H9148c1,0,1.32-.28,1.32-1.06v-1.17C9149.33,8006,9149,8005.74,9148,8005.74Z" transform="translate(-9137.25 -7931.48)"/><path class="cls-1" d="M9154,8012.06a7.41,7.41,0,0,0,1.85-.28l0.13,0.8a6.35,6.35,0,0,1-2.06.34c-1.73,0-2.32-.83-2.32-2.15V8009a2,2,0,0,1,2.29-2.18,1.94,1.94,0,0,1,2.2,2.21v1.22h-3.48v0.49C9152.61,8011.69,9152.86,8012.06,9154,8012.06Zm-1.39-2.63h2.51V8009a1.07,1.07,0,0,0-1.22-1.27,1.11,1.11,0,0,0-1.28,1.27v0.48Z" transform="translate(-9137.25 -7931.48)"/><path class="cls-1" d="M9160.47,8007.77a12.76,12.76,0,0,0-1.67,1v4h-1V8007h0.88l0.06,0.82a7.49,7.49,0,0,1,1.61-.94Z" transform="translate(-9137.25 -7931.48)"/><path class="cls-1" d="M9163.23,8012.92a6,6,0,0,1-1.86-.31l0.13-.79a6.68,6.68,0,0,0,1.67.24c0.92,0,1.08-.17,1.08-0.79s0-.7-1.22-1c-1.45-.36-1.58-0.66-1.58-1.87s0.48-1.57,2-1.57a6.6,6.6,0,0,1,1.66.2l-0.07.83a9.42,9.42,0,0,0-1.62-.17c-0.86,0-1,.2-1,0.73s0,0.77,1,1c1.68,0.42,1.81.62,1.81,1.79S9164.9,8012.92,9163.23,8012.92Z" transform="translate(-9137.25 -7931.48)"/><path class="cls-1" d="M9169.07,8012.92a2.07,2.07,0,0,1-2.37-2.19V8009a2.38,2.38,0,0,1,4.75,0v1.69A2.07,2.07,0,0,1,9169.07,8012.92Zm0-5.21a1.17,1.17,0,0,0-1.37,1.28v1.76a1.37,1.37,0,0,0,2.73,0V8009A1.17,1.17,0,0,0,9169.07,8007.72Z" transform="translate(-9137.25 -7931.48)"/><path class="cls-1" d="M9176.72,8012.8v-4.46a0.48,0.48,0,0,0-.56-0.54,5.46,5.46,0,0,0-2,.59v4.41h-1V8007H9174l0.1,0.5a6.35,6.35,0,0,1,2.35-.62,1.23,1.23,0,0,1,1.27,1.49v4.47h-1Z" transform="translate(-9137.25 -7931.48)"/><path class="cls-1" d="M9183.84,8012.8H9183l-0.06-.43a3.33,3.33,0,0,1-1.89.55,1.44,1.44,0,0,1-1.55-1.68c0-1.21.61-1.64,1.79-1.64h1.56v-0.91c0-.73-0.32-1-1.27-1a9.6,9.6,0,0,0-1.75.19l-0.11-.8a8.26,8.26,0,0,1,1.92-.25c1.67,0,2.22.65,2.22,1.89v4.07Zm-1-2.36h-1.49a0.68,0.68,0,0,0-.85.78c0,0.6.11,0.84,0.83,0.84a2.92,2.92,0,0,0,1.51-.48v-1.14Z" transform="translate(-9137.25 -7931.48)"/><path class="cls-1" d="M9185.74,8012.8v-8.23l1-.14v8.37h-1Z" transform="translate(-9137.25 -7931.48)"/><path class="cls-1" d="M9188.79,8006v-1.45h1V8006h-1Zm0,6.78V8007h1v5.84h-1Z" transform="translate(-9137.25 -7931.48)"/><path class="cls-1" d="M9194.88,8012.71a3.64,3.64,0,0,1-1.22.22,1.19,1.19,0,0,1-1.45-1.33v-3.79h-1V8007h1v-1.44l1-.14V8007h1.66l-0.08.84h-1.57v3.62c0,0.43.06,0.65,0.6,0.65a3.72,3.72,0,0,0,.94-0.14Z" transform="translate(-9137.25 -7931.48)"/><path class="cls-1" d="M9197.9,8012.8h-0.42l-1.9-5.84h1l1.59,5,1.62-5h1l-1.93,5.84-0.83,2.36h-0.95Z" transform="translate(-9137.25 -7931.48)"/><path class="cls-1" d="M9204.28,8010.8V8009c0-1.34.5-2.12,2.33-2.12a5.31,5.31,0,0,1,1.39.18l-0.08.84a6.15,6.15,0,0,0-1.28-.13c-1,0-1.34.29-1.34,1.2v1.91c0,0.91.34,1.2,1.34,1.2a6.15,6.15,0,0,0,1.28-.13l0.1,0.84a5.37,5.37,0,0,1-1.4.18C9204.74,8012.92,9204.28,8012.14,9204.28,8010.8Z" transform="translate(-9137.25 -7931.48)"/><path class="cls-1" d="M9211.71,8012.92a2.07,2.07,0,0,1-2.37-2.19V8009a2.38,2.38,0,0,1,4.75,0v1.69A2.07,2.07,0,0,1,9211.71,8012.92Zm0-5.21a1.17,1.17,0,0,0-1.37,1.28v1.76a1.37,1.37,0,0,0,2.73,0V8009A1.17,1.17,0,0,0,9211.71,8007.72Z" transform="translate(-9137.25 -7931.48)"/><path class="cls-1" d="M9219.35,8012.8v-4.46a0.48,0.48,0,0,0-.56-0.54,5.46,5.46,0,0,0-2,.59v4.41h-1V8007h0.82l0.1,0.5a6.35,6.35,0,0,1,2.35-.62,1.23,1.23,0,0,1,1.27,1.49v4.47h-1Z" transform="translate(-9137.25 -7931.48)"/><path class="cls-1" d="M9225.87,8012.8v-4.46a0.48,0.48,0,0,0-.56-0.54,5.46,5.46,0,0,0-2,.59v4.41h-1V8007h0.82l0.1,0.5a6.35,6.35,0,0,1,2.35-.62,1.23,1.23,0,0,1,1.27,1.49v4.47h-1Z" transform="translate(-9137.25 -7931.48)"/><path class="cls-1" d="M9231,8012.06a7.41,7.41,0,0,0,1.85-.28l0.13,0.8a6.35,6.35,0,0,1-2.06.34c-1.73,0-2.32-.83-2.32-2.15V8009a2,2,0,0,1,2.29-2.18,1.94,1.94,0,0,1,2.2,2.21v1.22h-3.48v0.49C9229.56,8011.69,9229.82,8012.06,9231,8012.06Zm-1.39-2.63h2.51V8009a1.07,1.07,0,0,0-1.22-1.27,1.11,1.11,0,0,0-1.28,1.27v0.48Z" transform="translate(-9137.25 -7931.48)"/><path class="cls-1" d="M9234.39,8010.8V8009c0-1.34.5-2.12,2.33-2.12a5.31,5.31,0,0,1,1.39.18l-0.08.84a6.15,6.15,0,0,0-1.28-.13c-1,0-1.34.29-1.34,1.2v1.91c0,0.91.34,1.2,1.34,1.2a6.15,6.15,0,0,0,1.28-.13l0.1,0.84a5.37,5.37,0,0,1-1.4.18C9234.84,8012.92,9234.39,8012.14,9234.39,8010.8Z" transform="translate(-9137.25 -7931.48)"/><path class="cls-1" d="M9242.82,8012.71a3.64,3.64,0,0,1-1.22.22,1.19,1.19,0,0,1-1.45-1.33v-3.79h-1V8007h1v-1.44l1-.14V8007h1.66l-0.08.84h-1.57v3.62c0,0.43.06,0.65,0.6,0.65a3.72,3.72,0,0,0,.94-0.14Z" transform="translate(-9137.25 -7931.48)"/><path class="cls-1" d="M9244.32,8006v-1.45h1V8006h-1Zm0,6.78V8007h1v5.84h-1Z" transform="translate(-9137.25 -7931.48)"/><path class="cls-1" d="M9249.45,8012.92a2.07,2.07,0,0,1-2.37-2.19V8009a2.38,2.38,0,0,1,4.75,0v1.69A2.07,2.07,0,0,1,9249.45,8012.92Zm0-5.21a1.17,1.17,0,0,0-1.37,1.28v1.76a1.37,1.37,0,0,0,2.73,0V8009A1.17,1.17,0,0,0,9249.45,8007.72Z" transform="translate(-9137.25 -7931.48)"/><path class="cls-1" d="M9257.09,8012.8v-4.46a0.48,0.48,0,0,0-.56-0.54,5.46,5.46,0,0,0-2,.59v4.41h-1V8007h0.82l0.1,0.5a6.35,6.35,0,0,1,2.35-.62,1.23,1.23,0,0,1,1.27,1.49v4.47h-1Z" transform="translate(-9137.25 -7931.48)"/><path class="cls-1" d="M9261.7,8012.92a6,6,0,0,1-1.86-.31l0.13-.79a6.68,6.68,0,0,0,1.67.24c0.92,0,1.08-.17,1.08-0.79s0-.7-1.22-1c-1.45-.36-1.58-0.66-1.58-1.87s0.48-1.57,2-1.57a6.6,6.6,0,0,1,1.66.2l-0.07.83a9.42,9.42,0,0,0-1.62-.17c-0.86,0-1,.2-1,0.73s0,0.77,1,1c1.68,0.42,1.81.62,1.81,1.79S9263.37,8012.92,9261.7,8012.92Z" transform="translate(-9137.25 -7931.48)"/><path class="cls-1" d="M9268,8008.75a1.68,1.68,0,0,1,1.9-1.91,9.36,9.36,0,0,1,1.67.18v-2.45l1-.14v8.37h-0.85l-0.08-.53a3.12,3.12,0,0,1-1.93.65,1.54,1.54,0,0,1-1.7-1.79v-2.39Zm3.56-.84a9.34,9.34,0,0,0-1.61-.18,0.85,0.85,0,0,0-.95,1v2.39a0.76,0.76,0,0,0,.9.9,2.7,2.7,0,0,0,1.66-.7v-3.43Z" transform="translate(-9137.25 -7931.48)"/><path class="cls-1" d="M9277.24,8007.77a12.76,12.76,0,0,0-1.67,1v4h-1V8007h0.88l0.06,0.82a7.49,7.49,0,0,1,1.61-.94Z" transform="translate(-9137.25 -7931.48)"/><path class="cls-1" d="M9278.38,8006v-1.45h1V8006h-1Zm0,6.78V8007h1v5.84h-1Z" transform="translate(-9137.25 -7931.48)"/><path class="cls-1" d="M9284.77,8007h1l-1.93,5.84h-1.34l-1.93-5.84h1l1.61,5Z" transform="translate(-9137.25 -7931.48)"/><path class="cls-1" d="M9289,8012.06a7.41,7.41,0,0,0,1.85-.28l0.13,0.8a6.35,6.35,0,0,1-2.06.34c-1.73,0-2.32-.83-2.32-2.15V8009a2,2,0,0,1,2.29-2.18,1.94,1.94,0,0,1,2.2,2.21v1.22h-3.48v0.49C9287.66,8011.69,9287.91,8012.06,9289,8012.06Zm-1.39-2.63h2.51V8009a1.07,1.07,0,0,0-1.22-1.27,1.11,1.11,0,0,0-1.28,1.27v0.48Z" transform="translate(-9137.25 -7931.48)"/><path class="cls-1" d="M9300.11,8010.74c0,1.33-.48,2.18-2.48,2.18a10.49,10.49,0,0,1-2.09-.23v-8.12l1-.14v2.82a4.2,4.2,0,0,1,1.85-.41,1.58,1.58,0,0,1,1.72,1.82v2.08Zm-3.56,1.21a7.7,7.7,0,0,0,1.15.08c1.19,0,1.4-.48,1.4-1.26v-2.15a0.8,0.8,0,0,0-.95-0.9,4.3,4.3,0,0,0-1.61.44V8012Z" transform="translate(-9137.25 -7931.48)"/><path class="cls-1" d="M9304,8012.06a7.41,7.41,0,0,0,1.85-.28l0.13,0.8a6.35,6.35,0,0,1-2.06.34c-1.73,0-2.32-.83-2.32-2.15V8009a2,2,0,0,1,2.29-2.18,1.94,1.94,0,0,1,2.2,2.21v1.22h-3.48v0.49C9302.59,8011.69,9302.85,8012.06,9304,8012.06Zm-1.39-2.63h2.51V8009a1.07,1.07,0,0,0-1.22-1.27,1.11,1.11,0,0,0-1.28,1.27v0.48Z" transform="translate(-9137.25 -7931.48)"/><path class="cls-1" d="M9310.83,8012.71a3.64,3.64,0,0,1-1.22.22,1.19,1.19,0,0,1-1.45-1.33v-3.79h-1V8007h1v-1.44l1-.14V8007h1.66l-0.08.84h-1.57v3.62c0,0.43.06,0.65,0.6,0.65a3.72,3.72,0,0,0,.94-0.14Z" transform="translate(-9137.25 -7931.48)"/><path class="cls-1" d="M9315.37,8012.71a3.64,3.64,0,0,1-1.22.22,1.19,1.19,0,0,1-1.45-1.33v-3.79h-1V8007h1v-1.44l1-.14V8007h1.66l-0.08.84h-1.57v3.62c0,0.43.06,0.65,0.6,0.65a3.72,3.72,0,0,0,.94-0.14Z" transform="translate(-9137.25 -7931.48)"/><path class="cls-1" d="M9319,8012.06a7.41,7.41,0,0,0,1.85-.28l0.13,0.8a6.35,6.35,0,0,1-2.06.34c-1.73,0-2.32-.83-2.32-2.15V8009a2,2,0,0,1,2.29-2.18,1.94,1.94,0,0,1,2.2,2.21v1.22h-3.48v0.49C9317.58,8011.69,9317.83,8012.06,9319,8012.06Zm-1.39-2.63h2.51V8009a1.07,1.07,0,0,0-1.22-1.27,1.11,1.11,0,0,0-1.28,1.27v0.48Z" transform="translate(-9137.25 -7931.48)"/><path class="cls-1" d="M9325.44,8007.77a12.76,12.76,0,0,0-1.67,1v4h-1V8007h0.88l0.06,0.82a7.49,7.49,0,0,1,1.61-.94Z" transform="translate(-9137.25 -7931.48)"/><path class="cls-1" d="M9331.38,8012.06a7.41,7.41,0,0,0,1.85-.28l0.13,0.8a6.35,6.35,0,0,1-2.06.34c-1.73,0-2.32-.83-2.32-2.15V8009a2,2,0,0,1,2.29-2.18,1.94,1.94,0,0,1,2.2,2.21v1.22H9330v0.49C9330,8011.69,9330.24,8012.06,9331.38,8012.06Zm-1.39-2.63h2.51V8009a1.07,1.07,0,0,0-1.22-1.27A1.11,1.11,0,0,0,9330,8009v0.48Z" transform="translate(-9137.25 -7931.48)"/><path class="cls-1" d="M9342.23,8012.8v-4.46a0.48,0.48,0,0,0-.56-0.54,5.19,5.19,0,0,0-2,.59v4.41h-1v-4.46a0.48,0.48,0,0,0-.56-0.54,5.46,5.46,0,0,0-2,.59v4.41h-1V8007H9336l0.1,0.5a6.35,6.35,0,0,1,2.35-.62,1.07,1.07,0,0,1,1.12.62,6.25,6.25,0,0,1,2.41-.62,1.23,1.23,0,0,1,1.27,1.49v4.47h-1Z" transform="translate(-9137.25 -7931.48)"/><path class="cls-1" d="M9347.29,8012.92a2.07,2.07,0,0,1-2.37-2.19V8009a2.38,2.38,0,0,1,4.75,0v1.69A2.07,2.07,0,0,1,9347.29,8012.92Zm0-5.21a1.17,1.17,0,0,0-1.37,1.28v1.76a1.37,1.37,0,0,0,2.73,0V8009A1.17,1.17,0,0,0,9347.29,8007.72Z" transform="translate(-9137.25 -7931.48)"/><path class="cls-1" d="M9354.46,8012.71a3.64,3.64,0,0,1-1.22.22,1.19,1.19,0,0,1-1.45-1.33v-3.79h-1V8007h1v-1.44l1-.14V8007h1.66l-0.08.84h-1.57v3.62c0,0.43.06,0.65,0.6,0.65a3.72,3.72,0,0,0,.94-0.14Z" transform="translate(-9137.25 -7931.48)"/><path class="cls-1" d="M9356,8006v-1.45h1V8006h-1Zm0,6.78V8007h1v5.84h-1Z" transform="translate(-9137.25 -7931.48)"/><path class="cls-1" d="M9361.08,8012.92a2.07,2.07,0,0,1-2.37-2.19V8009a2.38,2.38,0,0,1,4.75,0v1.69A2.07,2.07,0,0,1,9361.08,8012.92Zm0-5.21a1.17,1.17,0,0,0-1.37,1.28v1.76a1.37,1.37,0,0,0,2.73,0V8009A1.17,1.17,0,0,0,9361.08,8007.72Z" transform="translate(-9137.25 -7931.48)"/><path class="cls-1" d="M9368.72,8012.8v-4.46a0.48,0.48,0,0,0-.56-0.54,5.46,5.46,0,0,0-2,.59v4.41h-1V8007H9366l0.1,0.5a6.35,6.35,0,0,1,2.35-.62,1.23,1.23,0,0,1,1.27,1.49v4.47h-1Z" transform="translate(-9137.25 -7931.48)"/><path class="cls-1" d="M9375.85,8012.8H9375l-0.06-.43a3.33,3.33,0,0,1-1.89.55,1.44,1.44,0,0,1-1.55-1.68c0-1.21.61-1.64,1.79-1.64h1.56v-0.91c0-.73-0.32-1-1.27-1a9.6,9.6,0,0,0-1.75.19l-0.11-.8a8.26,8.26,0,0,1,1.92-.25c1.67,0,2.22.65,2.22,1.89v4.07Zm-1-2.36h-1.49a0.68,0.68,0,0,0-.85.78c0,0.6.11,0.84,0.83,0.84a2.92,2.92,0,0,0,1.51-.48v-1.14Z" transform="translate(-9137.25 -7931.48)"/><path class="cls-1" d="M9377.75,8012.8v-8.23l1-.14v8.37h-1Z" transform="translate(-9137.25 -7931.48)"/><path class="cls-1" d="M9385.6,8012.06a7.41,7.41,0,0,0,1.85-.28l0.13,0.8a6.35,6.35,0,0,1-2.06.34c-1.73,0-2.32-.83-2.32-2.15V8009a2,2,0,0,1,2.29-2.18,1.94,1.94,0,0,1,2.2,2.21v1.22h-3.48v0.49C9384.2,8011.69,9384.46,8012.06,9385.6,8012.06Zm-1.39-2.63h2.51V8009a1.07,1.07,0,0,0-1.22-1.27,1.11,1.11,0,0,0-1.28,1.27v0.48Z" transform="translate(-9137.25 -7931.48)"/><path class="cls-1" d="M9388.68,8012.8l1.92-2.94-1.88-2.9h1l1.39,2.15,1.39-2.15h1l-1.89,2.9,1.93,2.94h-1.06l-1.42-2.17-1.4,2.17h-1.07Z" transform="translate(-9137.25 -7931.48)"/><path class="cls-1" d="M9399.49,8011a1.68,1.68,0,0,1-1.9,1.91,9.27,9.27,0,0,1-1.67-.18v2.42l-1,.14V8007h0.85l0.08,0.53a3.11,3.11,0,0,1,1.93-.65,1.54,1.54,0,0,1,1.7,1.79V8011Zm-3.56.84a9.44,9.44,0,0,0,1.61.18,0.85,0.85,0,0,0,.95-1v-2.39a0.76,0.76,0,0,0-.9-0.9,2.69,2.69,0,0,0-1.66.7v3.43Z" transform="translate(-9137.25 -7931.48)"/><path class="cls-1" d="M9403.42,8012.06a7.41,7.41,0,0,0,1.85-.28l0.13,0.8a6.35,6.35,0,0,1-2.06.34c-1.73,0-2.32-.83-2.32-2.15V8009a2,2,0,0,1,2.29-2.18,1.94,1.94,0,0,1,2.2,2.21v1.22H9402v0.49C9402,8011.69,9402.28,8012.06,9403.42,8012.06Zm-1.39-2.63h2.51V8009a1.07,1.07,0,0,0-1.22-1.27A1.11,1.11,0,0,0,9402,8009v0.48Z" transform="translate(-9137.25 -7931.48)"/><path class="cls-1" d="M9409.88,8007.77a12.76,12.76,0,0,0-1.67,1v4h-1V8007h0.88l0.06,0.82a7.49,7.49,0,0,1,1.61-.94Z" transform="translate(-9137.25 -7931.48)"/><path class="cls-1" d="M9411,8006v-1.45h1V8006h-1Zm0,6.78V8007h1v5.84h-1Z" transform="translate(-9137.25 -7931.48)"/><path class="cls-1" d="M9416.17,8012.06a7.41,7.41,0,0,0,1.85-.28l0.13,0.8a6.35,6.35,0,0,1-2.06.34c-1.73,0-2.32-.83-2.32-2.15V8009a2,2,0,0,1,2.29-2.18,1.94,1.94,0,0,1,2.2,2.21v1.22h-3.48v0.49C9414.78,8011.69,9415,8012.06,9416.17,8012.06Zm-1.39-2.63h2.51V8009a1.07,1.07,0,0,0-1.22-1.27,1.11,1.11,0,0,0-1.28,1.27v0.48Z" transform="translate(-9137.25 -7931.48)"/><path class="cls-1" d="M9423.49,8012.8v-4.46a0.48,0.48,0,0,0-.56-0.54,5.46,5.46,0,0,0-2,.59v4.41h-1V8007h0.82l0.1,0.5a6.35,6.35,0,0,1,2.35-.62,1.23,1.23,0,0,1,1.27,1.49v4.47h-1Z" transform="translate(-9137.25 -7931.48)"/><path class="cls-1" d="M9426.12,8010.8V8009c0-1.34.5-2.12,2.33-2.12a5.31,5.31,0,0,1,1.39.18l-0.08.84a6.15,6.15,0,0,0-1.28-.13c-1,0-1.34.29-1.34,1.2v1.91c0,0.91.34,1.2,1.34,1.2a6.15,6.15,0,0,0,1.28-.13l0.1,0.84a5.37,5.37,0,0,1-1.4.18C9426.57,8012.92,9426.12,8012.14,9426.12,8010.8Z" transform="translate(-9137.25 -7931.48)"/><path class="cls-1" d="M9433.57,8012.06a7.41,7.41,0,0,0,1.85-.28l0.13,0.8a6.35,6.35,0,0,1-2.06.34c-1.73,0-2.32-.83-2.32-2.15V8009a2,2,0,0,1,2.29-2.18,1.94,1.94,0,0,1,2.2,2.21v1.22h-3.48v0.49C9432.18,8011.69,9432.43,8012.06,9433.57,8012.06Zm-1.39-2.63h2.51V8009a1.07,1.07,0,0,0-1.22-1.27,1.11,1.11,0,0,0-1.28,1.27v0.48Z" transform="translate(-9137.25 -7931.48)"/><path class="cls-1" d="M9439,8012.92a6,6,0,0,1-1.86-.31l0.13-.79a6.68,6.68,0,0,0,1.67.24c0.92,0,1.08-.17,1.08-0.79s0-.7-1.22-1c-1.45-.36-1.58-0.66-1.58-1.87s0.48-1.57,2-1.57a6.6,6.6,0,0,1,1.66.2l-0.07.83a9.42,9.42,0,0,0-1.62-.17c-0.86,0-1,.2-1,0.73s0,0.77,1,1c1.68,0.42,1.81.62,1.81,1.79S9440.65,8012.92,9439,8012.92Z" transform="translate(-9137.25 -7931.48)"/><path class="cls-1" d="M9448.64,8005.29a5.94,5.94,0,0,0-1-.11,0.65,0.65,0,0,0-.78.8v1h1.67l-0.08.84h-1.58v5h-1v-5h-1V8007h1v-1.08a1.43,1.43,0,0,1,1.65-1.55,4.08,4.08,0,0,1,1.19.17Z" transform="translate(-9137.25 -7931.48)"/><path class="cls-1" d="M9451.76,8012.92a2.07,2.07,0,0,1-2.37-2.19V8009a2.38,2.38,0,0,1,4.75,0v1.69A2.07,2.07,0,0,1,9451.76,8012.92Zm0-5.21a1.17,1.17,0,0,0-1.37,1.28v1.76a1.37,1.37,0,0,0,2.73,0V8009A1.17,1.17,0,0,0,9451.76,8007.72Z" transform="translate(-9137.25 -7931.48)"/><path class="cls-1" d="M9458.55,8007.77a12.76,12.76,0,0,0-1.67,1v4h-1V8007h0.88l0.06,0.82a7.49,7.49,0,0,1,1.61-.94Z" transform="translate(-9137.25 -7931.48)"/><path class="cls-1" d="M9462,8010.8V8009c0-1.34.5-2.12,2.33-2.12a5.31,5.31,0,0,1,1.39.18l-0.08.84a6.15,6.15,0,0,0-1.28-.13c-1,0-1.34.29-1.34,1.2v1.91c0,0.91.34,1.2,1.34,1.2a6.15,6.15,0,0,0,1.28-.13l0.1,0.84a5.37,5.37,0,0,1-1.4.18C9462.49,8012.92,9462,8012.14,9462,8010.8Z" transform="translate(-9137.25 -7931.48)"/><path class="cls-1" d="M9468.37,8007v4.46a0.48,0.48,0,0,0,.56.54,5.44,5.44,0,0,0,2-.59V8007h1v5.84h-0.82l-0.1-.5a6.33,6.33,0,0,1-2.35.62,1.23,1.23,0,0,1-1.27-1.49V8007h1Z" transform="translate(-9137.25 -7931.48)"/><path class="cls-1" d="M9475.56,8012.92a6,6,0,0,1-1.86-.31l0.13-.79a6.68,6.68,0,0,0,1.67.24c0.92,0,1.08-.17,1.08-0.79s0-.7-1.22-1c-1.45-.36-1.58-0.66-1.58-1.87s0.48-1.57,2-1.57a6.6,6.6,0,0,1,1.66.2l-0.07.83a9.42,9.42,0,0,0-1.62-.17c-0.86,0-1,.2-1,0.73s0,0.77,1,1c1.68,0.42,1.81.62,1.81,1.79S9477.23,8012.92,9475.56,8012.92Z" transform="translate(-9137.25 -7931.48)"/><path class="cls-1" d="M9482.37,8012.71a3.64,3.64,0,0,1-1.22.22,1.19,1.19,0,0,1-1.45-1.33v-3.79h-1V8007h1v-1.44l1-.14V8007h1.66l-0.08.84h-1.57v3.62c0,0.43.06,0.65,0.6,0.65a3.72,3.72,0,0,0,.94-0.14Z" transform="translate(-9137.25 -7931.48)"/><path class="cls-1" d="M9485.92,8012.92a2.07,2.07,0,0,1-2.37-2.19V8009a2.38,2.38,0,0,1,4.75,0v1.69A2.07,2.07,0,0,1,9485.92,8012.92Zm0-5.21a1.17,1.17,0,0,0-1.37,1.28v1.76a1.37,1.37,0,0,0,2.73,0V8009A1.17,1.17,0,0,0,9485.92,8007.72Z" transform="translate(-9137.25 -7931.48)"/><path class="cls-1" d="M9497.09,8012.8v-4.46a0.48,0.48,0,0,0-.56-0.54,5.19,5.19,0,0,0-2,.59v4.41h-1v-4.46a0.48,0.48,0,0,0-.56-0.54,5.46,5.46,0,0,0-2,.59v4.41h-1V8007h0.82l0.1,0.5a6.35,6.35,0,0,1,2.35-.62,1.07,1.07,0,0,1,1.12.62,6.25,6.25,0,0,1,2.41-.62,1.23,1.23,0,0,1,1.27,1.49v4.47h-1Z" transform="translate(-9137.25 -7931.48)"/><path class="cls-1" d="M9502.19,8012.06a7.41,7.41,0,0,0,1.85-.28l0.13,0.8a6.35,6.35,0,0,1-2.06.34c-1.73,0-2.32-.83-2.32-2.15V8009a2,2,0,0,1,2.29-2.18,1.94,1.94,0,0,1,2.2,2.21v1.22h-3.48v0.49C9500.79,8011.69,9501,8012.06,9502.19,8012.06Zm-1.39-2.63h2.51V8009a1.07,1.07,0,0,0-1.22-1.27,1.11,1.11,0,0,0-1.28,1.27v0.48Z" transform="translate(-9137.25 -7931.48)"/><path class="cls-1" d="M9508.65,8007.77a12.76,12.76,0,0,0-1.67,1v4h-1V8007h0.88l0.06,0.82a7.49,7.49,0,0,1,1.61-.94Z" transform="translate(-9137.25 -7931.48)"/><path class="cls-1" d="M9511.41,8012.92a6,6,0,0,1-1.86-.31l0.13-.79a6.68,6.68,0,0,0,1.67.24c0.92,0,1.08-.17,1.08-0.79s0-.7-1.22-1c-1.45-.36-1.58-0.66-1.58-1.87s0.48-1.57,2-1.57a6.6,6.6,0,0,1,1.66.2l-0.07.83a9.42,9.42,0,0,0-1.62-.17c-0.86,0-1,.2-1,0.73s0,0.77,1,1c1.68,0.42,1.81.62,1.81,1.79S9513.08,8012.92,9511.41,8012.92Z" transform="translate(-9137.25 -7931.48)"/><path class="cls-1" d="M9515.22,8011.43h1v1.38l-0.72,1.44-0.47-.23,0.5-1.21h-0.35v-1.38Z" transform="translate(-9137.25 -7931.48)"/><path class="cls-1" d="M9141.61,8031.8h-0.85l-0.06-.43a3.33,3.33,0,0,1-1.89.55,1.44,1.44,0,0,1-1.55-1.68c0-1.21.61-1.64,1.79-1.64h1.56v-0.91c0-.73-0.32-1-1.27-1a9.6,9.6,0,0,0-1.75.19l-0.11-.8a8.25,8.25,0,0,1,1.92-.25c1.67,0,2.22.65,2.22,1.89v4.07Zm-1-2.36h-1.49a0.68,0.68,0,0,0-.85.78c0,0.6.11,0.84,0.83,0.84a2.93,2.93,0,0,0,1.51-.48v-1.14Z" transform="translate(-9137.25 -7931.48)"/><path class="cls-1" d="M9147,8031.8v-4.46a0.48,0.48,0,0,0-.56-0.54,5.46,5.46,0,0,0-2,.59v4.41h-1V8026h0.82l0.1,0.5a6.35,6.35,0,0,1,2.35-.62,1.23,1.23,0,0,1,1.27,1.49v4.47h-1Z" transform="translate(-9137.25 -7931.48)"/><path class="cls-1" d="M9149.8,8027.75a1.68,1.68,0,0,1,1.9-1.91,9.36,9.36,0,0,1,1.67.18v-2.45l1-.14v8.37h-0.85l-0.08-.53a3.12,3.12,0,0,1-1.93.65,1.54,1.54,0,0,1-1.7-1.79v-2.39Zm3.56-.84a9.34,9.34,0,0,0-1.61-.18,0.85,0.85,0,0,0-.95,1v2.39a0.76,0.76,0,0,0,.9.9,2.7,2.7,0,0,0,1.66-.7v-3.43Z" transform="translate(-9137.25 -7931.48)"/><path class="cls-1" d="M9161.22,8031.06a7.41,7.41,0,0,0,1.85-.28l0.13,0.8a6.35,6.35,0,0,1-2.06.34c-1.73,0-2.32-.83-2.32-2.15V8028a2,2,0,0,1,2.29-2.18,1.94,1.94,0,0,1,2.2,2.21v1.22h-3.48v0.49C9159.82,8030.69,9160.08,8031.06,9161.22,8031.06Zm-1.39-2.63h2.51V8028a1.07,1.07,0,0,0-1.22-1.27,1.11,1.11,0,0,0-1.28,1.27v0.48Z" transform="translate(-9137.25 -7931.48)"/><path class="cls-1" d="M9172.06,8031.8v-4.46a0.48,0.48,0,0,0-.56-0.54,5.19,5.19,0,0,0-2,.59v4.41h-1v-4.46a0.48,0.48,0,0,0-.56-0.54,5.46,5.46,0,0,0-2,.59v4.41h-1V8026h0.82l0.1,0.5a6.35,6.35,0,0,1,2.35-.62,1.07,1.07,0,0,1,1.12.62,6.25,6.25,0,0,1,2.41-.62,1.23,1.23,0,0,1,1.27,1.49v4.47h-1Z" transform="translate(-9137.25 -7931.48)"/><path class="cls-1" d="M9177.13,8031.92a2.07,2.07,0,0,1-2.37-2.19V8028a2.38,2.38,0,0,1,4.75,0v1.69A2.07,2.07,0,0,1,9177.13,8031.92Zm0-5.21a1.17,1.17,0,0,0-1.37,1.28v1.76a1.37,1.37,0,0,0,2.73,0V8028A1.17,1.17,0,0,0,9177.13,8026.72Z" transform="translate(-9137.25 -7931.48)"/><path class="cls-1" d="M9184.29,8031.71a3.64,3.64,0,0,1-1.22.22,1.19,1.19,0,0,1-1.45-1.33v-3.79h-1V8026h1v-1.44l1-.14V8026h1.66l-0.08.84h-1.57v3.62c0,0.43.06,0.65,0.6,0.65a3.72,3.72,0,0,0,.94-0.14Z" transform="translate(-9137.25 -7931.48)"/><path class="cls-1" d="M9185.79,8025v-1.45h1V8025h-1Zm0,6.78V8026h1v5.84h-1Z" transform="translate(-9137.25 -7931.48)"/><path class="cls-1" d="M9190.91,8031.92a2.07,2.07,0,0,1-2.37-2.19V8028a2.38,2.38,0,0,1,4.75,0v1.69A2.07,2.07,0,0,1,9190.91,8031.92Zm0-5.21a1.17,1.17,0,0,0-1.37,1.28v1.76a1.37,1.37,0,0,0,2.73,0V8028A1.17,1.17,0,0,0,9190.91,8026.72Z" transform="translate(-9137.25 -7931.48)"/><path class="cls-1" d="M9198.56,8031.8v-4.46a0.48,0.48,0,0,0-.56-0.54,5.46,5.46,0,0,0-2,.59v4.41h-1V8026h0.82l0.1,0.5a6.35,6.35,0,0,1,2.35-.62,1.23,1.23,0,0,1,1.27,1.49v4.47h-1Z" transform="translate(-9137.25 -7931.48)"/><path class="cls-1" d="M9204,8027.75a1.68,1.68,0,0,1,1.9-1.91,9.36,9.36,0,0,1,1.67.18v-2.45l1-.14v8.37h-0.85l-0.08-.53a3.12,3.12,0,0,1-1.93.65,1.54,1.54,0,0,1-1.7-1.79v-2.39Zm3.56-.84a9.34,9.34,0,0,0-1.61-.18,0.85,0.85,0,0,0-.95,1v2.39a0.76,0.76,0,0,0,.9.9,2.7,2.7,0,0,0,1.66-.7v-3.43Z" transform="translate(-9137.25 -7931.48)"/><path class="cls-1" d="M9213.32,8026.77a12.76,12.76,0,0,0-1.67,1v4h-1V8026h0.88l0.06,0.82a7.49,7.49,0,0,1,1.61-.94Z" transform="translate(-9137.25 -7931.48)"/><path class="cls-1" d="M9214.46,8025v-1.45h1V8025h-1Zm0,6.78V8026h1v5.84h-1Z" transform="translate(-9137.25 -7931.48)"/><path class="cls-1" d="M9220.85,8026h1l-1.93,5.84h-1.34l-1.93-5.84h1l1.61,5Z" transform="translate(-9137.25 -7931.48)"/><path class="cls-1" d="M9225.13,8031.06a7.41,7.41,0,0,0,1.85-.28l0.13,0.8a6.35,6.35,0,0,1-2.06.34c-1.73,0-2.32-.83-2.32-2.15V8028a2,2,0,0,1,2.29-2.18,1.94,1.94,0,0,1,2.2,2.21v1.22h-3.48v0.49C9223.74,8030.69,9224,8031.06,9225.13,8031.06Zm-1.39-2.63h2.51V8028a1.07,1.07,0,0,0-1.22-1.27,1.11,1.11,0,0,0-1.28,1.27v0.48Z" transform="translate(-9137.25 -7931.48)"/><path class="cls-1" d="M9230.54,8031.92a6,6,0,0,1-1.86-.31l0.13-.79a6.68,6.68,0,0,0,1.67.24c0.92,0,1.08-.17,1.08-0.79s0-.7-1.22-1c-1.45-.36-1.58-0.66-1.58-1.87s0.48-1.57,2-1.57a6.6,6.6,0,0,1,1.66.2l-0.07.83a9.42,9.42,0,0,0-1.62-.17c-0.86,0-1,.2-1,0.73s0,0.77,1,1c1.68,0.42,1.81.62,1.81,1.79S9232.21,8031.92,9230.54,8031.92Z" transform="translate(-9137.25 -7931.48)"/><path class="cls-1" d="M9237,8031.8v-8.23l1-.14v8.37h-1Z" transform="translate(-9137.25 -7931.48)"/><path class="cls-1" d="M9242.13,8031.92a2.07,2.07,0,0,1-2.37-2.19V8028a2.38,2.38,0,0,1,4.75,0v1.69A2.07,2.07,0,0,1,9242.13,8031.92Zm0-5.21a1.17,1.17,0,0,0-1.37,1.28v1.76a1.37,1.37,0,0,0,2.73,0V8028A1.17,1.17,0,0,0,9242.13,8026.72Z" transform="translate(-9137.25 -7931.48)"/><path class="cls-1" d="M9247.7,8031.8h-0.42l-1.9-5.84h1l1.59,5,1.62-5h1l-1.93,5.84-0.83,2.36h-0.95Z" transform="translate(-9137.25 -7931.48)"/><path class="cls-1" d="M9255.79,8031.8h-0.85l-0.06-.43a3.33,3.33,0,0,1-1.89.55,1.44,1.44,0,0,1-1.55-1.68c0-1.21.61-1.64,1.79-1.64h1.56v-0.91c0-.73-0.32-1-1.27-1a9.6,9.6,0,0,0-1.75.19l-0.11-.8a8.26,8.26,0,0,1,1.92-.25c1.67,0,2.22.65,2.22,1.89v4.07Zm-1-2.36h-1.49a0.68,0.68,0,0,0-.85.78c0,0.6.11,0.84,0.83,0.84a2.92,2.92,0,0,0,1.51-.48v-1.14Z" transform="translate(-9137.25 -7931.48)"/><path class="cls-1" d="M9257.68,8031.8v-8.23l1-.14v8.37h-1Z" transform="translate(-9137.25 -7931.48)"/><path class="cls-1" d="M9263.78,8031.71a3.64,3.64,0,0,1-1.22.22,1.19,1.19,0,0,1-1.45-1.33v-3.79h-1V8026h1v-1.44l1-.14V8026h1.66l-0.08.84h-1.57v3.62c0,0.43.06,0.65,0.6,0.65a3.72,3.72,0,0,0,.94-0.14Z" transform="translate(-9137.25 -7931.48)"/><path class="cls-1" d="M9266.79,8031.8h-0.42l-1.9-5.84h1l1.59,5,1.62-5h1l-1.93,5.84-0.83,2.36H9266Z" transform="translate(-9137.25 -7931.48)"/><path class="cls-1" d="M9270.23,8030.43h1v1.38h-1v-1.38Z" transform="translate(-9137.25 -7931.48)"/><path class="cls-1" d="M9277.73,8024.74h-2.39v-0.92h5.8v0.92h-2.39v7.06h-1v-7.06Z" transform="translate(-9137.25 -7931.48)"/><path class="cls-1" d="M9286,8031.8v-4.46a0.48,0.48,0,0,0-.56-0.54,5.49,5.49,0,0,0-2,.6v4.4h-1v-8.23l1-.14v3a5.92,5.92,0,0,1,2.25-.61,1.23,1.23,0,0,1,1.27,1.49v4.47h-1Z" transform="translate(-9137.25 -7931.48)"/><path class="cls-1" d="M9293.13,8031.8h-0.85l-0.06-.43a3.33,3.33,0,0,1-1.89.55,1.44,1.44,0,0,1-1.55-1.68c0-1.21.61-1.64,1.79-1.64h1.56v-0.91c0-.73-0.32-1-1.27-1a9.6,9.6,0,0,0-1.75.19l-0.11-.8a8.25,8.25,0,0,1,1.92-.25c1.67,0,2.22.65,2.22,1.89v4.07Zm-1-2.36h-1.49a0.68,0.68,0,0,0-.85.78c0,0.6.11,0.84,0.83,0.84a2.93,2.93,0,0,0,1.51-.48v-1.14Z" transform="translate(-9137.25 -7931.48)"/><path class="cls-1" d="M9298.07,8031.71a3.64,3.64,0,0,1-1.22.22,1.19,1.19,0,0,1-1.45-1.33v-3.79h-1V8026h1v-1.44l1-.14V8026h1.66l-0.08.84h-1.57v3.62c0,0.43.06,0.65,0.6,0.65a3.72,3.72,0,0,0,.94-0.14Z" transform="translate(-9137.25 -7931.48)"/><path class="cls-1" d="M9309.33,8031.8v-4.46a0.48,0.48,0,0,0-.56-0.54,5.19,5.19,0,0,0-2,.59v4.41h-1v-4.46a0.48,0.48,0,0,0-.56-0.54,5.46,5.46,0,0,0-2,.59v4.41h-1V8026h0.82l0.1,0.5a6.35,6.35,0,0,1,2.35-.62,1.07,1.07,0,0,1,1.12.62,6.25,6.25,0,0,1,2.41-.62,1.23,1.23,0,0,1,1.27,1.49v4.47h-1Z" transform="translate(-9137.25 -7931.48)"/><path class="cls-1" d="M9316.46,8031.8h-0.85l-0.06-.43a3.33,3.33,0,0,1-1.89.55,1.44,1.44,0,0,1-1.55-1.68c0-1.21.61-1.64,1.79-1.64h1.56v-0.91c0-.73-0.32-1-1.27-1a9.6,9.6,0,0,0-1.75.19l-0.11-.8a8.25,8.25,0,0,1,1.92-.25c1.67,0,2.22.65,2.22,1.89v4.07Zm-1-2.36H9314a0.68,0.68,0,0,0-.85.78c0,0.6.11,0.84,0.83,0.84a2.93,2.93,0,0,0,1.51-.48v-1.14Z" transform="translate(-9137.25 -7931.48)"/><path class="cls-1" d="M9318.35,8031.8v-8.23l1-.14v8.37h-1Zm4.49-5.84-2.09,2.89,2.18,3h-1.19l-2.13-3,2.06-2.89h1.16Z" transform="translate(-9137.25 -7931.48)"/><path class="cls-1" d="M9326.29,8031.06a7.41,7.41,0,0,0,1.85-.28l0.13,0.8a6.35,6.35,0,0,1-2.06.34c-1.73,0-2.32-.83-2.32-2.15V8028a2,2,0,0,1,2.29-2.18,1.94,1.94,0,0,1,2.2,2.21v1.22h-3.48v0.49C9324.89,8030.69,9325.15,8031.06,9326.29,8031.06Zm-1.39-2.63h2.51V8028a1.07,1.07,0,0,0-1.22-1.27,1.11,1.11,0,0,0-1.28,1.27v0.48Z" transform="translate(-9137.25 -7931.48)"/><path class="cls-1" d="M9331.7,8031.92a6,6,0,0,1-1.86-.31l0.13-.79a6.68,6.68,0,0,0,1.67.24c0.92,0,1.08-.17,1.08-0.79s0-.7-1.22-1c-1.45-.36-1.58-0.66-1.58-1.87s0.48-1.57,2-1.57a6.6,6.6,0,0,1,1.66.2l-0.07.83a9.42,9.42,0,0,0-1.62-.17c-0.86,0-1,.2-1,0.73s0,0.77,1,1c1.68,0.42,1.81.62,1.81,1.79S9333.36,8031.92,9331.7,8031.92Z" transform="translate(-9137.25 -7931.48)"/><path class="cls-1" d="M9338.16,8025v-1.45h1V8025h-1Zm0,6.78V8026h1v5.84h-1Z" transform="translate(-9137.25 -7931.48)"/><path class="cls-1" d="M9344.26,8031.71a3.64,3.64,0,0,1-1.22.22,1.19,1.19,0,0,1-1.45-1.33v-3.79h-1V8026h1v-1.44l1-.14V8026h1.66l-0.08.84h-1.57v3.62c0,0.43.06,0.65,0.6,0.65a3.72,3.72,0,0,0,.94-0.14Z" transform="translate(-9137.25 -7931.48)"/><path class="cls-1" d="M9352.6,8031.8h-0.85l-0.06-.43a3.33,3.33,0,0,1-1.89.55,1.44,1.44,0,0,1-1.55-1.68c0-1.21.61-1.64,1.79-1.64h1.56v-0.91c0-.73-0.32-1-1.27-1a9.6,9.6,0,0,0-1.75.19l-0.11-.8a8.25,8.25,0,0,1,1.92-.25c1.67,0,2.22.65,2.22,1.89v4.07Zm-1-2.36h-1.49a0.68,0.68,0,0,0-.85.78c0,0.6.11,0.84,0.83,0.84a2.93,2.93,0,0,0,1.51-.48v-1.14Z" transform="translate(-9137.25 -7931.48)"/><path class="cls-1" d="M9358.61,8033.22v-1.32a6.24,6.24,0,0,1-1.78-.37l0.26-1.2a6.71,6.71,0,0,0,1.94.32c1,0,1.15-.24,1.15-1s-0.06-.89-1.28-1.18c-1.81-.43-2-0.86-2-2.37a1.84,1.84,0,0,1,2-2.15v-1.34h1.21V8024a8,8,0,0,1,1.42.2l-0.16,1.26a10.77,10.77,0,0,0-2-.2c-0.83,0-1.07.13-1.07,0.92s0,0.79,1.19,1.1c2.05,0.58,2.12,1,2.12,2.4s-0.41,2.09-1.85,2.24v1.33h-1.2Z" transform="translate(-9137.25 -7931.48)"/><path class="cls-1" d="M9364.61,8027.4a4.47,4.47,0,0,1,1.43-.22c1.45,0,2,.6,2,2v0.58c0,1.25-.58,2.18-2.46,2.18-2.06,0-2.47-.91-2.47-2.29v-2.91c0-2.11,1.13-2.78,3.31-2.78a7,7,0,0,1,1.38.14l-0.1,1.22a6.81,6.81,0,0,0-1.13-.11c-1.42,0-2,.24-2,1.46v0.74Zm0,1.29v1.09c0,0.66.25,0.88,1,.88s1-.26,1-0.88v-0.59a0.67,0.67,0,0,0-.8-0.76A3.15,3.15,0,0,0,9364.61,8028.7Z" transform="translate(-9137.25 -7931.48)"/><path class="cls-1" d="M9375.45,8031.7a4.1,4.1,0,0,1-1.28.23,1.39,1.39,0,0,1-1.61-1.55v-3.25h-0.88V8026h0.88v-1.45l1.46-.2V8026h1.5l-0.1,1.16H9374v3.06a0.46,0.46,0,0,0,.53.52,2.84,2.84,0,0,0,.73-0.12Z" transform="translate(-9137.25 -7931.48)"/><path class="cls-1" d="M9379.73,8027.19a11.44,11.44,0,0,0-1.55.85v3.77h-1.46V8026H9378l0.1,0.65a6.56,6.56,0,0,1,1.54-.77Z" transform="translate(-9137.25 -7931.48)"/><path class="cls-1" d="M9380.84,8025.14v-1.69h1.46v1.69h-1.46Zm0,6.67V8026h1.46v5.84h-1.46Z" transform="translate(-9137.25 -7931.48)"/><path class="cls-1" d="M9384.1,8031.8v-8.23l1.46-.2v8.43h-1.46Z" transform="translate(-9137.25 -7931.48)"/><path class="cls-1" d="M9387.36,8031.8v-8.23l1.46-.2v8.43h-1.46Z" transform="translate(-9137.25 -7931.48)"/><path class="cls-1" d="M9390.63,8025.14v-1.69h1.46v1.69h-1.46Zm0,6.67V8026h1.46v5.84h-1.46Z" transform="translate(-9137.25 -7931.48)"/><path class="cls-1" d="M9396.17,8031.92c-2,0-2.54-1.1-2.54-2.3v-1.48c0-1.2.54-2.3,2.54-2.3s2.54,1.1,2.54,2.3v1.48C9398.71,8030.82,9398.17,8031.92,9396.17,8031.92Zm0-4.83a0.9,0.9,0,0,0-1.08,1v1.57a1.08,1.08,0,0,0,2.16,0v-1.57A0.9,0.9,0,0,0,9396.17,8027.09Z" transform="translate(-9137.25 -7931.48)"/><path class="cls-1" d="M9403.71,8031.8v-4.08a0.4,0.4,0,0,0-.47-0.47,4,4,0,0,0-1.52.49v4.05h-1.46V8026h1.12l0.14,0.49a5.86,5.86,0,0,1,2.34-.61c1,0,1.32.68,1.32,1.73v4.23h-1.46Z" transform="translate(-9137.25 -7931.48)"/><path class="cls-1" d="M9411.83,8031.06a7.41,7.41,0,0,0,1.85-.28l0.13,0.8a6.35,6.35,0,0,1-2.06.34c-1.73,0-2.32-.83-2.32-2.15V8028a2,2,0,0,1,2.29-2.18,1.94,1.94,0,0,1,2.2,2.21v1.22h-3.48v0.49C9410.44,8030.69,9410.69,8031.06,9411.83,8031.06Zm-1.39-2.63h2.51V8028a1.07,1.07,0,0,0-1.22-1.27,1.11,1.11,0,0,0-1.28,1.27v0.48Z" transform="translate(-9137.25 -7931.48)"/><path class="cls-1" d="M9419.15,8031.8v-4.46a0.48,0.48,0,0,0-.56-0.54,5.46,5.46,0,0,0-2,.59v4.41h-1V8026h0.82l0.1,0.5a6.35,6.35,0,0,1,2.35-.62,1.23,1.23,0,0,1,1.27,1.49v4.47h-1Z" transform="translate(-9137.25 -7931.48)"/><path class="cls-1" d="M9425.18,8031.71a3.64,3.64,0,0,1-1.22.22,1.19,1.19,0,0,1-1.45-1.33v-3.79h-1V8026h1v-1.44l1-.14V8026h1.66l-0.08.84h-1.57v3.62c0,0.43.06,0.65,0.6,0.65a3.72,3.72,0,0,0,.94-0.14Z" transform="translate(-9137.25 -7931.48)"/><path class="cls-1" d="M9428.79,8031.06a7.41,7.41,0,0,0,1.85-.28l0.13,0.8a6.35,6.35,0,0,1-2.06.34c-1.73,0-2.32-.83-2.32-2.15V8028a2,2,0,0,1,2.29-2.18,1.94,1.94,0,0,1,2.2,2.21v1.22h-3.48v0.49C9427.39,8030.69,9427.65,8031.06,9428.79,8031.06Zm-1.39-2.63h2.51V8028a1.07,1.07,0,0,0-1.22-1.27,1.11,1.11,0,0,0-1.28,1.27v0.48Z" transform="translate(-9137.25 -7931.48)"/><path class="cls-1" d="M9435.25,8026.77a12.76,12.76,0,0,0-1.67,1v4h-1V8026h0.88l0.06,0.82a7.49,7.49,0,0,1,1.61-.94Z" transform="translate(-9137.25 -7931.48)"/><path class="cls-1" d="M9441,8030a1.68,1.68,0,0,1-1.9,1.91,9.27,9.27,0,0,1-1.67-.18v2.42l-1,.14V8026h0.85l0.08,0.53a3.11,3.11,0,0,1,1.93-.65,1.54,1.54,0,0,1,1.7,1.79V8030Zm-3.56.84a9.44,9.44,0,0,0,1.61.18,0.85,0.85,0,0,0,.95-1v-2.39a0.76,0.76,0,0,0-.9-0.9,2.69,2.69,0,0,0-1.66.7v3.43Z" transform="translate(-9137.25 -7931.48)"/><path class="cls-1" d="M9445.46,8026.77a12.76,12.76,0,0,0-1.67,1v4h-1V8026h0.88l0.06,0.82a7.49,7.49,0,0,1,1.61-.94Z" transform="translate(-9137.25 -7931.48)"/><path class="cls-1" d="M9446.61,8025v-1.45h1V8025h-1Zm0,6.78V8026h1v5.84h-1Z" transform="translate(-9137.25 -7931.48)"/><path class="cls-1" d="M9451.27,8031.92a6,6,0,0,1-1.86-.31l0.13-.79a6.68,6.68,0,0,0,1.67.24c0.92,0,1.08-.17,1.08-0.79s0-.7-1.22-1c-1.45-.36-1.58-0.66-1.58-1.87s0.48-1.57,2-1.57a6.6,6.6,0,0,1,1.66.2l-0.07.83a9.42,9.42,0,0,0-1.62-.17c-0.86,0-1,.2-1,0.73s0,0.77,1,1c1.68,0.42,1.81.62,1.81,1.79S9452.94,8031.92,9451.27,8031.92Z" transform="translate(-9137.25 -7931.48)"/><path class="cls-1" d="M9457.14,8031.06a7.41,7.41,0,0,0,1.85-.28l0.13,0.8a6.35,6.35,0,0,1-2.06.34c-1.73,0-2.32-.83-2.32-2.15V8028a2,2,0,0,1,2.29-2.18,1.94,1.94,0,0,1,2.2,2.21v1.22h-3.48v0.49C9455.75,8030.69,9456,8031.06,9457.14,8031.06Zm-1.39-2.63h2.51V8028a1.07,1.07,0,0,0-1.22-1.27,1.11,1.11,0,0,0-1.28,1.27v0.48Z" transform="translate(-9137.25 -7931.48)"/><path class="cls-1" d="M9465.71,8031.92a2.07,2.07,0,0,1-2.37-2.19V8028a2.38,2.38,0,0,1,4.75,0v1.69A2.07,2.07,0,0,1,9465.71,8031.92Zm0-5.21a1.17,1.17,0,0,0-1.37,1.28v1.76a1.37,1.37,0,0,0,2.73,0V8028A1.17,1.17,0,0,0,9465.71,8026.72Z" transform="translate(-9137.25 -7931.48)"/><path class="cls-1" d="M9474.39,8030a1.68,1.68,0,0,1-1.9,1.91,9.27,9.27,0,0,1-1.67-.18v2.42l-1,.14V8026h0.85l0.08,0.53a3.11,3.11,0,0,1,1.93-.65,1.54,1.54,0,0,1,1.7,1.79V8030Zm-3.56.84a9.44,9.44,0,0,0,1.61.18,0.85,0.85,0,0,0,.95-1v-2.39a0.76,0.76,0,0,0-.9-0.9,2.69,2.69,0,0,0-1.66.7v3.43Z" transform="translate(-9137.25 -7931.48)"/><path class="cls-1" d="M9480.79,8030a1.68,1.68,0,0,1-1.9,1.91,9.27,9.27,0,0,1-1.67-.18v2.42l-1,.14V8026h0.85l0.08,0.53a3.11,3.11,0,0,1,1.93-.65,1.54,1.54,0,0,1,1.7,1.79V8030Zm-3.56.84a9.44,9.44,0,0,0,1.61.18,0.85,0.85,0,0,0,.95-1v-2.39a0.76,0.76,0,0,0-.9-0.9,2.69,2.69,0,0,0-1.66.7v3.43Z" transform="translate(-9137.25 -7931.48)"/><path class="cls-1" d="M9484.69,8031.92a2.07,2.07,0,0,1-2.37-2.19V8028a2.38,2.38,0,0,1,4.75,0v1.69A2.07,2.07,0,0,1,9484.69,8031.92Zm0-5.21a1.17,1.17,0,0,0-1.37,1.28v1.76a1.37,1.37,0,0,0,2.73,0V8028A1.17,1.17,0,0,0,9484.69,8026.72Z" transform="translate(-9137.25 -7931.48)"/><path class="cls-1" d="M9491.48,8026.77a12.76,12.76,0,0,0-1.67,1v4h-1V8026h0.88l0.06,0.82a7.49,7.49,0,0,1,1.61-.94Z" transform="translate(-9137.25 -7931.48)"/><path class="cls-1" d="M9495.77,8031.71a3.64,3.64,0,0,1-1.22.22,1.19,1.19,0,0,1-1.45-1.33v-3.79h-1V8026h1v-1.44l1-.14V8026h1.66l-0.08.84h-1.57v3.62c0,0.43.06,0.65,0.6,0.65a3.72,3.72,0,0,0,.94-0.14Z" transform="translate(-9137.25 -7931.48)"/><path class="cls-1" d="M9498.22,8026v4.46a0.48,0.48,0,0,0,.56.54,5.44,5.44,0,0,0,2-.59V8026h1v5.84h-0.82l-0.1-.5a6.33,6.33,0,0,1-2.35.62,1.23,1.23,0,0,1-1.27-1.49V8026h1Z" transform="translate(-9137.25 -7931.48)"/><path class="cls-1" d="M9507.31,8031.8v-4.46a0.48,0.48,0,0,0-.56-0.54,5.46,5.46,0,0,0-2,.59v4.41h-1V8026h0.82l0.1,0.5a6.35,6.35,0,0,1,2.35-.62,1.23,1.23,0,0,1,1.27,1.49v4.47h-1Z" transform="translate(-9137.25 -7931.48)"/><path class="cls-1" d="M9510.3,8025v-1.45h1V8025h-1Zm0,6.78V8026h1v5.84h-1Z" transform="translate(-9137.25 -7931.48)"/><path class="cls-1" d="M9516.39,8031.71a3.64,3.64,0,0,1-1.22.22,1.19,1.19,0,0,1-1.45-1.33v-3.79h-1V8026h1v-1.44l1-.14V8026h1.66l-0.08.84h-1.57v3.62c0,0.43.06,0.65,0.6,0.65a3.72,3.72,0,0,0,.94-0.14Z" transform="translate(-9137.25 -7931.48)"/><path class="cls-1" d="M9519.41,8031.8H9519l-1.9-5.84h1l1.59,5,1.62-5h1l-1.93,5.84-0.83,2.36h-0.95Z" transform="translate(-9137.25 -7931.48)"/><path class="cls-1" d="M9522.85,8030.43h1v1.38h-1v-1.38Z" transform="translate(-9137.25 -7931.48)"/></svg>