<svg id="Layer_2" data-name="Layer 2" xmlns="http://www.w3.org/2000/svg" viewBox="0 0 420.67 113.53"><defs><style>.cls-1,.cls-2{fill:#fff;}.cls-2{opacity:0.75;}</style></defs><title>workstyle-logo</title><path class="cls-1" d="M11032.75,5588.39l-9.69-33.92-9.69,33.92h-8.87l-8.54-40h6.57l6.65,33.18,9.69-33.18h8.38l9.69,33.18,6.65-33.18h6.57l-8.54,40h-8.87Z" transform="translate(-10886.44 -5492.07)"/><path class="cls-1" d="M11070.38,5589.21c-11.66,0-16.26-6.65-16.26-15V5562.6c0-8.38,4.6-15,16.26-15s16.26,6.65,16.26,15v11.58C11086.64,5582.56,11082,5589.21,11070.38,5589.21Zm0-35.65c-6.24,0-9.36,3-9.36,8.79v12.07c0,5.83,3.12,8.79,9.36,8.79s9.36-3,9.36-8.79v-12.07C11079.74,5556.52,11076.62,5553.56,11070.38,5553.56Z" transform="translate(-10886.44 -5492.07)"/><path class="cls-1" d="M11112.27,5553.89a87.71,87.71,0,0,0-11.42,6.9v27.6h-6.9v-40h6l0.41,5.58a51,51,0,0,1,11-6.41Z" transform="translate(-10886.44 -5492.07)"/><path class="cls-1" d="M11120.66,5588.39V5532l6.9-1v57.33h-6.9Zm30.72-40-14.29,19.79,14.95,20.2h-8.13l-14.62-20.2,14.13-19.79h8Z" transform="translate(-10886.44 -5492.07)"/><path class="cls-2" d="M11171,5589.21a34.1,34.1,0,0,1-11.74-2.05l0.82-3.86a39.23,39.23,0,0,0,10.59,1.64c7.39,0,8.87-1.4,8.87-6.49,0-5.75-.17-6.32-9.28-8.46-10-2.38-10.84-4.85-10.84-12.16,0-6.65,3.2-10.27,13.06-10.27a45.08,45.08,0,0,1,11.34,1.4l-0.49,4a63.65,63.65,0,0,0-11.17-1.15c-7,0-8,1.81-8,6.16,0,5.5.33,6.08,7.72,8,11.74,3,12.4,4.85,12.4,12.32C11184.32,5585.51,11181.69,5589.21,11171,5589.21Z" transform="translate(-10886.44 -5492.07)"/><path class="cls-2" d="M11216.52,5587.65a24.51,24.51,0,0,1-8.38,1.56c-6.33,0-9-2.3-9-8.62V5552.5h-7.72v-4.11h7.72v-9.44l4.76-.66v10.1h12.24l-0.49,4.11h-11.74v27.6c0,3.53.49,5,4.6,5a24.93,24.93,0,0,0,7.15-1.15Z" transform="translate(-10886.44 -5492.07)"/><path class="cls-2" d="M11243.31,5588.39l-5.91,16.18h-4.68l6-16.18H11236l-13.55-40h4.85l12.32,36.63,12.4-36.63h4.85Z" transform="translate(-10886.44 -5492.07)"/><path class="cls-2" d="M11264.35,5588.39V5532l4.76-.66v57h-4.76Z" transform="translate(-10886.44 -5492.07)"/><path class="cls-2" d="M11292.82,5585a50.69,50.69,0,0,0,12.65-1.89l0.82,3.86a44.17,44.17,0,0,1-13.8,2.22c-11.25,0-14.87-5.83-14.87-14.54v-12.57c0-8.21,3.7-14.54,14.95-14.54s14.54,6.32,14.54,14.54v7.72h-24.72v5C11282.4,5582,11284.86,5585,11292.82,5585Zm-10.43-19.46h20v-3.61c0-6.73-2.38-10.27-9.85-10.27s-10.18,3.53-10.18,10.27v3.61Z" transform="translate(-10886.44 -5492.07)"/><circle id="_Path_" data-name="&lt;Path&gt;" class="cls-1" cx="10909.14" cy="5507.72" r="11.9" transform="matrix(0.86, -0.51, 0.51, 0.86, -12173.69, 785.4)"/><circle id="_Path_2" data-name="&lt;Path&gt;" class="cls-1" cx="10907.53" cy="5536.22" r="6.9" transform="translate(-5606.01 10905.09) rotate(-89.52)"/><circle id="_Path_3" data-name="&lt;Path&gt;" class="cls-1" cx="10928.66" cy="5524.78" r="8.97" transform="translate(-12179.64 797.62) rotate(-30.4)"/><circle id="_Path_4" data-name="&lt;Path&gt;" class="cls-1" cx="10941.25" cy="5505.14" r="6.44" transform="matrix(0.86, -0.51, 0.51, 0.86, -12167.96, 801.29)"/><circle id="_Path_5" data-name="&lt;Path&gt;" class="cls-1" cx="10927.34" cy="5495.83" r="3.76" transform="translate(-12165.16 792.98) rotate(-30.4)"/><circle id="_Path_6" data-name="&lt;Path&gt;" class="cls-1" cx="10891.47" cy="5525.32" r="5.03" transform="translate(-12185.02 778.88) rotate(-30.4)"/><path class="cls-1" d="M10973.79,5548.36l-14.13-35.68a1.85,1.85,0,0,0-3.53.65s-3.68,14-18.21,27.61c-16.73,15.71-44,8.5-44,8.5a1.85,1.85,0,0,0-1.53,2.08l7.11,39.64a1.85,1.85,0,0,0,1.31,1.52l36.22,12.85a1.85,1.85,0,0,0,2.37-1.77L10934,5582a1.85,1.85,0,0,1,1.64-1.83l26.71-2.29a1.85,1.85,0,0,0,1.63-1.89l-0.69-23.1a1.85,1.85,0,0,1,1.85-1.9h7A1.85,1.85,0,0,0,10973.79,5548.36Zm-16.29-2.66a6.17,6.17,0,1,1,2.2-8.44A6.17,6.17,0,0,1,10957.49,5545.69Z" transform="translate(-10886.44 -5492.07)"/></svg>