<svg id="Layer_2" data-name="Layer 2" xmlns="http://www.w3.org/2000/svg" viewBox="0 0 51.82 51.82"><defs><style>.cls-1,.cls-2{fill:none;stroke:#fff;stroke-linejoin:round;stroke-width:1.8px;}.cls-1{stroke-linecap:round;}</style></defs><title>headphones-icon</title><path class="cls-1" d="M11533.46,7237.7a4.35,4.35,0,1,1,0-8.7" transform="translate(-11528.21 -7206.35)"/><path class="cls-1" d="M11559.55,7254h4.35a7.61,7.61,0,0,0,7.61-7.61v-2.31" transform="translate(-11528.21 -7206.35)"/><circle class="cls-1" cx="28.08" cy="47.65" r="3.26"/><path class="cls-1" d="M11542.16,7244.22h-4.35a4.35,4.35,0,0,1-4.35-4.35v-13a4.35,4.35,0,0,1,4.35-4.35h4.35v21.75Z" transform="translate(-11528.21 -7206.35)"/><path class="cls-1" d="M11574.77,7237.7a4.35,4.35,0,0,0,0-8.7" transform="translate(-11528.21 -7206.35)"/><path class="cls-1" d="M11566.08,7244.22h4.35a4.35,4.35,0,0,0,4.35-4.35v-13a4.35,4.35,0,0,0-4.35-4.35h-4.35v21.75Z" transform="translate(-11528.21 -7206.35)"/><path class="cls-2" d="M11538.89,7222.48a15.22,15.22,0,1,1,30.44,0" transform="translate(-11528.21 -7206.35)"/></svg>