<svg id="Layer_2" data-name="Layer 2" xmlns="http://www.w3.org/2000/svg" viewBox="0 0 62.28 54.39"><defs><style>.cls-1{fill:none;stroke:#fff;stroke-linecap:round;stroke-linejoin:round;stroke-width:1.8px;}</style></defs><title>pig-icon</title><path class="cls-1" d="M11126.36,7214.09a19.67,19.67,0,0,1,13.15,3.9" transform="translate(-11096.53 -7202.62)"/><path class="cls-1" d="M11157.91,7223.24a5.26,5.26,0,0,1-5.26,5.26" transform="translate(-11096.53 -7202.62)"/><path class="cls-1" d="M11127.67,7207.47a29.29,29.29,0,0,0-6.45.74,9.18,9.18,0,0,0-12.61-3.44,9.2,9.2,0,0,1,4.51,6.67c-5.51,3.33-9.35,8.5-10.23,14.44h-5.45v10.52h7.09c3.71,7.71,12.67,13.15,23.15,13.15,13.8,0,25-9.42,25-21S11141.47,7207.47,11127.67,7207.47Z" transform="translate(-11096.53 -7202.62)"/><circle class="cls-1" cx="15.36" cy="21.93" r="1.31"/><line class="cls-1" x1="19.31" y1="44.98" x2="19.31" y2="53.49"/><line class="cls-1" x1="42.97" y1="44.9" x2="42.97" y2="53.49"/></svg>