<svg id="Layer_2" data-name="Layer 2" xmlns="http://www.w3.org/2000/svg" viewBox="0 0 650.29 175.5"><defs><style>.cls-1,.cls-2{fill:#fff;}.cls-2{opacity:0.75;}</style></defs><title>white-logo3</title><path class="cls-1" d="M8773.62,7428.69l-15-52.44-15,52.44h-13.71l-13.2-61.83h10.15l10.29,51.29,15-51.29h12.95l15,51.29,10.28-51.29h10.16l-13.2,61.83h-13.71Z" transform="translate(-8547.44 -7279.79)"/><path class="cls-1" d="M8831.79,7430c-18,0-25.14-10.28-25.14-23.24v-17.9c0-13,7.11-23.24,25.14-23.24s25.13,10.28,25.13,23.24v17.9C8856.92,7419.67,8849.81,7430,8831.79,7430Zm0-55.1c-9.65,0-14.47,4.57-14.47,13.58v18.66c0,9,4.82,13.58,14.47,13.58s14.47-4.57,14.47-13.58v-18.66C8846.26,7379.43,8841.43,7374.86,8831.79,7374.86Z" transform="translate(-8547.44 -7279.79)"/><path class="cls-1" d="M8896.54,7375.36a135.59,135.59,0,0,0-17.65,10.66v42.66h-10.67v-61.83h9.27l0.63,8.63a78.81,78.81,0,0,1,17-9.9Z" transform="translate(-8547.44 -7279.79)"/><path class="cls-1" d="M8909.5,7428.69v-87.1l10.67-1.52v88.62H8909.5Zm47.49-61.83-22.1,30.6,23.11,31.23h-12.57l-22.6-31.23,21.84-30.6H8957Z" transform="translate(-8547.44 -7279.79)"/><path class="cls-2" d="M8987.35,7430c-6.22,0-13.58-1.27-18.16-3.17l1.27-6a60.64,60.64,0,0,0,16.38,2.54c11.42,0,13.71-2.16,13.71-10,0-8.89-.26-9.78-14.35-13.08-15.49-3.68-16.76-7.49-16.76-18.79,0-10.28,5-15.87,20.19-15.87a69.68,69.68,0,0,1,17.52,2.16l-0.76,6.22a98.4,98.4,0,0,0-17.27-1.78c-10.79,0-12.32,2.79-12.32,9.52,0,8.51.51,9.4,11.94,12.32,18.16,4.57,19.17,7.49,19.17,19C9007.92,7424.25,9003.85,7430,8987.35,7430Z" transform="translate(-8547.44 -7279.79)"/><path class="cls-2" d="M9057.7,7427.55a37.88,37.88,0,0,1-12.95,2.41c-9.78,0-14-3.56-14-13.33v-43.42h-11.94v-6.35h11.94v-14.6l7.36-1v15.62h18.92l-0.76,6.35h-18.16v42.66c0,5.46.76,7.74,7.11,7.74a38.54,38.54,0,0,0,11-1.78Z" transform="translate(-8547.44 -7279.79)"/><path class="cls-2" d="M9099.11,7428.69l-9.14,25h-7.24l9.27-25h-4.19l-20.95-61.83h7.49l19,56.63,19.17-56.63h7.49Z" transform="translate(-8547.44 -7279.79)"/><path class="cls-2" d="M9131.62,7428.69v-87.1l7.36-1v88.11h-7.36Z" transform="translate(-8547.44 -7279.79)"/><path class="cls-2" d="M9175.65,7423.48a78.35,78.35,0,0,0,19.55-2.92l1.27,6a68.28,68.28,0,0,1-21.33,3.43c-17.39,0-23-9-23-22.47v-19.43c0-12.7,5.72-22.47,23.11-22.47s22.47,9.78,22.47,22.47V7400h-38.21v7.75C9159.53,7418.79,9163.33,7423.48,9175.65,7423.48Zm-16.12-30.09h31v-5.59c0-10.41-3.68-15.87-15.23-15.87s-15.74,5.46-15.74,15.87v5.59Z" transform="translate(-8547.44 -7279.79)"/><circle id="_Path_" data-name="&lt;Path&gt;" class="cls-1" cx="8582.53" cy="7304" r="18.39" transform="matrix(0.86, -0.51, 0.51, 0.86, -11063.51, -1932.69)"/><circle id="_Path_2" data-name="&lt;Path&gt;" class="cls-1" cx="8580.05" cy="7348.05" r="10.67" transform="translate(-7386.83 8586.66) rotate(-89.52)"/><circle id="_Path_3" data-name="&lt;Path&gt;" class="cls-1" cx="8612.7" cy="7330.37" r="13.86" transform="translate(-11072.7 -1913.8) rotate(-30.4)"/><circle id="_Path_4" data-name="&lt;Path&gt;" class="cls-1" cx="8632.17" cy="7299.99" r="9.96" transform="translate(-11054.66 -1908.12) rotate(-30.4)"/><circle id="_Path_5" data-name="&lt;Path&gt;" class="cls-1" cx="8610.67" cy="7285.6" r="5.81" transform="translate(-11050.33 -1920.98) rotate(-30.4)"/><circle id="_Path_6" data-name="&lt;Path&gt;" class="cls-1" cx="8555.21" cy="7331.19" r="7.77" transform="matrix(0.86, -0.51, 0.51, 0.86, -11081.02, -1942.77)"/><path class="cls-1" d="M8682.47,7366.81l-21.84-55.16a2.85,2.85,0,0,0-5.46,1s-5.69,21.6-28.14,42.68c-25.87,24.28-68,13.14-68,13.14a2.85,2.85,0,0,0-2.36,3.21l11,61.28a2.85,2.85,0,0,0,2,2.34l56,19.87a2.85,2.85,0,0,0,3.66-2.74l-8.41-33.68a2.85,2.85,0,0,1,2.53-2.84l41.28-3.54a2.85,2.85,0,0,0,2.53-2.92l-1.07-35.71a2.85,2.85,0,0,1,2.85-2.94h10.84A2.85,2.85,0,0,0,8682.47,7366.81Zm-25.19-4.12a9.54,9.54,0,1,1,3.4-13A9.54,9.54,0,0,1,8657.28,7362.69Z" transform="translate(-8547.44 -7279.79)"/></svg>