<svg id="Layer_2" data-name="Layer 2" xmlns="http://www.w3.org/2000/svg" viewBox="0 0 83.11 22.43"><defs><style>.cls-1,.cls-2{fill:#fff;}.cls-2{opacity:0.75;}</style></defs><title>white-logo2</title><path class="cls-1" d="M9070.13,7568.8l-1.91-6.7-1.92,6.7h-1.75l-1.69-7.9h1.3l1.31,6.56,1.91-6.56H9069l1.92,6.56,1.31-6.56h1.3l-1.69,7.9h-1.75Z" transform="translate(-9041.22 -7549.77)"/><path class="cls-1" d="M9077.56,7569c-2.3,0-3.21-1.31-3.21-3v-2.29c0-1.66.91-3,3.21-3s3.21,1.31,3.21,3V7566C9080.78,7567.65,9079.87,7569,9077.56,7569Zm0-7a1.59,1.59,0,0,0-1.85,1.74V7566a1.85,1.85,0,0,0,3.7,0v-2.39A1.59,1.59,0,0,0,9077.56,7561.92Z" transform="translate(-9041.22 -7549.77)"/><path class="cls-1" d="M9085.84,7562a17.33,17.33,0,0,0-2.26,1.36v5.45h-1.36v-7.9h1.18l0.08,1.1a10.07,10.07,0,0,1,2.17-1.27Z" transform="translate(-9041.22 -7549.77)"/><path class="cls-1" d="M9087.5,7568.8v-11.13l1.36-.19v11.33h-1.36Zm6.07-7.9-2.82,3.91,3,4h-1.61l-2.89-4,2.79-3.91h1.57Z" transform="translate(-9041.22 -7549.77)"/><path class="cls-2" d="M9097.44,7569a6.74,6.74,0,0,1-2.32-.41l0.16-.76a7.75,7.75,0,0,0,2.09.32c1.46,0,1.75-.28,1.75-1.28s0-1.25-1.83-1.67c-2-.47-2.14-1-2.14-2.4s0.63-2,2.58-2a8.91,8.91,0,0,1,2.24.28l-0.1.8a12.58,12.58,0,0,0-2.21-.23c-1.38,0-1.57.36-1.57,1.22,0,1.09.07,1.2,1.53,1.57,2.32,0.58,2.45,1,2.45,2.43S9099.55,7569,9097.44,7569Z" transform="translate(-9041.22 -7549.77)"/><path class="cls-2" d="M9106.44,7568.66a4.84,4.84,0,0,1-1.65.31c-1.25,0-1.79-.45-1.79-1.7v-5.55h-1.53v-0.81H9103V7559l0.94-.13v2h2.42l-0.1.81h-2.32v5.45c0,0.7.1,1,.91,1a4.93,4.93,0,0,0,1.41-.23Z" transform="translate(-9041.22 -7549.77)"/><path class="cls-2" d="M9111.73,7568.8l-1.17,3.2h-0.92l1.18-3.2h-0.54l-2.68-7.9h1l2.43,7.24,2.45-7.24h1Z" transform="translate(-9041.22 -7549.77)"/><path class="cls-2" d="M9115.88,7568.8v-11.13l0.94-.13v11.26h-0.94Z" transform="translate(-9041.22 -7549.77)"/><path class="cls-2" d="M9121.51,7568.14a10,10,0,0,0,2.5-.37l0.16,0.76a8.73,8.73,0,0,1-2.73.44c-2.22,0-2.94-1.15-2.94-2.87v-2.48c0-1.62.73-2.87,3-2.87s2.87,1.25,2.87,2.87v1.53h-4.88v1C9119.45,7567.54,9119.94,7568.14,9121.51,7568.14Zm-2.06-3.85h4v-0.71c0-1.33-.47-2-1.95-2a1.74,1.74,0,0,0-2,2v0.71Z" transform="translate(-9041.22 -7549.77)"/><circle id="_Path_" data-name="&lt;Path&gt;" class="cls-1" cx="9045.71" cy="7552.87" r="2.35" transform="matrix(0.86, -0.51, 0.51, 0.86, -11619.54, -1934.08)"/><circle id="_Path_2" data-name="&lt;Path&gt;" class="cls-1" cx="9045.39" cy="7558.5" r="1.36" transform="translate(-7629.59 8990.69) rotate(-89.52)"/><circle id="_Path_3" data-name="&lt;Path&gt;" class="cls-1" cx="9049.56" cy="7556.24" r="1.77" transform="translate(-11620.72 -1931.66) rotate(-30.4)"/><circle id="_Path_4" data-name="&lt;Path&gt;" class="cls-1" cx="9052.05" cy="7552.35" r="1.27" transform="translate(-11618.41 -1930.94) rotate(-30.4)"/><circle id="_Path_5" data-name="&lt;Path&gt;" class="cls-1" cx="9049.3" cy="7550.52" r="0.74" transform="translate(-11617.86 -1932.58) rotate(-30.4)"/><circle id="_Path_6" data-name="&lt;Path&gt;" class="cls-1" cx="9042.22" cy="7556.34" r="0.99" transform="translate(-11621.78 -1935.37) rotate(-30.4)"/><path class="cls-1" d="M9058.48,7560.89l-2.79-7a0.36,0.36,0,0,0-.7.13,12.83,12.83,0,0,1-3.6,5.45c-3.31,3.1-8.7,1.68-8.7,1.68a0.36,0.36,0,0,0-.3.41l1.41,7.83a0.36,0.36,0,0,0,.26.3l7.16,2.54a0.36,0.36,0,0,0,.47-0.35l-1.07-4.3a0.36,0.36,0,0,1,.32-0.36l5.28-.45a0.36,0.36,0,0,0,.32-0.37l-0.14-4.56a0.36,0.36,0,0,1,.36-0.38h1.39A0.36,0.36,0,0,0,9058.48,7560.89Zm-3.22-.53a1.22,1.22,0,1,1,.43-1.67A1.22,1.22,0,0,1,9055.26,7560.37Z" transform="translate(-9041.22 -7549.77)"/></svg>