<svg id="Layer_2" data-name="Layer 2" xmlns="http://www.w3.org/2000/svg" viewBox="0 0 108.51 29.29"><defs><style>.cls-1,.cls-2{fill:#fff;}.cls-2{opacity:0.75;}</style></defs><title>white-logo</title><path class="cls-1" d="M10924.18,5513l-2.5-8.75-2.5,8.75h-2.29l-2.2-10.32h1.69l1.72,8.56,2.5-8.56h2.16l2.5,8.56,1.72-8.56h1.7l-2.2,10.32h-2.29Z" transform="translate(-10886.44 -5488.16)"/><path class="cls-1" d="M10933.89,5513.22c-3,0-4.2-1.72-4.2-3.88v-3c0-2.16,1.19-3.88,4.2-3.88s4.19,1.72,4.19,3.88v3C10938.08,5511.51,10936.9,5513.22,10933.89,5513.22Zm0-9.19c-1.61,0-2.42.76-2.42,2.27v3.11c0,1.5.8,2.27,2.42,2.27s2.42-.76,2.42-2.27v-3.11C10936.3,5504.79,10935.5,5504,10933.89,5504Z" transform="translate(-10886.44 -5488.16)"/><path class="cls-1" d="M10944.69,5504.11a22.63,22.63,0,0,0-2.95,1.78V5513H10940v-10.32h1.55l0.11,1.44a13.15,13.15,0,0,1,2.84-1.65Z" transform="translate(-10886.44 -5488.16)"/><path class="cls-1" d="M10946.86,5513v-14.53l1.78-.25V5513h-1.78Zm7.92-10.32-3.69,5.11,3.86,5.21h-2.1l-3.77-5.21,3.64-5.11h2.06Z" transform="translate(-10886.44 -5488.16)"/><path class="cls-2" d="M10959.85,5513.22a8.8,8.8,0,0,1-3-.53l0.21-1a10.12,10.12,0,0,0,2.73.42c1.91,0,2.29-.36,2.29-1.67,0-1.48,0-1.63-2.39-2.18-2.59-.61-2.8-1.25-2.8-3.14,0-1.72.83-2.65,3.37-2.65a11.63,11.63,0,0,1,2.92.36l-0.13,1a16.42,16.42,0,0,0-2.88-.3c-1.8,0-2.06.47-2.06,1.59,0,1.42.09,1.57,2,2.06,3,0.76,3.2,1.25,3.2,3.18S10962.6,5513.22,10959.85,5513.22Z" transform="translate(-10886.44 -5488.16)"/><path class="cls-2" d="M10971.59,5512.82a6.32,6.32,0,0,1-2.16.4c-1.63,0-2.33-.59-2.33-2.22v-7.25h-2v-1.06h2v-2.44l1.23-.17v2.61h3.16l-0.13,1.06h-3v7.12c0,0.91.13,1.29,1.19,1.29a6.43,6.43,0,0,0,1.84-.3Z" transform="translate(-10886.44 -5488.16)"/><path class="cls-2" d="M10978.5,5513l-1.53,4.17h-1.21l1.55-4.17h-0.7l-3.5-10.32h1.25l3.18,9.45,3.2-9.45h1.25Z" transform="translate(-10886.44 -5488.16)"/><path class="cls-2" d="M10983.92,5513v-14.53l1.23-.17V5513h-1.23Z" transform="translate(-10886.44 -5488.16)"/><path class="cls-2" d="M10991.27,5512.14a13.07,13.07,0,0,0,3.26-.49l0.21,1a11.39,11.39,0,0,1-3.56.57c-2.9,0-3.84-1.5-3.84-3.75v-3.24c0-2.12,1-3.75,3.86-3.75s3.75,1.63,3.75,3.75v2h-6.38v1.29C10988.58,5511.36,10989.22,5512.14,10991.27,5512.14Zm-2.69-5h5.17v-0.93c0-1.74-.61-2.65-2.54-2.65s-2.63.91-2.63,2.65v0.93Z" transform="translate(-10886.44 -5488.16)"/><circle id="_Path_" data-name="&lt;Path&gt;" class="cls-1" cx="10892.3" cy="5492.2" r="3.07" transform="translate(-12168.15 778.65) rotate(-30.4)"/><circle id="_Path_2" data-name="&lt;Path&gt;" class="cls-1" cx="10891.88" cy="5499.55" r="1.78" transform="matrix(0.01, -1, 1, 0.01, -5584.86, 10856.98)"/><circle id="_Path_3" data-name="&lt;Path&gt;" class="cls-1" cx="10897.33" cy="5496.6" r="2.31" transform="translate(-12169.68 781.8) rotate(-30.4)"/><circle id="_Path_4" data-name="&lt;Path&gt;" class="cls-1" cx="10900.58" cy="5491.53" r="1.66" transform="translate(-12166.67 782.75) rotate(-30.4)"/><circle id="_Path_5" data-name="&lt;Path&gt;" class="cls-1" cx="10896.99" cy="5489.13" r="0.97" transform="matrix(0.86, -0.51, 0.51, 0.86, -12165.95, 780.6)"/><circle id="_Path_6" data-name="&lt;Path&gt;" class="cls-1" cx="10887.74" cy="5496.74" r="1.3" transform="translate(-12171.07 776.96) rotate(-30.4)"/><path class="cls-1" d="M10909,5502.68l-3.64-9.2a0.48,0.48,0,0,0-.91.17,16.76,16.76,0,0,1-4.7,7.12c-4.32,4.05-11.35,2.19-11.35,2.19a0.48,0.48,0,0,0-.39.54l1.83,10.23a0.48,0.48,0,0,0,.34.39l9.34,3.32a0.48,0.48,0,0,0,.61-0.46l-1.4-5.62a0.48,0.48,0,0,1,.42-0.47l6.89-.59a0.48,0.48,0,0,0,.42-0.49l-0.18-6a0.48,0.48,0,0,1,.48-0.49h1.81A0.48,0.48,0,0,0,10909,5502.68Zm-4.2-.69a1.59,1.59,0,1,1,.57-2.18A1.59,1.59,0,0,1,10904.77,5502Z" transform="translate(-10886.44 -5488.16)"/></svg>